<svg width="26" height="31" viewBox="0 0 26 31" fill="none" xmlns="http://www.w3.org/2000/svg">
<path d="M25.9958 18.3025C25.9982 17.665 25.9141 15.2601 25.8499 14.5723C25.1106 6.67841 19.7371 0.949219 13.0738 0.949219C6.13341 0.949219 0.510119 7.32553 0.128625 15.7803C0.1205 15.9648 0.063625 17.2741 0.0595625 18.0535L0.0575313 18.487C0.0242188 18.6662 0.00390625 18.8512 0.00390625 19.0421V27.4779C0.00390625 28.8972 0.972 30.0514 2.16231 30.0514H4.35322C5.54353 30.0514 6.51201 28.8972 6.51201 27.4779V19.0426C6.51201 17.6233 5.5431 16.4691 4.35319 16.4691H2.16147C2.01492 16.4691 1.86874 16.4868 1.72516 16.5219C1.73735 16.2075 1.74832 15.9591 1.75116 15.8845C2.08594 8.47401 7.01048 2.88675 13.0738 2.88675C18.8953 2.88675 23.5887 7.89228 24.2347 14.7878C24.2623 15.0756 24.2972 15.807 24.3253 16.5413C24.1668 16.4977 24.0051 16.4691 23.8369 16.4691H21.6716C20.4813 16.4691 19.5132 17.6233 19.5132 19.0426V27.4484C19.5132 28.868 20.4813 30.0218 21.6716 30.0218H23.8369C25.0273 30.0218 25.9958 28.8676 25.9958 27.4484V19.0426C25.9958 18.8847 25.9795 18.7311 25.9559 18.5819C25.9795 18.4928 25.9949 18.3998 25.9958 18.3024V18.3025ZM2.1615 18.4066H4.35241C4.64694 18.4066 4.88619 18.6914 4.88619 19.0426V27.4784C4.88619 27.8301 4.64651 28.1144 4.35238 28.1144H2.16147C1.86694 28.1144 1.62807 27.8296 1.62807 27.4784V19.0426C1.62888 18.6914 1.86776 18.4066 2.1615 18.4066ZM24.3708 27.4479C24.3708 27.7991 24.1311 28.0839 23.837 28.0839H21.6717C21.3772 28.0839 21.1383 27.7991 21.1383 27.4479V19.0426C21.1383 18.6914 21.3772 18.4066 21.6717 18.4066H23.837C24.1315 18.4066 24.3708 18.6914 24.3708 19.0426V27.4479Z" fill="#4BC7C1"/>
</svg>
