<svg width="21" height="22" viewBox="0 0 21 22" fill="none" xmlns="http://www.w3.org/2000/svg">
<path d="M20.5021 3.8431L17.1321 0.473116C16.9826 0.323147 16.8049 0.204161 16.6093 0.122976C16.4136 0.0417898 16.2039 0 15.9921 0C15.7803 0 15.5706 0.0417898 15.375 0.122976C15.1794 0.204161 15.0017 0.323147 14.8521 0.473116L1.14213 14.2631L0.0321258 19.073C-0.0151628 19.3062 -0.0101916 19.5469 0.0466827 19.7779C0.103557 20.0089 0.21092 20.2245 0.36105 20.409C0.51118 20.5936 0.700346 20.7426 0.91494 20.8453C1.12953 20.948 1.36422 21.0019 1.60213 21.003C1.72509 21.0166 1.84916 21.0166 1.97213 21.003L6.82213 19.933L20.5021 6.12309C20.6521 5.97353 20.7711 5.79585 20.8523 5.60023C20.9335 5.40461 20.9753 5.19489 20.9753 4.9831C20.9753 4.7713 20.9335 4.56158 20.8523 4.36596C20.7711 4.17034 20.6521 3.99266 20.5021 3.8431ZM5.78213 18.083L2.12213 18.893L2.97213 15.2631L13.2921 4.8731L16.1121 7.69308L5.78213 18.083ZM17.2421 6.56309L14.4221 3.7431L15.9721 2.16311L18.8121 5.0031L17.2421 6.56309Z" fill="#4BC7C1"/>
</svg>
