<svg width="181" height="213" viewBox="0 0 181 213" fill="none" xmlns="http://www.w3.org/2000/svg">
<path d="M51.7 50.4525C61.463 48.4836 68.4303 40.3354 67.2618 32.2531C66.0933 24.1709 57.2315 19.215 47.4685 21.1839C37.7055 23.1529 30.7383 31.301 31.9068 39.3833C33.0752 47.4656 41.937 52.4215 51.7 50.4525Z" fill="#4BC7C1"/>
<path opacity="0.3" d="M51.7 50.4525C61.463 48.4836 68.4303 40.3354 67.2618 32.2531C66.0933 24.1709 57.2315 19.215 47.4685 21.1839C37.7055 23.1529 30.7383 31.301 31.9068 39.3833C33.0752 47.4656 41.937 52.4215 51.7 50.4525Z" fill="white"/>
<path d="M81.5152 36.2734C82.5972 38.9103 80.8659 42.5058 77.6774 44.3077C74.489 46.1097 71.0444 45.4239 69.9768 42.7869C68.9091 40.15 70.6296 36.5503 73.8145 34.7526C76.9993 32.9548 80.4331 33.6535 81.5152 36.2734Z" fill="#4BC7C1"/>
<path opacity="0.5" d="M81.5152 36.2734C82.5972 38.9103 80.8659 42.5058 77.6774 44.3077C74.489 46.1097 71.0444 45.4239 69.9768 42.7869C68.9091 40.15 70.6296 36.5503 73.8145 34.7526C76.9993 32.9548 80.4331 33.6535 81.5152 36.2734Z" fill="white"/>
<path d="M87.2184 46.7059C87.5286 48.2864 86.2265 49.9904 84.3149 50.5101C82.4032 51.0298 80.6034 50.1693 80.2968 48.5846C79.9902 46.9998 81.2887 45.3001 83.1823 44.7804C85.0759 44.2607 86.9262 45.1212 87.2184 46.7059Z" fill="#4BC7C1"/>
<path opacity="0.6" d="M87.2184 46.7059C87.5286 48.2864 86.2265 49.9904 84.3149 50.5101C82.4032 51.0298 80.6034 50.1693 80.2968 48.5846C79.9902 46.9998 81.2887 45.3001 83.1823 44.7804C85.0759 44.2607 86.9262 45.1212 87.2184 46.7059Z" fill="white"/>
<path d="M46.1971 48.0904C45.9735 48.0904 45.7499 48.0904 45.5298 48.052C44.8866 48.0305 44.2655 47.7696 43.7553 47.3065C43.4599 46.9981 43.2615 46.5807 43.1926 46.1222C42.785 46.1222 42.3774 46.0882 41.9662 46.0626C41.0645 45.9987 40.1304 45.8794 39.4739 45.1637C39.2771 44.9437 39.119 44.6799 39.0088 44.3874C38.8987 44.095 38.8385 43.7797 38.8319 43.4597C38.465 43.3485 38.1238 43.1421 37.833 42.8554C37.5422 42.5687 37.3093 42.2091 37.1511 41.8026C37.0379 41.4481 36.9896 41.0692 37.0095 40.691C37.0294 40.3128 37.117 39.944 37.2665 39.6087C36.8713 39.2528 36.5183 38.8358 36.2169 38.369C35.5779 37.3521 35.2452 36.112 35.2719 34.846C35.0914 34.7466 34.9469 34.5744 34.8643 34.3604C34.72 33.9344 34.904 33.4573 35.3837 32.9929C35.4811 32.8949 35.5857 32.797 35.6867 32.7032C35.9736 31.9658 36.3907 31.3094 36.9102 30.7781C37.4297 30.2469 38.0394 29.8531 38.6984 29.6233C39.7805 29.2569 40.9094 29.3591 42.0059 29.4614H42.06C42.8599 29.2853 43.6681 29.1672 44.4802 29.1078C44.9351 28.9831 45.4036 28.9428 45.8689 28.9885C46.3379 28.734 46.7394 28.3334 47.0303 27.8298C47.1768 27.5583 47.3046 27.2734 47.4126 26.9778C47.5244 26.6613 47.6583 26.3564 47.813 26.0662C48.4839 24.8776 49.7859 24.2003 51.6904 24.0512C53.9483 23.8808 55.777 24.3409 57.1259 25.4186C57.6357 25.8213 58.0712 26.3415 58.4064 26.948C59.0823 26.9931 59.751 27.1361 60.3974 27.374C61.3099 27.685 63.4343 28.6307 63.4235 30.6883C63.3828 31.3417 63.2163 31.9755 62.9366 32.5414L62.1828 34.3732C62.2214 34.606 62.2371 34.8432 62.2296 35.0803C62.3736 35.15 62.5134 35.2311 62.648 35.3231C63.2612 35.7491 63.896 36.5117 63.8455 37.4531C63.8131 38.0666 63.4848 38.6587 62.8897 39.2509C62.1368 39.9706 61.282 40.5273 60.3649 40.8952C60.0749 41.5548 59.737 42.1833 59.355 42.7739C58.6156 43.9156 57.382 45.3895 55.7048 45.922C54.6442 46.27 53.5119 46.1409 52.5272 45.5599C52.2062 45.8113 51.8851 46.0328 51.593 46.2202C49.6453 47.4641 47.8454 48.0904 46.1971 48.0904ZM43.5136 46.1222C43.5805 46.4702 43.7382 46.7846 43.9645 47.0211C44.4241 47.4332 44.9818 47.6641 45.5587 47.6814C47.3188 47.8688 49.2882 47.2554 51.4163 45.8965C51.6615 45.7388 51.9284 45.5599 52.1953 45.3554C51.9004 45.1302 51.6365 44.8529 51.4126 44.5333C51.2893 44.3691 51.1992 44.1739 51.1493 43.9624C50.6768 44.0476 50.2007 44.1115 49.7246 44.1584C48.9827 44.561 48.1994 44.8474 47.3946 45.0104C47.0184 45.2944 46.6137 45.5219 46.1899 45.6877C45.3229 45.999 44.4195 46.1457 43.5136 46.1222ZM44.0763 44.8102C43.8768 44.9207 43.7107 45.1006 43.6002 45.3256C43.5393 45.4571 43.5024 45.6022 43.492 45.7516C44.3723 45.7704 45.2497 45.6267 46.0925 45.3256C46.2404 45.266 46.3919 45.1978 46.547 45.1169C45.7145 45.1924 44.8773 45.0885 44.0763 44.8102ZM39.1529 43.5748C39.1869 44.0773 39.3786 44.5467 39.6903 44.8911C40.2674 45.5216 41.1331 45.6281 41.9843 45.6877C42.3846 45.7133 42.7814 45.7388 43.1745 45.7474C43.1851 45.5366 43.2357 45.3313 43.3224 45.1467C43.4101 44.9524 43.5333 44.7836 43.6831 44.6525C43.5424 44.5886 43.4054 44.5205 43.2719 44.4438V44.4992C43.2368 44.6369 43.1727 44.7618 43.0857 44.8624C42.9987 44.9629 42.8915 45.0358 42.7742 45.0743C42.614 45.1356 42.4438 45.1509 42.2775 45.1191C42.1113 45.0872 41.9539 45.0091 41.8184 44.8911C41.4778 44.5304 41.2482 44.0465 41.1655 43.5151C40.7394 43.645 40.2996 43.7009 39.8598 43.6813C39.622 43.6699 39.3855 43.6342 39.1529 43.5748ZM52.7977 45.3214C53.6785 45.7836 54.6681 45.8694 55.5966 45.5642C57.1872 45.0615 58.3667 43.6472 59.0772 42.5524C59.3803 42.0829 59.6551 41.589 59.8996 41.0741C59.4812 41.2275 59.0556 41.3596 58.6228 41.4703C58.0158 42.0686 57.2978 42.4889 56.5272 42.6972C55.8425 42.9154 55.146 43.0777 54.4424 43.1828C54.3285 43.4247 54.202 43.6581 54.0637 43.8815C53.7064 44.435 53.2795 44.9205 52.7977 45.3214ZM51.4631 43.8985C51.5041 44.0464 51.5704 44.1827 51.6579 44.299C51.89 44.6295 52.1696 44.9093 52.4839 45.1254C52.9889 44.724 53.4358 44.2292 53.8076 43.66C53.8942 43.5236 53.9735 43.3831 54.0493 43.234L53.3676 43.3106C52.7477 43.5688 52.1107 43.7655 51.4631 43.8985ZM41.4793 43.4086C41.5468 43.8641 41.738 44.2813 42.024 44.5972C42.1191 44.6767 42.2284 44.7292 42.3436 44.7506C42.4587 44.772 42.5764 44.7618 42.6876 44.7207C42.7544 44.6986 42.8156 44.6575 42.8659 44.6011C42.9162 44.5447 42.9541 44.4746 42.9762 44.3969C42.9872 44.3539 42.9944 44.3096 42.9978 44.2649C42.6706 44.0555 42.3625 43.8071 42.0781 43.5236C41.9879 43.4342 41.9013 43.3405 41.8184 43.2467C41.6957 43.3064 41.5803 43.3575 41.4793 43.4086ZM44.6822 44.5844C45.5541 44.7854 46.4494 44.8012 47.3261 44.6312C47.451 44.5324 47.5714 44.4257 47.6867 44.3117H47.5749C46.7886 44.3586 45.9771 44.4055 45.1944 44.4949C45.0175 44.5119 44.8416 44.5418 44.6678 44.5844H44.6822ZM48.1809 44.2819L48.0186 44.4651C48.2314 44.4012 48.4478 44.333 48.657 44.2521L48.1809 44.2819ZM43.3224 44.0348C43.5702 44.1799 43.8271 44.3024 44.0907 44.4012C44.4383 44.2483 44.8027 44.1551 45.1728 44.1243C45.9591 44.0348 46.7778 43.988 47.5677 43.9454L48.0546 43.9156C48.1864 43.7434 48.307 43.5597 48.4153 43.366C46.891 43.2998 45.3647 43.3468 43.8454 43.5066C43.7602 43.502 43.6751 43.5177 43.5952 43.5529C43.5152 43.588 43.4421 43.6418 43.3801 43.7111C43.3313 43.8091 43.3064 43.9211 43.308 44.0348H43.3224ZM48.7868 43.3745C48.6942 43.553 48.593 43.7251 48.4839 43.89C48.8734 43.8644 49.2629 43.8346 49.6489 43.792C49.8725 43.6727 50.0853 43.5449 50.2945 43.4044C49.8328 43.4044 49.3748 43.4044 48.9167 43.3788L48.7868 43.3745ZM42.1141 43.0636L42.28 43.234C42.5048 43.4618 42.7462 43.6656 43.0014 43.8431C43.0123 43.7212 43.0482 43.6042 43.106 43.5023C43.1903 43.3839 43.2958 43.2892 43.415 43.2251C43.5342 43.161 43.664 43.1291 43.7949 43.1317C45.3876 42.9693 46.9874 42.9238 48.5849 42.9954C48.6605 42.8277 48.7233 42.6524 48.7724 42.4714C48.4353 42.5968 48.0864 42.6726 47.7336 42.6972C46.1058 42.8693 44.4655 42.7603 42.8644 42.3734C42.6324 42.637 42.3759 42.8685 42.0997 43.0636H42.1141ZM50.8969 43.4086L50.8428 43.4512L50.5109 43.6898C50.7309 43.66 50.9474 43.6216 51.1638 43.579C51.1757 43.5204 51.1927 43.4633 51.2143 43.4086H50.8969ZM51.6182 43.4086C51.5915 43.4388 51.5685 43.4732 51.5497 43.5109L52.0114 43.4001L51.6182 43.4086ZM39.1781 43.1956C39.4149 43.2615 39.6565 43.3 39.8995 43.3106C40.3112 43.3301 40.7232 43.2784 41.1222 43.1573C41.0465 42.7611 40.9708 42.3053 40.9058 41.8495L40.8409 41.7174C40.4802 41.5726 40.1448 41.4192 39.8021 41.2488C39.4507 41.7926 39.2358 42.4421 39.1817 43.1232C39.1817 43.1232 39.1457 43.1658 39.1457 43.1914L39.1781 43.1956ZM37.5118 39.8302C37.3917 40.1123 37.3223 40.4206 37.308 40.7359C37.2937 41.0511 37.3349 41.3664 37.4288 41.662C37.5624 42.0058 37.7577 42.3112 38.0013 42.5569C38.2448 42.8026 38.5307 42.9827 38.8391 43.0849C38.8922 42.3655 39.1118 41.6772 39.4739 41.0954C39.3152 41.0145 39.1637 40.9293 39.0086 40.8398C38.4864 40.5538 37.9857 40.216 37.5118 39.8302ZM41.3134 42.5992C41.3387 42.7483 41.3675 42.8932 41.3928 43.0252L41.5659 42.9443C41.4793 42.8463 41.3928 42.7313 41.3134 42.5992ZM48.9347 42.9954C49.5479 42.9954 50.1683 43.0252 50.7887 43.0252C51.4256 42.5229 52.022 41.9525 52.5704 41.3212C52.2926 41.2609 52.018 41.1813 51.7481 41.0827C51.1762 40.8802 50.6328 40.5788 50.1358 40.1881C50.1296 40.5711 50.0517 40.9477 49.9077 41.291C49.7636 41.6342 49.557 41.9355 49.3026 42.1732L49.1511 42.2925C49.0986 42.5442 49.0261 42.7895 48.9347 43.0252V42.9954ZM52.9672 41.3894C52.4655 41.9852 51.9239 42.5323 51.3477 43.0252H51.4559C51.6706 42.829 51.9156 42.6843 52.1773 42.5992C52.9696 42.3119 53.7768 42.0857 54.5939 41.9219C54.6841 41.662 54.767 41.3894 54.85 41.1082C54.256 41.4037 53.6054 41.5038 52.9672 41.3979V41.3894ZM54.4424 42.3223C53.7048 42.4758 52.976 42.6835 52.2603 42.9443L52.1124 43.0082C52.5091 43.0082 52.9023 42.9698 53.299 42.9358C53.6911 42.7661 54.0721 42.5624 54.4388 42.3266L54.4424 42.3223ZM41.2773 41.8963C41.4486 42.216 41.6455 42.5156 41.8653 42.7909C42.0861 42.6457 42.294 42.4744 42.4856 42.2797C42.0781 42.1732 41.6741 42.0369 41.2773 41.892V41.8963ZM54.6877 42.5992L54.6155 42.7781C55.2308 42.6812 55.8404 42.5389 56.4406 42.3521C56.945 42.1995 57.4301 41.9689 57.8834 41.6663C57.2991 41.7941 56.7147 41.9048 56.1304 42.0156L55.2684 42.1775L55.0772 42.3308C54.951 42.416 54.8247 42.5098 54.6877 42.5992ZM43.1277 42.0539C44.6352 42.3962 46.1758 42.4879 47.7048 42.3266C48.1054 42.3065 48.4999 42.2027 48.8698 42.0199C48.9448 41.4204 48.9581 40.8125 48.9095 40.2094C48.9095 40.0049 48.9095 39.7834 48.8842 39.5959C48.6132 39.8899 48.3054 40.1327 47.9717 40.3159C47.4411 40.5828 46.869 40.715 46.2923 40.704C45.7157 40.693 45.1475 40.539 44.6245 40.252C44.4945 40.2308 44.3657 40.2009 44.2386 40.1625L44.1123 40.4224C43.8348 41.0065 43.5047 41.5535 43.1277 42.0539ZM41.1439 41.449C41.676 41.6532 42.2165 41.8252 42.7634 41.9645C43.184 41.4438 43.5476 40.8627 43.8454 40.2349L43.932 40.056C43.5716 39.9058 43.2314 39.6949 42.9221 39.4298C42.2693 39.5437 41.6332 39.7645 41.0321 40.0858C41.0465 40.5587 41.0898 41.0145 41.1439 41.449ZM55.2107 40.9762C55.1926 41.0273 55.1782 41.0827 55.1602 41.138C55.088 41.3809 55.0195 41.6152 54.9438 41.8452L55.1421 41.8069C55.3858 41.5942 55.6074 41.3482 55.8022 41.0741L55.2107 40.9762ZM49.198 39.2253V39.3574C49.198 39.6343 49.198 39.9112 49.2233 40.2094C49.2593 40.7296 49.2593 41.2525 49.2233 41.7728C49.4283 41.5324 49.5886 41.2443 49.6942 40.9267C49.7998 40.6091 49.8482 40.2691 49.8364 39.9282C49.6135 39.7095 49.4169 39.4558 49.2521 39.1742L49.198 39.2253ZM56.1773 41.1167C56.0519 41.322 55.9107 41.5131 55.7553 41.6876L56.0835 41.6279C56.8987 41.4746 57.6958 41.3255 58.4677 41.1295C58.4893 41.1295 58.5074 41.0827 58.529 41.0571C58.1448 41.1409 57.7547 41.1808 57.364 41.1764C56.9672 41.1764 56.5705 41.1593 56.1773 41.1167ZM39.9825 40.9463L40.6065 41.2318C40.5199 41.0017 40.4441 40.7674 40.3756 40.5331C40.2345 40.6568 40.1029 40.7951 39.9825 40.9463ZM53.2558 41.0528C53.7029 41.0881 54.1513 41.0126 54.5723 40.8313L54.2116 40.7376C54.0096 40.6822 53.8184 40.6183 53.6309 40.5544C53.513 40.722 53.388 40.8881 53.2558 41.0528ZM50.1358 39.7322C50.6453 40.1822 51.2179 40.5225 51.8274 40.7376C52.1569 40.861 52.4948 40.9508 52.8374 41.006C52.9961 40.8185 53.1475 40.6226 53.299 40.4266C52.3917 40.0927 51.5645 39.5086 50.886 38.7226C50.5669 38.3326 50.2983 37.889 50.0889 37.4063C50.0177 37.6365 49.9346 37.8612 49.84 38.0794C49.9482 38.4371 50.0315 38.8047 50.0889 39.1784C50.1161 39.3614 50.1318 39.5465 50.1358 39.7322ZM59.0412 40.8952L58.9871 40.9804C59.3742 40.8697 59.7493 40.7419 60.1124 40.597C60.5673 39.5416 60.8986 38.418 61.0971 37.2572C60.9547 37.3736 60.8038 37.4749 60.6462 37.5596C60.7319 37.9431 60.7479 38.3437 60.6932 38.735C60.6385 39.1264 60.5143 39.4996 60.3288 39.8302C60.0085 40.3404 59.5567 40.7141 59.0412 40.8952ZM56.3685 40.7504C56.6967 40.7802 57.0285 40.7972 57.3604 40.7972C57.8584 40.8048 58.355 40.7302 58.8356 40.5757C58.8644 40.5161 58.8933 40.4564 58.9185 40.3925C59.0638 40.0085 59.1371 39.592 59.1334 39.1714C59.1297 38.7508 59.049 38.3361 58.8969 37.9558C58.3116 37.9336 57.7294 37.8452 57.1584 37.6917L56.8482 38.3605C56.7508 38.5693 56.6534 38.7865 56.5524 38.991C56.5919 39.152 56.6161 39.3178 56.6246 39.4852C56.642 39.9297 56.5533 40.3711 56.3685 40.7589V40.7504ZM37.6596 39.4724C38.128 39.858 38.624 40.1944 39.1421 40.4777C39.3188 40.58 39.5028 40.6737 39.6723 40.7632C39.8449 40.531 40.0412 40.325 40.2566 40.1497H40.2818C40.1038 39.3513 40.0488 38.5216 40.1195 37.7002C39.5387 37.8269 38.9848 38.0875 38.4892 38.467C38.1538 38.7371 37.871 39.0886 37.6596 39.4979V39.4724ZM55.4632 40.6183L56.0222 40.6993C56.2205 40.3403 56.32 39.9177 56.3072 39.4894V39.4553C56.0787 39.8999 55.794 40.3007 55.4632 40.6439V40.6183ZM40.675 40.286C40.6966 40.3712 40.7219 40.4607 40.7471 40.5459C40.7471 40.4479 40.7471 40.3499 40.7471 40.2477L40.675 40.286ZM53.887 40.2179L54.309 40.3499C54.5434 40.4138 54.7779 40.4735 55.0303 40.5246C55.2708 39.7067 55.504 38.8817 55.7301 38.0495C55.6507 37.9558 55.5714 37.8664 55.492 37.7897C54.9618 38.6502 54.4388 39.4724 53.8761 40.2434L53.887 40.2179ZM61.483 36.8823C61.3098 38.097 60.9967 39.278 60.5525 40.3925C61.3246 40.0472 62.0445 39.5566 62.6841 38.9399C63.2215 38.4159 63.4957 37.9132 63.5209 37.4063C63.5642 36.6352 63.0123 35.9792 62.4857 35.6213C62.3877 35.5549 62.2866 35.4952 62.1828 35.4424C62.1828 35.4978 62.1611 35.5574 62.1467 35.6128C62.0267 36.1094 61.7933 36.5574 61.4722 36.9079L61.483 36.8823ZM59.2468 37.9303C59.5199 38.708 59.5315 39.5795 59.2792 40.367C59.5982 40.1981 59.8742 39.9338 60.08 39.6002C60.2355 39.3212 60.3408 39.0075 60.3892 38.6784C60.4376 38.3493 60.4281 38.012 60.3613 37.6874C60.2278 37.7386 60.0908 37.7854 59.9537 37.8238C59.718 37.8914 59.4779 37.9356 59.2359 37.9558L59.2468 37.9303ZM45.5948 40.2008C46.3481 40.4103 47.1387 40.322 47.8454 39.9495C48.2407 39.7318 48.597 39.4266 48.895 39.0506C48.9013 38.8351 48.9194 38.6202 48.9492 38.4074C48.9311 38.3392 48.9095 38.2711 48.895 38.2029C48.8731 38.1207 48.8562 38.0367 48.8445 37.9516C48.5163 38.0836 48.1845 38.2072 47.8527 38.3179C47.3953 39.1806 46.6916 39.8213 45.8689 40.1242C45.7757 40.1648 45.6805 40.199 45.5839 40.2264L45.5948 40.2008ZM55.9537 38.3776C55.795 38.9654 55.6327 39.5448 55.4632 40.1242C55.7581 39.7693 56.0116 39.3696 56.217 38.9356C56.1464 38.7443 56.0542 38.5652 55.9429 38.4031L55.9537 38.3776ZM50.4135 37.2444C50.6005 37.6848 50.8438 38.0886 51.1349 38.4415C51.8133 39.2193 52.6432 39.7884 53.5515 40.0986C54.145 39.2821 54.7012 38.4289 55.2179 37.5426C55.1097 37.4574 55.0123 37.3807 54.9257 37.3211C54.4336 37.1733 53.964 36.9362 53.5335 36.6182C53.0451 36.4487 52.5414 36.3486 52.033 36.32L51.8527 36.4307C51.3694 36.7588 50.8896 37.0271 50.4027 37.27L50.4135 37.2444ZM40.4622 37.6065C40.3886 38.3775 40.4314 39.1578 40.5884 39.9112L40.7074 39.8345C40.6718 39.0743 40.6899 38.312 40.7616 37.5554C40.6497 37.5937 40.5524 37.6108 40.4514 37.6321L40.4622 37.6065ZM44.7003 39.86C45.0627 39.9127 45.4303 39.8808 45.7823 39.7663C46.4068 39.5451 46.9568 39.0981 47.3549 38.4883C46.5237 38.7465 45.6808 38.9484 44.8301 39.0932H44.6966L44.4333 39.7024L44.7003 39.86ZM41.0934 37.5085C41.0213 38.2151 40.9984 38.9275 41.0249 39.6385C41.5327 39.38 42.064 39.1913 42.6083 39.0762L42.4604 38.9058C42.1049 38.4913 41.8078 38.0124 41.5803 37.4872L41.0934 37.5085ZM43.7733 39.2509C43.9031 39.3531 44.033 39.4511 44.1628 39.5363C44.2205 39.4127 44.2746 39.2892 44.3287 39.1657L44.1484 39.1955L43.7733 39.2509ZM49.4794 38.8249C49.5827 39.0148 49.7037 39.1905 49.84 39.3488C49.84 39.3105 49.84 39.2722 49.84 39.2338C49.8014 38.9895 49.7521 38.7478 49.6922 38.5096L49.4794 38.8249ZM35.5893 34.9909C35.5908 36.1216 35.8993 37.222 36.4694 38.1305C36.7431 38.5576 37.0646 38.9388 37.4252 39.2636C37.6573 38.822 37.9643 38.442 38.3269 38.1475C38.8891 37.7168 39.5201 37.4269 40.1808 37.2955C40.2288 36.9574 40.2988 36.6241 40.39 36.2987C38.7473 36.0847 37.1306 35.6502 35.5713 35.0036L35.5893 34.9909ZM42.1682 37.4233C42.519 37.9981 42.9367 38.5115 43.409 38.9484C43.6398 38.9058 43.8743 38.8717 44.1087 38.8376L44.4983 38.7737C44.6029 38.5267 44.7039 38.2796 44.8049 38.0368L44.9095 37.7854C44.4991 37.6927 44.1096 37.4998 43.7661 37.2188C43.2312 37.3257 42.6918 37.3982 42.1502 37.4361L42.1682 37.4233ZM45.2485 37.8195C45.1944 37.943 45.1439 38.0708 45.0898 38.1986C45.0357 38.3264 44.9491 38.5394 44.877 38.7141C45.8167 38.5491 46.7468 38.3144 47.6615 38.0112C48.1024 37.1685 48.44 36.2563 48.6642 35.3018L48.7904 34.7992C48.9823 33.9744 49.2147 33.1637 49.4866 32.371C49.4469 32.2815 49.4036 32.192 49.3567 32.1068C49.109 32.2672 48.8683 32.4421 48.6353 32.6308C48.6065 32.6734 48.5776 32.7203 48.5452 32.7629C48.5452 33.463 48.4288 34.1563 48.2025 34.8034C47.6723 36.3498 46.5722 37.8195 45.2521 37.8195H45.2485ZM56.0691 37.9601C56.2089 38.1366 56.33 38.3326 56.4298 38.5437C56.4839 38.4202 56.5416 38.3009 56.5993 38.1773C56.657 38.0538 56.7616 37.8195 56.8482 37.6406C56.7183 37.6406 56.5885 37.6406 56.4587 37.6406H56.1845L56.0691 37.9601ZM49.2774 38.3861C49.2848 38.4141 49.2944 38.4412 49.3062 38.467C49.382 38.335 49.4541 38.1944 49.5226 38.041C49.4938 37.9388 49.4613 37.8408 49.4325 37.7386C49.3564 37.9492 49.3008 38.1692 49.2666 38.3946L49.2774 38.3861ZM48.9167 35.5958C48.7171 36.382 48.4462 37.1404 48.1087 37.8578C48.3432 37.7726 48.574 37.6832 48.8049 37.5895C48.7823 37.1303 48.8451 36.6708 48.9888 36.2433C48.9315 36.0371 48.9023 35.8214 48.9023 35.6043L48.9167 35.5958ZM55.712 37.5469L55.8238 37.6619L55.8491 37.5682L55.712 37.5469ZM58.9582 37.2529C59.0159 37.3589 59.0689 37.4684 59.1169 37.5809C59.3712 37.576 59.6247 37.5447 59.8744 37.4872C60.0093 37.4534 60.1419 37.4078 60.2711 37.3509C60.1992 37.0705 60.1063 36.7982 59.9934 36.5372C59.6807 36.8515 59.3227 37.0968 58.9366 37.2614L58.9582 37.2529ZM58.1611 37.5128C58.3572 37.5462 58.5546 37.5675 58.7526 37.5767C58.7202 37.5085 58.6841 37.4404 58.648 37.3765C58.4809 37.4356 58.3111 37.484 58.1395 37.5213L58.1611 37.5128ZM49.1728 36.8951C49.1403 37.0814 49.1258 37.2715 49.1295 37.4617L49.2197 37.4191C49.2413 37.3679 49.2629 37.3168 49.2882 37.2657L49.1728 36.8951ZM46.0312 36.0431C45.8112 36.4946 45.6092 36.959 45.4108 37.4276C46.5145 37.3126 47.4415 36.0133 47.9068 34.6543C48.0636 34.1974 48.1668 33.7172 48.2133 33.2272C47.7755 33.87 47.2783 34.4529 46.7309 34.9653C46.7093 35.0207 46.6876 35.0718 46.6624 35.1229C46.4961 35.4819 46.2747 35.8011 46.0095 36.0644L46.0312 36.0431ZM44.2278 37.0953C44.473 37.2595 44.7422 37.3678 45.0213 37.4148H45.0682C45.1908 37.1166 45.317 36.8227 45.4288 36.5287C45.2816 36.6294 45.1285 36.7177 44.9708 36.7928C44.7211 36.9245 44.463 37.0328 44.1989 37.1166L44.2278 37.0953ZM56.2999 37.0612C56.5416 37.1464 56.7797 37.2146 57.0033 37.2742C57.1764 36.9262 57.3769 36.5981 57.602 36.2944L57.6525 36.2263C57.3633 35.9813 57.0554 35.7688 56.7328 35.5915L56.6282 35.7832C56.52 36.2092 56.4118 36.6352 56.2999 37.0612ZM57.905 36.4563L57.8365 36.5415C57.6734 36.7669 57.5228 37.0045 57.3856 37.2529C57.7388 37.2298 58.0891 37.1656 58.4316 37.0612C58.2717 36.8427 58.0954 36.6417 57.905 36.4606V36.4563ZM40.6966 36.3541C40.6107 36.6442 40.5444 36.9419 40.4983 37.2444C40.5956 37.2444 40.6966 37.2103 40.794 37.1933C40.8301 36.9206 40.8734 36.6523 40.9239 36.3796L40.6966 36.3541ZM49.9086 36.9249C49.8235 37.0104 49.7462 37.106 49.6777 37.2103L49.8545 37.1294L49.9086 36.9249ZM60.235 36.2603C60.3701 36.5613 60.4812 36.8765 60.5669 37.2018C60.7895 37.074 60.9969 36.9122 61.1837 36.7204C61.2161 36.4691 61.245 36.2135 61.2666 35.9621C61.194 36.0042 61.116 36.0316 61.0358 36.0431C60.9615 36.0506 60.887 36.0339 60.8202 35.9948C60.7534 35.9558 60.697 35.8958 60.6571 35.8216L60.6138 35.7491L60.7075 35.4041C60.6011 35.6867 60.4601 35.9493 60.2892 36.1837L60.235 36.2603ZM41.2413 36.4307C41.1944 36.6693 41.1547 36.9121 41.1222 37.1549L41.4469 37.1209C41.3699 36.8993 41.3002 36.6693 41.2377 36.4307H41.2413ZM55.0484 37.0186C55.1926 37.0612 55.3369 37.0996 55.4812 37.1336C54.7604 36.8074 54.1695 36.1734 53.8256 35.3572C53.7618 35.1869 53.7111 35.0101 53.6741 34.829C53.4767 35.1252 53.249 35.3913 52.9961 35.6213C53.1846 35.8915 53.4072 36.1257 53.6561 36.3157C54.1133 36.4791 54.5545 36.699 54.9726 36.9718L55.0484 37.0186ZM41.638 36.4435C41.7323 36.6611 41.8358 36.873 41.9482 37.0783H41.9771C42.4424 37.0442 42.9112 37.0058 43.3765 36.9249L43.106 36.6906L42.8355 36.452C42.4532 36.4648 42.0528 36.4648 41.6344 36.4435H41.638ZM55.9789 36.9377H56.0042L56.0294 36.8397C56.0078 36.878 55.9898 36.9079 55.9753 36.9377H55.9789ZM58.1431 36.2007C58.3678 36.4233 58.5721 36.6731 58.7526 36.9462C59.1527 36.7858 59.5209 36.5307 59.8347 36.1964C59.7087 35.9395 59.5677 35.6932 59.4127 35.4595L59.3514 35.3657C58.904 35.5519 58.4913 35.8383 58.1358 36.2092L58.1431 36.2007ZM50.2548 36.878L50.2765 36.9334C50.6372 36.7545 50.9798 36.5671 51.3225 36.3668C50.9724 36.3854 50.6279 36.4777 50.3053 36.6395C50.2801 36.7204 50.2657 36.7971 50.2476 36.878H50.2548ZM49.3207 36.2902C49.3712 36.4946 49.4325 36.7162 49.4938 36.8993C49.5613 36.8019 49.6374 36.7133 49.721 36.6352L49.8112 36.5458C49.7313 36.2414 49.6745 35.9291 49.6417 35.6128C49.5108 35.8231 49.4007 36.0504 49.3134 36.2902H49.3207ZM43.3224 36.4052C43.4883 36.5543 43.6543 36.7034 43.8202 36.8312C44.1711 36.7535 44.5143 36.6336 44.8445 36.4733C45.1803 36.3124 45.493 36.0911 45.7715 35.8173L45.8797 35.5958C45.0757 36.0541 44.2056 36.3287 43.3152 36.4052H43.3224ZM53.9699 34.6117C53.9994 34.8158 54.0503 35.0147 54.1214 35.2039C54.4503 35.9497 55.0075 36.5194 55.6796 36.7971C55.9032 36.4094 56.1232 36.0175 56.3432 35.6256L56.3973 35.4126L56.2134 35.3231C55.4896 34.9819 54.7341 34.7431 53.9627 34.6117H53.9699ZM61.6093 35.6256C61.6093 35.8258 61.584 36.026 61.5624 36.2263C61.6874 36.0186 61.7802 35.7864 61.8365 35.5404C61.8536 35.4705 61.8668 35.3993 61.8762 35.3274L61.7932 35.2976C61.7419 35.4163 61.6776 35.5266 61.6021 35.6256H61.6093ZM50.3955 34.7182C50.3955 34.8418 50.4135 34.961 50.4171 35.0846C50.4282 35.4592 50.4101 35.8342 50.363 36.205C50.7178 36.0642 51.0889 35.9894 51.4631 35.9834C51.6242 35.9834 51.7866 35.9834 51.9501 35.9834C52.1594 35.854 52.3628 35.7118 52.5596 35.5574C52.4201 35.2943 52.3166 35.0067 52.253 34.7054C52.253 34.6373 52.2242 34.5691 52.2134 34.5052C51.6032 34.5102 50.9946 34.5815 50.3955 34.7182ZM49.923 35.1868C49.9381 35.5175 49.9804 35.8456 50.0492 36.1666C50.0933 35.8127 50.1102 35.4548 50.0997 35.0974C50.0997 35.059 50.0997 35.0164 50.0997 34.9738C50.0348 35.042 49.9771 35.1144 49.923 35.1868ZM52.5019 36.0388C52.6498 36.0388 52.7977 36.0857 52.9456 36.1155C52.8735 36.0312 52.806 35.9415 52.7436 35.8471L52.5019 36.0388ZM41.4793 36.0601C41.7895 36.08 42.0889 36.0885 42.3774 36.0857C42.0955 35.8752 41.7821 35.7306 41.4541 35.6597H41.4216C41.4216 35.6597 41.4216 35.698 41.4216 35.7193C41.4216 35.8258 41.4613 35.9323 41.4829 36.0346C41.4793 36.026 41.4793 36.0431 41.4793 36.0601ZM41.5298 35.2763C42.0381 35.4123 42.5139 35.6816 42.9221 36.0644C44.0913 36.0401 45.2341 35.6491 46.2332 34.9312C46.3306 34.7608 46.4352 34.5947 46.5434 34.4328C46.6779 33.7892 46.7397 33.1274 46.7273 32.4647C46.7323 31.8621 46.7866 31.2614 46.8896 30.6712C46.5388 30.5934 46.1801 30.579 45.8256 30.6286C45.4372 30.7922 45.0588 30.9872 44.693 31.2122C43.9914 31.6309 43.3548 32.1869 42.8103 32.8566C42.2544 33.5556 41.8216 34.3781 41.537 35.2763H41.5298ZM40.8084 35.9962H40.9888L41.0537 35.7321C41.0521 35.7051 41.0521 35.6781 41.0537 35.6512C41.0327 35.6597 41.0131 35.6727 40.996 35.6895C40.9146 35.7709 40.8535 35.8769 40.8193 35.9962H40.8084ZM56.8987 35.2805C57.2405 35.4731 57.5666 35.7027 57.8725 35.9664C58.2361 35.5785 58.6582 35.275 59.1169 35.0718C58.7562 34.6458 58.1791 34.1346 57.6129 34.4158C57.3142 34.6202 57.0705 34.9199 56.9095 35.2805H56.8987ZM35.5821 34.6075L35.665 34.6458C37.2243 35.3012 38.8425 35.7415 40.4874 35.9579C40.5462 35.7539 40.6509 35.5728 40.7904 35.4339C40.846 35.3865 40.9067 35.3478 40.9707 35.3189C40.9563 35.1939 40.9455 35.0704 40.9383 34.9483C40.9324 34.7447 40.9408 34.541 40.9635 34.3391C40.9494 33.6668 41.0336 32.9966 41.2124 32.3582C41.5222 31.354 42.1042 30.4988 42.868 29.9257C42.6083 29.9257 42.345 29.8874 42.0889 29.8661C39.8605 30.3174 37.7508 31.3715 35.9247 32.9461C35.8791 33.0739 35.8358 33.2059 35.7949 33.3422C35.6795 33.7518 35.608 34.1769 35.5821 34.6075ZM59.6796 35.2507C59.8193 35.463 59.9482 35.6849 60.0655 35.9153C60.2372 35.6737 60.3737 35.4002 60.4695 35.1059C60.2027 35.1222 59.938 35.1707 59.6796 35.2507ZM60.9672 35.6767C60.9802 35.6809 60.9939 35.6809 61.0069 35.6767C61.1194 35.65 61.221 35.5795 61.2955 35.4765V35.1698L61.1043 35.14L60.9672 35.6767ZM49.5984 35.0164C49.4528 35.0938 49.3353 35.2297 49.2666 35.3998C49.235 35.4875 49.2178 35.5815 49.2161 35.6767C49.3284 35.457 49.4563 35.2489 49.5984 35.0548V35.0164ZM52.538 34.4882C52.5417 34.5259 52.549 34.5631 52.5596 34.5989C52.6123 34.854 52.6974 35.0982 52.8121 35.3231C53.0547 35.0986 53.2717 34.838 53.4577 34.5478C53.1512 34.5052 52.8446 34.4797 52.538 34.4754V34.4882ZM49.6525 32.8481C49.4253 33.5169 49.2485 34.2283 49.0718 34.9312L49.0213 35.1357C49.1598 34.8864 49.3638 34.6978 49.602 34.5989C49.602 34.501 49.602 34.4072 49.6272 34.3093C49.6594 33.9746 49.721 33.6448 49.8112 33.3252C49.7751 33.1505 49.7138 32.9887 49.6561 32.8353L49.6525 32.8481ZM53.9807 34.2496C54.7839 34.3861 55.5708 34.6334 56.3252 34.9866L56.4767 35.0633L56.5416 34.8077C56.6045 34.6251 56.6159 34.4234 56.5741 34.2326C56.4875 34.0111 56.2134 33.9386 55.9573 33.896C55.6255 33.8449 55.2828 33.7853 54.9329 33.7384L54.8356 33.7853L54.8175 33.7256C54.5939 33.6958 54.3667 33.6745 54.1394 33.6575C54.1061 33.8573 54.0528 34.0518 53.9807 34.2368V34.2496ZM57.9483 33.9727C58.5687 33.9727 59.1241 34.5436 59.4415 34.9525C59.8037 34.8258 60.1784 34.7556 60.5561 34.7438C60.651 34.2005 60.6541 33.6403 60.5649 33.0956C60.4758 32.5509 60.2962 32.0324 60.0367 31.5701C59.5984 31.2094 59.1308 30.9012 58.6408 30.6499L58.5218 30.6244C58.2698 31.184 57.9295 31.6814 57.5191 32.0898C56.9236 32.6562 56.2583 33.1116 55.5461 33.4402L56.0006 33.5126C56.1728 33.5125 56.3421 33.5644 56.4924 33.6636C56.6427 33.7628 56.7689 33.9059 56.859 34.0792C56.9248 34.2668 56.9374 34.4745 56.8951 34.6714C57.051 34.4162 57.2596 34.2123 57.501 34.0792C57.6461 34.0014 57.8034 33.9608 57.9627 33.9599L57.9483 33.9727ZM41.2737 34.3561C41.2737 34.5436 41.2737 34.731 41.3026 34.927C41.595 34.0769 42.0167 33.2972 42.547 32.6266C43.1155 31.9327 43.7788 31.3566 44.5091 30.9226C43.8369 31.0987 43.1999 31.4271 42.6335 31.8896C41.9311 32.4688 41.4483 33.3494 41.2882 34.3433L41.2737 34.3561ZM61.5696 33.5382C61.5696 33.6106 61.5696 33.683 61.5696 33.7512C61.5948 34.1133 61.6021 34.4711 61.6021 34.829L61.804 34.3348C61.7601 34.0551 61.6861 33.7831 61.584 33.5254L61.5696 33.5382ZM61.2089 34.7821H61.3063C61.3063 34.6628 61.3063 34.5393 61.3063 34.42L61.2089 34.7821ZM60.6498 32.1452C60.9473 32.9593 61.0303 33.8604 60.8879 34.731L61.2486 33.453C61.2279 33.2242 61.1917 32.9976 61.1404 32.7757C61.0899 32.699 61.0322 32.6223 60.9745 32.5456C60.9167 32.4689 60.7689 32.2559 60.6571 32.1324L60.6498 32.1452ZM49.9771 34.0451C49.9771 34.1474 49.9483 34.2496 49.9374 34.3561V34.4711L50.0384 34.4413C50.0266 34.3039 50.0086 34.1674 49.9843 34.0324L49.9771 34.0451ZM35.445 33.4061C35.2539 33.6234 35.0447 33.9386 35.142 34.2198C35.1707 34.3006 35.2182 34.37 35.2791 34.42C35.3076 34.0767 35.3631 33.7373 35.445 33.4061ZM52.1845 33.7512C51.901 33.8151 51.6223 33.9063 51.3513 34.0238C51.2287 34.0792 51.1061 34.1474 50.9906 34.2198C51.3877 34.1559 51.7875 34.1175 52.1881 34.1048C52.1797 33.9872 52.1785 33.869 52.1845 33.7512ZM52.4947 34.1005C52.8554 34.1005 53.2377 34.1303 53.6056 34.1772C53.6033 33.9907 53.6118 33.8043 53.6309 33.6191C53.2548 33.6112 52.8787 33.6354 52.5055 33.6916C52.4947 33.8275 52.4911 33.9641 52.4947 34.1005ZM50.1358 33.3167C50.2066 33.5676 50.2633 33.8237 50.3053 34.0835L50.3919 33.9472C50.541 33.6874 50.6396 33.3919 50.6808 33.0819C50.7219 32.7718 50.7046 32.4549 50.6299 32.1537C50.4262 32.5164 50.2603 32.9069 50.1358 33.3167ZM61.6778 33.0185C61.8165 33.2722 61.9303 33.5437 62.0168 33.8279L62.6156 32.3795C62.8695 31.8569 63.0246 31.2756 63.07 30.6755C63.07 28.8735 61.1115 28.0087 60.2675 27.719C59.7089 27.5145 59.1333 27.3817 58.5506 27.3229C58.7544 27.7932 58.8665 28.3113 58.8789 28.8394C58.8868 29.1262 58.8613 29.4129 58.8031 29.6914C58.9943 29.8177 59.1775 29.9601 59.3514 30.1174L60.0186 30.1685C60.6751 30.2197 61.5804 30.3901 61.8545 31.2378C61.9715 31.7375 61.9357 32.2699 61.7535 32.7416L61.6778 33.0185ZM47.1782 30.7862C47.0935 31.3371 47.0536 31.8963 47.0591 32.4562C47.055 32.9089 47.0309 33.3611 46.987 33.8108C47.3546 33.339 47.7605 32.911 48.1989 32.5328C48.1897 32.2445 48.1283 31.9618 48.0188 31.7039C47.9093 31.446 47.7542 31.2188 47.5641 31.0376C47.4458 30.9334 47.3159 30.8488 47.1782 30.7862ZM50.8572 31.7831C51.0536 32.3966 51.0536 33.0737 50.8572 33.6873C51.3869 33.4519 51.8955 33.1551 52.3757 32.8012C52.5456 32.3252 52.7904 31.8916 53.0971 31.5232C52.8396 31.2614 52.5533 31.0421 52.2458 30.8714C51.9861 30.9396 51.7156 31.0248 51.4451 31.1185C51.2315 31.3172 51.0347 31.5398 50.8572 31.7831ZM52.2206 33.3337L52.1593 33.3763H52.217L52.2206 33.3337ZM54.1539 33.2698C54.3991 33.2698 54.6408 33.3167 54.8752 33.3465C55.7556 32.9951 56.5789 32.4693 57.3099 31.7916C57.6605 31.4391 57.9559 31.0166 58.1827 30.5434C57.0456 30.263 55.8682 30.3083 54.749 30.6755C54.6588 30.9183 54.5723 31.1696 54.4857 31.421C54.345 31.847 54.2044 32.273 54.0998 32.699C54.1297 32.8485 54.1466 33.0012 54.1503 33.1548L54.1539 33.2698ZM52.6209 33.0355C52.5921 33.125 52.5704 33.2144 52.5488 33.3039C52.9187 33.2543 53.2911 33.2344 53.6633 33.2443C53.6922 33.0611 53.7319 32.8736 53.7751 32.6862C53.7183 32.4581 53.6306 32.2423 53.5154 32.0472C53.2653 32.4264 52.9687 32.7595 52.6354 33.0355H52.6209ZM43.4559 29.9257C42.549 30.446 41.8492 31.3627 41.5046 32.4817C41.461 32.6209 41.4249 32.7632 41.3964 32.9077C41.6674 32.3813 42.0256 31.9249 42.4496 31.5658C43.3665 30.8411 44.4235 30.4015 45.5226 30.2878L45.7246 30.2623C46.1739 30.0786 46.6346 29.9362 47.1024 29.8363L47.1241 29.7894C46.9445 29.6915 46.7588 29.6103 46.5686 29.5466C46.4604 29.5082 46.3486 29.4784 46.2368 29.4529H45.8076C45.0607 29.7834 44.2677 29.9438 43.4703 29.9257H43.4559ZM49.8184 32.3752C49.8761 32.5115 49.9302 32.6479 49.9807 32.8012C50.1225 32.4173 50.3016 32.0542 50.5145 31.7192C50.4893 31.651 50.4604 31.5871 50.4316 31.519L50.1394 31.6638C50.0214 31.8938 49.9142 32.1313 49.8184 32.3752ZM61.4361 32.5712C61.4485 32.5919 61.4617 32.6118 61.4758 32.6308C61.6266 32.2414 61.6634 31.8038 61.5804 31.3869C61.3712 30.7351 60.5885 30.5988 60.0186 30.5349H59.7662L59.8744 30.6712C60.3973 30.8962 60.8483 31.307 61.1656 31.847C61.2829 32.073 61.3739 32.3165 61.4361 32.5712ZM47.2575 30.4412C47.5852 30.5779 47.8738 30.8204 48.0906 31.1412C48.3074 31.462 48.4436 31.8482 48.4839 32.2559C48.6498 32.0174 48.8193 31.7746 48.9924 31.536C48.6325 30.9772 48.1902 30.4995 47.6867 30.1259C47.5713 30.1259 47.4523 30.1643 47.3261 30.1898C47.308 30.2452 47.2828 30.3389 47.2503 30.4241L47.2575 30.4412ZM40.4441 29.7596C39.8796 29.7464 39.3162 29.8267 38.7706 29.9981C37.7396 30.3566 36.8516 31.1394 36.2674 32.2048C37.6885 31.0759 39.2673 30.2524 40.9311 29.7724C40.77 29.7525 40.6077 29.7425 40.4441 29.7425V29.7596ZM53.3243 31.7618C53.2196 31.8954 53.1232 32.0378 53.0357 32.1878C53.1414 32.0551 53.2379 31.9127 53.3243 31.7618ZM53.7174 31.7362C53.8007 31.8707 53.8743 32.0132 53.9374 32.1622C54.024 31.8768 54.1142 31.5956 54.2116 31.3102L54.3522 30.8842C54.2091 30.9643 54.0705 31.0554 53.9374 31.1569C53.8803 31.3525 53.8066 31.5409 53.7174 31.7192V31.7362ZM49.62 31.9492V31.9748L49.6381 31.9279L49.62 31.9492ZM49.4144 31.5232C49.4325 31.553 49.4505 31.5829 49.4649 31.6127C49.6236 31.519 49.7787 31.4295 49.9338 31.3486C50.006 31.2122 50.0781 31.0844 50.1574 30.9609C50.1142 30.897 50.0673 30.8331 50.0204 30.7735C49.7932 31.0205 49.5912 31.2761 49.4144 31.5232ZM50.7418 31.3571L50.7634 31.3273L50.7418 31.3571ZM48.1953 30.0407C48.5806 30.3772 48.9253 30.7742 49.2197 31.2208C49.4036 30.9779 49.5803 30.7436 49.7895 30.5179C49.755 30.4828 49.7189 30.4501 49.6813 30.4199C49.5005 30.2551 49.3059 30.1124 49.1006 29.9939C48.7922 29.9937 48.4839 30.0136 48.1773 30.0535L48.1953 30.0407ZM52.74 30.701C52.9536 30.8508 53.1553 31.0233 53.3423 31.2165C53.4508 31.1017 53.5653 30.995 53.685 30.897C53.7138 30.7692 53.7391 30.6414 53.7571 30.5136C53.5371 30.5477 53.3207 30.5818 53.1043 30.6244L52.74 30.701ZM50.5506 30.9694L50.5831 31.0291C50.8283 30.9226 51.0664 30.8246 51.3044 30.7394C51.391 30.6542 51.4812 30.5732 51.575 30.4966H51.5425C51.3946 30.4412 51.2431 30.3901 51.0916 30.3432C50.8873 30.5331 50.7 30.7472 50.5326 30.9822L50.5506 30.9694ZM50.2548 30.5434L50.3558 30.684C50.4668 30.5314 50.5874 30.389 50.7165 30.258L50.5975 30.2282C50.4652 30.3219 50.345 30.4241 50.2368 30.5349L50.2548 30.5434ZM54.0817 30.4923C54.0817 30.5434 54.0817 30.5903 54.0817 30.6414C54.1589 30.5908 54.2384 30.5453 54.3198 30.5051L54.4063 30.4582L54.0817 30.4923ZM51.4235 30.0663L51.6363 30.143C51.8627 30.2255 52.0843 30.3251 52.2999 30.4412C52.5596 30.373 52.8121 30.3176 53.0538 30.2708C53.2954 30.2239 53.5407 30.1813 53.7751 30.1472C53.7802 29.9439 53.7632 29.7406 53.7246 29.5423C53.7136 29.4742 53.698 29.4072 53.6778 29.3421C52.878 29.3287 52.0909 29.5795 51.4054 30.0663H51.4235ZM46.8463 30.2921L46.9726 30.3219C46.9726 30.2963 46.9726 30.275 46.9726 30.2537L46.8463 30.2921ZM49.8112 30.0791L49.8689 30.1302L50.024 30.275L50.1683 30.1302C50.0312 30.1132 49.9122 30.0919 49.7932 30.0791H49.8112ZM54.0168 29.3421C54.0273 29.3812 54.0358 29.421 54.0421 29.4614C54.0812 29.6726 54.1006 29.8884 54.0998 30.1046L54.6769 30.0493C54.7634 29.8363 54.85 29.6233 54.9438 29.4316C54.6304 29.3814 54.3149 29.3515 53.9988 29.3421H54.0168ZM58.749 30.0833H58.7851L58.7526 30.0578L58.749 30.0833ZM58.2945 30.0535H58.4136C58.4352 29.9896 58.4533 29.9257 58.4713 29.8661C57.5585 29.3336 56.5629 29.0277 55.5461 28.9672L55.4523 29.1334C55.7842 29.2015 56.098 29.2867 56.3901 29.3677C57.0299 29.5516 57.6599 29.7806 58.2765 30.0535H58.2945ZM55.2792 29.4912C55.1962 29.6616 55.1169 29.8405 55.0412 30.0237C55.7409 29.9811 56.4442 29.9768 57.144 29.9981C56.8626 29.9044 56.5885 29.8192 56.3252 29.7468C55.9429 29.6403 55.593 29.5551 55.2612 29.4912H55.2792ZM50.951 29.9172H51.0159C51.1659 29.786 51.3238 29.6678 51.4884 29.5636C51.373 29.6289 51.2527 29.6971 51.1277 29.7681C51.0664 29.8192 51.0015 29.8746 50.9329 29.9257L50.951 29.9172ZM49.1728 29.6446C49.617 29.6653 50.0594 29.7237 50.4965 29.8192C50.6525 29.6872 50.8152 29.5662 50.9834 29.4571C51.7129 29.0098 52.5093 28.7349 53.3279 28.6477C53.2342 28.531 53.126 28.4318 53.0069 28.3538C52.6126 28.1399 52.1818 28.0364 51.7481 28.0513C50.4532 27.9874 48.8373 28.1621 47.8959 29.2143C48.3294 29.2979 48.7523 29.4453 49.1547 29.6531L49.1728 29.6446ZM47.611 29.619L47.7697 29.7255C47.9212 29.7056 48.0727 29.6886 48.2242 29.6744C48.0366 29.6233 47.8635 29.5807 47.6543 29.5466L47.611 29.619ZM55.7806 28.6307C56.7413 28.7119 57.6801 29.0083 58.547 29.504C58.5832 29.2923 58.6001 29.0766 58.5975 28.8607C58.5792 28.318 58.4492 27.7887 58.2188 27.3186C57.712 27.3096 57.2105 27.4409 56.7544 27.702C56.3754 27.9279 56.0401 28.2441 55.7697 28.6307H55.7806ZM46.4027 29.0567C46.7776 29.0623 47.152 29.0907 47.5244 29.1419C48.5163 27.817 50.3342 27.5998 51.7769 27.6679C52.2587 27.657 52.7362 27.7765 53.1728 28.0172C53.3899 28.1596 53.5772 28.3575 53.721 28.5966C53.9988 28.5753 54.2549 28.5668 54.4893 28.5625C54.8043 28.5625 55.1073 28.571 55.3982 28.5881C55.7191 28.0741 56.1348 27.6531 56.6138 27.3569C57.052 27.0995 57.5314 26.9543 58.0204 26.9309C57.7245 26.4503 57.358 26.0363 56.9384 25.7083C55.6471 24.6731 53.887 24.2344 51.6976 24.4048C49.8941 24.5411 48.6786 25.163 48.0655 26.2536C47.9216 26.5261 47.795 26.8109 47.6867 27.1056C47.5749 27.4221 47.441 27.727 47.2864 28.0172C47.0536 28.4381 46.7474 28.7954 46.3883 29.0652L46.4027 29.0567ZM53.9771 28.9544C54.3625 28.9636 54.7469 29.0035 55.1277 29.0737C55.1494 29.0311 55.171 28.9885 55.1962 28.9459C54.969 28.9459 54.7382 28.9459 54.5037 28.9459C54.3162 28.9672 54.1394 28.9672 53.9519 28.9672L53.9771 28.9544Z" fill="white"/>
<path d="M40.0795 104.986L41.075 107.265C41.2889 107.759 41.5464 108.225 41.8432 108.654L36.9307 175.749H38.157L47.9172 111.619H63.1706L57.7171 175.749H58.9434L69.948 108.654C70.3385 108.225 70.7003 107.761 71.03 107.265L72.5629 104.986H40.0795Z" fill="#263238"/>
<path opacity="0.5" d="M40.0795 104.986L41.075 107.265C41.2889 107.759 41.5464 108.225 41.8432 108.654L36.9307 175.749H38.157L47.9172 111.619H63.1706L57.7171 175.749H58.9434L69.948 108.654C70.3385 108.225 70.7003 107.761 71.03 107.265L72.5629 104.986H40.0795Z" fill="white"/>
<path d="M110.341 174.458H108.169L97.4424 131.653H101.175L110.341 174.458Z" fill="#4BC7C1"/>
<path d="M71.5957 174.458H73.767L84.4939 131.653H80.7608L71.5957 174.458Z" fill="#4BC7C1"/>
<path d="M129.886 174.458H127.715L116.988 131.653H120.725L129.886 174.458Z" fill="#4BC7C1"/>
<path d="M107.574 79.1324C93.9584 82.5916 93.7275 103.653 95.1054 117.396C95.2431 118.747 95.1367 120.116 94.7932 121.415C94.4498 122.714 93.877 123.912 93.1129 124.93C92.3487 125.948 91.4104 126.763 90.36 127.321C89.3095 127.88 88.1707 128.169 87.0188 128.169H73.6192C73.1588 128.171 72.7127 128.358 72.3546 128.7C71.9964 129.042 71.7476 129.517 71.6493 130.049C71.5509 130.58 71.6089 131.135 71.8136 131.622C72.0183 132.109 72.3575 132.499 72.7752 132.727C77.1792 135.117 86.0197 137.558 103.755 137.558C130.73 137.558 129.634 120.331 132.491 103.653C136.96 77.5903 131.809 72.9767 107.574 79.1324Z" fill="#4BC7C1"/>
<path opacity="0.3" d="M107.574 79.1324C93.9584 82.5916 93.7275 103.653 95.1054 117.396C95.2431 118.747 95.1367 120.116 94.7932 121.415C94.4498 122.714 93.877 123.912 93.1129 124.93C92.3487 125.948 91.4104 126.763 90.36 127.321C89.3095 127.88 88.1707 128.169 87.0188 128.169H73.6192C73.1588 128.171 72.7127 128.358 72.3546 128.7C71.9964 129.042 71.7476 129.517 71.6493 130.049C71.5509 130.58 71.6089 131.135 71.8136 131.622C72.0183 132.109 72.3575 132.499 72.7752 132.727C77.1792 135.117 86.0197 137.558 103.755 137.558C130.73 137.558 129.634 120.331 132.491 103.653C136.96 77.5903 131.809 72.9767 107.574 79.1324Z" fill="black"/>
<path d="M91.0364 79.9883C90.4982 79.6839 89.9144 79.5077 89.3184 79.4698C88.7225 79.432 88.1261 79.5333 87.5633 79.7679C87.0005 80.0025 86.4824 80.3659 86.0386 80.8372C85.5948 81.3085 85.234 81.8784 84.9769 82.5145L84.8579 82.8127L84.6883 83.2387L84.4827 83.7286L84.0499 84.7297C83.7505 85.3943 83.4548 86.0631 83.1338 86.7021C83.3826 85.718 83.6532 84.7297 83.9309 83.7457C84.2086 82.7616 84.508 81.6796 84.8146 80.6486C85.4097 78.5911 86.0553 76.4994 86.6577 74.4674L86.6793 74.3992C86.8614 73.7903 86.8513 73.1242 86.6506 72.5235C86.45 71.9228 86.0724 71.4278 85.5874 71.1297C85.1024 70.8316 84.5425 70.7504 84.0108 70.9011C83.4792 71.0518 83.0114 71.4241 82.6937 71.9497C81.5359 73.8582 80.5296 75.7837 79.5233 77.7518C78.517 79.72 77.6153 81.7605 76.746 83.8522C75.8621 85.9842 75.0829 88.1746 74.4124 90.4126C74.0805 91.5713 73.7667 92.7641 73.507 94.0336C73.2205 95.4045 73.0513 96.806 73.0021 98.2169C72.9649 99.3283 73.2683 100.418 73.8566 101.287C74.4449 102.156 75.2787 102.744 76.205 102.945L76.5007 103.009C77.7499 103.275 79.0304 103.256 80.2735 102.954C81.4115 102.666 82.506 102.176 83.5197 101.501C85.2152 100.352 86.7325 98.8692 88.0066 97.1178C88.5908 96.347 89.1375 95.5377 89.6442 94.6939C90.1383 93.8717 90.6108 93.0495 91.0328 92.2018C91.4548 91.354 91.866 90.4978 92.2303 89.6458C92.4142 89.2198 92.591 88.7725 92.7677 88.3209L93.0166 87.635L93.2871 86.8597C93.7233 85.5912 93.7333 84.174 93.315 82.8971C92.8968 81.6202 92.0818 80.5799 91.0364 79.9883Z" fill="#263238"/>
<path d="M82.5972 66.5352L82.4998 68.6652C82.4689 69.5139 82.5918 70.3607 82.8605 71.1488L83.5818 73.3341C83.7482 73.8316 84.0308 74.2631 84.3967 74.5783C84.7625 74.8936 85.1967 75.0796 85.6486 75.1148C86.2626 75.164 86.8688 74.9299 87.3397 74.462C87.8106 73.994 88.1094 73.3286 88.1734 72.6057C88.2279 71.5122 88.144 70.4153 87.9245 69.351L87.7225 66.6459C87.6885 66.2025 87.5222 65.7878 87.2533 65.4757C86.9845 65.1636 86.6305 64.9744 86.2545 64.9419L84.3032 64.7673C84.0927 64.7499 83.8814 64.782 83.6814 64.8617C83.4815 64.9413 83.2969 65.0669 83.1382 65.2313C82.9796 65.3957 82.8502 65.5955 82.7573 65.8193C82.6644 66.0431 82.61 66.2864 82.5972 66.5352Z" fill="#FFB573"/>
<path opacity="0.2" d="M87.928 69.3467L87.726 66.6459C87.6914 66.2034 87.5254 65.7897 87.2574 65.4779C86.9894 65.166 86.6367 64.9762 86.2616 64.9419L84.3717 64.7715C84.1588 68.2562 85.6701 72.1328 87.3257 74.4843C87.5664 74.2543 87.7655 73.9694 87.9111 73.6467C88.0567 73.3239 88.1459 72.9699 88.1733 72.6056C88.2306 71.5109 88.1479 70.4123 87.928 69.3467Z" fill="black"/>
<path d="M104.163 75.2723C98.9542 75.7323 92.433 76.235 87.7549 78.8634C85.4465 80.1627 84.8261 82.8934 85.1688 85.8882C85.7134 90.6423 86.1823 94.438 87.185 98.4509C89.5078 107.708 84.8514 114.336 90.0705 121.506C92.3609 124.582 106.402 127.47 116.347 123.61C117.789 116.603 115.925 99.1751 113.93 83.3109C113.234 77.709 108.949 74.8505 104.163 75.2723Z" fill="#4BC7C1"/>
<path d="M97.6988 67.8223C97.9513 70.4294 99.0442 74.2549 100.913 75.4477C101.115 75.579 101.288 75.7661 101.417 75.993C101.546 76.2199 101.627 76.48 101.652 76.7515C101.678 77.0229 101.648 77.2977 101.565 77.5527C101.483 77.8077 101.349 78.0354 101.176 78.2167C100.076 79.3541 98.3769 80.3467 96.0973 80.9047C93.1253 81.6204 92.4905 80.5597 92.5337 79.4691C92.5781 78.9428 92.7595 78.4456 93.0531 78.0463C94.0126 76.649 93.0531 75.5627 92.458 74.7448L97.6988 67.8223Z" fill="#FFB573"/>
<path opacity="0.2" d="M96.3645 71.7541C96.3064 71.6079 96.2414 71.4657 96.1698 71.3281L92.4619 74.7574C92.8226 75.2899 93.3853 75.9417 93.4538 76.7128C95.369 75.3538 96.9272 73.1684 96.3645 71.7541Z" fill="black"/>
<path d="M73.2588 161.653C73.9802 160.779 78.5681 159.097 78.5681 159.097C79.77 163.174 80.7625 167.334 81.5402 171.553L75.5997 172.269C75.5997 172.269 74.615 165.159 73.2588 161.653Z" fill="#FFB573"/>
<path d="M99.5307 118.077C82.3512 118.367 59.7434 117.281 65.0671 135.773C67.3466 143.688 67.1627 146.598 69.8282 156.187C70.9752 160.315 71.3647 161.529 72.1979 164.388C73.1104 166.944 78.5784 166.475 80.5983 165.474C83.0257 163.949 80.959 159.829 80.6885 157.512C79.307 146.197 82.1745 141.874 79.1591 134.457C84.6416 135.394 100.054 134.738 102.348 123.611C102.348 123.611 105.507 119.176 99.5307 118.077Z" fill="#263238"/>
<path d="M73.5976 165.751L74.319 167.455C74.3625 167.557 74.4326 167.64 74.5189 167.691C74.6053 167.743 74.7034 167.76 74.7987 167.74C75.7726 167.54 78.6725 166.991 80.3605 167.234C80.4214 167.241 80.4829 167.234 80.5414 167.213C80.5999 167.192 80.6542 167.157 80.7011 167.11C80.7479 167.064 80.7862 167.007 80.8139 166.942C80.8415 166.878 80.8578 166.807 80.8619 166.735C80.8943 166.062 80.8871 165.189 80.8799 164.639C80.8762 164.499 80.8268 164.367 80.742 164.269C80.6573 164.171 80.5438 164.116 80.4254 164.115C78.2283 164.142 76.0389 164.427 73.8898 164.967C73.8214 164.986 73.7577 165.024 73.7037 165.077C73.6497 165.13 73.6069 165.197 73.5786 165.273C73.5502 165.349 73.5372 165.432 73.5405 165.515C73.5439 165.598 73.5634 165.679 73.5976 165.751Z" fill="#4BC7C1"/>
<path d="M82.8127 176.009L82.1924 171.063C82.1694 170.948 82.1124 170.847 82.0317 170.778C81.951 170.708 81.8519 170.675 81.7523 170.684L75.6603 170.714C75.1717 170.674 74.6853 170.823 74.2753 171.14C72.9047 172.478 70.7802 173.76 67.6928 174.467C66.7153 174.693 67.1301 176.985 69.4204 176.972C73.2077 176.951 73.049 176.81 76.2735 176.797C79.0364 176.797 79.7289 176.946 81.9218 176.972C82.0346 176.982 82.1479 176.964 82.2548 176.921C82.3617 176.877 82.4598 176.808 82.5433 176.718C82.6267 176.628 82.6936 176.518 82.74 176.396C82.7863 176.274 82.8111 176.143 82.8127 176.009Z" fill="#263238"/>
<path d="M95.5818 60.9807C97.1941 65.3429 98.3266 67.7967 97.4646 71.2047C96.1733 76.355 90.9362 77.5137 88.2563 73.9098C85.8469 70.6636 83.6142 64.0692 86.3735 59.9455C89.0931 55.89 93.9696 56.6141 95.5818 60.9807Z" fill="#FFB573"/>
<path d="M92.6169 71.468C92.8158 71.4626 93.0148 71.4754 93.212 71.5064C93.2257 71.5084 93.2389 71.5137 93.2508 71.522C93.2626 71.5303 93.2729 71.5414 93.281 71.5545C93.2892 71.5677 93.2949 71.5827 93.2979 71.5986C93.3009 71.6145 93.3012 71.6309 93.2986 71.6469C93.2973 71.6629 93.2932 71.6784 93.2866 71.6924C93.28 71.7064 93.2709 71.7186 93.2601 71.7283C93.2492 71.7379 93.2367 71.7447 93.2235 71.7483C93.2102 71.7519 93.1965 71.7522 93.1832 71.7492C92.7455 71.6616 92.2965 71.6982 91.8731 71.8559C91.4498 72.0137 91.0643 72.2881 90.7485 72.6566C90.7289 72.6797 90.7023 72.6927 90.6746 72.6927C90.6468 72.6927 90.6202 72.6797 90.6006 72.6566C90.591 72.6455 90.5834 72.6322 90.5782 72.6176C90.573 72.6029 90.5703 72.5872 90.5703 72.5714C90.5703 72.5555 90.573 72.5398 90.5782 72.5251C90.5834 72.5105 90.591 72.4973 90.6006 72.4862C91.1349 71.8497 91.8582 71.4844 92.6169 71.468Z" fill="#263238"/>
<path d="M90.9542 66.2667C90.7703 66.3903 90.7559 66.7609 90.9182 67.0932L91.5818 66.6373C91.4195 66.3051 91.1382 66.1389 90.9542 66.2667Z" fill="#263238"/>
<path d="M87.5026 68.5802C87.3186 68.7037 87.3006 69.0744 87.4665 69.4066L88.1301 68.9508C87.9462 68.6185 87.6685 68.4524 87.5026 68.5802Z" fill="#263238"/>
<path d="M90.0526 64.1971C90.0754 64.1623 90.1063 64.136 90.1416 64.1216C90.1768 64.1073 90.2149 64.1054 90.251 64.1162C90.4812 64.1935 90.7236 64.2049 90.9582 64.1493C91.1929 64.0937 91.4129 63.9728 91.6 63.7967C91.6177 63.7757 91.6388 63.759 91.662 63.7477C91.6853 63.7363 91.7101 63.7305 91.7353 63.7305C91.7604 63.7305 91.7853 63.7363 91.8085 63.7477C91.8317 63.759 91.8528 63.7757 91.8705 63.7967C91.8883 63.8177 91.9024 63.8426 91.912 63.87C91.9216 63.8974 91.9266 63.9268 91.9266 63.9564C91.9266 63.9861 91.9216 64.0155 91.912 64.0429C91.9024 64.0703 91.8883 64.0952 91.8705 64.1162C91.6364 64.3431 91.3595 64.5002 91.0633 64.5744C90.767 64.6485 90.46 64.6375 90.1681 64.5422C90.1195 64.5271 90.0778 64.4901 90.0522 64.4391C90.0265 64.388 90.0189 64.3272 90.031 64.2696C90.0348 64.2442 90.0422 64.2197 90.0526 64.1971Z" fill="#263238"/>
<path d="M87.0514 66.1994C87.0876 66.1676 87.1329 66.1539 87.1776 66.161C87.2277 66.1664 87.274 66.195 87.3064 66.2404C87.3388 66.2859 87.3547 66.3446 87.3507 66.4038C87.3325 66.761 87.2417 67.1078 87.086 67.4148C86.9303 67.7218 86.7143 67.98 86.4562 68.1675C86.4117 68.1947 86.3598 68.2001 86.3119 68.1825C86.264 68.165 86.2239 68.1259 86.2001 68.0738C86.1881 68.0481 86.1806 68.0198 86.1779 67.9906C86.1752 67.9615 86.1774 67.932 86.1845 67.9038C86.1915 67.8757 86.2032 67.8495 86.2189 67.8267C86.2346 67.804 86.254 67.7851 86.2759 67.7713C86.4775 67.6188 86.6455 67.4117 86.766 67.1672C86.8864 66.9228 86.9558 66.6479 86.9684 66.3655C86.9712 66.3324 86.9801 66.3004 86.9944 66.2717C87.0087 66.243 87.0282 66.2183 87.0514 66.1994Z" fill="#263238"/>
<path opacity="0.2" d="M88.2557 68.8232C88.2699 69.1534 88.2136 69.4825 88.0919 69.7803C87.9703 70.078 87.7872 70.3349 87.5596 70.5272C89.2404 70.2035 88.2557 68.8232 88.2557 68.8232Z" fill="black"/>
<path opacity="0.2" d="M90.499 67.3486C90.7392 67.5103 91.0098 67.5989 91.2862 67.6063C91.5626 67.6138 91.8362 67.5398 92.0824 67.3912C91.1663 68.7587 90.499 67.3486 90.499 67.3486Z" fill="black"/>
<path d="M98.6293 61.1252C98.4489 59.1571 98.0089 57.6874 97.4246 56.6906C97.6797 56.7867 97.9417 56.8552 98.2073 56.895C96.7212 54.2325 94.2974 54.731 93.5183 55.8087C92.5697 53.3592 91.228 54.9951 89.7023 55.3061C88.1766 55.617 85.338 54.3135 85.338 54.3135C85.338 54.3135 85.962 55.5915 86.9791 55.7874C85.0061 56.8397 84.2775 58.6501 83.7546 60.0474C83.2316 61.4447 81.6445 63.1189 81.6445 63.1189C82.3066 63.1271 82.9483 62.8482 83.448 62.3351C83.2496 63.7579 82.4164 66.4119 82.0052 67.021C83.0873 66.595 84.1008 65.0316 84.1008 65.0316C84.1008 65.0316 84.2956 67.5876 85.3127 69.3172C85.1035 67.1062 88.1008 62.6801 88.1008 62.6801C87.9677 63.6293 87.9677 64.5979 88.1008 65.5471C89.4534 64.1967 91.6572 59.7748 91.6572 59.7748C91.6851 61.0595 91.8388 62.336 92.1153 63.579C92.2432 62.8351 92.5066 62.1331 92.8871 61.5214C92.4904 63.1061 93.5003 66.7697 93.5003 66.7697C93.4496 65.813 93.5017 64.8525 93.6554 63.9112C93.9404 65.0018 95.6897 66.2031 96.4075 66.3267C96.4002 66.3352 99.1379 66.5865 98.6293 61.1252Z" fill="#263238"/>
<path d="M98.5932 65.0954C98.5362 66.2564 98.0928 67.3436 97.3597 68.12C96.3786 69.1381 95.3254 68.2648 95.127 66.842C94.9467 65.5427 95.2388 63.434 96.4471 62.9867C97.6554 62.5394 98.6509 63.6725 98.5932 65.0954Z" fill="#FFB573"/>
<path d="M89.2119 68.3506C89.2119 68.3506 89.7566 70.6467 89.652 72.0781C90.4419 72.1761 91.0947 71.2516 91.0947 71.2516L89.2119 68.3506Z" fill="#ED893E"/>
<path opacity="0.2" d="M87.2282 134.516C87.019 131.7 86.7161 128.885 86.3121 126.098C86.1311 124.826 85.7831 123.594 85.2805 122.448C73.7386 120.633 72.7178 131.965 80.3463 153.507C79.9424 145.047 81.7891 140.928 79.1633 134.457C81.8408 134.841 84.5469 134.861 87.2282 134.516Z" fill="black"/>
<path opacity="0.2" d="M97.2403 64.4183L98.0086 66.3055C98.3081 67.0219 98.4613 67.8112 98.4558 68.6101L98.4162 70.7401C98.398 71.2341 98.2404 71.7067 97.9685 72.0827C97.6966 72.4586 97.326 72.7163 96.9157 72.8148C96.2835 72.9935 95.6193 72.9282 95.0208 72.6284C94.4223 72.3286 93.9209 71.8102 93.5902 71.1491C93.1946 70.2116 92.9302 69.2045 92.8075 68.1671L92.1546 65.6963C92.1002 65.5017 92.0814 65.2956 92.0994 65.0917C92.1174 64.8879 92.1718 64.6908 92.2591 64.5136C92.3464 64.3365 92.4645 64.1832 92.6057 64.064C92.7469 63.9447 92.9078 63.8622 93.078 63.8219L94.9716 63.217C95.409 63.0928 95.8689 63.1433 96.2794 63.3606C96.6899 63.578 97.0279 63.95 97.2403 64.4183Z" fill="black"/>
<path d="M97.6812 64.6693L98.2727 66.6843C98.5104 67.4831 98.5978 68.3336 98.5288 69.1764L98.3376 71.5194C98.2953 72.0515 98.1256 72.5584 97.8484 72.9808C97.5712 73.4033 97.198 73.7238 96.7722 73.905C96.1928 74.1575 95.5529 74.1338 94.9881 73.8388C94.4232 73.5438 93.9778 73.0007 93.7461 72.3245C93.4351 71.2926 93.2576 70.2112 93.2195 69.1168L92.7794 66.45C92.7059 66.0117 92.7667 65.5567 92.9511 65.1665C93.1354 64.7763 93.4313 64.4763 93.7857 64.32L95.6216 63.5148C95.8209 63.428 96.0328 63.3891 96.245 63.4003C96.4571 63.4116 96.6652 63.4728 96.8571 63.5803C97.0489 63.6878 97.2206 63.8396 97.3622 64.0266C97.5037 64.2136 97.6121 64.4321 97.6812 64.6693Z" fill="#FFB573"/>
<path d="M109.84 77.7136C108.674 77.368 107.439 77.5837 106.408 78.3131C105.376 79.0424 104.632 80.2258 104.339 81.6029L104.249 82.0289L104.083 82.8298L103.878 83.7329C103.73 84.3506 103.585 84.9726 103.416 85.586C103.095 86.8129 102.713 87.9972 102.312 89.1176L102.291 89.1772C101.89 87.7501 101.519 86.2634 101.187 84.7511C100.942 83.6818 100.707 82.5955 100.491 81.505C100.274 80.4144 100.043 79.3153 99.8379 78.2077C99.4123 76.0096 99.0155 73.7518 98.6115 71.5621V71.4982C98.4929 70.8668 98.1848 70.3075 97.7443 69.9233C97.3038 69.5392 96.7605 69.3562 96.2147 69.4081C95.6688 69.46 95.1573 69.7433 94.7745 70.2057C94.3917 70.6682 94.1634 71.2786 94.1318 71.9242C94.0092 74.3439 94.0128 76.6784 94.0633 79.064C94.1138 81.4496 94.2544 83.8181 94.4745 86.2165C94.5827 87.4178 94.7306 88.6234 94.8965 89.8375C95.0624 91.0516 95.2572 92.2828 95.5277 93.5267C95.794 94.8291 96.1314 96.1097 96.5376 97.3607C96.768 98.0711 97.0379 98.7627 97.3455 99.4311C97.7177 100.244 98.164 101.007 98.6765 101.706C99.2977 102.542 100.15 103.089 101.082 103.251C102.014 103.413 102.964 103.177 103.762 102.588L104.007 102.405C104.755 101.849 105.462 101.22 106.121 100.526C106.74 99.8668 107.318 99.1549 107.849 98.3959C108.354 97.6684 108.827 96.9106 109.266 96.1253C109.688 95.3457 110.063 94.5619 110.417 93.7695C110.767 92.9907 111.083 92.1916 111.365 91.3754C111.647 90.5702 111.917 89.7651 112.141 88.9472C112.365 88.1293 112.581 87.3156 112.754 86.4806C112.841 86.0546 112.931 85.6286 113.003 85.2026L113.111 84.5849L113.219 83.8352C113.414 82.4995 113.173 81.1263 112.547 79.991C111.92 78.8557 110.953 78.0422 109.84 77.7136Z" fill="#263238"/>
<path d="M90.416 161.265C91.0472 160.311 95.4656 158.1 95.4656 158.1C97.0098 162.013 98.3528 166.034 99.4873 170.138L93.6369 171.548C93.6369 171.548 92.068 164.6 90.416 161.265Z" fill="#FFB573"/>
<path d="M101.735 116.718C84.8509 118.077 71.7977 118.119 79.2422 135.56C82.4307 143.023 83.0619 147.023 86.5353 156.242C88.0286 160.212 88.5227 161.375 89.594 164.123C90.7229 166.564 96.1224 165.435 98.0449 164.2C100.328 162.389 97.933 158.538 97.4533 156.268C95.1125 145.192 97.5002 141.234 93.9222 134.175C99.4515 134.512 114.059 134.738 116.353 123.61C116.357 123.61 113.605 116.718 101.735 116.718Z" fill="#263238"/>
<path d="M91.1091 165.308L91.9855 166.927C92.0382 167.023 92.1157 167.097 92.2066 167.138C92.2974 167.178 92.397 167.183 92.4905 167.152C93.4391 166.837 96.2777 165.947 97.9802 165.981C98.0412 165.982 98.1018 165.968 98.1581 165.94C98.2144 165.912 98.2654 165.871 98.3079 165.819C98.3504 165.767 98.3835 165.706 98.4053 165.638C98.4271 165.571 98.4371 165.499 98.4346 165.427C98.4094 164.754 98.33 163.885 98.2723 163.344C98.2587 163.204 98.1987 163.076 98.1054 162.988C98.0121 162.9 97.8932 162.86 97.7746 162.875C95.5909 163.164 93.4375 163.712 91.3471 164.511C91.2814 164.537 91.2215 164.579 91.172 164.636C91.1225 164.693 91.0848 164.763 91.0618 164.84C91.0388 164.917 91.0311 164.999 91.0393 165.081C91.0475 165.162 91.0714 165.239 91.1091 165.308Z" fill="#4BC7C1"/>
<path d="M101.165 174.097L99.949 169.1C99.9132 168.989 99.8443 168.897 99.7552 168.842C99.6662 168.787 99.5632 168.773 99.4657 168.801L93.4422 169.875C92.9526 169.922 92.4897 170.158 92.1257 170.548C90.5949 172.643 88.4922 174.04 86.1816 174.497C85.2077 174.723 85.6225 177.015 87.9093 177.002C91.7001 176.981 91.5342 176.41 94.7299 175.86C97.1465 175.434 98.1708 175.434 100.357 175.187C100.472 175.185 100.586 175.154 100.691 175.097C100.796 175.04 100.89 174.957 100.966 174.854C101.042 174.751 101.099 174.631 101.133 174.5C101.168 174.37 101.178 174.232 101.165 174.097Z" fill="#263238"/>
<path d="M34.9715 104.986L155.906 104.986V102.345L34.9715 102.345V104.986Z" fill="#4BC7C1"/>
<path opacity="0.5" d="M34.9715 104.986L155.906 104.986V102.345L34.9715 102.345V104.986Z" fill="white"/>
<path opacity="0.3" d="M123.098 104.986H155.902V102.345H123.098V104.986Z" fill="#4BC7C1"/>
<path d="M152.718 175.749H153.944L149.032 108.654C149.329 108.225 149.587 107.76 149.8 107.265L150.795 104.986H118.294L119.827 107.265C120.161 107.762 120.529 108.227 120.927 108.654L131.932 175.749H133.158L127.704 111.619H142.958L152.718 175.749Z" fill="#263238"/>
<path opacity="0.6" d="M152.718 175.749H153.944L149.032 108.654C149.329 108.225 149.587 107.76 149.8 107.265L150.795 104.986H118.294L119.827 107.265C120.161 107.762 120.529 108.227 120.927 108.654L131.932 175.749H133.158L127.704 111.619H142.958L152.718 175.749Z" fill="white"/>
</svg>
