<svg width="100%" height="160" viewBox="0 0 132 160" fill="none" xmlns="http://www.w3.org/2000/svg">
<path d="M66.0145 1.65853e-06C52.9603 -0.0029946 40.1984 4.0538 29.3429 11.6573C18.4874 19.2609 10.0257 30.0696 5.02812 42.7166C0.0305259 55.3635 -1.27855 69.2807 1.26644 82.7079C3.81143 96.1351 10.0962 108.469 19.3259 118.151C28.5556 127.832 40.3156 134.425 53.1187 137.097C65.9219 139.769 79.193 138.399 91.2538 133.161C103.315 127.923 113.623 119.052 120.876 107.669C128.129 96.2865 132 82.9041 132 69.2142C131.981 50.8662 125.023 33.2753 112.653 20.2999C100.283 7.32445 83.5104 0.0240589 66.0145 1.65853e-06ZM66.0145 129.975C54.5545 129.978 43.351 126.417 33.821 119.743C24.291 113.068 16.8625 103.579 12.475 92.477C8.08745 81.3746 6.93798 69.1571 9.17196 57.3695C11.4059 45.582 16.923 34.754 25.0254 26.2549C33.1279 17.7557 43.4517 11.9673 54.6913 9.62157C65.9308 7.27586 77.5813 8.47824 88.1692 13.0767C98.7571 17.6751 107.807 25.463 114.174 35.4555C120.541 45.4479 123.94 57.1961 123.94 69.2142C123.92 85.3203 117.812 100.761 106.953 112.151C96.095 123.542 81.3726 129.951 66.0145 129.975Z" fill="#455A64"/>
<path d="M123.939 69.2149C123.939 81.2329 120.54 92.9811 114.173 102.974C107.806 112.966 98.7563 120.754 88.1683 125.352C77.5804 129.951 65.93 131.153 54.6904 128.807C43.4508 126.462 33.127 120.673 25.0246 112.174C16.9222 103.675 11.4051 92.847 9.17113 81.0595C6.93715 69.272 8.08661 57.0544 12.4741 45.952C16.8617 34.8496 24.2902 25.3611 33.8202 18.6864C43.3502 12.0117 54.5536 8.45062 66.0136 8.45362C81.3729 8.47367 96.0975 14.8822 106.957 26.2732C117.816 37.6643 123.923 53.1075 123.939 69.2149Z" fill="white"/>
<path d="M62.4465 157.44L53.9961 134.565H78.0473L69.5824 157.44C69.303 158.194 68.8128 158.842 68.1761 159.299C67.5394 159.756 66.7859 160 66.0145 160C65.243 160 64.4896 159.756 63.8529 159.299C63.2162 158.842 62.726 158.194 62.4465 157.44Z" fill="#455A64"/>
<path d="M58.9665 93.5897C57.1709 93.5782 55.4216 92.9917 53.9526 91.9088C52.4837 90.8259 51.3653 89.2981 50.7472 87.5302C50.7323 87.4863 50.705 87.4481 50.6688 87.421C50.6326 87.3939 50.5894 87.3792 50.5449 87.3787C48.8856 87.5 47.2274 87.128 45.7607 86.3053C44.294 85.4827 43.0783 84.2428 42.2534 82.7281C41.4047 81.1645 41.0176 79.372 41.1411 77.5775C39.6299 77.3769 38.1947 76.7662 36.9775 75.8058C35.7602 74.8453 34.803 73.5684 34.2005 72.1012C33.598 70.634 33.371 69.0273 33.5419 67.4399C33.7129 65.8525 34.2759 64.3393 35.1753 63.05C35.2534 62.9583 35.2967 62.8397 35.2967 62.7167C35.2967 62.5938 35.2534 62.4751 35.1753 62.3835C34.0444 61.1708 33.2554 59.6537 32.8955 58C32.5357 56.3463 32.619 54.6204 33.1363 53.0133C33.6536 51.4062 34.5847 49.9805 35.8267 48.8938C37.0686 47.8071 38.5729 47.1019 40.1733 46.8561C38.8248 45.2677 38.042 43.2389 37.9577 41.1141C37.8735 38.9893 38.493 36.8993 39.7111 35.1991C40.9292 33.4988 42.6709 32.293 44.6404 31.7863C46.6099 31.2797 48.6859 31.5033 50.516 32.4194V32.177C50.9299 30.156 51.9883 28.3433 53.5167 27.0379C55.0451 25.7326 56.9521 25.0125 58.9231 24.9966C61.2486 24.9966 63.4788 25.9654 65.1232 27.6898C66.7676 29.4142 67.6914 31.7531 67.6914 34.1918V84.4096C67.6838 86.8366 66.7631 89.1624 65.1293 90.8814C63.4955 92.6004 61.2808 93.5737 58.9665 93.5897ZM50.5594 83.8188C51.3082 83.8218 52.0385 84.064 52.6527 84.5133C53.2669 84.9626 53.736 85.5975 53.9973 86.3335C54.4237 87.5663 55.2518 88.6013 56.3354 89.2558C57.419 89.9102 58.6884 90.1419 59.9191 89.9098C61.1498 89.6778 62.2627 88.997 63.0611 87.9877C63.8596 86.9785 64.2921 85.7058 64.2823 84.3944V34.1767C64.2633 32.7113 63.6949 31.3128 62.7 30.2836C61.7052 29.2545 60.3639 28.6776 58.9665 28.6777C57.7868 28.6792 56.6435 29.106 55.7282 29.8866C54.813 30.6671 54.1814 31.7539 53.9395 32.9648L53.6218 34.616C53.5279 35.0331 53.3374 35.4194 53.0671 35.7408C52.7968 36.0622 52.4551 36.3088 52.0722 36.4586C51.6894 36.6084 51.2772 36.6569 50.8722 36.5997C50.4672 36.5425 50.0819 36.3815 49.7505 36.1308C48.6615 35.348 47.3337 35.0182 46.0256 35.2056C44.7175 35.3929 43.5227 36.0841 42.6738 37.1445C41.8248 38.2048 41.3826 39.5586 41.433 40.9421C41.4835 42.3256 42.0231 43.64 42.9468 44.6292C43.3842 45.0783 43.688 45.6508 43.8213 46.2773C43.9546 46.9038 43.9118 47.5574 43.6979 48.1589C43.4844 48.7746 43.1068 49.3132 42.6101 49.7106C42.1133 50.108 41.5183 50.3476 40.8956 50.4009C39.8871 50.4897 38.9239 50.8795 38.1198 51.524C37.3158 52.1686 36.7045 53.041 36.3581 54.0383C36.0118 55.0355 35.9449 56.1159 36.1653 57.1518C36.3857 58.1877 36.8843 59.1357 37.6021 59.8839C38.2671 60.5828 38.6698 61.5097 38.7361 62.4946C38.8024 63.4796 38.528 64.4566 37.9632 65.2465C37.3779 66.072 37.0224 67.0515 36.9363 68.0761C36.8502 69.1008 37.0369 70.1304 37.4755 71.0505C37.9142 71.9705 38.5876 72.7449 39.4209 73.2874C40.2543 73.83 41.2148 74.1195 42.1956 74.1237C42.5665 74.1255 42.9324 74.2134 43.267 74.381C43.6017 74.5486 43.8968 74.7918 44.1313 75.0932C44.3679 75.3961 44.5384 75.7498 44.6308 76.1293C44.7231 76.5088 44.735 76.9049 44.6658 77.2897C44.5142 78.128 44.5491 78.9918 44.7679 79.8136C44.9867 80.6354 45.3835 81.3932 45.9272 82.0279C46.471 82.6627 47.1471 83.1572 47.9029 83.4731C48.6588 83.789 49.4739 83.9176 50.2849 83.8491L50.5594 83.8188Z" fill="#4BC7C1"/>
<path d="M53.608 45.9336C52.1748 45.9323 50.7688 45.523 49.54 44.7493C48.3112 43.9756 47.3058 42.8665 46.631 41.5405C46.4359 41.1628 46.3917 40.7193 46.5081 40.3074C46.6246 39.8955 46.8922 39.549 47.2522 39.3439C47.6148 39.1445 48.0378 39.1026 48.4296 39.2273C48.8215 39.352 49.1509 39.6333 49.3467 40.0105C49.7835 40.8755 50.4501 41.589 51.2659 42.0647C52.0816 42.5403 53.0113 42.7576 53.9424 42.6903C54.8735 42.623 55.7661 42.2738 56.5118 41.6853C57.2575 41.0967 57.8244 40.2939 58.1438 39.3742C58.287 38.9695 58.5768 38.6406 58.9502 38.459C59.3235 38.2774 59.7502 38.2579 60.1373 38.4047C60.3277 38.4773 60.5025 38.5887 60.6515 38.7326C60.8006 38.8765 60.9209 39.05 61.0056 39.2431C61.0902 39.4361 61.1375 39.6449 61.1447 39.8572C61.1518 40.0695 61.1187 40.2813 61.0473 40.4801C60.485 42.0758 59.4712 43.4532 58.1416 44.4279C56.812 45.4026 55.2302 45.9279 53.608 45.9336Z" fill="#4BC7C1"/>
<path d="M53.8081 79.9103C52.4682 79.9086 51.1508 79.5488 49.9802 78.8651C49.7735 78.7844 49.5857 78.6583 49.4293 78.4952C49.273 78.3321 49.1517 78.1359 49.0736 77.9196C48.9956 77.7033 48.9626 77.472 48.9769 77.2412C48.9911 77.0104 49.0523 76.7855 49.1563 76.5816C49.2603 76.3777 49.4047 76.1994 49.5798 76.0588C49.7549 75.9183 49.9566 75.8186 50.1715 75.7666C50.3864 75.7146 50.6094 75.7114 50.8255 75.7572C51.0417 75.803 51.246 75.8968 51.4247 76.0323C52.2436 76.5441 53.1884 76.7908 54.1406 76.7416C55.0927 76.6923 56.0098 76.3492 56.7767 75.7553C57.5435 75.1615 58.1261 74.3433 58.4512 73.4035C58.7763 72.4637 58.8294 71.4441 58.6039 70.4727C58.5139 70.0529 58.5866 69.6127 58.806 69.2491C59.0254 68.8854 59.3736 68.6281 59.774 68.5337C60.1743 68.4393 60.5941 68.5155 60.9408 68.7456C61.2876 68.9757 61.5329 69.3409 61.623 69.7607C61.8825 70.9783 61.8781 72.2414 61.6099 73.4569C61.3417 74.6724 60.8166 75.8092 60.0734 76.7834C59.3302 77.7576 58.3879 78.5443 57.316 79.0856C56.2441 79.6268 55.07 79.9086 53.8804 79.9103H53.8081Z" fill="#4BC7C1"/>
<path d="M43.4672 69.7622C41.567 69.758 39.7314 69.0385 38.2945 67.7346C36.8575 66.4306 35.9148 64.6289 35.6379 62.6574C35.5894 62.4391 35.5847 62.2126 35.6239 61.9923C35.6632 61.7719 35.7456 61.5625 35.8659 61.3772C35.9863 61.1919 36.142 61.0349 36.3232 60.9159C36.5044 60.797 36.7071 60.7187 36.9186 60.6862C37.1301 60.6536 37.3458 60.6673 37.5519 60.7266C37.7581 60.7859 37.9503 60.8893 38.1163 61.0305C38.2824 61.1716 38.4188 61.3473 38.5168 61.5465C38.6149 61.7457 38.6724 61.9641 38.6859 62.1878C38.8208 63.156 39.2198 64.0627 39.8348 64.7986C40.4497 65.5344 41.2545 66.0682 42.152 66.3355C43.0496 66.6029 44.0017 66.5924 44.8937 66.3053C45.7857 66.0183 46.5795 65.4669 47.1796 64.7177C47.3103 64.5542 47.4705 64.4195 47.651 64.3211C47.8314 64.2227 48.0286 64.1627 48.2313 64.1444C48.4339 64.1261 48.638 64.1499 48.8318 64.2145C49.0256 64.2791 49.2054 64.3832 49.3608 64.5207C49.5162 64.6565 49.6444 64.8231 49.738 65.0111C49.8316 65.199 49.8888 65.4046 49.9063 65.6158C49.9237 65.8271 49.9011 66.0399 49.8397 66.2419C49.7784 66.444 49.6794 66.6313 49.5486 66.793C48.8015 67.7215 47.8704 68.4681 46.8201 68.9809C45.7699 69.4937 44.6257 69.7603 43.4672 69.7622Z" fill="#4BC7C1"/>
<path d="M57.1614 62.9142H56.9447C56.5374 62.8505 56.1706 62.6204 55.9243 62.2742C55.6781 61.928 55.5723 61.4937 55.6302 61.0661C55.7637 60.1007 55.629 59.1155 55.2423 58.2284C54.8556 57.3413 54.2333 56.5898 53.4499 56.0639C52.6665 55.5381 51.7552 55.2601 50.8251 55.2634C49.895 55.2666 48.9855 55.5509 48.2054 56.0822C48.0358 56.2083 47.8437 56.2973 47.6406 56.3437C47.4374 56.3902 47.2274 56.3932 47.0232 56.3525C46.8189 56.3119 46.6245 56.2284 46.4517 56.1072C46.2789 55.9859 46.1312 55.8294 46.0175 55.6468C45.9037 55.4643 45.8263 55.2596 45.7897 55.045C45.7531 54.8303 45.7583 54.6102 45.8047 54.3977C45.8512 54.1851 45.9381 53.9846 46.0602 53.8081C46.1823 53.6317 46.3371 53.4828 46.5153 53.3706C47.7907 52.5193 49.2717 52.0688 50.7835 52.0723C52.2952 52.0758 53.7744 52.5332 55.0461 53.3904C56.3178 54.2477 57.3288 55.4688 57.9597 56.9096C58.5905 58.3503 58.8148 59.9504 58.6059 61.5205C58.5563 61.8923 58.3852 62.2345 58.1217 62.4887C57.8583 62.7429 57.5189 62.8933 57.1614 62.9142Z" fill="#4BC7C1"/>
<path d="M73.0516 93.5902C70.7298 93.5822 68.5055 92.6103 66.8651 90.8872C65.2247 89.164 64.3017 86.8298 64.2979 84.3949V34.1772C64.2978 31.7411 65.2197 29.4045 66.8609 27.6805C68.5021 25.9565 70.7286 24.9859 73.0516 24.9819C75.0227 24.9979 76.9297 25.7179 78.458 27.0233C79.9864 28.3286 81.0448 30.1414 81.4587 32.1624V32.4199C83.291 31.4672 85.3831 31.2161 87.3733 31.71C89.3634 32.204 91.1263 33.4119 92.3569 35.1249C93.5875 36.8378 94.2085 38.948 94.1123 41.0904C94.0162 43.2327 93.209 45.2724 91.8303 46.8566C93.4505 47.0821 94.9781 47.7788 96.2402 48.8678C97.5023 49.9568 98.4485 51.3946 98.9717 53.0184C99.4948 54.6422 99.574 56.3872 99.2003 58.0558C98.8267 59.7243 98.015 61.2499 96.8573 62.4597C96.776 62.5497 96.7307 62.669 96.7307 62.793C96.7307 62.9169 96.776 63.0362 96.8573 63.1262C97.7569 64.4166 98.3197 65.9309 98.4899 67.5194C98.6602 69.1079 98.4319 70.7155 97.8278 72.1831C97.2237 73.6507 96.2646 74.9274 95.0455 75.8869C93.8263 76.8464 92.3894 77.4555 90.877 77.6538C91.0048 79.4467 90.6228 81.2391 89.7791 82.8043C88.9518 84.3202 87.7336 85.5607 86.2644 86.3834C84.7952 87.206 83.1346 87.5774 81.4732 87.455C81.3865 87.455 81.2998 87.455 81.2709 87.6064C80.6428 89.3614 79.5198 90.8741 78.0515 91.9431C76.5831 93.0121 74.8391 93.5866 73.0516 93.5902ZM73.0516 28.6782C71.6443 28.6822 70.2959 29.2713 69.3021 30.3163C68.3083 31.3614 67.7502 32.777 67.7502 34.2529V84.4707C67.7404 85.782 68.173 87.0547 68.9714 88.064C69.7698 89.0732 70.8827 89.754 72.1134 89.9861C73.3442 90.2181 74.6135 89.9864 75.6971 89.332C76.7807 88.6776 77.6089 87.6425 78.0352 86.4097C78.2913 85.6127 78.7913 84.9267 79.4573 84.4583C80.1234 83.9899 80.9184 83.7652 81.7187 83.8193C82.5294 83.8841 83.3435 83.7531 84.0983 83.4362C84.8531 83.1193 85.5286 82.6251 86.0727 81.9916C86.6169 81.358 87.0152 80.602 87.237 79.7817C87.4588 78.9614 87.4983 78.0987 87.3523 77.2599C87.2875 76.8802 87.302 76.4902 87.3948 76.1169C87.4877 75.7436 87.6567 75.3959 87.8902 75.0978C88.1236 74.7996 88.416 74.5582 88.7471 74.3901C89.0783 74.222 89.4402 74.1313 89.808 74.1241C90.7852 74.1187 91.742 73.83 92.5726 73.2901C93.4032 72.7501 94.0753 71.9799 94.5148 71.0646C94.9542 70.1492 95.1438 69.1243 95.0626 68.103C94.9815 67.0817 94.6327 66.1038 94.0549 65.2773C93.4901 64.4874 93.2157 63.5103 93.282 62.5254C93.3484 61.5405 93.7509 60.6136 94.416 59.9147C95.1338 59.1665 95.6324 58.2184 95.8528 57.1826C96.0732 56.1467 96.0063 55.0663 95.66 54.0691C95.3136 53.0718 94.7023 52.1994 93.8983 51.5548C93.0942 50.9102 92.131 50.5205 91.1225 50.4317C90.4987 50.382 89.9021 50.1439 89.4047 49.7459C88.9073 49.348 88.5306 48.8075 88.3202 48.1897C88.1063 47.5882 88.0635 46.9346 88.1968 46.3081C88.3301 45.6816 88.6339 45.1091 89.0713 44.66C89.995 43.6708 90.5346 42.3564 90.5851 40.9729C90.6355 39.5894 90.1933 38.2356 89.3443 37.1753C88.4954 36.1149 87.3006 35.4237 85.9925 35.2364C84.6844 35.049 83.3566 35.3788 82.2676 36.1616C81.9298 36.4128 81.5378 36.5719 81.1268 36.6248C80.7158 36.6777 80.2988 36.6226 79.9131 36.4646C79.5298 36.3066 79.1902 36.0506 78.9253 35.7199C78.6604 35.3892 78.4786 34.9942 78.3963 34.571L78.0641 32.9198C77.8141 31.7199 77.181 30.6454 76.2695 29.8741C75.358 29.1028 74.2228 28.6809 73.0516 28.6782Z" fill="#4BC7C1"/>
<path d="M78.396 45.9326C76.7743 45.9248 75.1935 45.3986 73.8643 44.4242C72.5351 43.4498 71.5208 42.0736 70.9568 40.4791C70.8625 40.0899 70.9093 39.6778 71.0882 39.3228C71.267 38.9677 71.5652 38.6949 71.9248 38.5572C72.2845 38.4196 72.6802 38.4268 73.0351 38.5775C73.39 38.7283 73.6789 39.0118 73.8458 39.3732C74.1652 40.2929 74.7321 41.0957 75.4779 41.6842C76.2236 42.2728 77.1161 42.6219 78.0472 42.6893C78.9783 42.7566 79.9081 42.5393 80.7238 42.0636C81.5395 41.588 82.2061 40.8744 82.6429 40.0095C82.8437 39.6477 83.1701 39.3815 83.5538 39.2664C83.9375 39.1513 84.3488 39.1964 84.7016 39.3921C85.0543 39.5879 85.3213 39.9191 85.4464 40.3165C85.5716 40.714 85.5453 41.1468 85.3731 41.5243C84.7002 42.8532 83.6956 43.9653 82.4667 44.7418C81.2378 45.5182 79.8308 45.9298 78.396 45.9326Z" fill="#4BC7C1"/>
<path d="M78.193 79.9103C77.0046 79.9064 75.8321 79.6228 74.762 79.0807C73.6919 78.5385 72.7515 77.7514 72.0099 76.7775C71.2683 75.8036 70.7445 74.6676 70.4771 73.4532C70.2097 72.2388 70.2056 70.977 70.4649 69.7607C70.5549 69.3409 70.8003 68.9757 71.147 68.7456C71.4938 68.5155 71.9135 68.4393 72.3138 68.5337C72.7142 68.6281 73.0624 68.8854 73.2818 69.2491C73.5012 69.6127 73.5739 70.0529 73.4839 70.4727C73.2802 71.4255 73.3429 72.4197 73.6646 73.336C73.9862 74.2523 74.5531 75.0519 75.2973 75.6388C76.0414 76.2256 76.9312 76.5749 77.8599 76.6447C78.7886 76.7145 79.7168 76.5019 80.5331 76.0323C80.7118 75.8968 80.9162 75.803 81.1323 75.7572C81.3484 75.7114 81.5715 75.7146 81.7863 75.7666C82.0012 75.8186 82.2029 75.9183 82.378 76.0588C82.5532 76.1994 82.6975 76.3777 82.8015 76.5816C82.9055 76.7855 82.9667 77.0104 82.981 77.2412C82.9952 77.472 82.9622 77.7033 82.8842 77.9196C82.8061 78.1359 82.6849 78.3321 82.5285 78.4952C82.3721 78.6583 82.1843 78.7844 81.9776 78.8651C80.8189 79.539 79.5179 79.8983 78.193 79.9103Z" fill="#4BC7C1"/>
<path d="M88.5502 69.7612C87.3872 69.7519 86.2402 69.4758 85.1896 68.9525C84.1391 68.4291 83.2105 67.671 82.4688 66.7315C82.3381 66.5697 82.2391 66.3824 82.1777 66.1804C82.1163 65.9783 82.0937 65.7655 82.1112 65.5543C82.1286 65.343 82.1858 65.1375 82.2795 64.9495C82.3731 64.7615 82.5012 64.5949 82.6566 64.4592C82.972 64.1851 83.3776 64.0522 83.7857 64.089C84.1938 64.1259 84.5717 64.3296 84.8378 64.6561C85.4378 65.3855 86.2232 65.9208 87.1025 66.1995C87.9818 66.4781 88.9185 66.4886 89.8032 66.2296C90.6879 65.9706 91.4841 65.453 92.0987 64.7371C92.7132 64.0212 93.1208 63.1367 93.2738 62.1869C93.3332 61.761 93.5515 61.3773 93.8806 61.1202C94.2098 60.8631 94.6228 60.7536 95.0289 60.8159C95.435 60.8782 95.8009 61.1071 96.046 61.4523C96.2912 61.7974 96.3956 62.2306 96.3362 62.6565C96.1275 64.1439 95.5375 65.544 94.6293 66.7073C93.721 67.8705 92.5286 68.7533 91.1793 69.2613C90.3369 69.5855 89.4475 69.7547 88.5502 69.7612Z" fill="#4BC7C1"/>
<path d="M74.8858 62.9141C74.5141 62.9112 74.1556 62.7691 73.8749 62.5136C73.5942 62.2581 73.4097 61.9059 73.3546 61.5204C73.1326 59.9348 73.3522 58.3157 73.9869 56.8579C74.6217 55.4 75.6446 54.1656 76.9325 53.303C78.2205 52.4404 79.7186 51.9865 81.2468 51.9957C82.7749 52.005 84.268 52.4771 85.5463 53.3553C85.7246 53.4676 85.8794 53.6164 86.0015 53.7929C86.1236 53.9694 86.2105 54.1699 86.2569 54.3824C86.3034 54.5949 86.3085 54.8151 86.272 55.0297C86.2354 55.2444 86.158 55.4491 86.0442 55.6316C85.9304 55.8141 85.7828 55.9707 85.61 56.0919C85.4372 56.2132 85.2428 56.2966 85.0385 56.3373C84.8343 56.3779 84.6243 56.3749 84.4211 56.3284C84.218 56.282 84.0259 56.193 83.8563 56.0669C83.0263 55.5023 82.0517 55.2171 81.0629 55.2496C80.0741 55.2821 79.1184 55.6307 78.3238 56.2487C77.6188 56.7908 77.0685 57.5248 76.7324 58.3711C76.3963 59.2175 76.2873 60.1441 76.417 61.0508C76.4478 61.2617 76.4385 61.4769 76.3897 61.6841C76.341 61.8912 76.2537 62.0863 76.1329 62.258C76.0122 62.4297 75.8602 62.5747 75.6859 62.6847C75.5115 62.7947 75.3182 62.8675 75.1169 62.8989L74.8858 62.9141Z" fill="#4BC7C1"/>
<path d="M76.27 99.4972H55.7146C55.3047 99.4972 54.9115 99.3264 54.6216 99.0224C54.3318 98.7185 54.1689 98.3062 54.1689 97.8763C54.1689 97.4464 54.3318 97.0341 54.6216 96.7301C54.9115 96.4261 55.3047 96.2554 55.7146 96.2554H76.2412C76.6511 96.2554 77.0442 96.4261 77.3341 96.7301C77.6239 97.0341 77.7868 97.4464 77.7868 97.8763C77.7868 98.3062 77.6239 98.7185 77.3341 99.0224C77.0442 99.3264 76.6511 99.4972 76.2412 99.4972H76.27Z" fill="#4BC7C1"/>
<path d="M66.0009 116.283C62.8721 116.279 59.8725 114.974 57.6601 112.654C55.4477 110.333 54.203 107.188 54.1992 103.907C54.1992 103.477 54.3621 103.064 54.6519 102.76C54.9418 102.456 55.3349 102.286 55.7449 102.286H76.2714C76.6814 102.286 77.0745 102.456 77.3644 102.76C77.6542 103.064 77.8171 103.477 77.8171 103.907C77.8133 107.19 76.5667 110.338 74.3511 112.659C72.1356 114.98 69.1323 116.283 66.0009 116.283ZM57.4205 105.527C57.7149 107.694 58.7448 109.676 60.3211 111.111C61.8973 112.545 63.9141 113.334 66.0009 113.334C68.0878 113.334 70.1045 112.545 71.6808 111.111C73.2571 109.676 74.287 107.694 74.5814 105.527H57.4205Z" fill="#4BC7C1"/>
</svg>
