<svg width="195" height="173" viewBox="0 0 195 173" fill="none" xmlns="http://www.w3.org/2000/svg">
<path d="M195 132.311H0V132.396H195V132.311Z" fill="#EBEBEB"/>
<path d="M175.461 137.878H162.544V137.964H175.461V137.878Z" fill="#EBEBEB"/>
<path d="M129.176 138.819H125.787V138.905H129.176V138.819Z" fill="#EBEBEB"/>
<path d="M162.154 134.667H154.67V134.754H162.154V134.667Z" fill="#EBEBEB"/>
<path d="M37.3031 135.248H20.459V135.335H37.3031V135.248Z" fill="#EBEBEB"/>
<path d="M43.247 135.248H40.7783V135.335H43.247V135.248Z" fill="#EBEBEB"/>
<path d="M87.8086 136.708H51.2734V136.796H87.8086V136.708Z" fill="#EBEBEB"/>
<path d="M92.4304 116.879H17.1253C16.5354 116.878 15.97 116.67 15.5532 116.299C15.1364 115.929 14.9023 115.427 14.9023 114.903V20.9886C14.9075 20.4683 15.1438 19.9707 15.5601 19.604C15.9763 19.2373 16.5388 19.0312 17.1253 19.0303H92.4304C93.021 19.0303 93.5875 19.2384 94.0051 19.6089C94.4227 19.9794 94.6573 20.482 94.6573 21.0059V114.903C94.6573 115.427 94.4227 115.93 94.0051 116.3C93.5875 116.671 93.021 116.879 92.4304 116.879ZM17.1253 19.0995C16.5613 19.1004 16.0206 19.2998 15.6222 19.654C15.2237 20.0082 14.9998 20.4882 14.9998 20.9886V114.903C14.9998 115.404 15.2237 115.884 15.6222 116.238C16.0206 116.592 16.5613 116.792 17.1253 116.793H92.4304C92.9949 116.792 93.5359 116.592 93.935 116.238C94.3341 115.884 94.5588 115.404 94.5598 114.903V20.9886C94.5588 20.4879 94.3341 20.0079 93.935 19.6538C93.5359 19.2997 92.9949 19.1004 92.4304 19.0995H17.1253Z" fill="#EBEBEB"/>
<path d="M176.791 116.879H101.482C100.891 116.878 100.326 116.67 99.9083 116.299C99.4909 115.929 99.2559 115.427 99.2549 114.903V20.9886C99.261 20.4679 99.4983 19.9704 99.9151 19.6038C100.332 19.2372 100.895 19.0312 101.482 19.0303H176.791C177.377 19.0321 177.938 19.2387 178.354 19.6052C178.769 19.9718 179.005 20.4689 179.01 20.9886V114.903C179.01 115.426 178.776 115.928 178.36 116.298C177.944 116.668 177.38 116.877 176.791 116.879ZM101.482 19.0995C100.917 19.1004 100.376 19.2997 99.9772 19.6538C99.5781 20.0079 99.3534 20.4879 99.3524 20.9886V114.903C99.3534 115.404 99.5781 115.884 99.9772 116.238C100.376 116.592 100.917 116.792 101.482 116.793H176.791C177.355 116.792 177.896 116.592 178.295 116.238C178.694 115.884 178.919 115.404 178.92 114.903V20.9886C178.919 20.4879 178.694 20.0079 178.295 19.6538C177.896 19.2997 177.355 19.1004 176.791 19.0995H101.482Z" fill="#EBEBEB"/>
<path d="M158.613 59.2045C158.613 59.2045 159.174 55.9244 156.475 53.8207C153.777 51.7171 154.014 50.4645 154.783 50.3019C155.551 50.1393 156.269 52.243 157.454 52.8208C157.454 52.8208 157.489 49.821 156.284 48.7172C155.079 47.6135 154.44 44.7659 155.61 44.7175C156.78 44.669 156.877 46.406 157.111 47.6412C157.345 48.8764 158.628 50.6099 158.628 50.6099C158.628 50.6099 158.878 47.9284 159.654 46.8246C160.43 45.7209 158.359 43.1951 159.159 42.0913C159.958 40.9876 161.382 43.0878 161.265 45.4579C161.148 47.828 159.365 50.3469 159.783 52.8208C159.783 52.8208 160.563 51.0908 161.268 50.9282C161.974 50.7656 162.684 49.6203 163.16 49.1982C163.636 48.7761 164.229 50.2362 163.16 51.6202C162.091 53.0042 159.365 56.6476 159.783 59.6059L158.613 59.2045Z" fill="#E6E6E6"/>
<path d="M156.999 57.7134L156.117 62.6266C156.053 62.9837 156.077 63.3489 156.187 63.697C156.297 64.0452 156.491 64.368 156.755 64.6432C157.02 64.9185 157.348 65.1397 157.718 65.2915C158.088 65.4433 158.49 65.5221 158.898 65.5226H159.842C160.25 65.5231 160.654 65.445 161.024 65.2936C161.395 65.1423 161.725 64.9213 161.99 64.6459C162.255 64.3705 162.45 64.0473 162.56 63.6987C162.671 63.35 162.695 62.9843 162.63 62.6266L161.745 57.71L156.999 57.7134Z" fill="#E6E6E6"/>
<path d="M170.36 63.709H107.913V66.5566H170.36V63.709Z" fill="#E0E0E0"/>
<path d="M113.537 53.2188H110.787V63.7129H113.537V53.2188Z" fill="#EBEBEB"/>
<path d="M126.839 53.2188H124.09V63.7129H126.839V53.2188Z" fill="#EBEBEB"/>
<path d="M141.943 52.9528L139.233 53.3672L141.243 63.7089L143.952 63.2945L141.943 52.9528Z" fill="#EBEBEB"/>
<path d="M116.946 54.5986H114.196V63.7088H116.946V54.5986Z" fill="#EBEBEB"/>
<path d="M123.271 54.5986H120.521V63.7088H123.271V54.5986Z" fill="#EBEBEB"/>
<path d="M139.23 54.5986H136.48V63.7088H139.23V54.5986Z" fill="#EBEBEB"/>
<path d="M130.455 54.2823L127.771 54.8115L129.999 63.7047L132.683 63.1755L130.455 54.2823Z" fill="#EBEBEB"/>
<path d="M119.328 52.6963H117.951V63.7095H119.328V52.6963Z" fill="#EBEBEB"/>
<path d="M135.693 52.6963H134.316V63.7095H135.693V52.6963Z" fill="#EBEBEB"/>
<path d="M107.913 87.8086H170.359V84.961H107.913V87.8086Z" fill="#E0E0E0"/>
<path d="M164.736 84.9609H167.485V74.4668H164.736V84.9609Z" fill="#EBEBEB"/>
<path d="M151.433 84.9609H154.183V74.4668H151.433V84.9609Z" fill="#EBEBEB"/>
<path d="M134.324 84.5456L137.033 84.96L139.042 74.6183L136.333 74.2039L134.324 84.5456Z" fill="#EBEBEB"/>
<path d="M161.328 84.9609H164.077V75.8508H161.328V84.9609Z" fill="#EBEBEB"/>
<path d="M155.005 84.9609H157.755V75.8508H155.005V84.9609Z" fill="#EBEBEB"/>
<path d="M139.042 84.9609H141.792V75.8508H139.042V84.9609Z" fill="#EBEBEB"/>
<path d="M145.601 84.4278L148.285 84.957L150.513 76.0638L147.829 75.5346L145.601 84.4278Z" fill="#EBEBEB"/>
<path d="M158.945 84.9609H160.321V73.9478H158.945V84.9609Z" fill="#EBEBEB"/>
<path d="M142.584 84.9609H143.961V73.9478H142.584V84.9609Z" fill="#EBEBEB"/>
<path d="M113.903 84.8672H127.308V76.6566H113.903V84.8672Z" fill="#EBEBEB"/>
<path d="M51.2148 88.168L51.9441 92.4757L61.3977 92.0052L61.581 87.6559C64.6602 86.9323 67.5579 85.6997 70.122 84.0229L74.061 86.6006L80.3673 80.3415L77.0406 77.1583C78.6355 74.7132 79.6941 72.0224 80.1606 69.228L85.02 68.574L84.4857 60.2043L79.5834 60.0382C78.7676 57.3075 77.3783 54.7379 75.4884 52.4643L78.3939 48.9697L71.3388 43.3714L67.7469 46.3228C64.99 44.9098 61.9574 43.9707 58.8081 43.5548L58.0749 39.2471L48.6252 39.7142L48.438 44.0669C45.3597 44.7899 42.4632 46.0225 39.9009 47.6999L35.9619 45.1187L29.64 51.3675L32.9667 54.5541C31.3752 57.0018 30.3168 59.6931 29.8467 62.4879L24.9951 63.1349L25.5216 71.522L30.4278 71.688C31.2445 74.4184 32.6338 76.9879 34.5228 79.262L31.6134 82.7566L38.6685 88.3549L42.2604 85.4C45.0213 86.8162 48.0597 87.7554 51.2148 88.168ZM46.4685 74.328C44.5803 72.8291 43.2355 70.867 42.6042 68.69C41.9728 66.513 42.0833 64.2188 42.9215 62.0975C43.7598 59.9762 45.2882 58.123 47.3136 56.7723C49.339 55.4217 51.7703 54.6341 54.3001 54.5093C56.83 54.3845 59.3448 54.928 61.5265 56.0711C63.7082 57.2142 65.4588 58.9055 66.557 60.9313C67.6553 62.9571 68.0518 65.2263 67.6964 67.452C67.3411 69.6776 66.2498 71.7599 64.5606 73.4353C63.4388 74.548 62.081 75.4537 60.5646 76.1008C59.0482 76.7478 57.403 77.1235 55.723 77.2064C54.0429 77.2893 52.3609 77.0778 50.773 76.5839C49.1851 76.09 47.7224 75.3235 46.4685 74.328Z" fill="#F0F0F0"/>
<path d="M76.7676 37.7866L78.468 35.5999L77.298 34.7176C77.6876 33.8949 77.8993 33.0146 77.922 32.1226L79.4157 31.7454L78.8736 29.1366L77.3136 29.2577C76.9356 28.4292 76.3837 27.6719 75.6873 27.026L76.44 25.8254L73.9791 24.3203L72.9846 25.3583C72.0561 25.0123 71.0625 24.8245 70.0557 24.8047L69.6345 23.4795L66.69 23.9743L66.8265 25.3583C65.8941 25.6945 65.0408 26.1827 64.311 26.7976L62.9616 26.1299L61.2612 28.3131L62.4312 29.1954C62.0423 30.0193 61.832 30.9009 61.8111 31.7939L60.3174 32.1676L60.8556 34.7799L62.4156 34.6588C62.7917 35.4873 63.3423 36.2447 64.038 36.8905L63.2892 38.0599L65.754 39.565L66.7485 38.527C67.6756 38.873 68.6679 39.0608 69.6735 39.0806L70.0986 40.4058L73.0392 39.9283L72.9027 38.5443C73.8351 38.2081 74.6883 37.7199 75.4182 37.105L76.7676 37.7866ZM67.5675 34.9079C66.9077 34.5041 66.3977 33.9359 66.102 33.275C65.8063 32.614 65.7382 31.8902 65.9063 31.1949C66.0743 30.4997 66.471 29.8642 67.0461 29.369C67.6213 28.8737 68.349 28.5409 69.1374 28.4127C69.9257 28.2844 70.7392 28.3665 71.475 28.6484C72.2108 28.9304 72.8358 29.3996 73.271 29.9967C73.7062 30.5938 73.932 31.292 73.9199 32.003C73.9078 32.714 73.6583 33.4058 73.203 33.991C72.9011 34.3798 72.5157 34.7119 72.069 34.9685C71.6223 35.225 71.1229 35.4009 70.5995 35.486C70.0761 35.5712 69.5389 35.564 69.0186 35.4648C68.4983 35.3656 68.0052 35.1763 67.5675 34.9079Z" fill="#F0F0F0"/>
<path d="M45.3453 101.412L46.8663 99.9039L46.0863 99.1358C46.4565 98.5443 46.6985 97.8965 46.8 97.2259L47.97 97.0702L47.8413 95.053L46.6713 95.0115C46.4759 94.3543 46.1425 93.7356 45.6885 93.1881L46.41 92.3473L44.7096 90.9979L43.8477 91.7107C43.1842 91.3694 42.4537 91.1428 41.6949 91.0429L41.5194 90.0049L39.2418 90.1156L39.195 91.1536C38.4469 91.3291 37.743 91.6284 37.1202 92.0359L36.1725 91.4131L34.6554 92.9217L35.4354 93.6898C35.0605 94.2828 34.8144 94.933 34.71 95.6066L33.54 95.7623L33.6648 97.7795L34.8348 97.821C35.0336 98.4802 35.371 99.1 35.8293 99.6479L35.1273 100.489L36.8277 101.838L37.6935 101.125C38.3568 101.467 39.0875 101.694 39.8463 101.793L40.0218 102.831L42.2994 102.717L42.3423 101.679C43.0834 101.504 43.7806 101.207 44.3976 100.804L45.3453 101.412ZM38.7153 98.4577C38.2604 98.097 37.9361 97.6248 37.7837 97.1007C37.6312 96.5766 37.6573 96.0242 37.8587 95.5133C38.0601 95.0023 38.4277 94.5559 38.9151 94.2303C39.4025 93.9047 39.9878 93.7147 40.597 93.6842C41.2061 93.6537 41.8117 93.7842 42.3373 94.0591C42.8629 94.3339 43.2848 94.7409 43.5497 95.2285C43.8145 95.7161 43.9105 96.2624 43.8254 96.7984C43.7403 97.3344 43.478 97.836 43.0716 98.2397C42.8019 98.5097 42.4745 98.7297 42.1085 98.887C41.7424 99.0442 41.3449 99.1356 40.9388 99.1559C40.5327 99.1761 40.1262 99.1249 39.7425 99.005C39.3589 98.8852 39.0058 98.6992 38.7036 98.4577H38.7153Z" fill="#F0F0F0"/>
<path d="M34.4877 43.4166L36.27 41.6623L35.3379 40.7697C35.7853 40.0838 36.0818 39.3289 36.2115 38.5449L37.5726 38.365L37.4244 36.0122L36.036 35.9845C35.8013 35.217 35.4042 34.496 34.866 33.86L35.7006 32.8705L33.7233 31.3031L32.7171 32.13C31.9456 31.7329 31.0959 31.4699 30.2133 31.355L30.0066 30.1475L27.3585 30.2789L27.3 31.4865C26.4375 31.6953 25.6276 32.0475 24.9132 32.5245L23.8095 31.8013L22.0389 33.5556L22.971 34.4482C22.5271 35.1342 22.2308 35.8875 22.0974 36.6696L20.7363 36.8529L20.8845 39.2023L22.2612 39.2507C22.4898 40.0098 22.876 40.7244 23.4 41.3579L22.5849 42.337L24.57 43.9079L25.5762 43.0809C26.3496 43.4745 27.1986 43.7372 28.08 43.856L28.2828 45.0635L30.9348 44.932L30.9855 43.7107C31.8484 43.5074 32.6606 43.1623 33.3801 42.6934L34.4877 43.4166ZM26.754 39.9773C26.2241 39.5574 25.8464 39.0076 25.6688 38.3972C25.4911 37.7869 25.5215 37.1435 25.7561 36.5485C25.9906 35.9535 26.4188 35.4336 26.9865 35.0545C27.5542 34.6754 28.2358 34.4542 28.9452 34.4189C29.6546 34.3835 30.3599 34.5356 30.9718 34.8559C31.5838 35.1763 32.0749 35.6504 32.383 36.2184C32.6912 36.7863 32.8026 37.4226 32.7031 38.0468C32.6036 38.6709 32.2977 39.2549 31.824 39.7247C31.1887 40.3536 30.2983 40.7334 29.3479 40.7807C28.3975 40.8281 27.4647 40.5392 26.754 39.9773Z" fill="#F0F0F0"/>
<path d="M58.6408 27.7697L59.4208 27.0085L59.0308 26.621C59.2263 26.3231 59.3585 25.9959 59.4208 25.6557L60.0097 25.5796L59.9473 24.5416L59.3506 24.5208C59.2511 24.1889 59.0817 23.8766 58.8514 23.6004L59.2063 23.1783L58.3483 22.4863L57.9115 22.8323C57.5778 22.6576 57.21 22.5402 56.8273 22.4863L56.7376 21.9639L55.5871 22.0227L55.5676 22.5486C55.1939 22.6379 54.8421 22.788 54.5302 22.9915L54.0505 22.6766L53.2705 23.4378L53.6605 23.8253C53.4617 24.1218 53.3292 24.4496 53.2705 24.7907L52.6816 24.8668L52.744 25.8875L53.3407 25.9083C53.4276 26.2559 53.5906 26.5851 53.8204 26.8771L53.4694 27.2992L54.3274 27.9912L54.7642 27.6452C55.0979 27.8199 55.4658 27.9373 55.8484 27.9912L55.9381 28.5136L57.0847 28.4548L57.1081 27.9289C57.4817 27.8391 57.8333 27.6889 58.1455 27.486L58.6408 27.7697ZM55.2868 26.2958C55.0562 26.1137 54.8917 25.875 54.8141 25.6099C54.7366 25.3448 54.7494 25.0652 54.851 24.8066C54.9526 24.5479 55.1384 24.3219 55.3849 24.157C55.6314 23.9921 55.9275 23.8958 56.2357 23.8802C56.5439 23.8647 56.8504 23.9307 57.1164 24.0698C57.3823 24.2089 57.5957 24.4149 57.7297 24.6617C57.8636 24.9084 57.912 25.1849 57.8687 25.4561C57.8254 25.7273 57.6923 25.981 57.4864 26.1851C57.211 26.4581 56.8248 26.623 56.4124 26.6438C56.0001 26.6646 55.5953 26.5394 55.2868 26.2958Z" fill="#F0F0F0"/>
<path d="M80.0049 47.5024C80.6233 47.7322 81.2846 47.8578 81.9549 47.8727L82.2396 48.7619L84.2403 48.4401L84.1506 47.5197C84.7759 47.2954 85.3476 46.9678 85.8354 46.5544L86.7441 47.0042L87.8829 45.5372L87.1029 44.9455C87.3619 44.3968 87.5034 43.8102 87.5202 43.2155L88.5225 42.9629L88.1598 41.2122L87.1224 41.2917C86.8688 40.7372 86.4997 40.2301 86.0343 39.797L86.5413 38.9908L84.8877 37.9805L84.2208 38.6725C83.6023 38.4427 82.941 38.3172 82.2708 38.3023L81.9861 37.4131L80.0127 37.7349L80.1024 38.6552C79.4765 38.8788 78.9047 39.2065 78.4176 39.6206L77.5089 39.1708L76.3701 40.6378L77.1501 41.2295C76.8911 41.7781 76.7495 42.3648 76.7328 42.9595L75.7305 43.212L76.0503 44.9801L77.0877 44.9005C77.3397 45.4557 77.709 45.9631 78.1758 46.3952L77.6688 47.2014L79.3224 48.2117L80.0049 47.5024ZM80.5548 45.0804C80.1079 44.8098 79.7617 44.4275 79.5603 43.982C79.3588 43.5365 79.311 43.048 79.4231 42.5784C79.5352 42.1088 79.802 41.6793 80.1897 41.3445C80.5774 41.0097 81.0685 40.7846 81.6007 40.6979C82.1328 40.6112 82.682 40.6667 83.1785 40.8574C83.675 41.0481 84.0965 41.3654 84.3894 41.769C84.6822 42.1726 84.8333 42.6443 84.8234 43.1243C84.8136 43.6042 84.6432 44.0707 84.3339 44.4646C83.9214 44.9872 83.2931 45.3444 82.5854 45.4584C81.8778 45.5724 81.1481 45.4341 80.5548 45.0735V45.0804Z" fill="#F0F0F0"/>
<path d="M97.4999 147.936C139.262 147.936 173.117 146.182 173.117 144.019C173.117 141.856 139.262 140.103 97.4999 140.103C55.7377 140.103 21.8828 141.856 21.8828 144.019C21.8828 146.182 55.7377 147.936 97.4999 147.936Z" fill="#F5F5F5"/>
<path d="M86.0611 84.7697C85.7048 84.7118 85.3837 84.5424 85.1563 84.2923L83.1478 82.1505C82.9554 81.9474 82.8329 81.6994 82.7949 81.4363C82.7569 81.1731 82.8049 80.9058 82.9333 80.6662L84.0409 78.5314C85.1237 76.4559 86.6972 74.6115 88.6546 73.1234L89.3215 72.6251C89.8444 72.2247 90.5252 72.0249 91.2141 72.0697C91.903 72.1144 92.5437 72.4001 92.9953 72.8639C93.0146 72.8826 93.0329 72.9023 93.0499 72.9227L95.0935 75.1371C95.4807 75.5647 95.6839 76.1005 95.6668 76.6488C95.6496 77.1971 95.4133 77.7221 94.9999 78.13L92.5039 80.6489C92.5039 80.6489 89.3098 85.2853 86.0611 84.7697Z" fill="#EBB376"/>
<path d="M108.088 94.4274C106.872 92.386 104.968 91.2062 102.367 91.1197C100.53 91.0574 98.9975 91.7909 97.6325 92.8497C94.9025 94.9776 92.0906 97.0501 88.9472 98.7109C88.014 99.207 87.0447 99.6474 86.0456 100.029C85.8467 100.102 85.6556 100.206 85.4801 100.143C84.7703 99.8873 85.2227 97.5449 85.4333 96.4827C85.7726 94.7804 86.6735 91.1854 89.4698 84.435L82.403 81.1064C79.6771 84.6998 77.5259 88.6111 76.0109 92.7286C74.3339 97.3062 74.1701 100.247 74.5367 102.583C75.0593 105.897 76.6076 107.614 77.0873 108.119C78.7175 109.821 80.8508 110.714 83.2961 111.035C85.6361 111.347 87.9254 110.97 90.164 110.375C94.6724 109.177 98.5958 107.032 102.254 104.493C103.749 103.446 105.181 102.331 106.544 101.15C107.666 100.231 108.409 99.0039 108.654 97.666C108.671 97.5903 108.696 97.5162 108.728 97.4446V96.3477C108.602 95.6873 108.387 95.0426 108.088 94.4274Z" fill="#4BC7C1"/>
<path opacity="0.2" d="M98.4907 94.2891C97.0648 99.8071 94.6975 105.1 91.4707 109.984C92.1337 109.769 93.0307 109.458 94.0759 109.036C95.8499 108.303 97.5545 107.444 99.1732 106.468C100.672 105.594 102.114 104.644 103.491 103.624L98.4907 94.2891Z" fill="black"/>
<path opacity="0.2" d="M87.0791 74.4631C87.2327 75.4605 87.5302 76.4361 87.9644 77.3661C88.7719 79.0681 90.0102 80.5824 91.5836 81.7914C91.88 81.4212 92.192 81.044 92.5313 80.6634C93.2099 79.8884 93.8963 79.186 94.5632 78.5528L89.7311 72.3525C89.1141 72.7551 88.5254 73.1907 87.9683 73.657C87.6446 73.9303 87.3599 74.2002 87.0791 74.4631Z" fill="black"/>
<path d="M155.357 133.21C150.287 121.996 147.112 114.218 143.489 93.4615C142.596 88.358 137.249 85.0191 131.762 85.4516C130.202 85.5762 124.991 85.0018 115.94 86.9325C109.329 88.3442 97.7148 92.9322 97.7148 92.9322C97.7148 92.9322 102.57 114.277 116.887 133.21H155.357Z" fill="#4BC7C1"/>
<path opacity="0.7" d="M155.357 133.21C150.287 121.996 147.112 114.218 143.489 93.4615C142.596 88.358 137.249 85.0191 131.762 85.4516C130.202 85.5762 124.991 85.0018 115.94 86.9325C109.329 88.3442 97.7148 92.9322 97.7148 92.9322C97.7148 92.9322 102.57 114.277 116.887 133.21H155.357Z" fill="white"/>
<path d="M130.198 115.128C131.656 118.259 133.949 122.11 136.262 125.723C138.041 128.491 139.831 131.134 141.262 133.196H156.222L150.489 121.031L149.655 119.266L148.59 114.388L143.789 92.4996C142.818 88.0708 138.033 84.6108 133.259 84.8876L126.785 85.2544L126.727 85.5035C126.27 87.4688 123.579 100.752 130.151 115L130.198 115.128Z" fill="#4BC7C1"/>
<path d="M111.438 127.646C113.1 130.86 114.223 132.94 114.223 132.94C114.223 132.94 114.223 133.03 114.176 133.196H119.944C119.916 131.314 119.761 129.435 119.48 127.57C118.928 123.872 118.07 120.216 116.914 116.629C116.524 115.373 116.079 114.156 115.627 113.014C111.856 103.492 109.968 89.7418 109.812 88.6035C109.812 88.5516 109.812 88.5273 109.812 88.5273C109.812 88.5273 98.0379 91.5687 97.722 92.9146C96.8835 96.5026 101.743 107.841 106.403 117.543C108.225 121.356 110.026 124.906 111.438 127.646Z" fill="#4BC7C1"/>
<path d="M109.906 87.099C111.63 88.7633 112.308 90.0331 112.507 90.9535C112.8 92.3029 112.067 92.9083 112.067 92.9083C112.979 96.2161 118.01 95.5483 118.01 95.5483C123.661 89.7632 123.143 85.8084 123.143 85.8084C119.543 85.7323 117.086 83.7013 115.503 81.6184C114.453 80.2263 113.644 78.7034 113.1 77.0996L106.704 84.4625C107.842 85.2718 108.912 86.1529 109.906 87.099Z" fill="#EBB376"/>
<path opacity="0.2" d="M106.716 84.4625C107.849 85.2722 108.915 86.1533 109.906 87.099C111.63 88.7633 112.308 90.0331 112.507 90.9535C115.265 88.0574 115.764 84.5559 115.503 81.6114C114.454 80.2215 113.644 78.7009 113.1 77.0996L106.716 84.4625Z" fill="black"/>
<path d="M108.693 57.7579C108.693 56.9656 108.842 54.6889 110.714 52.8655C113.135 50.5057 117.285 50.0525 120.097 51.1355C123.662 52.4952 122.862 55.4605 127.597 61.8615C131.321 66.8854 133.033 66.7055 134.277 70.2277C134.621 71.1965 136.68 77.0578 132.749 80.8949C130.6 82.9917 127.659 83.4795 126.329 83.6214C126.977 82.5834 127.667 81.061 127.285 79.421C126.805 77.3657 124.917 76.3381 123.521 75.269C117.149 70.4042 120.011 63.9651 113.662 59.7751C112.179 58.8078 110.488 58.1212 108.693 57.7579Z" fill="#263238"/>
<path d="M91.0884 77.8505C90.5346 77.1585 86.1354 71.4357 88.5651 65.1039C90.2304 60.7512 94.2162 58.4711 95.7879 57.5749C97.3596 56.6788 100.351 54.9384 104.009 54.9592C113.299 55.0111 120.358 65.0416 119.948 71.0862C119.726 74.4147 118.798 78.5321 115.463 80.8192C114.126 81.7361 113.607 78.1723 113.607 78.1723C113.607 78.1723 100.651 83.5491 91.0884 77.8505Z" fill="#263238"/>
<path d="M112.971 65.1619C115.561 72.8189 116.832 76.0021 114.294 81.4066C110.475 89.5376 99.6491 91.1257 94.6181 84.4203C90.0902 78.3826 86.6231 66.8746 93.3857 60.8576C100.047 54.9237 110.37 57.5084 112.971 65.1619Z" fill="#EBB376"/>
<path d="M103.112 65.5915C109.875 68.7297 104.037 77.8745 112.597 73.9993C121.158 70.1241 111.965 60.6333 105.499 60.2562C99.0329 59.879 103.112 65.5915 103.112 65.5915Z" fill="#263238"/>
<path d="M101.127 71.8987C101.396 72.5249 101.259 73.1789 100.823 73.3588C100.386 73.5387 99.8164 73.1754 99.5473 72.5457C99.2782 71.916 99.4108 71.2655 99.8476 71.0856C100.284 70.9056 100.858 71.2759 101.127 71.8987Z" fill="#263238"/>
<path d="M92.9607 75.3801C93.2337 76.0098 93.0972 76.6638 92.6604 76.8402C92.2236 77.0167 91.6503 76.6569 91.3812 76.0306C91.1121 75.4043 91.2486 74.7504 91.6854 74.5705C92.1222 74.3905 92.6916 74.7538 92.9607 75.3801Z" fill="#263238"/>
<path d="M91.8916 74.5254L90.0898 74.7365C90.0898 74.7365 91.4314 75.5876 91.8916 74.5254Z" fill="#263238"/>
<path d="M95.6393 75.4629C95.6393 75.4629 95.5613 78.6288 94.8125 80.4245C96.0137 80.8674 97.3904 79.9367 97.3904 79.9367L95.6393 75.4629Z" fill="#D58745"/>
<path d="M103.307 80.1546C103.704 80.0394 104.111 79.956 104.524 79.9055C104.552 79.9016 104.581 79.903 104.608 79.9096C104.635 79.9162 104.661 79.928 104.682 79.944C104.704 79.9601 104.722 79.9801 104.734 80.0027C104.747 80.0253 104.753 80.0499 104.754 80.0751C104.758 80.1277 104.74 80.1797 104.703 80.2212C104.666 80.2627 104.614 80.2907 104.555 80.3C103.622 80.4119 102.73 80.7089 101.944 81.169C101.158 81.629 100.499 82.2402 100.016 82.9572C99.9911 83.0042 99.9466 83.0408 99.8918 83.0589C99.8371 83.077 99.7765 83.0753 99.7232 83.0541C99.6725 83.0293 99.6351 82.9877 99.619 82.9384C99.6029 82.8891 99.6095 82.8361 99.6374 82.7912C100.452 81.5406 101.759 80.6015 103.307 80.1546Z" fill="#263238"/>
<path d="M117.655 71.5423C117.692 72.3058 117.549 73.0676 117.234 73.779C116.92 74.4905 116.441 75.1358 115.83 75.6736C114.25 76.9434 112.37 75.4487 111.898 73.3069C111.473 71.3832 111.781 68.4041 113.806 67.9889C115.83 67.5737 117.624 69.4836 117.655 71.5423Z" fill="#EBB376"/>
<path d="M88.6354 72.8331C88.6609 72.7874 88.6976 72.7472 88.7428 72.7155C88.788 72.6837 88.8405 72.6613 88.8967 72.6498C89.4202 72.5515 89.908 72.3394 90.3164 72.0327C90.7248 71.7259 91.041 71.334 91.2366 70.8921C91.2505 70.843 91.2763 70.7972 91.3122 70.7579C91.3482 70.7186 91.3934 70.6867 91.4447 70.6646C91.496 70.6425 91.5522 70.6307 91.6092 70.6299C91.6663 70.6292 91.7228 70.6395 91.7748 70.6603C91.8841 70.7011 91.9725 70.7763 92.0229 70.8715C92.0733 70.9667 92.0822 71.0751 92.0478 71.1758C91.8118 71.74 91.4194 72.2424 90.9068 72.6367C90.3943 73.0309 89.7781 73.3044 89.1151 73.4317C89.0001 73.4494 88.8818 73.4273 88.7846 73.3701C88.6874 73.3128 88.6187 73.2247 88.5925 73.1238C88.5665 73.0255 88.5817 72.9222 88.6354 72.8331Z" fill="#263238"/>
<path d="M100.686 68.2488C100.789 68.2821 100.874 68.3489 100.924 68.4357C100.946 68.4827 100.958 68.5331 100.958 68.5842C100.959 68.6352 100.948 68.6858 100.926 68.7331C100.904 68.7804 100.872 68.8234 100.832 68.8596C100.791 68.8958 100.743 68.9246 100.69 68.9443C100.055 69.2296 99.3544 69.3809 98.6426 69.3863C97.9309 69.3917 97.2275 69.2511 96.5871 68.9754C96.537 68.952 96.4933 68.9192 96.4589 68.8792C96.4245 68.8393 96.4004 68.7932 96.3881 68.7441C96.3759 68.695 96.3758 68.6442 96.388 68.5951C96.4001 68.546 96.4242 68.4999 96.4584 68.4599C96.5252 68.3729 96.6257 68.3108 96.7408 68.2853C96.8558 68.2598 96.9774 68.2727 97.0824 68.3215C97.5926 68.5334 98.1508 68.6386 98.714 68.629C99.2773 68.6194 99.8305 68.4952 100.331 68.2661C100.443 68.2228 100.569 68.2167 100.686 68.2488Z" fill="#263238"/>
<path d="M100.055 71.0439L98.2803 71.2758C98.2803 71.2758 99.5946 72.1062 100.055 71.0439Z" fill="#263238"/>
<path d="M96.0839 63.3946C100.978 67.6124 106.204 69.3493 108.895 69.1071C110.164 69.0021 111.407 68.7244 112.581 68.2836C113.649 67.8338 115.217 66.9481 115.217 66.9481C114.924 65.6166 114.378 64.339 113.603 63.1697C111.915 60.7246 109.353 58.8513 106.325 57.8483C105.116 57.44 101.361 56.3604 97.562 57.4296C92.141 58.952 88.2371 64.398 88.0889 70.9617C88.4188 70.7272 88.7639 70.51 89.1224 70.3112C90.1596 69.7349 91.2967 69.3141 92.4881 69.0656C92.5844 68.3133 92.797 67.5763 93.1199 66.8754C93.7552 65.5089 94.7759 64.3103 96.0839 63.3946Z" fill="#263238"/>
<path d="M107.289 69.4835C107.261 69.6513 107.167 69.8051 107.025 69.9182C106.882 70.0313 106.7 70.0966 106.509 70.1029C106.227 70.1164 105.946 70.066 105.692 69.9565C105.438 69.8469 105.22 69.6817 105.058 69.4766C104.966 69.3616 104.914 69.225 104.91 69.0841C104.905 68.9431 104.947 68.804 105.031 68.6843L105.39 68.1687L105.425 68.1203C106.236 67.1215 106.805 66.6786 107.133 66.7916C107.515 66.9231 107.57 67.8158 107.289 69.4835Z" fill="#4BC7C1"/>
<path opacity="0.7" d="M107.031 69.2447C107.011 69.3684 106.942 69.482 106.838 69.5659C106.733 69.6499 106.599 69.699 106.458 69.7049C106.246 69.7142 106.036 69.6748 105.846 69.5907C105.664 69.511 105.507 69.392 105.39 69.2447C105.322 69.1597 105.284 69.0589 105.281 68.9549C105.277 68.8509 105.308 68.7483 105.37 68.6599L105.631 68.2793C105.642 68.2686 105.651 68.2571 105.659 68.2447C106.254 67.5089 106.674 67.1825 106.918 67.2656C107.203 67.359 107.25 68.0198 107.031 69.2447Z" fill="white"/>
<path opacity="0.2" d="M106.661 78.1654C105.962 75.5127 105.974 72.7515 106.696 70.1036C106.884 70.9444 107.067 71.7852 107.254 72.626L115.565 74.356C116.142 72.9097 116.718 71.4623 117.293 70.0137C117.387 70.239 117.463 70.4703 117.519 70.7057C117.546 70.8164 118.123 73.3145 116.322 75.2348C116.123 75.4305 115.907 75.611 115.674 75.7746C115.674 75.9914 115.663 76.2128 115.639 76.4389C115.588 77.1724 115.503 77.8713 115.39 78.5149L106.661 78.1654Z" fill="black"/>
<path d="M108.592 78.1272C108.899 78.3401 109.282 78.4504 109.672 78.4386L113.065 78.3556C113.387 78.3503 113.701 78.2626 113.969 78.103C114.237 77.9435 114.447 77.7188 114.574 77.456L115.744 75.1343C116.867 72.8749 117.429 70.4274 117.39 67.9583V67.121C117.384 66.459 117.082 65.8263 116.55 65.3618C116.019 64.8973 115.301 64.639 114.555 64.6436H114.461L110.982 64.7509C110.315 64.7755 109.679 65.0101 109.189 65.4127C108.699 65.8152 108.386 66.3595 108.307 66.948L107.776 70.5429C107.776 70.5429 105.78 76.1585 108.592 78.1272Z" fill="#EBB376"/>
<path opacity="0.2" d="M138.695 86.3516C139.114 86.5419 139.506 86.7741 139.865 87.0436C142.478 88.9812 142.361 92.2336 142.353 92.4342C142.205 95.2818 139.709 97.1364 137.599 98.7037C134.406 101.024 130.556 102.524 126.469 103.039C130.543 97.4731 134.618 91.9106 138.695 86.3516Z" fill="black"/>
<path opacity="0.2" d="M112.85 104.492C111.124 104.196 109.512 103.511 108.17 102.503C106.018 100.856 105.323 98.8282 104.735 97.1155C103.975 94.8637 103.757 92.4955 104.095 90.1643L106.735 89.3789L112.85 104.492Z" fill="black"/>
<path d="M138.816 86.4348C136.866 85.0508 134.573 85.2134 133.746 85.2757C130.369 85.5179 127.807 87.5177 125.221 89.5557C123.953 90.5556 122.604 91.4794 121.36 92.507C120.208 93.4045 118.839 94.0545 117.359 94.4066C117.273 94.4207 117.186 94.4207 117.101 94.4066C117.037 94.3987 116.974 94.3799 116.918 94.3512C116.848 94.3186 116.786 94.2735 116.736 94.2187C116.687 94.1639 116.65 94.1007 116.629 94.0329C116.345 93.1437 116.099 92.2337 115.904 91.3237C115.28 88.4208 115.272 86.0749 115.26 83.3657C115.26 81.5008 115.319 79.6013 115.459 77.7225V77.5564L106.926 76.8125L106.891 76.9647C105.874 81.5263 105.296 86.1563 105.163 90.8047C105.113 93.0814 105.163 95.7629 106.587 98.7627C107.05 99.9043 107.736 100.964 108.615 101.894C109.664 102.926 110.949 103.747 112.385 104.302C113.822 104.857 115.375 105.133 116.941 105.112C117.5 105.112 118.057 105.079 118.61 105.011C124 104.399 128.649 102.178 130.349 101.313C136.09 98.396 138.621 95.5449 139.386 94.635C140.427 93.3963 141.133 92.251 141.156 90.829C141.18 88.1786 138.91 86.5005 138.816 86.4348Z" fill="#4BC7C1"/>
<path d="M159.21 37.1152C159.21 35.3264 158.161 33.714 156.48 32.5514C156.536 32.3171 156.565 32.0783 156.566 31.8387C156.566 29.4547 153.836 27.5206 150.447 27.4652C149.421 25.1643 146.344 23.4932 142.709 23.4932C139.811 23.4932 137.269 24.5554 135.837 26.1539C135.474 26.1079 135.108 26.0847 134.741 26.0847C131.282 26.0847 128.474 28.0431 128.474 30.4581C128.475 30.8689 128.557 31.2764 128.716 31.6622C126.512 32.7002 125.058 34.4302 125.058 36.4301C125.058 38.3435 126.407 40.0389 128.478 41.0803C128.476 41.1011 128.476 41.1219 128.478 41.1426C128.478 43.485 131.122 45.3984 134.441 45.5091C136.274 47.0973 139.078 48.1111 142.241 48.1111C144.308 48.1259 146.343 47.662 148.146 46.7651C148.423 46.7893 148.707 46.8066 148.996 46.8066C152.459 46.8066 155.263 44.8483 155.263 42.4332V42.3882C157.634 41.236 159.21 39.3019 159.21 37.1152Z" fill="#4BC7C1"/>
<path d="M117.749 42.5746C117.749 43.104 117.059 43.5331 116.189 43.5331C115.319 43.5331 114.629 43.104 114.629 42.5746C114.629 42.0453 115.319 41.6162 116.189 41.6162C117.059 41.6162 117.749 42.0453 117.749 42.5746Z" fill="#4BC7C1"/>
<path d="M123.033 39.0734C123.033 39.8796 121.977 40.5335 120.67 40.5335C119.364 40.5335 118.307 39.8796 118.307 39.0734C118.307 38.2672 119.367 37.6133 120.67 37.6133C121.973 37.6133 123.033 38.2672 123.033 39.0734Z" fill="#4BC7C1"/>
<path opacity="0.6" d="M159.21 37.1152C159.21 35.3264 158.161 33.714 156.48 32.5514C156.536 32.3171 156.565 32.0783 156.566 31.8387C156.566 29.4547 153.836 27.5206 150.447 27.4652C149.421 25.1643 146.344 23.4932 142.709 23.4932C139.811 23.4932 137.269 24.5554 135.837 26.1539C135.474 26.1079 135.108 26.0847 134.741 26.0847C131.282 26.0847 128.474 28.0431 128.474 30.4581C128.475 30.8689 128.557 31.2764 128.716 31.6622C126.512 32.7002 125.058 34.4302 125.058 36.4301C125.058 38.3435 126.407 40.0389 128.478 41.0803C128.476 41.1011 128.476 41.1219 128.478 41.1426C128.478 43.485 131.122 45.3984 134.441 45.5091C136.274 47.0973 139.078 48.1111 142.241 48.1111C144.308 48.1259 146.343 47.662 148.146 46.7651C148.423 46.7893 148.707 46.8066 148.996 46.8066C152.459 46.8066 155.263 44.8483 155.263 42.4332V42.3882C157.634 41.236 159.21 39.3019 159.21 37.1152Z" fill="white"/>
<path opacity="0.6" d="M117.749 42.5746C117.749 43.104 117.059 43.5331 116.189 43.5331C115.319 43.5331 114.629 43.104 114.629 42.5746C114.629 42.0453 115.319 41.6162 116.189 41.6162C117.059 41.6162 117.749 42.0453 117.749 42.5746Z" fill="white"/>
<path opacity="0.6" d="M123.033 39.0734C123.033 39.8796 121.977 40.5335 120.67 40.5335C119.364 40.5335 118.307 39.8796 118.307 39.0734C118.307 38.2672 119.367 37.6133 120.67 37.6133C121.973 37.6133 123.033 38.2672 123.033 39.0734Z" fill="white"/>
<path d="M137.956 31.0947H131.599V33.8004H137.956V31.0947Z" fill="#4BC7C1"/>
<path opacity="0.8" d="M137.956 31.0947H131.599V33.8004H137.956V31.0947Z" fill="white"/>
<path d="M145.073 31.0947H138.716V33.8004H145.073V31.0947Z" fill="#4BC7C1"/>
<path opacity="0.8" d="M145.073 31.0947H138.716V33.8004H145.073V31.0947Z" fill="white"/>
<path d="M152.194 31.0947H145.837V33.8004H152.194V31.0947Z" fill="#4BC7C1"/>
<path opacity="0.8" d="M152.194 31.0947H145.837V33.8004H152.194V31.0947Z" fill="white"/>
<path d="M134.617 34.3262H128.26V37.0319H134.617V34.3262Z" fill="#4BC7C1"/>
<path opacity="0.8" d="M134.617 34.3262H128.26V37.0319H134.617V34.3262Z" fill="white"/>
<path d="M141.73 34.3262H135.373V37.0319H141.73V34.3262Z" fill="#4BC7C1"/>
<path opacity="0.8" d="M141.73 34.3262H135.373V37.0319H141.73V34.3262Z" fill="white"/>
<path d="M148.856 34.3262H142.499V37.0319H148.856V34.3262Z" fill="#4BC7C1"/>
<path opacity="0.8" d="M148.856 34.3262H142.499V37.0319H148.856V34.3262Z" fill="white"/>
<path d="M156.008 34.3262H149.651V37.0319H156.008V34.3262Z" fill="#4BC7C1"/>
<path opacity="0.8" d="M156.008 34.3262H149.651V37.0319H156.008V34.3262Z" fill="white"/>
<path d="M137.956 37.7207H131.599V40.4264H137.956V37.7207Z" fill="#4BC7C1"/>
<path opacity="0.8" d="M137.956 37.7207H131.599V40.4264H137.956V37.7207Z" fill="white"/>
<path d="M145.073 37.7207H138.716V40.4264H145.073V37.7207Z" fill="#4BC7C1"/>
<path opacity="0.8" d="M145.073 37.7207H138.716V40.4264H145.073V37.7207Z" fill="white"/>
<path d="M152.194 37.7207H145.837V40.4264H152.194V37.7207Z" fill="#4BC7C1"/>
<path opacity="0.8" d="M152.194 37.7207H145.837V40.4264H152.194V37.7207Z" fill="white"/>
<path d="M141.348 27.8633H134.991V30.569H141.348V27.8633Z" fill="#4BC7C1"/>
<path opacity="0.8" d="M141.348 27.8633H134.991V30.569H141.348V27.8633Z" fill="white"/>
<path d="M148.473 27.8633H142.116V30.569H148.473V27.8633Z" fill="#4BC7C1"/>
<path opacity="0.8" d="M148.473 27.8633H142.116V30.569H148.473V27.8633Z" fill="white"/>
<path d="M141.73 40.9521H135.373V43.6579H141.73V40.9521Z" fill="#4BC7C1"/>
<path opacity="0.8" d="M141.73 40.9521H135.373V43.6579H141.73V40.9521Z" fill="white"/>
<path d="M148.856 40.9521H142.499V43.6579H148.856V40.9521Z" fill="#4BC7C1"/>
<path opacity="0.8" d="M148.856 40.9521H142.499V43.6579H148.856V40.9521Z" fill="white"/>
<path d="M144.081 33.2847C144.05 32.1879 142.989 31.4579 141.324 31.4821C139.725 31.5028 138.575 32.0634 137.849 33.0322L135.72 31.8315C136.89 30.3299 138.801 29.4095 141.503 29.368C144.678 29.33 146.839 30.6136 146.909 32.8592C147.01 36.0493 143.325 36.3883 143.399 38.6962L140.669 38.7308C140.552 35.8348 144.144 35.2396 144.081 33.2847ZM140.4 41.8828C140.39 41.6825 140.426 41.4825 140.506 41.2951C140.587 41.1078 140.71 40.9371 140.868 40.7937C141.026 40.6503 141.215 40.5373 141.425 40.4615C141.634 40.3858 141.859 40.349 142.085 40.3535C142.31 40.3461 142.536 40.3789 142.747 40.45C142.958 40.521 143.151 40.6289 143.315 40.7672C143.479 40.9056 143.609 41.0716 143.699 41.2555C143.789 41.4393 143.837 41.6374 143.84 41.8378C143.851 42.0374 143.816 42.2369 143.737 42.4242C143.659 42.6115 143.538 42.7827 143.383 42.9274C143.227 43.0721 143.041 43.1872 142.833 43.2657C142.626 43.3443 142.403 43.3847 142.178 43.3845C141.95 43.3919 141.722 43.3586 141.508 43.2868C141.294 43.2149 141.098 43.1058 140.933 42.9659C140.767 42.8259 140.634 42.6581 140.543 42.4721C140.451 42.2861 140.403 42.0857 140.4 41.8828Z" fill="#4BC7C1"/>
<path d="M168.02 135.85H27.5537V143.904H168.02V135.85Z" fill="#263238"/>
<path opacity="0.3" d="M168.02 135.85H27.5537V143.904H168.02V135.85Z" fill="white"/>
<path d="M168.542 133.165H27.027C26.2279 133.165 25.5801 133.74 25.5801 134.449V137.251C25.5801 137.96 26.2279 138.535 27.027 138.535H168.542C169.341 138.535 169.989 137.96 169.989 137.251V134.449C169.989 133.74 169.341 133.165 168.542 133.165Z" fill="#263238"/>
<path opacity="0.4" d="M168.542 133.165H27.027C26.2279 133.165 25.5801 133.74 25.5801 134.449V137.251C25.5801 137.96 26.2279 138.535 27.027 138.535H168.542C169.341 138.535 169.989 137.96 169.989 137.251V134.449C169.989 133.74 169.341 133.165 168.542 133.165Z" fill="white"/>
<path d="M62.3493 127.256H34.7334V132.449H62.3493V127.256Z" fill="#263238"/>
<path opacity="0.8" d="M62.3493 127.256H34.7334V132.449H62.3493V127.256Z" fill="white"/>
<path opacity="0.5" d="M61.9593 128.276H34.7334V128.512H61.9593V128.276Z" fill="white"/>
<path opacity="0.5" d="M61.9593 129.615H34.7334V129.851H61.9593V129.615Z" fill="white"/>
<path opacity="0.5" d="M61.9593 131.017H34.7334V131.252H61.9593V131.017Z" fill="white"/>
<path d="M62.1149 126.539H34.0934C34.0618 126.539 34.0304 126.544 34.0011 126.554C33.9718 126.565 33.9451 126.58 33.9226 126.6C33.9001 126.619 33.8822 126.643 33.87 126.669C33.8578 126.694 33.8516 126.722 33.8516 126.75V127.404C33.8516 127.461 33.877 127.516 33.9224 127.556C33.9677 127.596 34.0292 127.619 34.0934 127.619H60.8825C60.9455 127.619 61.0078 127.63 61.066 127.651C61.1242 127.672 61.1771 127.704 61.2217 127.743C61.2662 127.783 61.3015 127.83 61.3256 127.881C61.3498 127.933 61.3622 127.988 61.3622 128.044V131.733C61.3622 131.845 61.3116 131.954 61.2217 132.033C61.1317 132.113 61.0097 132.158 60.8825 132.158H34.0622C34.0345 132.158 34.0071 132.163 33.9816 132.172C33.956 132.182 33.9328 132.196 33.9132 132.213C33.8937 132.23 33.8782 132.251 33.8676 132.273C33.857 132.296 33.8516 132.32 33.8516 132.345V132.978C33.8516 133.003 33.857 133.027 33.8676 133.05C33.8782 133.072 33.8937 133.093 33.9132 133.11C33.9328 133.128 33.956 133.141 33.9816 133.151C34.0071 133.16 34.0345 133.165 34.0622 133.165H62.1422C62.349 133.165 62.5474 133.092 62.6937 132.962C62.84 132.833 62.9222 132.657 62.9222 132.473V127.283C62.9247 127.187 62.9059 127.091 62.8666 127.002C62.8273 126.913 62.7685 126.831 62.6934 126.762C62.6183 126.692 62.5285 126.637 62.4292 126.599C62.3299 126.561 62.2231 126.54 62.1149 126.539Z" fill="#4BC7C1"/>
<path d="M62.3493 120.609H34.7334V125.803H62.3493V120.609Z" fill="#263238"/>
<path opacity="0.9" d="M62.3493 120.609H34.7334V125.803H62.3493V120.609Z" fill="white"/>
<path opacity="0.7" d="M61.9593 121.415H34.7334V121.65H61.9593V121.415Z" fill="white"/>
<path opacity="0.7" d="M61.9593 122.373H34.7334V122.608H61.9593V122.373Z" fill="white"/>
<path opacity="0.7" d="M61.9593 123.433H34.7334V123.668H61.9593V123.433Z" fill="white"/>
<path opacity="0.7" d="M61.9593 124.391H34.7334V124.626H61.9593V124.391Z" fill="white"/>
<path d="M62.1149 119.893H34.0934C34.0292 119.893 33.9677 119.915 33.9224 119.955C33.877 119.996 33.8516 120.05 33.8516 120.107V120.754C33.8516 120.782 33.8578 120.81 33.87 120.836C33.8822 120.862 33.9001 120.885 33.9226 120.905C33.9451 120.924 33.9718 120.94 34.0011 120.95C34.0304 120.961 34.0618 120.966 34.0934 120.965H60.8825C61.0097 120.965 61.1317 121.01 61.2217 121.09C61.3116 121.17 61.3622 121.278 61.3622 121.391V125.083C61.3622 125.195 61.3116 125.304 61.2217 125.383C61.1317 125.463 61.0097 125.508 60.8825 125.508H34.0622C34.0345 125.508 34.0071 125.513 33.9816 125.522C33.956 125.532 33.9328 125.546 33.9132 125.563C33.8937 125.58 33.8782 125.601 33.8676 125.623C33.857 125.646 33.8516 125.67 33.8516 125.695V126.325C33.8516 126.349 33.857 126.374 33.8676 126.396C33.8782 126.419 33.8937 126.439 33.9132 126.457C33.9328 126.474 33.956 126.488 33.9816 126.497C34.0071 126.507 34.0345 126.512 34.0622 126.512H62.1422C62.349 126.512 62.5474 126.439 62.6937 126.309C62.84 126.179 62.9222 126.003 62.9222 125.82V120.63C62.9242 120.437 62.8406 120.252 62.6894 120.114C62.5382 119.976 62.3317 119.896 62.1149 119.893Z" fill="#4BC7C1"/>
<path opacity="0.3" d="M62.1149 119.893H34.0934C34.0292 119.893 33.9677 119.915 33.9224 119.955C33.877 119.996 33.8516 120.05 33.8516 120.107V120.754C33.8516 120.782 33.8578 120.81 33.87 120.836C33.8822 120.862 33.9001 120.885 33.9226 120.905C33.9451 120.924 33.9718 120.94 34.0011 120.95C34.0304 120.961 34.0618 120.966 34.0934 120.965H60.8825C61.0097 120.965 61.1317 121.01 61.2217 121.09C61.3116 121.17 61.3622 121.278 61.3622 121.391V125.083C61.3622 125.195 61.3116 125.304 61.2217 125.383C61.1317 125.463 61.0097 125.508 60.8825 125.508H34.0622C34.0345 125.508 34.0071 125.513 33.9816 125.522C33.956 125.532 33.9328 125.546 33.9132 125.563C33.8937 125.58 33.8782 125.601 33.8676 125.623C33.857 125.646 33.8516 125.67 33.8516 125.695V126.325C33.8516 126.349 33.857 126.374 33.8676 126.396C33.8782 126.419 33.8937 126.439 33.9132 126.457C33.9328 126.474 33.956 126.488 33.9816 126.497C34.0071 126.507 34.0345 126.512 34.0622 126.512H62.1422C62.349 126.512 62.5474 126.439 62.6937 126.309C62.84 126.179 62.9222 126.003 62.9222 125.82V120.63C62.9242 120.437 62.8406 120.252 62.6894 120.114C62.5382 119.976 62.3317 119.896 62.1149 119.893Z" fill="white"/>
<path d="M62.3493 115.91H34.7334V119.176H62.3493V115.91Z" fill="#263238"/>
<path opacity="0.8" d="M62.3493 115.91H34.7334V119.176H62.3493V115.91Z" fill="white"/>
<path opacity="0.5" d="M61.9593 116.603H34.7334V116.838H61.9593V116.603Z" fill="white"/>
<path opacity="0.5" d="M61.9593 117.955H34.7334V118.19H61.9593V117.955Z" fill="white"/>
<path d="M33.8516 115.021V115.845C33.8511 115.861 33.8544 115.878 33.8615 115.894C33.8686 115.91 33.8792 115.924 33.8927 115.936C33.9062 115.948 33.9223 115.958 33.9401 115.964C33.9578 115.97 33.9768 115.973 33.9959 115.973H61.2296C61.2679 115.973 61.3046 115.986 61.3317 116.01C61.3587 116.034 61.3739 116.067 61.3739 116.101V118.547C61.3739 118.639 61.3328 118.727 61.2597 118.791C61.1865 118.856 61.0873 118.893 60.9839 118.893H33.9959C33.9772 118.892 33.9585 118.895 33.941 118.901C33.9235 118.907 33.9076 118.916 33.8941 118.928C33.8807 118.94 33.87 118.954 33.8627 118.969C33.8554 118.984 33.8516 119.001 33.8516 119.017V119.772C33.8516 119.788 33.8554 119.805 33.8627 119.82C33.87 119.835 33.8807 119.849 33.8941 119.861C33.9076 119.873 33.9235 119.882 33.941 119.888C33.9585 119.894 33.9772 119.897 33.9959 119.896H62.2397C62.4238 119.896 62.6004 119.831 62.7306 119.716C62.8608 119.6 62.9339 119.444 62.9339 119.28V115.025C62.9339 114.991 62.9193 114.959 62.893 114.935C62.8668 114.911 62.8311 114.897 62.7935 114.896H33.9959C33.9583 114.896 33.9222 114.909 33.8952 114.933C33.8683 114.956 33.8526 114.988 33.8516 115.021Z" fill="#4BC7C1"/>
<path d="M135.806 128.806C136.344 127.825 136.883 126.847 137.424 125.872C135.728 125.226 133.934 124.804 132.101 124.619L132.05 126.135L132.83 126.429L132.549 128.211H134.21L135.806 128.806Z" fill="#263238"/>
<path d="M132.05 126.135L132.701 127.142C132.736 126.906 132.775 126.668 132.81 126.429L132.05 126.135Z" fill="#263238"/>
<path d="M132.53 128.211L135.444 131.138L135.806 128.806L134.192 128.225L132.53 128.211Z" fill="#263238"/>
<path d="M135.443 131.135L137.175 130.765L135.806 128.803L135.443 131.135Z" fill="#263238"/>
<path d="M137.424 125.872L140.096 127.19L138.286 129.46L135.806 128.806C136.344 127.821 136.883 126.843 137.424 125.872Z" fill="#263238"/>
<path d="M135.443 131.135L136.738 132.405L137.978 132.73C137.709 132.073 137.444 131.419 137.175 130.765L135.443 131.135Z" fill="#263238"/>
<path d="M137.978 132.733L138.594 132.041L137.927 130.442L137.175 130.788C137.444 131.422 137.709 132.076 137.978 132.733Z" fill="#263238"/>
<path d="M137.927 130.442L135.806 128.812L137.175 130.774L137.927 130.442Z" fill="#263238"/>
<path d="M138.286 129.46C138.579 130.044 138.867 130.632 139.156 131.217L137.927 130.442L135.806 128.812L138.286 129.46Z" fill="#263238"/>
<path d="M139.156 131.217L142.104 130.214L141.043 127.889L141.196 126.747L140.096 127.19L138.286 129.46C138.579 130.044 138.867 130.633 139.156 131.217Z" fill="#263238"/>
<path d="M134.761 125.062L135.931 124.266L137.721 123.522L139.484 125.474L137.413 125.872C137.05 125.733 136.66 125.598 136.243 125.467C135.725 125.306 135.231 125.171 134.761 125.062Z" fill="#263238"/>
<path d="M139.496 125.474L141.196 126.747L140.081 127.193L137.425 125.872L139.496 125.474Z" fill="#263238"/>
<path d="M138.595 132.055L140.724 133.266C140.56 132.816 140.4 132.363 140.24 131.913L137.928 130.442L138.595 132.055Z" fill="#263238"/>
<path d="M140.724 133.266L141.953 131.003L142.105 130.214L139.156 131.217L140.24 131.909C140.4 132.363 140.56 132.816 140.724 133.266Z" fill="#263238"/>
<path d="M132.53 128.211L131.816 128.498L132.784 129.318L134.39 132.927L135.443 131.138L132.53 128.211Z" fill="#263238"/>
<path d="M134.391 132.927L135.865 133.294L137.979 132.733L136.738 132.408L135.444 131.135L134.391 132.927Z" fill="#263238"/>
<path d="M131.82 128.498C131.596 128.798 131.416 129.123 131.286 129.463C131.137 129.854 131.051 130.262 131.032 130.674L133.809 131.598C133.47 130.837 133.127 130.079 132.787 129.318L131.82 128.498Z" fill="#263238"/>
<path opacity="0.9" d="M135.806 128.806C136.344 127.825 136.883 126.847 137.424 125.872C135.728 125.226 133.934 124.804 132.101 124.619L132.05 126.135L132.83 126.429L132.549 128.211H134.21L135.806 128.806Z" fill="white"/>
<path opacity="0.8" d="M132.05 126.135L132.701 127.142C132.736 126.906 132.775 126.668 132.81 126.429L132.05 126.135Z" fill="white"/>
<path opacity="0.8" d="M132.53 128.211L135.444 131.138L135.806 128.806L134.192 128.225L132.53 128.211Z" fill="white"/>
<path opacity="0.9" d="M135.443 131.135L137.175 130.765L135.806 128.803L135.443 131.135Z" fill="white"/>
<path opacity="0.8" d="M137.424 125.872L140.096 127.19L138.286 129.46L135.806 128.806C136.344 127.821 136.883 126.843 137.424 125.872Z" fill="white"/>
<path opacity="0.7" d="M135.443 131.135L136.738 132.405L137.978 132.73C137.709 132.073 137.444 131.419 137.175 130.765L135.443 131.135Z" fill="white"/>
<path opacity="0.5" d="M137.978 132.733L138.594 132.041L137.927 130.442L137.175 130.788C137.444 131.422 137.709 132.076 137.978 132.733Z" fill="white"/>
<path opacity="0.5" d="M137.927 130.442L135.806 128.812L137.175 130.774L137.927 130.442Z" fill="white"/>
<path opacity="0.9" d="M138.286 129.46C138.579 130.044 138.867 130.632 139.156 131.217L137.927 130.442L135.806 128.812L138.286 129.46Z" fill="white"/>
<path opacity="0.8" d="M139.156 131.217L142.104 130.214L141.043 127.889L141.196 126.747L140.096 127.19L138.286 129.46C138.579 130.044 138.867 130.633 139.156 131.217Z" fill="white"/>
<path d="M134.761 125.062L135.931 124.266L137.721 123.522L139.484 125.474L137.413 125.872C137.05 125.733 136.66 125.598 136.243 125.467C135.725 125.306 135.231 125.171 134.761 125.062Z" fill="white"/>
<path opacity="0.9" d="M139.496 125.474L141.196 126.747L140.081 127.193L137.425 125.872L139.496 125.474Z" fill="white"/>
<path opacity="0.9" d="M138.595 132.055L140.724 133.266C140.56 132.816 140.4 132.363 140.24 131.913L137.928 130.442L138.595 132.055Z" fill="white"/>
<path opacity="0.8" d="M140.724 133.266L141.953 131.003L142.105 130.214L139.156 131.217L140.24 131.909C140.4 132.363 140.56 132.816 140.724 133.266Z" fill="white"/>
<path opacity="0.7" d="M132.53 128.211L131.816 128.498L132.784 129.318L134.39 132.927L135.443 131.138L132.53 128.211Z" fill="white"/>
<path opacity="0.5" d="M134.391 132.927L135.865 133.294L137.979 132.733L136.738 132.408L135.444 131.135L134.391 132.927Z" fill="white"/>
<path opacity="0.9" d="M131.82 128.498C131.596 128.798 131.416 129.123 131.286 129.463C131.137 129.854 131.051 130.262 131.032 130.674L133.809 131.598C133.47 130.837 133.127 130.079 132.787 129.318L131.82 128.498Z" fill="white"/>
<path d="M156.886 128.055L159.78 130.076C160.408 129.289 160.96 128.455 161.429 127.585C161.751 126.978 162.034 126.355 162.276 125.72L160.618 125.374C160.454 125.574 160.294 125.775 160.131 125.972L158.231 125.356C158.106 125.834 157.986 126.315 157.865 126.792L156.886 128.055Z" fill="#263238"/>
<path d="M160.618 125.359L159.37 125.705L160.131 125.951C160.29 125.761 160.454 125.56 160.618 125.359Z" fill="#263238"/>
<path d="M158.231 125.343L154.39 127.253L156.886 128.055L157.865 126.779C157.985 126.291 158.106 125.82 158.231 125.343Z" fill="#263238"/>
<path d="M154.39 127.252L154.436 128.833L156.886 128.055L154.39 127.252Z" fill="#263238"/>
<path d="M159.779 130.075L157.763 132.117L155.646 130.072L156.886 128.055L159.779 130.075Z" fill="#263238"/>
<path d="M154.389 127.252L152.72 128.11C152.513 128.456 152.306 128.781 152.104 129.117L154.444 128.833L154.389 127.252Z" fill="#263238"/>
<path d="M152.1 129.118L152.716 129.81L154.639 129.571C154.568 129.329 154.502 129.086 154.432 128.848L152.1 129.118Z" fill="#263238"/>
<path d="M154.643 129.556L156.886 128.055L154.44 128.833C154.507 129.058 154.573 129.314 154.643 129.556Z" fill="#263238"/>
<path d="M155.645 130.072L153.523 130.459L154.643 129.556L156.885 128.055L155.645 130.072Z" fill="#263238"/>
<path d="M153.523 130.46C153.687 131.38 153.847 132.304 154.011 133.228L156.796 132.795L158.02 133.169L157.763 132.131L155.645 130.086L153.523 130.46Z" fill="#263238"/>
<path d="M161.23 127.938L161.85 129.128L162.295 130.837L159.775 131.958C159.775 131.332 159.775 130.702 159.775 130.076C160.004 129.792 160.234 129.484 160.466 129.152C160.758 128.73 161.012 128.322 161.23 127.938Z" fill="#263238"/>
<path d="M159.783 131.958L158.02 133.166L157.763 132.104L159.779 130.076C159.779 130.702 159.779 131.332 159.783 131.958Z" fill="#263238"/>
<path d="M152.72 129.795L150.938 131.387L152.529 131.249L154.643 129.557L152.72 129.795Z" fill="#263238"/>
<path d="M150.93 131.387L153.164 132.93L154.003 133.224C153.839 132.304 153.679 131.38 153.515 130.456L152.521 131.245L150.93 131.387Z" fill="#263238"/>
<path d="M158.231 125.342C158.173 125.114 158.118 124.886 158.064 124.65L156.956 125.315L152.639 125.951L154.39 127.242L158.231 125.342Z" fill="#263238"/>
<path d="M152.639 125.962L151.929 127.166L152.104 129.117C152.307 128.771 152.514 128.446 152.72 128.111L154.39 127.252L152.639 125.962Z" fill="#263238"/>
<path d="M158.063 124.661C157.448 124.109 156.675 123.716 155.828 123.522L154.226 125.737L156.956 125.325L158.063 124.661Z" fill="#263238"/>
<path opacity="0.9" d="M156.886 128.055L159.78 130.076C160.408 129.289 160.96 128.455 161.429 127.585C161.751 126.978 162.034 126.355 162.276 125.72L160.618 125.374C160.454 125.574 160.294 125.775 160.131 125.972L158.231 125.356C158.106 125.834 157.986 126.315 157.865 126.792L156.886 128.055Z" fill="white"/>
<path opacity="0.9" d="M160.618 125.359L159.37 125.705L160.131 125.951C160.29 125.761 160.454 125.56 160.618 125.359Z" fill="white"/>
<path opacity="0.8" d="M158.231 125.343L154.39 127.253L156.886 128.055L157.865 126.779C157.985 126.291 158.106 125.82 158.231 125.343Z" fill="white"/>
<path opacity="0.8" d="M154.39 127.252L154.436 128.833L156.886 128.055L154.39 127.252Z" fill="white"/>
<path opacity="0.8" d="M159.779 130.075L157.763 132.117L155.646 130.072L156.886 128.055L159.779 130.075Z" fill="white"/>
<path opacity="0.7" d="M154.389 127.252L152.72 128.11C152.513 128.456 152.306 128.781 152.104 129.117L154.444 128.833L154.389 127.252Z" fill="white"/>
<path opacity="0.5" d="M152.1 129.118L152.716 129.81L154.639 129.571C154.568 129.329 154.502 129.086 154.432 128.848L152.1 129.118Z" fill="white"/>
<path opacity="0.5" d="M154.643 129.556L156.886 128.055L154.44 128.833C154.507 129.058 154.573 129.314 154.643 129.556Z" fill="white"/>
<path opacity="0.9" d="M155.645 130.072L153.523 130.459L154.643 129.556L156.885 128.055L155.645 130.072Z" fill="white"/>
<path opacity="0.7" d="M153.523 130.46C153.687 131.38 153.847 132.304 154.011 133.228L156.796 132.795L158.02 133.169L157.763 132.131L155.645 130.086L153.523 130.46Z" fill="white"/>
<path opacity="0.7" d="M161.23 127.938L161.85 129.128L162.295 130.837L159.775 131.958C159.775 131.332 159.775 130.702 159.775 130.076C160.004 129.792 160.234 129.484 160.466 129.152C160.758 128.73 161.012 128.322 161.23 127.938Z" fill="white"/>
<path opacity="0.5" d="M159.783 131.958L158.02 133.166L157.763 132.104C158.437 131.429 159.108 130.751 159.779 130.076C159.779 130.702 159.779 131.332 159.783 131.958Z" fill="white"/>
<path opacity="0.9" d="M152.72 129.795L150.938 131.387L152.529 131.249L154.643 129.557L152.72 129.795Z" fill="white"/>
<path opacity="0.7" d="M150.93 131.387L153.164 132.93L154.003 133.224C153.839 132.304 153.679 131.38 153.515 130.456L152.521 131.245L150.93 131.387Z" fill="white"/>
<path opacity="0.9" d="M158.231 125.342C158.173 125.114 158.118 124.886 158.064 124.65L156.956 125.315L152.639 125.951L154.39 127.242L158.231 125.342Z" fill="white"/>
<path opacity="0.9" d="M152.639 125.962L151.929 127.166L152.104 129.117C152.307 128.771 152.514 128.446 152.72 128.111L154.39 127.252L152.639 125.962Z" fill="white"/>
<path d="M158.063 124.661C157.448 124.109 156.675 123.716 155.828 123.522L154.226 125.737L156.956 125.325L158.063 124.661Z" fill="white"/>
<path d="M91.2608 133.179H108.588C108.621 133.179 108.654 133.172 108.683 133.159C108.713 133.146 108.739 133.128 108.759 133.105C108.78 133.082 108.795 133.056 108.802 133.027C108.81 132.999 108.81 132.969 108.803 132.941C108.626 132.221 108.448 131.504 108.269 130.789C108.258 130.745 108.231 130.706 108.192 130.677C108.153 130.649 108.105 130.633 108.054 130.633H89.5292C89.4881 130.633 89.448 130.644 89.4131 130.663C89.3781 130.682 89.3497 130.709 89.3309 130.741C89.3121 130.774 89.3035 130.81 89.3061 130.846C89.3088 130.883 89.3225 130.918 89.3459 130.948L91.0814 133.096C91.1017 133.122 91.1286 133.143 91.1598 133.157C91.191 133.171 91.2256 133.179 91.2608 133.179Z" fill="#4BC7C1"/>
<path opacity="0.2" d="M91.2605 133.179H108.592C108.625 133.179 108.657 133.172 108.687 133.16C108.716 133.148 108.742 133.129 108.762 133.107C108.783 133.084 108.797 133.057 108.804 133.029C108.811 133.001 108.81 132.971 108.803 132.943C108.623 132.22 108.44 131.5 108.257 130.777C108.245 130.735 108.217 130.696 108.179 130.669C108.14 130.641 108.092 130.626 108.042 130.625H89.5055C89.4653 130.625 89.4259 130.635 89.3917 130.654C89.3575 130.673 89.3297 130.699 89.3116 130.731C89.2934 130.763 89.2855 130.799 89.2888 130.834C89.2921 130.87 89.3063 130.904 89.33 130.933L91.0694 133.092C91.0902 133.12 91.1187 133.142 91.1522 133.158C91.1857 133.173 91.223 133.18 91.2605 133.179Z" fill="black"/>
<path d="M83.554 106.883H50.8993C50.7266 106.883 50.5561 106.917 50.4001 106.983L48.9844 107.585C51.6676 116.12 54.3521 124.647 57.0379 133.165L89.7355 133.241L91.5685 133.179C89.0335 124.529 86.6155 115.879 84.0844 107.229C84.0504 107.128 83.9803 107.039 83.8846 106.977C83.7889 106.915 83.6728 106.881 83.554 106.883Z" fill="#4BC7C1"/>
<path opacity="0.2" d="M89.7355 133.241L57.0379 133.165C54.3521 124.63 51.6676 116.103 48.9844 107.585H82.3255L89.7355 133.241Z" fill="black"/>
<path opacity="0.2" d="M50.3104 107.025L48.9922 107.585H82.3333L83.6593 107.021C83.6765 107.014 83.6904 107.002 83.6986 106.987C83.7068 106.971 83.7087 106.954 83.7041 106.938C83.6995 106.921 83.6886 106.907 83.6733 106.897C83.658 106.887 83.6393 106.882 83.6203 106.883H51.0163C50.772 106.883 50.5307 106.931 50.3104 107.025Z" fill="white"/>
<path d="M70.9805 119.37C71.0424 119.956 70.907 120.545 70.5915 121.063C70.276 121.581 69.7945 122.004 69.2079 122.279C68.6213 122.554 67.9559 122.668 67.296 122.608C66.6361 122.547 66.0112 122.314 65.5005 121.939C64.9897 121.563 64.616 121.061 64.4266 120.497C64.2373 119.933 64.2407 119.332 64.4366 118.769C64.6324 118.207 65.0119 117.709 65.5269 117.338C66.042 116.967 66.6695 116.74 67.3301 116.685C67.7685 116.648 68.2109 116.689 68.6317 116.804C69.0526 116.919 69.4437 117.107 69.7828 117.356C70.1218 117.605 70.4021 117.912 70.6077 118.257C70.8132 118.603 70.9398 118.981 70.9805 119.37Z" fill="#4BC7C1"/>
<path opacity="0.4" d="M84.0802 107.232L91.5682 133.182L89.7352 133.244L82.3252 107.588L83.6122 107.042C83.6565 107.023 83.7049 107.013 83.754 107.013C83.8031 107.012 83.8517 107.022 83.8964 107.04C83.941 107.058 83.9806 107.085 84.0124 107.118C84.0441 107.151 84.0673 107.19 84.0802 107.232Z" fill="black"/>
</svg>
