<svg width="20" height="26" viewBox="0 0 20 26" fill="none" xmlns="http://www.w3.org/2000/svg">
<path d="M7.5 6.5V19.5H5V6.5H7.5ZM7.5 4.875H5C4.66848 4.875 4.35054 5.0462 4.11612 5.35095C3.8817 5.6557 3.75 6.06902 3.75 6.5V19.5C3.75 19.931 3.8817 20.3443 4.11612 20.649C4.35054 20.9538 4.66848 21.125 5 21.125H7.5C7.83152 21.125 8.14946 20.9538 8.38388 20.649C8.6183 20.3443 8.75 19.931 8.75 19.5V6.5C8.75 6.06902 8.6183 5.6557 8.38388 5.35095C8.14946 5.0462 7.83152 4.875 7.5 4.875V4.875ZM15 6.5V19.5H12.5V6.5H15ZM15 4.875H12.5C12.1685 4.875 11.8505 5.0462 11.6161 5.35095C11.3817 5.6557 11.25 6.06902 11.25 6.5V19.5C11.25 19.931 11.3817 20.3443 11.6161 20.649C11.8505 20.9538 12.1685 21.125 12.5 21.125H15C15.3315 21.125 15.6495 20.9538 15.8839 20.649C16.1183 20.3443 16.25 19.931 16.25 19.5V6.5C16.25 6.06902 16.1183 5.6557 15.8839 5.35095C15.6495 5.0462 15.3315 4.875 15 4.875V4.875Z" fill="#4BC7C1"/>
</svg>
