  <svg
    width="100%"
    height="303"
    viewBox="0 0 375 303"
    fill="none"
    xmlns="http://www.w3.org/2000/svg"
  >
    <g clip-path="url(#clip0_12_238)">
      <path
        d="M176.771 252.978C176.771 252.978 181.501 244.662 187.662 249.527C193.824 254.392 205.23 262.595 205.23 262.595C205.23 262.595 207.587 267.87 201.554 265.919C195.521 263.967 175.846 260.883 175.846 260.883L176.771 252.978Z"
        fill="#FEB8B8"
      />
      <path
        d="M42.9613 201.11C44.4094 188.156 51.923 175.358 63.5737 171.079C59.0459 184.429 59.1308 199.045 63.8133 212.342C65.6367 217.463 68.169 222.958 66.5112 228.14C65.4797 231.364 62.9254 233.84 60.0631 235.396C57.2007 236.952 54.0184 237.704 50.876 238.441L50.2598 238.986C45.1962 227.088 41.5133 214.063 42.9613 201.11Z"
        fill="#F0F0F0"
      />
      <path
        d="M63.6912 171.323C56.9385 179.418 52.7709 189.558 51.7802 200.303C51.5281 202.613 51.6218 204.95 52.0579 207.229C52.5506 209.434 53.5927 211.46 55.0759 213.096C56.4299 214.651 57.9851 216.076 58.9583 217.952C59.443 218.92 59.7288 219.985 59.7969 221.078C59.8651 222.17 59.714 223.265 59.3537 224.292C58.5188 226.874 56.8561 228.984 55.1623 230.987C53.2817 233.212 51.295 235.492 50.507 238.431C50.4115 238.787 49.8943 238.61 49.9897 238.254C51.3606 233.139 56.0318 230.212 58.241 225.6C59.2718 223.448 59.6954 220.954 58.7044 218.694C57.8379 216.718 56.2353 215.247 54.8515 213.685C53.3824 212.111 52.2998 210.181 51.6984 208.064C51.154 205.816 50.9753 203.486 51.1699 201.175C51.5296 195.965 52.6619 190.848 54.5252 186.01C56.6228 180.477 59.6003 175.364 63.3289 170.894C63.5598 170.617 63.9206 171.048 63.6912 171.323Z"
        fill="white"
      />
      <path
        d="M51.9059 196.823C50.2234 196.401 48.737 195.361 47.7123 193.888C46.6875 192.415 46.191 190.605 46.3115 188.781C46.3371 188.412 46.8805 188.437 46.8548 188.807C46.7397 190.505 47.2023 192.191 48.1592 193.56C49.1161 194.93 50.5043 195.893 52.0733 196.276C52.4141 196.36 52.2448 196.906 51.9059 196.823Z"
        fill="white"
      />
      <path
        d="M54.2907 212.403C57.3141 210.47 59.5365 207.402 60.5149 203.812C60.6116 203.456 61.1288 203.634 61.0323 203.989C60.0075 207.724 57.6886 210.911 54.5382 212.915C54.2378 213.106 53.992 212.593 54.2907 212.403Z"
        fill="white"
      />
      <path
        d="M57.1298 181.018C57.7487 181.325 58.4298 181.464 59.112 181.423C59.7942 181.383 60.4561 181.164 61.0383 180.786C61.3362 180.591 61.5818 181.104 61.2858 181.298C60.6407 181.712 59.9095 181.953 59.1558 182C58.4022 182.046 57.6491 181.897 56.9624 181.565C56.8952 181.539 56.8397 181.488 56.8072 181.42C56.7747 181.353 56.7676 181.275 56.7874 181.203C56.8099 181.131 56.8585 181.071 56.9226 181.036C56.9867 181.001 57.0611 180.995 57.1298 181.018Z"
        fill="white"
      />
      <path
        d="M99.293 193.995C99.1103 194.122 98.9275 194.25 98.7445 194.382C96.2956 196.106 93.9833 198.037 91.8304 200.157C91.6614 200.318 91.4926 200.484 91.3284 200.65C86.1931 205.816 82.01 211.946 78.9919 218.728C77.7933 221.428 76.7907 224.22 75.9928 227.081C74.8911 231.032 73.994 235.41 71.787 238.649C71.5604 238.99 71.3139 239.315 71.0492 239.624L50.937 239.739C50.8911 239.715 50.8451 239.696 50.799 239.672L49.9962 239.715C50.0276 239.565 50.0633 239.409 50.0947 239.259C50.1125 239.171 50.1349 239.084 50.1528 238.996C50.1661 238.938 50.1796 238.88 50.1885 238.826C50.1929 238.807 50.1975 238.787 50.2019 238.773C50.2108 238.719 50.2244 238.671 50.2333 238.622C50.4302 237.753 50.6332 236.883 50.8423 236.013C50.8423 236.008 50.8423 236.008 50.8468 236.003C52.4563 229.38 54.6029 222.842 57.6201 216.856C57.7109 216.676 57.8015 216.491 57.9015 216.311C59.2757 213.621 60.8555 211.054 62.6253 208.637C63.5984 207.316 64.6341 206.048 65.7285 204.839C68.5619 201.719 71.8421 199.09 75.4487 197.048C82.6391 192.98 90.9815 191.389 98.7047 193.805C98.9022 193.867 99.0955 193.928 99.293 193.995Z"
        fill="#F0F0F0"
      />
      <path
        d="M99.2494 194.266C89.2464 196.426 80.1436 201.866 73.2339 209.81C71.7177 211.493 70.4619 213.418 69.5128 215.514C68.6506 217.588 68.3294 219.868 68.5827 222.118C68.779 224.221 69.2101 226.348 68.9195 228.465C68.7556 229.546 68.3774 230.578 67.8097 231.493C67.242 232.409 66.4976 233.187 65.6255 233.776C63.4884 235.305 60.9588 235.931 58.4649 236.451C55.6959 237.03 52.811 237.584 50.5078 239.428C50.2288 239.652 49.9169 239.18 50.1955 238.957C54.2027 235.748 59.601 236.386 63.9918 234.112C66.0406 233.05 67.799 231.33 68.2941 228.895C68.7271 226.767 68.2843 224.573 68.0682 222.445C67.7907 220.254 68.0248 218.024 68.75 215.952C69.5951 213.811 70.7787 211.838 72.25 210.118C75.5039 206.189 79.3222 202.825 83.5649 200.151C88.391 197.071 93.6805 194.886 99.2044 193.693C99.5463 193.619 99.5891 194.192 99.2494 194.266L99.2494 194.266Z"
        fill="white"
      />
      <path
        d="M75.3165 207.114C74.2125 205.706 73.6175 203.93 73.6376 202.102C73.6577 200.274 74.2917 198.513 75.4263 197.135C75.6567 196.856 76.0765 197.222 75.8457 197.501C74.7869 198.783 74.1965 200.423 74.1811 202.125C74.1657 203.827 74.7262 205.48 75.7616 206.784C75.9862 207.068 75.5399 207.396 75.3165 207.114L75.3165 207.114Z"
        fill="white"
      />
      <path
        d="M68.3504 221.065C71.8663 221.447 75.3883 220.414 78.2142 218.172C78.494 217.949 78.8059 218.42 78.5265 218.642C75.5817 220.97 71.9144 222.038 68.2565 221.632C67.9079 221.593 68.0037 221.027 68.3504 221.065Z"
        fill="white"
      />
      <path
        d="M88.4878 197.826C88.8076 198.465 89.2725 199.01 89.8405 199.412C90.4086 199.814 91.0621 200.06 91.7423 200.129C92.0912 200.164 91.9951 200.73 91.6484 200.696C90.8972 200.616 90.1758 200.342 89.5473 199.9C88.9187 199.457 88.4022 198.859 88.0427 198.156C88.0036 198.093 87.9887 198.017 88.001 197.942C88.0133 197.868 88.052 197.801 88.1091 197.756C88.1682 197.713 88.2412 197.696 88.3121 197.709C88.383 197.722 88.4461 197.764 88.4878 197.826Z"
        fill="white"
      />
      <path
        d="M205.659 285.972C206.22 280.952 209.132 275.992 213.647 274.334C211.893 279.508 211.926 285.172 213.74 290.325C214.447 292.31 215.428 294.44 214.786 296.448C214.325 297.689 213.43 298.696 212.287 299.26C211.153 299.813 209.956 300.209 208.726 300.44L208.488 300.652C206.525 296.04 205.098 290.992 205.659 285.972Z"
        fill="#F0F0F0"
      />
      <path
        d="M213.693 274.429C211.076 277.566 209.461 281.496 209.077 285.66C208.979 286.555 209.016 287.461 209.185 288.344C209.376 289.199 209.779 289.984 210.354 290.618C210.926 291.179 211.431 291.81 211.859 292.5C212.047 292.875 212.157 293.288 212.184 293.711C212.21 294.135 212.152 294.559 212.012 294.957C211.641 295.928 211.088 296.811 210.388 297.552C209.659 298.414 208.889 299.297 208.584 300.437C208.547 300.575 208.346 300.506 208.383 300.368C208.914 298.386 210.725 297.251 211.581 295.464C211.802 295.062 211.933 294.612 211.964 294.148C211.995 293.684 211.926 293.218 211.76 292.787C211.363 292.061 210.859 291.405 210.267 290.846C209.698 290.236 209.278 289.488 209.045 288.668C208.834 287.796 208.765 286.894 208.84 285.998C208.98 283.979 209.419 281.995 210.141 280.121C210.954 277.976 212.108 275.995 213.553 274.262C213.642 274.155 213.782 274.322 213.693 274.429L213.693 274.429Z"
        fill="white"
      />
      <path
        d="M209.126 284.311C208.474 284.148 207.898 283.745 207.501 283.174C207.104 282.603 206.911 281.901 206.958 281.195C206.968 281.052 207.178 281.061 207.168 281.204C207.124 281.863 207.303 282.516 207.674 283.047C208.045 283.578 208.583 283.951 209.191 284.099C209.323 284.132 209.257 284.343 209.126 284.311L209.126 284.311Z"
        fill="white"
      />
      <path
        d="M210.05 290.349C211.222 289.6 212.083 288.411 212.462 287.019C212.5 286.881 212.7 286.95 212.663 287.088C212.266 288.535 211.367 289.771 210.146 290.547C210.03 290.621 209.934 290.423 210.05 290.349Z"
        fill="white"
      />
      <path
        d="M211.151 278.186C211.391 278.305 211.655 278.359 211.919 278.343C212.183 278.327 212.44 278.242 212.666 278.096C212.781 278.02 212.876 278.219 212.761 278.294C212.511 278.455 212.228 278.548 211.936 278.566C211.644 278.584 211.352 278.527 211.086 278.398C211.06 278.388 211.038 278.368 211.026 278.342C211.013 278.316 211.01 278.286 211.018 278.258C211.027 278.23 211.046 278.206 211.071 278.193C211.095 278.179 211.124 278.177 211.151 278.186L211.151 278.186Z"
        fill="white"
      />
      <path
        d="M227.491 283.215C227.421 283.264 227.35 283.314 227.279 283.365C226.33 284.033 225.434 284.782 224.599 285.603C224.534 285.666 224.468 285.73 224.405 285.794C222.415 287.796 220.793 290.172 219.624 292.8C219.159 293.847 218.771 294.929 218.461 296.038C218.034 297.569 217.687 299.265 216.831 300.521C216.744 300.653 216.648 300.779 216.546 300.899L208.751 300.943C208.733 300.934 208.715 300.927 208.697 300.917L208.386 300.934C208.399 300.876 208.412 300.815 208.424 300.757C208.431 300.723 208.44 300.689 208.447 300.655C208.452 300.633 208.457 300.61 208.461 300.59C208.463 300.582 208.464 300.574 208.466 300.569C208.469 300.548 208.475 300.529 208.478 300.51C208.555 300.173 208.633 299.836 208.714 299.499L208.716 299.495C209.31 296.921 210.191 294.43 211.341 292.075C211.376 292.005 211.411 291.933 211.45 291.864C211.983 290.821 212.595 289.826 213.281 288.889C213.658 288.378 214.059 287.886 214.483 287.418C215.582 286.208 216.853 285.19 218.25 284.398C221.037 282.822 224.27 282.205 227.263 283.141C227.34 283.165 227.415 283.189 227.491 283.215Z"
        fill="#F0F0F0"
      />
      <path
        d="M227.474 283.32C223.597 284.157 220.07 286.265 217.392 289.344C216.804 289.996 216.317 290.742 215.95 291.555C215.615 292.358 215.491 293.242 215.589 294.114C215.727 294.925 215.77 295.751 215.72 296.574C215.656 296.993 215.51 297.393 215.29 297.747C215.069 298.102 214.781 298.404 214.443 298.632C213.593 299.171 212.649 299.523 211.668 299.669C210.595 299.893 209.477 300.108 208.584 300.823C208.476 300.909 208.355 300.727 208.463 300.64C210.016 299.396 212.108 299.644 213.81 298.762C214.215 298.582 214.576 298.306 214.865 297.956C215.154 297.605 215.364 297.19 215.477 296.741C215.574 295.908 215.544 295.064 215.39 294.241C215.282 293.392 215.373 292.528 215.654 291.724C215.981 290.895 216.44 290.13 217.01 289.463C218.271 287.941 219.751 286.637 221.395 285.601C223.266 284.407 225.316 283.56 227.457 283.098C227.589 283.069 227.606 283.291 227.474 283.32L227.474 283.32Z"
        fill="white"
      />
      <path
        d="M218.198 288.299C217.771 287.753 217.54 287.065 217.548 286.356C217.556 285.648 217.801 284.966 218.241 284.431C218.33 284.324 218.493 284.465 218.404 284.573C217.993 285.07 217.764 285.706 217.758 286.365C217.753 287.025 217.97 287.666 218.371 288.171C218.458 288.281 218.285 288.408 218.198 288.299Z"
        fill="white"
      />
      <path
        d="M215.499 293.706C216.862 293.854 218.227 293.454 219.322 292.585C219.43 292.498 219.551 292.681 219.443 292.767C218.302 293.669 216.881 294.083 215.463 293.925C215.328 293.91 215.365 293.691 215.499 293.706L215.499 293.706Z"
        fill="white"
      />
      <path
        d="M223.303 284.7C223.427 284.948 223.607 285.159 223.827 285.314C224.048 285.47 224.301 285.566 224.565 285.593C224.7 285.606 224.662 285.825 224.528 285.812C224.237 285.781 223.957 285.675 223.714 285.504C223.47 285.332 223.27 285.1 223.131 284.828C223.116 284.803 223.11 284.774 223.115 284.745C223.119 284.716 223.134 284.69 223.156 284.673C223.179 284.656 223.208 284.649 223.235 284.654C223.263 284.66 223.287 284.676 223.303 284.7Z"
        fill="white"
      />
      <path
        d="M338.965 178.64C336.511 158.757 324.737 139.22 306.755 132.848C313.95 153.287 314.077 175.753 307.115 196.271C304.403 204.174 300.608 212.665 303.247 220.599C304.889 225.536 308.859 229.297 313.285 231.638C317.712 233.979 322.617 235.079 327.459 236.156L328.416 236.983C335.989 218.606 341.419 198.523 338.965 178.64Z"
        fill="#F0F0F0"
      />
      <path
        d="M306.579 133.225C317.1 145.547 323.685 161.058 325.397 177.556C325.743 181.093 325.804 184.712 325.092 188.205C324.374 191.603 322.808 194.735 320.557 197.276C318.504 199.69 316.139 201.907 314.676 204.807C313.134 207.864 313.094 211.327 314.18 214.559C315.509 218.512 318.102 221.726 320.74 224.776C323.67 228.162 326.764 231.63 328.027 236.134C328.18 236.68 328.971 236.397 328.819 235.852C326.621 228.016 319.39 223.599 315.913 216.549C314.291 213.26 313.596 209.434 315.079 205.943C316.376 202.891 318.813 200.602 320.913 198.177C323.117 195.631 324.802 192.841 325.66 189.482C326.536 186.046 326.61 182.416 326.35 178.885C325.706 170.884 323.875 163.039 320.926 155.637C317.604 147.169 312.938 139.364 307.128 132.559C306.769 132.138 306.222 132.807 306.579 133.225L306.579 133.225Z"
        fill="white"
      />
      <path
        d="M325.141 172.21C327.72 171.532 329.986 169.907 331.535 167.625C333.084 165.343 333.815 162.552 333.598 159.751C333.552 159.185 332.717 159.233 332.763 159.8C332.97 162.408 332.289 165.007 330.842 167.129C329.396 169.251 327.279 170.756 324.874 171.372C324.352 171.506 324.622 172.343 325.141 172.21L325.141 172.21Z"
        fill="white"
      />
      <path
        d="M321.751 196.198C317.07 193.28 313.6 188.604 312.033 183.103C311.878 182.558 311.087 182.84 311.241 183.385C312.882 189.106 316.502 193.964 321.38 196.989C321.845 197.277 322.214 196.484 321.751 196.198Z"
        fill="white"
      />
      <path
        d="M316.834 148.011C315.888 148.493 314.843 148.719 313.794 148.669C312.745 148.619 311.724 148.294 310.822 147.723C310.361 147.429 309.993 148.222 310.451 148.515C311.45 149.14 312.578 149.498 313.737 149.556C314.896 149.614 316.051 149.372 317.101 148.849C317.203 148.808 317.288 148.728 317.337 148.624C317.385 148.52 317.395 148.4 317.363 148.289C317.327 148.179 317.252 148.087 317.152 148.035C317.053 147.983 316.939 147.975 316.834 148.011Z"
        fill="white"
      />
      <path
        d="M252.26 168.7C252.543 168.892 252.827 169.084 253.11 169.284C256.904 171.89 260.492 174.818 263.839 178.038C264.101 178.283 264.364 178.535 264.619 178.787C272.603 186.636 279.14 195.983 283.898 206.354C285.788 210.482 287.378 214.756 288.655 219.14C290.418 225.193 291.874 231.905 295.323 236.845C295.678 237.364 296.062 237.86 296.475 238.33L327.388 238.152C327.458 238.114 327.528 238.084 327.599 238.047L328.833 238.099C328.782 237.868 328.725 237.63 328.674 237.399C328.645 237.265 328.609 237.131 328.58 236.997C328.559 236.907 328.537 236.818 328.522 236.736C328.515 236.706 328.508 236.676 328.501 236.654C328.486 236.572 328.464 236.498 328.45 236.423C328.132 235.09 327.804 233.757 327.468 232.424C327.468 232.416 327.468 232.416 327.461 232.409C324.87 222.258 321.455 212.246 316.713 203.1C316.57 202.825 316.427 202.542 316.27 202.267C314.111 198.157 311.638 194.24 308.875 190.555C307.356 188.543 305.742 186.613 304.038 184.773C299.629 180.028 294.541 176.045 288.962 172.971C277.839 166.845 264.989 164.547 253.161 168.396C252.859 168.495 252.563 168.593 252.26 168.7Z"
        fill="#F0F0F0"
      />
      <path
        d="M252.333 169.114C267.745 172.259 281.831 180.458 292.591 192.547C294.882 195.152 296.991 198.005 298.411 201.247C299.773 204.419 300.307 207.918 299.957 211.381C299.693 214.617 299.068 217.894 299.551 221.141C300.061 224.565 302.001 227.357 304.708 229.247C308.019 231.559 311.918 232.476 315.761 233.232C320.027 234.072 324.47 234.873 328.043 237.667C328.475 238.005 328.947 237.275 328.514 236.937C322.299 232.076 314.013 233.151 307.225 229.733C304.057 228.139 301.324 225.525 300.52 221.792C299.817 218.528 300.459 215.148 300.754 211.874C301.063 208.437 300.82 205.136 299.591 201.906C298.334 198.603 296.326 195.657 294.109 193.002C289.039 187.021 283.111 181.919 276.543 177.884C269.071 173.234 260.903 169.97 252.392 168.233C251.865 168.125 251.809 169.008 252.333 169.114L252.333 169.114Z"
        fill="white"
      />
      <path
        d="M289.343 188.438C291.015 186.255 291.898 183.514 291.835 180.705C291.772 177.896 290.766 175.201 288.998 173.103C288.639 172.679 288 173.249 288.36 173.673C290.01 175.624 290.946 178.134 291 180.75C291.054 183.367 290.221 185.916 288.653 187.939C288.313 188.379 289.004 188.876 289.343 188.438L289.343 188.438Z"
        fill="white"
      />
      <path
        d="M300.295 209.759C294.898 210.408 289.467 208.882 285.084 205.486C284.65 205.149 284.179 205.878 284.612 206.215C289.179 209.741 294.834 211.316 300.449 210.628C300.984 210.562 300.827 209.694 300.295 209.759Z"
        fill="white"
      />
      <path
        d="M268.935 174.397C268.455 175.384 267.75 176.23 266.884 176.858C266.018 177.486 265.018 177.876 263.974 177.994C263.438 178.053 263.596 178.921 264.128 178.863C265.281 178.727 266.385 178.294 267.343 177.603C268.301 176.911 269.085 175.982 269.625 174.896C269.684 174.799 269.705 174.681 269.685 174.567C269.665 174.452 269.604 174.351 269.516 174.282C269.424 174.217 269.312 174.192 269.203 174.213C269.094 174.235 268.998 174.301 268.935 174.397L268.935 174.397Z"
        fill="white"
      />
      <path
        d="M375.347 238.363L0.762288 240.513C0.640589 240.513 0.523581 240.463 0.437005 240.372C0.350428 240.282 0.301375 240.159 0.300637 240.03C0.299898 239.901 0.347534 239.778 0.433066 239.686C0.518598 239.595 0.635019 239.543 0.756718 239.542L375.192 237.393C375.314 237.392 375.431 237.443 375.517 237.533C375.604 237.624 375.653 237.747 375.654 237.876C375.655 238.144 375.601 238.361 375.347 238.363Z"
        fill="#CACACA"
      />
      <path
        d="M131.934 282.46L49.1881 282.935C49.0664 282.935 48.9494 282.885 48.8628 282.794C48.7762 282.704 48.7272 282.581 48.7264 282.452C48.7257 282.323 48.7733 282.2 48.8589 282.108C48.9444 282.017 49.0608 281.965 49.1825 281.964L131.779 281.49C131.9 281.489 132.017 281.54 132.104 281.63C132.19 281.721 132.239 281.844 132.24 281.973C132.242 282.241 132.187 282.458 131.934 282.46Z"
        fill="#CACACA"
      />
      <path
        d="M261.902 300.638L179.156 301.113C179.034 301.114 178.917 301.064 178.831 300.973C178.744 300.883 178.695 300.759 178.694 300.631C178.693 300.502 178.741 300.378 178.827 300.287C178.912 300.195 179.029 300.144 179.15 300.143L261.746 299.669C261.868 299.668 261.985 299.719 262.071 299.809C262.158 299.9 262.207 300.023 262.208 300.151C262.209 300.419 262.155 300.637 261.902 300.638Z"
        fill="#CACACA"
      />
      <path
        d="M339.798 280.782L257.052 281.257C256.931 281.258 256.814 281.207 256.727 281.117C256.64 281.026 256.591 280.903 256.591 280.774C256.59 280.646 256.638 280.522 256.723 280.43C256.809 280.339 256.925 280.287 257.047 280.286L339.643 279.812C339.764 279.812 339.881 279.862 339.968 279.953C340.055 280.043 340.104 280.166 340.104 280.295C340.106 280.563 340.052 280.78 339.798 280.782Z"
        fill="#CACACA"
      />
      <path
        d="M153.361 263.413C148.221 263.442 143.512 262.948 139.766 261.739C135.314 260.301 132.51 257.951 131.431 254.748C130.925 253.388 130.768 251.912 130.976 250.468C131.183 249.024 131.748 247.664 132.613 246.525C139.135 237.429 161.935 234.743 164.994 234.423L171.133 221.953C171.513 218.984 169.62 216.748 172.868 216.674L211.288 215.901C214.478 215.812 213.584 217.906 214.147 220.796L220.065 231.813L194.934 243.201L198.8 252.994L198.552 253.149C191.205 257.714 170.03 263.316 153.361 263.413Z"
        fill="#2F2E41"
      />
      <path
        d="M216.579 232.305C216.579 232.305 251.74 227.845 249.543 244.889C247.346 261.934 220.644 274.152 179.936 245.289L184.477 236.747C184.477 236.747 199.579 235.866 208.734 231.555L216.579 232.305Z"
        fill="#2F2E41"
      />
      <path
        d="M166.323 155.431C166.323 155.431 159.628 154.184 157.866 165.123C156.105 176.062 153.332 201.967 153.332 201.967L144.452 235.273C143.385 235.879 142.504 236.795 141.912 237.911C141.319 239.028 141.039 240.3 141.105 241.579C141.17 242.858 141.579 244.091 142.283 245.135C142.986 246.178 143.956 246.988 145.078 247.471C146.2 247.953 147.429 248.088 148.621 247.86C149.813 247.631 150.919 247.049 151.809 246.181C152.699 245.313 153.337 244.195 153.648 242.957C153.96 241.719 153.932 240.413 153.567 239.191L165.503 203.828L167.642 173.427L167.55 157.505C167.548 157.073 167.432 156.65 167.215 156.284C166.998 155.917 166.689 155.622 166.323 155.431Z"
        fill="#FEB8B8"
      />
      <path
        d="M213.395 155.161C213.395 155.161 220.075 153.837 221.962 164.755C223.848 175.673 226.918 201.544 226.918 201.544L236.181 234.746C237.254 235.34 238.146 236.245 238.751 237.355C239.356 238.465 239.651 239.734 239.6 241.014C239.549 242.293 239.155 243.531 238.463 244.582C237.771 245.633 236.811 246.455 235.694 246.95C234.578 247.445 233.35 247.595 232.156 247.38C230.962 247.165 229.85 246.596 228.949 245.738C228.049 244.88 227.399 243.769 227.073 242.535C226.747 241.301 226.761 239.995 227.111 238.769L214.77 203.545L212.282 173.171L212.191 157.248C212.188 156.816 212.3 156.392 212.512 156.023C212.725 155.655 213.031 155.356 213.395 155.161Z"
        fill="#FEB8B8"
      />
      <path
        d="M212.833 146.131L200.155 141.201L175.634 141.007L165.111 146.405L168.178 164.402C168.178 164.402 162.255 175.152 168.906 185.832L170.604 224.01C170.604 224.01 194.326 238.37 214.179 220.849L209.466 185.37C209.466 185.37 216.915 168.853 211.033 162.767L212.833 146.131Z"
        fill="#4BC7C1"
      />
      <path
        d="M207.713 151.758L212.833 146.131C212.833 146.131 224.113 152.32 224.002 173.24L209.791 168.699L207.713 151.758Z"
        fill="#4BC7C1"
      />
      <path
        d="M170.866 151.969L165.359 146.212C165.359 146.212 155.746 154.168 156.097 175.085L168.983 168.932L170.866 151.969Z"
        fill="#4BC7C1"
      />
      <path
        d="M207.105 248.665C207.105 248.665 203.115 239.921 196.559 244.161C190.003 248.401 177.936 255.451 177.936 255.451C177.936 255.451 175.133 260.472 181.309 259.12C187.485 257.768 207.343 256.627 207.343 256.627L207.105 248.665Z"
        fill="#FEB8B8"
      />
      <path
        d="M195.26 92.0226C195.315 91.9657 195.373 91.9146 195.428 91.8563C198.927 88.1129 199.611 82.8268 196.954 80.0496C194.443 77.4249 189.849 77.9839 186.398 81.2123C183.406 78.2345 179.412 77.4225 176.842 79.5048C173.879 81.9059 173.932 87.2413 176.963 91.4217C177.17 91.708 177.388 91.9785 177.611 92.2387C173.619 93.8101 170.182 96.6405 167.762 100.347C165.343 104.053 164.06 108.457 164.086 112.961L164.206 133.884C164.209 134.497 164.327 135.104 164.553 135.67C164.778 136.235 165.106 136.748 165.519 137.18C165.932 137.611 166.421 137.953 166.958 138.184C167.496 138.416 168.071 138.534 168.651 138.53L205.221 138.32C206.353 138.314 207.436 137.832 208.232 136.981C209.028 136.129 209.472 134.978 209.465 133.781L209.344 112.702C209.317 108.136 207.946 103.692 205.422 99.9865C202.899 96.2808 199.347 93.4973 195.26 92.0226Z"
        fill="#2F2E41"
      />
      <path
        d="M199.667 130.89C206.403 123.685 206.336 112.067 199.518 104.939C192.7 97.8122 181.712 97.8753 174.976 105.08C168.241 112.285 168.307 123.904 175.125 131.031C181.943 138.158 192.931 138.095 199.667 130.89Z"
        fill="#FFB6B6"
      />
      <path
        d="M169.021 106.548C173.003 109.415 177.719 110.926 182.535 110.878C180.824 112.148 178.873 113.01 176.817 113.405C183.228 114.821 189.846 114.822 196.257 113.409C197.682 113.159 199.056 112.651 200.318 111.908C200.947 111.532 201.494 111.02 201.923 110.405C202.352 109.791 202.654 109.087 202.81 108.341C203.221 105.762 201.309 103.432 199.327 101.866C196.293 99.505 192.8 97.8863 189.102 97.1271C185.405 96.3679 181.594 96.4872 177.946 97.4763C175.565 98.1421 173.181 99.2574 171.644 101.292C170.106 103.327 169.665 106.452 171.153 108.53L169.021 106.548Z"
        fill="#2F2E41"
      />
      <path
        d="M75.993 70.4629L76.5354 69.6802L91.1696 81.0234C90.3632 78.4764 87.5144 70.4039 82.902 67.2028C77.3918 63.3787 73.5374 64.6002 71.453 67.9604C69.3685 71.3206 69.8433 75.5466 75.3536 79.371C80.0244 82.6127 88.3092 82.1106 90.7259 81.8825L75.993 70.4629Z"
        fill="#F2F2F2"
      />
      <path
        d="M294.833 6.64425L295.513 7.29661L283.331 21.5001C285.81 20.9186 293.698 18.7674 297.185 14.2515C301.352 8.85666 300.601 4.67527 297.656 2.13148C294.711 -0.412315 290.687 -0.355305 286.52 5.03959C282.989 9.61261 282.604 18.3781 282.569 20.9435L294.833 6.64425Z"
        fill="#F2F2F2"
      />
      <path
        d="M97.9277 158.681L98.6078 159.334L86.426 173.537C88.905 172.956 96.7922 170.804 100.28 166.289C104.446 160.894 103.696 156.712 100.751 154.169C97.8058 151.625 93.7818 151.682 89.6152 157.077C86.0833 161.65 85.6991 170.415 85.6638 172.981L97.9277 158.681Z"
        fill="#F2F2F2"
      />
      <path
        d="M200.848 23.3797L201.645 23.8613L192.656 40.5151C194.957 39.3807 202.217 35.4775 204.699 30.2707C207.664 24.0504 206.076 20.1388 202.682 18.3278C199.287 16.5168 195.37 17.4921 192.405 23.7125C189.892 28.9852 191.308 37.6326 191.798 40.1458L200.848 23.3797Z"
        fill="#F2F2F2"
      />
      <path
        d="M286.334 126.728L287.132 127.21L278.142 143.864C280.444 142.729 287.704 138.826 290.185 133.619C293.15 127.399 291.563 123.487 288.168 121.676C284.773 119.865 280.856 120.841 277.891 127.061C275.378 132.334 276.795 140.981 277.285 143.494L286.334 126.728Z"
        fill="#F2F2F2"
      />
    </g>
    <defs>
      <clipPath id="clip0_12_238">
        <rect
          width="375.359"
          height="299.949"
          fill="white"
          transform="translate(-1.06445 2.19336) rotate(-0.328862)"
        />
      </clipPath>
    </defs>
  </svg>
