<svg width="375" height="311" viewBox="0 0 375 311" fill="none" xmlns="http://www.w3.org/2000/svg">
<path d="M375 235.971H-2V236.151H375V235.971Z" fill="#EBEBEB"/>
<path d="M337.224 247.567H312.252V247.748H337.224V247.567Z" fill="#EBEBEB"/>
<path d="M247.74 249.528H241.188V249.709H247.74V249.528Z" fill="#EBEBEB"/>
<path d="M311.499 240.879H297.029V241.06H311.499V240.879Z" fill="#EBEBEB"/>
<path d="M70.1199 242.09H37.5547V242.27H70.1199V242.09Z" fill="#EBEBEB"/>
<path d="M81.6107 242.09H76.8379V242.27H81.6107V242.09Z" fill="#EBEBEB"/>
<path d="M167.763 245.132H97.1279V245.314H167.763V245.132Z" fill="#EBEBEB"/>
<path d="M176.698 203.826H31.1083C29.9678 203.824 28.8747 203.389 28.0689 202.618C27.2631 201.846 26.8105 200.801 26.8105 199.71V4.0794C26.8205 2.99542 27.2774 1.95896 28.0821 1.19515C28.8868 0.431334 29.9743 0.00185691 31.1083 0H176.698C177.84 0 178.935 0.433589 179.743 1.20538C180.55 1.97718 181.004 3.02395 181.004 4.11543V199.71C181.004 200.802 180.55 201.849 179.743 202.62C178.935 203.392 177.84 203.826 176.698 203.826ZM31.1083 0.144149C30.0178 0.146058 28.9726 0.561505 28.2022 1.2993C27.4317 2.0371 26.999 3.03695 26.999 4.0794V199.71C26.999 200.753 27.4317 201.753 28.2022 202.49C28.9726 203.228 30.0178 203.644 31.1083 203.646H176.698C177.789 203.644 178.835 203.228 179.607 202.491C180.379 201.753 180.813 200.753 180.815 199.71V4.0794C180.813 3.03629 180.379 2.03645 179.607 1.29886C178.835 0.56127 177.789 0.146054 176.698 0.144149H31.1083Z" fill="#EBEBEB"/>
<path d="M339.795 203.826H194.198C193.057 203.824 191.963 203.39 191.156 202.618C190.349 201.847 189.895 200.801 189.893 199.71V4.0794C189.904 2.99476 190.363 1.95831 191.169 1.1947C191.975 0.431082 193.063 0.00183666 194.198 0H339.795C340.928 0.0037511 342.014 0.434066 342.817 1.19768C343.62 1.96129 344.076 2.99666 344.086 4.0794V199.71C344.086 200.799 343.634 201.844 342.83 202.615C342.026 203.387 340.935 203.822 339.795 203.826ZM194.198 0.144149C193.107 0.146054 192.061 0.56127 191.289 1.29886C190.517 2.03645 190.083 3.03629 190.081 4.0794V199.71C190.083 200.753 190.517 201.753 191.289 202.491C192.061 203.228 193.107 203.644 194.198 203.646H339.795C340.887 203.644 341.933 203.228 342.704 202.491C343.476 201.753 343.91 200.753 343.912 199.71V4.0794C343.91 3.03629 343.476 2.03645 342.704 1.29886C341.933 0.56127 340.887 0.146054 339.795 0.144149H194.198Z" fill="#EBEBEB"/>
<path d="M304.651 83.6857C304.651 83.6857 305.737 76.8531 300.519 72.471C295.302 68.0889 295.762 65.4798 297.247 65.1411C298.732 64.8023 300.12 69.1844 302.412 70.3881C302.412 70.3881 302.48 64.1392 300.15 61.8401C297.82 59.5409 296.584 53.6092 298.846 53.5083C301.108 53.4074 301.296 57.0255 301.748 59.5986C302.201 62.1716 304.682 65.7825 304.682 65.7825C304.682 65.7825 305.164 60.1968 306.665 57.8976C308.165 55.5985 304.161 50.337 305.707 48.0379C307.253 45.7387 310.005 50.1136 309.779 55.0507C309.552 59.9878 306.107 65.2348 306.913 70.3881C306.913 70.3881 308.421 66.7844 309.786 66.4456C311.151 66.1069 312.523 63.7212 313.443 62.8419C314.363 61.9626 315.509 65.0041 313.443 67.8871C311.377 70.7701 306.107 78.3595 306.913 84.5218L304.651 83.6857Z" fill="#E6E6E6"/>
<path d="M301.53 80.5785L299.826 90.813C299.702 91.5568 299.748 92.3175 299.961 93.0427C300.174 93.7679 300.548 94.4404 301.059 95.0138C301.57 95.5872 302.205 96.0479 302.92 96.3641C303.636 96.6803 304.414 96.8446 305.202 96.8456H307.027C307.816 96.8467 308.596 96.684 309.313 96.3686C310.03 96.0533 310.667 95.5929 311.18 95.0193C311.692 94.4456 312.068 93.7724 312.282 93.0462C312.496 92.32 312.542 91.558 312.418 90.813L310.706 80.5713L301.53 80.5785Z" fill="#E6E6E6"/>
<path d="M327.362 93.0703H206.632V99.002H327.362V93.0703Z" fill="#E0E0E0"/>
<path d="M217.504 71.2168H212.188V93.0769H217.504V71.2168Z" fill="#EBEBEB"/>
<path d="M243.224 71.2168H237.908V93.0769H243.224V71.2168Z" fill="#EBEBEB"/>
<path d="M272.422 70.6623L267.184 71.5254L271.068 93.0678L276.307 92.2047L272.422 70.6623Z" fill="#EBEBEB"/>
<path d="M224.094 74.0918H218.778V93.0689H224.094V74.0918Z" fill="#EBEBEB"/>
<path d="M236.324 74.0918H231.009V93.0689H236.324V74.0918Z" fill="#EBEBEB"/>
<path d="M267.178 74.0918H261.862V93.0689H267.178V74.0918Z" fill="#EBEBEB"/>
<path d="M250.214 73.4318L245.024 74.5342L249.331 93.0593L254.521 91.9569L250.214 73.4318Z" fill="#EBEBEB"/>
<path d="M228.702 70.1279H226.04V93.0691H228.702V70.1279Z" fill="#EBEBEB"/>
<path d="M260.339 70.1279H257.678V93.0691H260.339V70.1279Z" fill="#EBEBEB"/>
<path d="M206.632 143.27H327.362V137.338H206.632V143.27Z" fill="#E0E0E0"/>
<path d="M316.49 137.338H321.806V115.478H316.49V137.338Z" fill="#EBEBEB"/>
<path d="M290.77 137.338H296.086V115.478H290.77V137.338Z" fill="#EBEBEB"/>
<path d="M257.693 136.474L262.932 137.337L266.816 115.794L261.578 114.931L257.693 136.474Z" fill="#EBEBEB"/>
<path d="M309.899 137.338H315.215V118.361H309.899V137.338Z" fill="#EBEBEB"/>
<path d="M297.677 137.338H302.993V118.361H297.677V137.338Z" fill="#EBEBEB"/>
<path d="M266.816 137.338H272.132V118.361H266.816V137.338Z" fill="#EBEBEB"/>
<path d="M279.496 136.228L284.686 137.33L288.993 118.805L283.804 117.703L279.496 136.228Z" fill="#EBEBEB"/>
<path d="M305.292 137.338H307.954V114.397H305.292V137.338Z" fill="#EBEBEB"/>
<path d="M273.663 137.338H276.324V114.397H273.663V137.338Z" fill="#EBEBEB"/>
<path d="M218.213 137.143H244.128V120.039H218.213V137.143Z" fill="#EBEBEB"/>
<path d="M97.0156 144.019L98.4256 152.992L116.703 152.012L117.057 142.952C123.01 141.445 128.612 138.877 133.57 135.384L141.185 140.754L153.377 127.716L146.946 121.085C150.029 115.992 152.076 110.387 152.978 104.566L162.372 103.203L161.339 85.7686L151.862 85.4226C150.284 79.7344 147.598 74.3817 143.945 69.6456L149.562 62.3661L135.922 50.7045L128.978 56.8524C123.648 53.909 117.785 51.9529 111.696 51.0865L110.278 42.1133L92.0091 43.0863L91.6472 52.1532C85.6958 53.6593 80.0959 56.227 75.1421 59.721L67.5267 54.3443L55.3044 67.3609L61.736 73.9989C58.6591 79.0975 56.6129 84.7038 55.704 90.5255L46.3242 91.8733L47.3421 109.344L56.8274 109.69C58.4064 115.378 61.0923 120.73 64.7444 125.467L59.1196 132.747L72.7595 144.408L79.7038 138.253C85.0416 141.203 90.9158 143.159 97.0156 144.019ZM87.8395 115.189C84.189 112.067 81.589 107.98 80.3684 103.445C79.1478 98.9101 79.3613 94.1311 80.9819 89.7123C82.6026 85.2934 85.5576 81.4332 89.4733 78.6196C93.389 75.806 98.0896 74.1655 102.981 73.9055C107.872 73.6455 112.734 74.7776 116.951 77.1588C121.169 79.54 124.554 83.0632 126.677 87.283C128.801 91.5028 129.567 96.2297 128.88 100.866C128.193 105.502 126.083 109.84 122.818 113.33C120.649 115.648 118.024 117.534 115.092 118.882C112.16 120.23 108.98 121.012 105.731 121.185C102.483 121.358 99.2314 120.917 96.1615 119.888C93.0916 118.86 90.2637 117.263 87.8395 115.189Z" fill="#F0F0F0"/>
<path d="M146.417 39.0712L149.704 34.5161L147.442 32.6782C148.196 30.9647 148.605 29.1309 148.649 27.2727L151.537 26.4871L150.489 21.0527L147.473 21.3049C146.742 19.5791 145.675 18.0016 144.328 16.6562L145.784 14.1552L141.026 11.02L139.103 13.1822C137.308 12.4615 135.387 12.0702 133.441 12.029L132.626 9.26855L126.934 10.2992L127.198 13.1822C125.395 13.8826 123.745 14.8996 122.334 16.1805L119.725 14.7894L116.438 19.3373L118.7 21.1752C117.948 22.8915 117.542 24.7278 117.501 26.588L114.613 27.3664L115.654 32.808L118.67 32.5557C119.397 34.2817 120.461 35.8594 121.806 37.2045L120.359 39.6406L125.124 42.7758L127.047 40.6136C128.839 41.3343 130.758 41.7255 132.702 41.7668L133.524 44.5272L139.209 43.5326L138.945 40.6496C140.748 39.9492 142.397 38.9322 143.808 37.6514L146.417 39.0712ZM128.63 33.0746C127.355 32.2336 126.369 31.0499 125.797 29.6732C125.225 28.2965 125.094 26.7886 125.418 25.3403C125.743 23.892 126.51 22.5684 127.622 21.5368C128.734 20.5052 130.141 19.8119 131.665 19.5447C133.189 19.2775 134.762 19.4484 136.185 20.0357C137.607 20.6231 138.816 21.6004 139.657 22.8443C140.498 24.0881 140.935 25.5425 140.912 27.0236C140.888 28.5046 140.406 29.9457 139.525 31.1647C138.942 31.9745 138.197 32.6665 137.333 33.2008C136.469 33.7352 135.504 34.1016 134.492 34.279C133.48 34.4564 132.442 34.4413 131.436 34.2347C130.43 34.028 129.476 33.6338 128.63 33.0746Z" fill="#F0F0F0"/>
<path d="M85.6673 171.609L88.6079 168.466L87.0999 166.866C87.8155 165.634 88.2835 164.284 88.4797 162.888L90.7417 162.563L90.4929 158.361L88.2309 158.275C87.8531 156.906 87.2084 155.617 86.3308 154.477L87.7257 152.725L84.4383 149.914L82.772 151.399C81.489 150.688 80.0767 150.216 78.6099 150.008L78.2706 147.846L73.8672 148.076L73.7767 150.239C72.3304 150.604 70.9694 151.228 69.7655 152.076L67.9332 150.779L65.0002 153.922L66.5082 155.522C65.7832 156.757 65.3075 158.111 65.1057 159.515L62.8438 159.839L63.085 164.041L65.347 164.127C65.7312 165.5 66.3836 166.791 67.2697 167.933L65.9125 169.684L69.2 172.495L70.8738 171.01C72.1562 171.722 73.5688 172.194 75.0359 172.401L75.3752 174.564L79.7786 174.326L79.8615 172.164C81.2942 171.8 82.6422 171.181 83.8351 170.34L85.6673 171.609ZM72.8493 165.453C71.9697 164.702 71.3429 163.719 71.0481 162.627C70.7533 161.535 70.8038 160.384 71.1932 159.32C71.5825 158.256 72.2933 157.326 73.2356 156.648C74.1779 155.969 75.3095 155.573 76.4871 155.51C77.6648 155.446 78.8357 155.718 79.8518 156.291C80.8679 156.863 81.6836 157.711 82.1957 158.727C82.7078 159.743 82.8933 160.881 82.7288 161.997C82.5643 163.114 82.0572 164.158 81.2715 164.999C80.75 165.562 80.1171 166.02 79.4094 166.348C78.7017 166.675 77.9331 166.866 77.1481 166.908C76.363 166.95 75.5769 166.843 74.8352 166.594C74.0936 166.344 73.4109 165.956 72.8267 165.453H72.8493Z" fill="#F0F0F0"/>
<path d="M64.6759 50.7977L68.1217 47.1435L66.3196 45.284C67.1846 43.8554 67.7577 42.2827 68.0086 40.6496L70.64 40.2748L70.3535 35.3738L67.6693 35.3161C67.2154 33.7174 66.4478 32.2156 65.4073 30.8908L67.0208 28.8295L63.198 25.5645L61.2527 27.2871C59.7611 26.4598 58.1183 25.9119 56.412 25.6726L56.0124 23.1572L50.8928 23.4311L50.7797 25.9465C49.1121 26.3814 47.5462 27.1152 46.1652 28.1087L44.0314 26.6024L40.6082 30.2565L42.4103 32.116C41.5519 33.5449 40.9792 35.114 40.7213 36.7432L38.0898 37.1252L38.3764 42.019L41.038 42.1199C41.48 43.7012 42.2266 45.1897 43.2397 46.5093L41.6638 48.549L45.5017 51.8211L47.447 50.0985C48.9422 50.9183 50.5835 51.4657 52.2877 51.713L52.6797 54.2284L57.8069 53.9545L57.905 51.4103C59.5732 50.9868 61.1435 50.2681 62.5345 49.2913L64.6759 50.7977ZM49.7241 43.6335C48.6995 42.7589 47.9693 41.6134 47.6259 40.342C47.2824 39.0707 47.3412 37.7305 47.7946 36.491C48.2481 35.2516 49.076 34.1685 50.1735 33.3789C51.271 32.5892 52.5888 32.1284 53.9603 32.0548C55.3318 31.9812 56.6954 32.2981 57.8785 32.9653C59.0615 33.6325 60.011 34.6202 60.6068 35.8033C61.2026 36.9865 61.418 38.3119 61.2256 39.6121C61.0332 40.9122 60.4418 42.1286 59.5261 43.1073C58.2978 44.4174 56.5763 45.2084 54.7388 45.307C52.9014 45.4057 51.098 44.8038 49.7241 43.6335Z" fill="#F0F0F0"/>
<path d="M111.372 18.2054L112.88 16.6197L112.126 15.8125C112.504 15.192 112.759 14.5104 112.88 13.8016L114.018 13.6431L113.898 11.4809L112.744 11.4376C112.551 10.7461 112.224 10.0957 111.779 9.52044L112.465 8.64113L110.806 7.19965L109.962 7.92039C109.317 7.55644 108.605 7.31193 107.866 7.19965L107.692 6.11133L105.468 6.23386L105.43 7.32938C104.708 7.51531 104.027 7.82815 103.425 8.25193L102.497 7.59606L100.989 9.18169L101.743 9.98892C101.359 10.6065 101.103 11.2893 100.989 11.9998L99.8506 12.1584L99.9712 14.2845L101.125 14.3278C101.293 15.052 101.608 15.7377 102.052 16.3459L101.374 17.2252L103.032 18.6666L103.877 17.9459C104.522 18.3099 105.233 18.5544 105.973 18.6666L106.146 19.755L108.363 19.6324L108.408 18.5369C109.131 18.3497 109.811 18.037 110.414 17.6144L111.372 18.2054ZM104.887 15.135C104.441 14.7557 104.123 14.2584 103.973 13.7062C103.823 13.154 103.848 12.5716 104.045 12.0329C104.241 11.4941 104.6 11.0232 105.077 10.6797C105.553 10.3362 106.126 10.1356 106.722 10.1033C107.318 10.0709 107.91 10.2084 108.424 10.4981C108.939 10.7879 109.351 11.217 109.61 11.731C109.869 12.2451 109.963 12.821 109.879 13.3859C109.795 13.9508 109.538 14.4793 109.14 14.9044C108.607 15.4731 107.861 15.8167 107.063 15.8599C106.266 15.9032 105.484 15.6425 104.887 15.135Z" fill="#F0F0F0"/>
<path d="M152.676 59.3098C153.872 59.7884 155.15 60.05 156.446 60.081L156.996 61.9333L160.864 61.263L160.691 59.3458C161.9 58.8784 163.005 58.1961 163.948 57.335L165.705 58.2719L167.907 55.216L166.399 53.9835C166.899 52.8406 167.173 51.6185 167.206 50.3798L169.143 49.8537L168.442 46.2067L166.436 46.3725C165.946 45.2174 165.233 44.161 164.333 43.2589L165.313 41.5796L162.116 39.475L160.827 40.9165C159.631 40.4378 158.353 40.1763 157.057 40.1453L156.506 38.293L152.691 38.9633L152.864 40.8804C151.655 41.3461 150.549 42.0287 149.607 42.8913L147.85 41.9543L145.649 45.0103L147.157 46.2428C146.656 47.3857 146.382 48.6077 146.35 49.8465L144.412 50.3726L145.03 54.0556L147.036 53.8898C147.523 55.0464 148.237 56.1032 149.14 57.0034L148.159 58.6827L151.356 60.7873L152.676 59.3098ZM153.739 54.2646C152.875 53.7009 152.206 52.9045 151.816 51.9765C151.427 51.0485 151.335 50.0308 151.551 49.0526C151.768 48.0744 152.284 47.1798 153.033 46.4824C153.783 45.7849 154.732 45.3161 155.761 45.1355C156.79 44.9548 157.852 45.0705 158.812 45.4677C159.772 45.865 160.586 46.526 161.153 47.3667C161.719 48.2074 162.011 49.19 161.992 50.1898C161.973 51.1895 161.643 52.1613 161.045 52.9817C160.248 54.0704 159.033 54.8144 157.665 55.0519C156.297 55.2894 154.886 55.0013 153.739 54.2502V54.2646Z" fill="#F0F0F0"/>
<path d="M186.5 265.942C267.24 265.942 332.693 262.79 332.693 258.901C332.693 255.013 267.24 251.86 186.5 251.86C105.759 251.86 40.3066 255.013 40.3066 258.901C40.3066 262.79 105.759 265.942 186.5 265.942Z" fill="#F5F5F5"/>
<path d="M164.385 152.391C163.696 152.287 163.075 151.982 162.636 151.532L158.753 147.682C158.381 147.317 158.144 146.871 158.07 146.398C157.997 145.925 158.09 145.445 158.338 145.014L160.479 141.176C162.573 137.445 165.615 134.129 169.399 131.454L170.688 130.559C171.699 129.839 173.016 129.479 174.348 129.56C175.679 129.64 176.918 130.154 177.791 130.988C177.829 131.021 177.864 131.057 177.897 131.093L181.848 135.074C182.596 135.843 182.989 136.806 182.956 137.792C182.923 138.777 182.466 139.721 181.667 140.455L176.841 144.983C176.841 144.983 170.666 153.317 164.385 152.391Z" fill="#EBB376"/>
<path d="M206.971 169.751C204.619 166.081 200.939 163.96 195.91 163.804C192.359 163.692 189.395 165.011 186.756 166.914C181.478 170.74 176.042 174.465 169.965 177.451C168.161 178.343 166.287 179.135 164.355 179.821C163.971 179.952 163.601 180.138 163.262 180.026C161.89 179.566 162.764 175.355 163.171 173.445C163.827 170.385 165.569 163.923 170.975 151.787L157.313 145.804C152.043 152.263 147.884 159.295 144.955 166.697C141.712 174.926 141.396 180.213 142.105 184.411C143.115 190.37 146.108 193.455 147.036 194.363C150.187 197.423 154.312 199.028 159.039 199.607C163.563 200.167 167.989 199.489 172.317 198.419C181.034 196.267 188.619 192.41 195.691 187.845C198.582 185.964 201.351 183.958 203.985 181.836C206.155 180.183 207.591 177.978 208.064 175.573C208.097 175.437 208.145 175.303 208.208 175.175V173.203C207.964 172.015 207.549 170.856 206.971 169.751Z" fill="#4BC7C1"/>
<path opacity="0.2" d="M188.415 169.502C185.658 179.422 181.081 188.936 174.843 197.716C176.125 197.33 177.859 196.77 179.88 196.012C183.309 194.694 186.605 193.15 189.734 191.396C192.632 189.825 195.419 188.117 198.081 186.283L188.415 169.502Z" fill="black"/>
<path opacity="0.2" d="M166.354 133.861C166.65 135.653 167.226 137.407 168.065 139.079C169.626 142.139 172.02 144.861 175.062 147.035C175.635 146.369 176.238 145.691 176.894 145.007C178.206 143.614 179.533 142.351 180.823 141.213L171.481 130.066C170.288 130.79 169.15 131.573 168.073 132.411C167.447 132.903 166.896 133.388 166.354 133.861Z" fill="black"/>
<path d="M298.356 239.47C288.554 219.311 282.417 205.329 275.412 168.015C273.685 158.84 263.348 152.838 252.739 153.615C249.723 153.839 239.65 152.807 222.149 156.278C209.369 158.815 186.915 167.063 186.915 167.063C186.915 167.063 196.302 205.434 223.982 239.47H298.356Z" fill="#4BC7C1"/>
<path opacity="0.7" d="M298.356 239.47C288.554 219.311 282.417 205.329 275.412 168.015C273.685 158.84 263.348 152.838 252.739 153.615C249.723 153.839 239.65 152.807 222.149 156.278C209.369 158.815 186.915 167.063 186.915 167.063C186.915 167.063 196.302 205.434 223.982 239.47H298.356Z" fill="white"/>
<path d="M249.715 206.965C252.535 212.594 256.969 219.517 261.44 226.011C264.878 230.987 268.339 235.739 271.106 239.446H300.03L288.946 217.576L287.332 214.404L285.274 205.634L275.992 166.286C274.115 158.325 264.863 152.105 255.634 152.602L243.118 153.261L243.004 153.709C242.122 157.242 236.92 181.121 249.625 206.735L249.715 206.965Z" fill="#4BC7C1"/>
<path d="M213.448 229.469C216.66 235.247 218.832 238.985 218.832 238.985C218.832 238.985 218.832 239.147 218.741 239.446H229.893C229.839 236.063 229.539 232.685 228.995 229.332C227.928 222.685 226.27 216.111 224.034 209.664C223.28 207.406 222.421 205.217 221.546 203.164C214.255 186.047 210.605 161.329 210.304 159.282C210.304 159.189 210.304 159.146 210.304 159.146C210.304 159.146 187.541 164.613 186.93 167.032C185.309 173.483 194.704 193.866 203.714 211.306C207.235 218.161 210.719 224.543 213.448 229.469Z" fill="#4BC7C1"/>
<path d="M210.485 156.576C213.818 159.568 215.13 161.851 215.514 163.505C216.08 165.931 214.662 167.02 214.662 167.02C216.427 172.966 226.153 171.766 226.153 171.766C237.079 161.366 236.076 154.256 236.076 154.256C229.117 154.119 224.366 150.468 221.305 146.724C219.277 144.221 217.711 141.484 216.661 138.601L204.295 151.837C206.494 153.292 208.563 154.876 210.485 156.576Z" fill="#EBB376"/>
<path opacity="0.2" d="M204.317 151.837C206.509 153.292 208.57 154.876 210.485 156.576C213.818 159.568 215.13 161.851 215.514 163.505C220.845 158.299 221.81 152.005 221.305 146.711C219.278 144.213 217.712 141.479 216.66 138.601L204.317 151.837Z" fill="black"/>
<path d="M208.14 103.831C208.14 102.406 208.426 98.3137 212.045 95.0357C216.728 90.7937 224.75 89.9789 230.187 91.9257C237.078 94.3702 235.532 99.7007 244.686 111.208C251.887 120.239 255.197 119.916 257.602 126.248C258.266 127.989 262.247 138.526 254.646 145.424C250.492 149.193 244.807 150.07 242.236 150.325C243.487 148.459 244.822 145.723 244.083 142.774C243.155 139.08 239.506 137.232 236.807 135.31C224.486 126.565 230.021 114.989 217.746 107.457C214.879 105.718 211.609 104.484 208.14 103.831Z" fill="#263238"/>
<path d="M174.105 139.951C173.034 138.707 164.529 128.419 169.226 117.036C172.446 109.211 180.152 105.112 183.19 103.501C186.229 101.89 192.012 98.7618 199.085 98.7992C217.045 98.8925 230.692 116.924 229.901 127.791C229.471 133.774 227.676 141.176 221.23 145.287C218.644 146.936 217.641 140.529 217.641 140.529C217.641 140.529 192.593 150.195 174.105 139.951Z" fill="#263238"/>
<path d="M216.411 117.141C221.417 130.906 223.875 136.629 218.967 146.344C211.585 160.961 190.654 163.816 180.928 151.762C172.174 140.908 165.471 120.22 178.545 109.404C191.423 98.7363 211.382 103.383 216.411 117.141Z" fill="#EBB376"/>
<path d="M197.35 117.912C210.424 123.554 199.137 139.993 215.687 133.027C232.238 126.061 214.466 108.999 201.964 108.321C189.463 107.643 197.35 117.912 197.35 117.912Z" fill="#263238"/>
<path d="M193.512 129.252C194.032 130.377 193.768 131.553 192.924 131.876C192.08 132.2 190.979 131.547 190.458 130.415C189.938 129.283 190.194 128.113 191.039 127.79C191.883 127.466 192.992 128.132 193.512 129.252Z" fill="#263238"/>
<path d="M177.724 135.509C178.252 136.641 177.988 137.817 177.143 138.134C176.299 138.451 175.19 137.804 174.67 136.678C174.15 135.553 174.414 134.377 175.258 134.053C176.103 133.73 177.204 134.383 177.724 135.509Z" fill="#263238"/>
<path d="M175.657 133.973L172.174 134.352C172.174 134.352 174.768 135.882 175.657 133.973Z" fill="#263238"/>
<path d="M182.903 135.658C182.903 135.658 182.752 141.349 181.305 144.578C183.627 145.374 186.289 143.701 186.289 143.701L182.903 135.658Z" fill="#D58745"/>
<path d="M197.727 144.092C198.494 143.885 199.281 143.735 200.08 143.645C200.134 143.637 200.189 143.64 200.242 143.652C200.295 143.664 200.344 143.685 200.386 143.714C200.428 143.743 200.462 143.779 200.486 143.819C200.51 143.86 200.523 143.904 200.525 143.949C200.532 144.044 200.497 144.137 200.426 144.212C200.355 144.287 200.253 144.337 200.14 144.354C198.336 144.555 196.611 145.089 195.091 145.916C193.572 146.743 192.298 147.842 191.364 149.131C191.316 149.215 191.23 149.281 191.124 149.313C191.018 149.346 190.901 149.343 190.798 149.305C190.7 149.26 190.628 149.185 190.597 149.097C190.566 149.008 190.578 148.913 190.632 148.832C192.207 146.584 194.734 144.896 197.727 144.092Z" fill="#263238"/>
<path d="M225.467 128.611C225.538 129.983 225.261 131.353 224.653 132.632C224.046 133.911 223.121 135.071 221.938 136.038C218.884 138.32 215.25 135.633 214.338 131.783C213.516 128.325 214.111 122.969 218.025 122.223C221.938 121.477 225.406 124.91 225.467 128.611Z" fill="#EBB376"/>
<path d="M169.362 130.931C169.411 130.849 169.482 130.777 169.57 130.72C169.657 130.663 169.758 130.623 169.867 130.602C170.879 130.425 171.822 130.044 172.612 129.492C173.401 128.941 174.013 128.236 174.391 127.442C174.418 127.354 174.467 127.271 174.537 127.201C174.606 127.13 174.694 127.073 174.793 127.033C174.892 126.993 175.001 126.972 175.111 126.971C175.222 126.969 175.331 126.988 175.431 127.025C175.643 127.099 175.814 127.234 175.911 127.405C176.008 127.576 176.026 127.771 175.959 127.952C175.503 128.966 174.744 129.87 173.753 130.578C172.762 131.287 171.571 131.779 170.289 132.008C170.067 132.039 169.838 132 169.65 131.897C169.462 131.794 169.329 131.635 169.279 131.454C169.229 131.277 169.258 131.092 169.362 130.931Z" fill="#263238"/>
<path d="M192.66 122.69C192.86 122.75 193.024 122.87 193.12 123.026C193.163 123.11 193.186 123.201 193.187 123.293C193.188 123.384 193.166 123.475 193.124 123.56C193.082 123.645 193.02 123.723 192.942 123.788C192.864 123.853 192.77 123.905 192.668 123.94C191.44 124.453 190.086 124.725 188.71 124.735C187.334 124.744 185.974 124.492 184.736 123.996C184.639 123.954 184.554 123.895 184.488 123.823C184.421 123.751 184.375 123.668 184.351 123.58C184.327 123.492 184.327 123.401 184.351 123.312C184.374 123.224 184.421 123.141 184.487 123.069C184.616 122.913 184.81 122.801 185.033 122.755C185.255 122.71 185.49 122.733 185.693 122.82C186.68 123.201 187.759 123.39 188.848 123.373C189.937 123.356 191.006 123.133 191.974 122.721C192.191 122.643 192.434 122.632 192.66 122.69Z" fill="#263238"/>
<path d="M191.439 127.716L188.008 128.133C188.008 128.133 190.549 129.625 191.439 127.716Z" fill="#263238"/>
<path d="M183.763 113.963C193.225 121.545 203.329 124.668 208.532 124.232C210.985 124.044 213.388 123.544 215.657 122.752C217.723 121.944 220.754 120.351 220.754 120.351C220.187 117.958 219.131 115.661 217.632 113.559C214.369 109.163 209.416 105.796 203.563 103.993C201.225 103.259 193.964 101.318 186.62 103.24C176.14 105.977 168.592 115.767 168.306 127.566C168.944 127.145 169.611 126.754 170.304 126.397C172.309 125.361 174.508 124.605 176.811 124.158C176.997 122.805 177.408 121.481 178.032 120.221C179.261 117.764 181.234 115.609 183.763 113.963Z" fill="#263238"/>
<path d="M205.426 124.91C205.372 125.212 205.191 125.488 204.916 125.692C204.64 125.895 204.287 126.012 203.918 126.024C203.373 126.048 202.829 125.957 202.339 125.76C201.848 125.563 201.426 125.267 201.113 124.898C200.935 124.691 200.835 124.446 200.826 124.192C200.817 123.939 200.898 123.689 201.06 123.473L201.754 122.547L201.822 122.46C203.39 120.664 204.491 119.868 205.124 120.071C205.863 120.307 205.969 121.912 205.426 124.91Z" fill="#4BC7C1"/>
<path opacity="0.7" d="M204.928 124.481C204.888 124.703 204.755 124.908 204.553 125.058C204.351 125.209 204.092 125.298 203.819 125.308C203.41 125.325 203.002 125.254 202.636 125.103C202.283 124.96 201.98 124.746 201.753 124.481C201.623 124.328 201.549 124.147 201.542 123.96C201.536 123.773 201.596 123.589 201.716 123.43L202.221 122.746C202.241 122.726 202.259 122.705 202.274 122.683C203.425 121.361 204.237 120.774 204.709 120.923C205.259 121.091 205.35 122.279 204.928 124.481Z" fill="white"/>
<path opacity="0.2" d="M204.211 140.517C202.859 135.748 202.882 130.784 204.279 126.024C204.641 127.535 204.995 129.047 205.357 130.558L221.425 133.668C222.541 131.068 223.654 128.466 224.765 125.862C224.948 126.267 225.095 126.683 225.202 127.106C225.255 127.305 226.371 131.796 222.888 135.248C222.504 135.6 222.085 135.925 221.636 136.219C221.636 136.608 221.613 137.006 221.568 137.413C221.47 138.731 221.304 139.988 221.086 141.145L204.211 140.517Z" fill="black"/>
<path d="M207.944 140.448C208.539 140.831 209.279 141.029 210.033 141.008L216.593 140.859C217.216 140.849 217.823 140.692 218.34 140.405C218.858 140.118 219.264 139.714 219.511 139.242L221.773 135.068C223.944 131.006 225.029 126.607 224.955 122.168V120.663C224.943 119.473 224.359 118.335 223.331 117.5C222.303 116.665 220.916 116.201 219.473 116.209H219.292L212.566 116.402C211.276 116.446 210.047 116.868 209.099 117.592C208.151 118.315 207.547 119.294 207.394 120.352L206.368 126.814C206.368 126.814 202.508 136.909 207.944 140.448Z" fill="#EBB376"/>
<path opacity="0.2" d="M266.145 155.232C266.954 155.575 267.713 155.992 268.407 156.476C273.459 159.96 273.232 165.806 273.217 166.167C272.931 171.286 268.105 174.62 264.026 177.438C257.852 181.61 250.409 184.305 242.507 185.231C250.384 175.226 258.263 165.226 266.145 155.232Z" fill="black"/>
<path opacity="0.2" d="M216.177 187.845C212.839 187.313 209.723 186.081 207.129 184.268C202.967 181.308 201.625 177.663 200.486 174.584C199.018 170.536 198.596 166.279 199.25 162.088L204.354 160.676L216.177 187.845Z" fill="black"/>
<path d="M266.379 155.382C262.609 152.894 258.175 153.186 256.577 153.298C250.047 153.734 245.093 157.329 240.094 160.992C237.644 162.79 235.035 164.451 232.63 166.298C230.403 167.911 227.756 169.08 224.894 169.713C224.729 169.738 224.56 169.738 224.396 169.713C224.271 169.698 224.151 169.665 224.041 169.613C223.906 169.554 223.786 169.473 223.69 169.375C223.594 169.276 223.524 169.163 223.484 169.041C222.933 167.442 222.458 165.807 222.081 164.171C220.875 158.952 220.86 154.735 220.837 149.865C220.837 146.512 220.95 143.097 221.222 139.72V139.421L204.724 138.084L204.656 138.358C202.69 146.558 201.572 154.881 201.316 163.238C201.218 167.33 201.316 172.151 204.068 177.544C204.963 179.596 206.29 181.502 207.989 183.173C210.017 185.028 212.502 186.504 215.279 187.502C218.055 188.5 221.059 188.996 224.087 188.957C225.166 188.958 226.244 188.898 227.314 188.777C237.734 187.676 246.722 183.683 250.009 182.128C261.108 176.884 266.002 171.759 267.479 170.123C269.493 167.896 270.857 165.838 270.903 163.281C270.948 158.517 266.56 155.5 266.379 155.382Z" fill="#4BC7C1"/>
<path d="M305.805 66.7215C305.805 63.5058 303.777 60.6073 300.527 58.5174C300.636 58.0961 300.691 57.6667 300.693 57.236C300.693 52.9505 295.415 49.4735 288.863 49.374C286.88 45.2377 280.931 42.2334 273.903 42.2334C268.301 42.2334 263.385 44.1429 260.618 47.0166C259.916 46.9338 259.208 46.8923 258.499 46.8922C251.811 46.8922 246.382 50.4127 246.382 54.7543C246.384 55.4927 246.543 56.2252 246.85 56.9188C242.59 58.7848 239.777 61.8948 239.777 65.49C239.777 68.9296 242.386 71.9774 246.39 73.8497C246.386 73.8869 246.386 73.9244 246.39 73.9616C246.39 78.1726 251.502 81.6122 257.919 81.8112C261.462 84.6662 266.884 86.4887 272.999 86.4887C276.994 86.5154 280.929 85.6813 284.414 84.0691C284.949 84.1127 285.5 84.1437 286.058 84.1437C292.753 84.1437 298.175 80.6232 298.175 76.2817V76.2008C302.759 74.1296 305.805 70.6526 305.805 66.7215Z" fill="#4BC7C1"/>
<path d="M225.647 76.5364C225.647 77.4881 224.313 78.2594 222.631 78.2594C220.95 78.2594 219.615 77.4881 219.615 76.5364C219.615 75.5848 220.95 74.8135 222.631 74.8135C224.313 74.8135 225.647 75.5848 225.647 76.5364Z" fill="#4BC7C1"/>
<path d="M235.864 70.242C235.864 71.6913 233.821 72.8669 231.295 72.8669C228.769 72.8669 226.726 71.6913 226.726 70.242C226.726 68.7928 228.776 67.6172 231.295 67.6172C233.813 67.6172 235.864 68.7928 235.864 70.242Z" fill="#4BC7C1"/>
<path opacity="0.6" d="M305.805 66.7215C305.805 63.5058 303.777 60.6073 300.527 58.5174C300.636 58.0961 300.691 57.6667 300.693 57.236C300.693 52.9505 295.415 49.4735 288.863 49.374C286.88 45.2377 280.931 42.2334 273.903 42.2334C268.301 42.2334 263.385 44.1429 260.618 47.0166C259.916 46.9338 259.208 46.8923 258.499 46.8922C251.811 46.8922 246.382 50.4127 246.382 54.7543C246.384 55.4927 246.543 56.2252 246.85 56.9188C242.59 58.7848 239.777 61.8948 239.777 65.49C239.777 68.9296 242.386 71.9774 246.39 73.8497C246.386 73.8869 246.386 73.9244 246.39 73.9616C246.39 78.1726 251.502 81.6122 257.919 81.8112C261.462 84.6662 266.884 86.4887 272.999 86.4887C276.994 86.5154 280.929 85.6813 284.414 84.0691C284.949 84.1127 285.5 84.1437 286.058 84.1437C292.753 84.1437 298.175 80.6232 298.175 76.2817V76.2008C302.759 74.1296 305.805 70.6526 305.805 66.7215Z" fill="white"/>
<path opacity="0.6" d="M225.647 76.5364C225.647 77.4881 224.313 78.2594 222.631 78.2594C220.95 78.2594 219.615 77.4881 219.615 76.5364C219.615 75.5848 220.95 74.8135 222.631 74.8135C224.313 74.8135 225.647 75.5848 225.647 76.5364Z" fill="white"/>
<path opacity="0.6" d="M235.864 70.242C235.864 71.6913 233.821 72.8669 231.295 72.8669C228.769 72.8669 226.726 71.6913 226.726 70.242C226.726 68.7928 228.776 67.6172 231.295 67.6172C233.813 67.6172 235.864 68.7928 235.864 70.242Z" fill="white"/>
<path d="M264.712 55.8984H252.422V60.7625H264.712V55.8984Z" fill="#4BC7C1"/>
<path opacity="0.8" d="M264.712 55.8984H252.422V60.7625H264.712V55.8984Z" fill="white"/>
<path d="M278.473 55.8984H266.183V60.7625H278.473V55.8984Z" fill="#4BC7C1"/>
<path opacity="0.8" d="M278.473 55.8984H266.183V60.7625H278.473V55.8984Z" fill="white"/>
<path d="M292.24 55.8984H279.95V60.7625H292.24V55.8984Z" fill="#4BC7C1"/>
<path opacity="0.8" d="M292.24 55.8984H279.95V60.7625H292.24V55.8984Z" fill="white"/>
<path d="M258.258 61.708H245.968V66.5721H258.258V61.708Z" fill="#4BC7C1"/>
<path opacity="0.8" d="M258.258 61.708H245.968V66.5721H258.258V61.708Z" fill="white"/>
<path d="M272.011 61.708H259.721V66.5721H272.011V61.708Z" fill="#4BC7C1"/>
<path opacity="0.8" d="M272.011 61.708H259.721V66.5721H272.011V61.708Z" fill="white"/>
<path d="M285.786 61.708H273.496V66.5721H285.786V61.708Z" fill="#4BC7C1"/>
<path opacity="0.8" d="M285.786 61.708H273.496V66.5721H285.786V61.708Z" fill="white"/>
<path d="M299.614 61.708H287.324V66.5721H299.614V61.708Z" fill="#4BC7C1"/>
<path opacity="0.8" d="M299.614 61.708H287.324V66.5721H299.614V61.708Z" fill="white"/>
<path d="M264.712 67.8096H252.422V72.6736H264.712V67.8096Z" fill="#4BC7C1"/>
<path opacity="0.8" d="M264.712 67.8096H252.422V72.6736H264.712V67.8096Z" fill="white"/>
<path d="M278.473 67.8096H266.183V72.6736H278.473V67.8096Z" fill="#4BC7C1"/>
<path opacity="0.8" d="M278.473 67.8096H266.183V72.6736H278.473V67.8096Z" fill="white"/>
<path d="M292.24 67.8096H279.95V72.6736H292.24V67.8096Z" fill="#4BC7C1"/>
<path opacity="0.8" d="M292.24 67.8096H279.95V72.6736H292.24V67.8096Z" fill="white"/>
<path d="M271.272 50.0889H258.981V54.9529H271.272V50.0889Z" fill="#4BC7C1"/>
<path opacity="0.8" d="M271.272 50.0889H258.981V54.9529H271.272V50.0889Z" fill="white"/>
<path d="M285.048 50.0889H272.758V54.9529H285.048V50.0889Z" fill="#4BC7C1"/>
<path opacity="0.8" d="M285.048 50.0889H272.758V54.9529H285.048V50.0889Z" fill="white"/>
<path d="M272.011 73.6191H259.721V78.4832H272.011V73.6191Z" fill="#4BC7C1"/>
<path opacity="0.8" d="M272.011 73.6191H259.721V78.4832H272.011V73.6191Z" fill="white"/>
<path d="M285.786 73.6191H273.496V78.4832H285.786V73.6191Z" fill="#4BC7C1"/>
<path opacity="0.8" d="M285.786 73.6191H273.496V78.4832H285.786V73.6191Z" fill="white"/>
<path d="M276.557 59.8365C276.497 57.8647 274.446 56.5523 271.227 56.5958C268.135 56.6332 265.911 57.6408 264.508 59.3824L260.392 57.2241C262.654 54.5246 266.348 52.8701 271.573 52.7954C277.711 52.727 281.888 55.0346 282.024 59.0714C282.22 64.8062 275.095 65.4158 275.238 69.5645L269.96 69.6267C269.734 64.4206 276.678 63.3508 276.557 59.8365ZM269.44 75.2932C269.42 74.9331 269.49 74.5735 269.646 74.2367C269.801 73.8999 270.039 73.5931 270.345 73.3353C270.65 73.0775 271.017 72.8743 271.421 72.7381C271.826 72.602 272.26 72.5359 272.697 72.5439C273.134 72.5306 273.569 72.5896 273.977 72.7173C274.386 72.8451 274.759 73.039 275.076 73.2877C275.392 73.5364 275.645 73.8348 275.819 74.1654C275.993 74.4959 276.085 74.8519 276.09 75.2123C276.111 75.5711 276.044 75.9298 275.892 76.2665C275.741 76.6032 275.507 76.9109 275.207 77.171C274.907 77.431 274.545 77.638 274.145 77.7792C273.744 77.9205 273.313 77.9931 272.878 77.9926C272.436 78.0059 271.995 77.9462 271.582 77.817C271.168 77.6877 270.79 77.4916 270.47 77.2401C270.149 76.9886 269.893 76.6868 269.716 76.3524C269.539 76.0181 269.445 75.6579 269.44 75.2932Z" fill="#4BC7C1"/>
<path d="M322.839 244.216H51.2705V258.696H322.839V244.216Z" fill="#263238"/>
<path opacity="0.3" d="M322.839 244.216H51.2705V258.696H322.839V244.216Z" fill="white"/>
<path d="M323.849 239.389H50.2524C48.7075 239.389 47.4551 240.422 47.4551 241.696V246.734C47.4551 248.009 48.7075 249.042 50.2524 249.042H323.849C325.394 249.042 326.646 248.009 326.646 246.734V241.696C326.646 240.422 325.394 239.389 323.849 239.389Z" fill="#263238"/>
<path opacity="0.4" d="M323.849 239.389H50.2524C48.7075 239.389 47.4551 240.422 47.4551 241.696V246.734C47.4551 248.009 48.7075 249.042 50.2524 249.042H323.849C325.394 249.042 326.646 248.009 326.646 246.734V241.696C326.646 240.422 325.394 239.389 323.849 239.389Z" fill="white"/>
<path d="M118.542 228.766H65.1514V238.102H118.542V228.766Z" fill="#263238"/>
<path opacity="0.8" d="M118.542 228.766H65.1514V238.102H118.542V228.766Z" fill="white"/>
<path opacity="0.5" d="M117.788 230.601H65.1514V231.024H117.788V230.601Z" fill="white"/>
<path opacity="0.5" d="M117.788 233.008H65.1514V233.431H117.788V233.008Z" fill="white"/>
<path opacity="0.5" d="M117.788 235.526H65.1514V235.949H117.788V235.526Z" fill="white"/>
<path d="M118.09 227.479H63.9147C63.8537 227.478 63.7931 227.487 63.7364 227.506C63.6797 227.524 63.6281 227.552 63.5846 227.587C63.5411 227.623 63.5066 227.665 63.483 227.711C63.4594 227.758 63.4473 227.808 63.4473 227.858V229.034C63.4473 229.136 63.4965 229.234 63.5842 229.306C63.6719 229.379 63.7908 229.419 63.9147 229.419H115.707C115.829 229.419 115.949 229.439 116.062 229.477C116.174 229.516 116.277 229.572 116.363 229.643C116.449 229.714 116.517 229.799 116.564 229.891C116.61 229.984 116.634 230.084 116.634 230.184V236.815C116.634 237.018 116.537 237.212 116.363 237.356C116.189 237.499 115.953 237.58 115.707 237.58H63.8544C63.801 237.58 63.748 237.589 63.6986 237.605C63.6492 237.622 63.6043 237.647 63.5665 237.678C63.5287 237.709 63.4987 237.746 63.4783 237.787C63.4578 237.828 63.4473 237.872 63.4473 237.916V239.054C63.4473 239.098 63.4578 239.142 63.4783 239.183C63.4987 239.223 63.5287 239.26 63.5665 239.291C63.6043 239.323 63.6492 239.347 63.6986 239.364C63.748 239.381 63.801 239.39 63.8544 239.39H118.142C118.542 239.39 118.926 239.259 119.209 239.026C119.492 238.792 119.65 238.476 119.65 238.146V228.816C119.655 228.643 119.619 228.472 119.543 228.311C119.467 228.15 119.353 228.003 119.208 227.879C119.063 227.754 118.889 227.655 118.697 227.586C118.505 227.518 118.299 227.481 118.09 227.479Z" fill="#4BC7C1"/>
<path d="M118.542 216.817H65.1514V226.154H118.542V216.817Z" fill="#263238"/>
<path opacity="0.9" d="M118.542 216.817H65.1514V226.154H118.542V216.817Z" fill="white"/>
<path opacity="0.7" d="M117.788 218.267H65.1514V218.69H117.788V218.267Z" fill="white"/>
<path opacity="0.7" d="M117.788 219.989H65.1514V220.412H117.788V219.989Z" fill="white"/>
<path opacity="0.7" d="M117.788 221.893H65.1514V222.316H117.788V221.893Z" fill="white"/>
<path opacity="0.7" d="M117.788 223.615H65.1514V224.038H117.788V223.615Z" fill="white"/>
<path d="M118.09 215.529H63.9147C63.7908 215.529 63.6719 215.57 63.5842 215.642C63.4965 215.715 63.4473 215.813 63.4473 215.915V217.078C63.4473 217.128 63.4594 217.178 63.483 217.225C63.5066 217.271 63.5411 217.313 63.5846 217.349C63.6281 217.384 63.6797 217.412 63.7364 217.43C63.7931 217.449 63.8537 217.458 63.9147 217.457H115.707C115.953 217.457 116.189 217.538 116.363 217.682C116.537 217.825 116.634 218.02 116.634 218.223V224.859C116.634 225.062 116.537 225.257 116.363 225.4C116.189 225.544 115.953 225.624 115.707 225.624H63.8544C63.801 225.624 63.748 225.633 63.6986 225.65C63.6492 225.667 63.6043 225.692 63.5665 225.723C63.5287 225.754 63.4987 225.791 63.4783 225.832C63.4578 225.872 63.4473 225.916 63.4473 225.96V227.092C63.4473 227.136 63.4578 227.18 63.4783 227.221C63.4987 227.262 63.5287 227.299 63.5665 227.33C63.6043 227.361 63.6492 227.386 63.6986 227.403C63.748 227.419 63.801 227.428 63.8544 227.428H118.142C118.542 227.428 118.926 227.297 119.209 227.064C119.492 226.83 119.65 226.514 119.65 226.184V216.854C119.654 216.508 119.493 216.175 119.2 215.927C118.908 215.679 118.509 215.536 118.09 215.529Z" fill="#4BC7C1"/>
<path opacity="0.3" d="M118.09 215.529H63.9147C63.7908 215.529 63.6719 215.57 63.5842 215.642C63.4965 215.715 63.4473 215.813 63.4473 215.915V217.078C63.4473 217.128 63.4594 217.178 63.483 217.225C63.5066 217.271 63.5411 217.313 63.5846 217.349C63.6281 217.384 63.6797 217.412 63.7364 217.43C63.7931 217.449 63.8537 217.458 63.9147 217.457H115.707C115.953 217.457 116.189 217.538 116.363 217.682C116.537 217.825 116.634 218.02 116.634 218.223V224.859C116.634 225.062 116.537 225.257 116.363 225.4C116.189 225.544 115.953 225.624 115.707 225.624H63.8544C63.801 225.624 63.748 225.633 63.6986 225.65C63.6492 225.667 63.6043 225.692 63.5665 225.723C63.5287 225.754 63.4987 225.791 63.4783 225.832C63.4578 225.872 63.4473 225.916 63.4473 225.96V227.092C63.4473 227.136 63.4578 227.18 63.4783 227.221C63.4987 227.262 63.5287 227.299 63.5665 227.33C63.6043 227.361 63.6492 227.386 63.6986 227.403C63.748 227.419 63.801 227.428 63.8544 227.428H118.142C118.542 227.428 118.926 227.297 119.209 227.064C119.492 226.83 119.65 226.514 119.65 226.184V216.854C119.654 216.508 119.493 216.175 119.2 215.927C118.908 215.679 118.509 215.536 118.09 215.529Z" fill="white"/>
<path d="M118.542 208.37H65.1514V214.242H118.542V208.37Z" fill="#263238"/>
<path opacity="0.8" d="M118.542 208.37H65.1514V214.242H118.542V208.37Z" fill="white"/>
<path opacity="0.5" d="M117.788 209.614H65.1514V210.037H117.788V209.614Z" fill="white"/>
<path opacity="0.5" d="M117.788 212.046H65.1514V212.469H117.788V212.046Z" fill="white"/>
<path d="M63.4474 206.772V208.252C63.4463 208.283 63.4528 208.313 63.4665 208.341C63.4801 208.37 63.5006 208.395 63.5268 208.417C63.5529 208.438 63.5841 208.455 63.6184 208.466C63.6527 208.478 63.6894 208.483 63.7263 208.482H116.378C116.452 208.482 116.523 208.507 116.575 208.55C116.628 208.593 116.657 208.651 116.657 208.712V213.11C116.657 213.275 116.578 213.433 116.436 213.55C116.295 213.666 116.103 213.732 115.903 213.732H63.7263C63.6901 213.731 63.654 213.736 63.6202 213.747C63.5863 213.758 63.5555 213.774 63.5295 213.795C63.5035 213.816 63.4828 213.841 63.4687 213.869C63.4546 213.896 63.4474 213.926 63.4474 213.956V215.312C63.4474 215.342 63.4546 215.371 63.4687 215.399C63.4828 215.427 63.5035 215.452 63.5295 215.472C63.5555 215.493 63.5863 215.51 63.6202 215.521C63.654 215.531 63.6901 215.537 63.7263 215.536H118.331C118.687 215.536 119.028 215.419 119.28 215.212C119.532 215.004 119.673 214.722 119.673 214.429V206.778C119.673 206.718 119.645 206.66 119.594 206.617C119.543 206.574 119.474 206.549 119.402 206.548H63.7263C63.6536 206.548 63.5838 206.571 63.5317 206.613C63.4796 206.655 63.4493 206.712 63.4474 206.772Z" fill="#4BC7C1"/>
<path d="M260.558 231.552C261.598 229.789 262.641 228.031 263.687 226.277C260.408 225.117 256.94 224.358 253.395 224.025L253.297 226.75L254.805 227.278L254.262 230.482H257.474L260.558 231.552Z" fill="#263238"/>
<path d="M253.297 226.75L254.556 228.56C254.624 228.137 254.699 227.708 254.767 227.279L253.297 226.75Z" fill="#263238"/>
<path d="M254.225 230.481L259.857 235.744L260.558 231.551L257.437 230.506L254.225 230.481Z" fill="#263238"/>
<path d="M259.856 235.738L263.204 235.073L260.558 231.546L259.856 235.738Z" fill="#263238"/>
<path d="M263.687 226.277L268.852 228.647L265.353 232.727L260.558 231.552C261.598 229.781 262.641 228.023 263.687 226.277Z" fill="#263238"/>
<path d="M259.856 235.738L262.36 238.021L264.757 238.605C264.237 237.423 263.724 236.248 263.204 235.072L259.856 235.738Z" fill="#263238"/>
<path d="M264.758 238.612L265.95 237.368L264.66 234.494L263.205 235.116C263.725 236.254 264.238 237.43 264.758 238.612Z" fill="#263238"/>
<path d="M264.659 234.494L260.558 231.564L263.204 235.091L264.659 234.494Z" fill="#263238"/>
<path d="M265.353 232.728C265.919 233.779 266.477 234.836 267.034 235.887L264.659 234.494L260.558 231.564L265.353 232.728Z" fill="#263238"/>
<path d="M267.035 235.887L272.735 234.083L270.684 229.903L270.978 227.851L268.852 228.647L265.354 232.727C265.919 233.778 266.477 234.836 267.035 235.887Z" fill="#263238"/>
<path d="M258.537 224.822L260.799 223.391L264.26 222.054L267.668 225.562L263.664 226.277C262.963 226.028 262.209 225.786 261.402 225.549C260.402 225.259 259.447 225.016 258.537 224.822Z" fill="#263238"/>
<path d="M267.691 225.562L270.979 227.85L268.822 228.653L263.688 226.277L267.691 225.562Z" fill="#263238"/>
<path d="M265.949 237.393L270.066 239.57C269.75 238.761 269.44 237.946 269.131 237.138L264.66 234.494L265.949 237.393Z" fill="#263238"/>
<path d="M270.066 239.569L272.441 235.501L272.735 234.083L267.035 235.887L269.131 237.131C269.44 237.946 269.75 238.76 270.066 239.569Z" fill="#263238"/>
<path d="M254.225 230.481L252.845 230.998L254.715 232.472L257.821 238.959L259.857 235.744L254.225 230.481Z" fill="#263238"/>
<path d="M257.821 238.959L260.671 239.619L264.758 238.611L262.36 238.026L259.857 235.737L257.821 238.959Z" fill="#263238"/>
<path d="M252.852 230.998C252.419 231.537 252.071 232.121 251.819 232.733C251.531 233.436 251.366 234.169 251.329 234.91L256.698 236.571C256.042 235.203 255.378 233.841 254.722 232.472L252.852 230.998Z" fill="#263238"/>
<path opacity="0.9" d="M260.558 231.552C261.598 229.789 262.641 228.031 263.687 226.277C260.408 225.117 256.94 224.358 253.395 224.025L253.297 226.75L254.805 227.278L254.262 230.482H257.474L260.558 231.552Z" fill="white"/>
<path opacity="0.8" d="M253.297 226.75L254.556 228.56C254.624 228.137 254.699 227.708 254.767 227.279L253.297 226.75Z" fill="white"/>
<path opacity="0.8" d="M254.225 230.481L259.857 235.744L260.558 231.551L257.437 230.506L254.225 230.481Z" fill="white"/>
<path opacity="0.9" d="M259.856 235.738L263.204 235.073L260.558 231.546L259.856 235.738Z" fill="white"/>
<path opacity="0.8" d="M263.687 226.277L268.852 228.647L265.353 232.727L260.558 231.552C261.598 229.781 262.641 228.023 263.687 226.277Z" fill="white"/>
<path opacity="0.7" d="M259.856 235.738L262.36 238.021L264.757 238.605C264.237 237.423 263.724 236.248 263.204 235.072L259.856 235.738Z" fill="white"/>
<path opacity="0.5" d="M264.758 238.612L265.95 237.368L264.66 234.494L263.205 235.116C263.725 236.254 264.238 237.43 264.758 238.612Z" fill="white"/>
<path opacity="0.5" d="M264.659 234.494L260.558 231.564L263.204 235.091L264.659 234.494Z" fill="white"/>
<path opacity="0.9" d="M265.353 232.728C265.919 233.779 266.477 234.836 267.034 235.887L264.659 234.494L260.558 231.564L265.353 232.728Z" fill="white"/>
<path opacity="0.8" d="M267.035 235.887L272.735 234.083L270.684 229.903L270.978 227.851L268.852 228.647L265.354 232.727C265.919 233.778 266.477 234.836 267.035 235.887Z" fill="white"/>
<path d="M258.537 224.822L260.799 223.391L264.26 222.054L267.668 225.562L263.664 226.277C262.963 226.028 262.209 225.786 261.402 225.549C260.402 225.259 259.447 225.016 258.537 224.822Z" fill="white"/>
<path opacity="0.9" d="M267.691 225.562L270.979 227.85L268.822 228.653L263.688 226.277L267.691 225.562Z" fill="white"/>
<path opacity="0.9" d="M265.949 237.393L270.066 239.57C269.75 238.761 269.44 237.946 269.131 237.138L264.66 234.494L265.949 237.393Z" fill="white"/>
<path opacity="0.8" d="M270.066 239.569L272.441 235.501L272.735 234.083L267.035 235.887L269.131 237.131C269.44 237.946 269.75 238.76 270.066 239.569Z" fill="white"/>
<path opacity="0.7" d="M254.225 230.481L252.845 230.998L254.715 232.472L257.821 238.959L259.857 235.744L254.225 230.481Z" fill="white"/>
<path opacity="0.5" d="M257.821 238.959L260.671 239.619L264.758 238.611L262.36 238.026L259.857 235.737L257.821 238.959Z" fill="white"/>
<path opacity="0.9" d="M252.852 230.998C252.419 231.537 252.071 232.121 251.819 232.733C251.531 233.436 251.366 234.169 251.329 234.91L256.698 236.571C256.042 235.203 255.378 233.841 254.722 232.472L252.852 230.998Z" fill="white"/>
<path d="M301.312 230.202L306.906 233.835C308.121 232.419 309.188 230.921 310.096 229.356C310.718 228.266 311.265 227.146 311.732 226.004L308.527 225.382C308.211 225.742 307.901 226.103 307.585 226.458L303.913 225.351C303.672 226.209 303.438 227.074 303.204 227.932L301.312 230.202Z" fill="#263238"/>
<path d="M308.528 225.356L306.115 225.978L307.585 226.42C307.895 226.078 308.211 225.717 308.528 225.356Z" fill="#263238"/>
<path d="M303.913 225.325L296.486 228.759L301.312 230.202L303.204 227.906C303.438 227.029 303.672 226.184 303.913 225.325Z" fill="#263238"/>
<path d="M296.486 228.759L296.577 231.601L301.312 230.202L296.486 228.759Z" fill="#263238"/>
<path d="M306.906 233.835L303.008 237.504L298.914 233.828L301.312 230.202L306.906 233.835Z" fill="#263238"/>
<path d="M296.486 228.759L293.259 230.301C292.859 230.923 292.459 231.508 292.067 232.111L296.591 231.601L296.486 228.759Z" fill="#263238"/>
<path d="M292.061 232.111L293.252 233.355L296.969 232.926C296.833 232.491 296.705 232.055 296.569 231.626L292.061 232.111Z" fill="#263238"/>
<path d="M296.976 232.902L301.312 230.202L296.584 231.602C296.712 232.006 296.84 232.466 296.976 232.902Z" fill="#263238"/>
<path d="M298.914 233.828L294.812 234.525L296.976 232.902L301.312 230.202L298.914 233.828Z" fill="#263238"/>
<path d="M294.812 234.525C295.129 236.18 295.438 237.841 295.755 239.501L301.139 238.724L303.506 239.396L303.008 237.53L298.914 233.854L294.812 234.525Z" fill="#263238"/>
<path d="M309.711 229.99L310.91 232.13L311.769 235.203L306.898 237.218C306.898 236.092 306.898 234.96 306.898 233.834C307.341 233.324 307.786 232.771 308.233 232.173C308.799 231.415 309.289 230.681 309.711 229.99Z" fill="#263238"/>
<path d="M306.914 237.218L303.505 239.388L303.008 237.479L306.906 233.834C306.906 234.96 306.906 236.092 306.914 237.218Z" fill="#263238"/>
<path d="M293.259 233.331L289.813 236.192L292.89 235.943L296.976 232.901L293.259 233.331Z" fill="#263238"/>
<path d="M289.798 236.192L294.118 238.966L295.739 239.495C295.423 237.84 295.114 236.179 294.797 234.519L292.874 235.937L289.798 236.192Z" fill="#263238"/>
<path d="M303.913 225.325C303.8 224.915 303.694 224.504 303.589 224.081L301.447 225.275L293.101 226.42L296.486 228.74L303.913 225.325Z" fill="#263238"/>
<path d="M293.101 226.438L291.729 228.603L292.068 232.111C292.46 231.489 292.86 230.904 293.259 230.301L296.486 228.759L293.101 226.438Z" fill="#263238"/>
<path d="M303.589 224.1C302.399 223.109 300.906 222.402 299.269 222.054L296.17 226.034L301.448 225.294L303.589 224.1Z" fill="#263238"/>
<path opacity="0.9" d="M301.312 230.202L306.906 233.835C308.121 232.419 309.188 230.921 310.096 229.356C310.718 228.266 311.265 227.146 311.732 226.004L308.527 225.382C308.211 225.742 307.901 226.103 307.585 226.458L303.913 225.351C303.672 226.209 303.438 227.074 303.204 227.932L301.312 230.202Z" fill="white"/>
<path opacity="0.9" d="M308.528 225.356L306.115 225.978L307.585 226.42C307.895 226.078 308.211 225.717 308.528 225.356Z" fill="white"/>
<path opacity="0.8" d="M303.913 225.325L296.486 228.759L301.312 230.202L303.204 227.906C303.438 227.029 303.672 226.184 303.913 225.325Z" fill="white"/>
<path opacity="0.8" d="M296.486 228.759L296.577 231.601L301.312 230.202L296.486 228.759Z" fill="white"/>
<path opacity="0.8" d="M306.906 233.835L303.008 237.504L298.914 233.828L301.312 230.202L306.906 233.835Z" fill="white"/>
<path opacity="0.7" d="M296.486 228.759L293.259 230.301C292.859 230.923 292.459 231.508 292.067 232.111L296.591 231.601L296.486 228.759Z" fill="white"/>
<path opacity="0.5" d="M292.061 232.111L293.252 233.355L296.969 232.926C296.833 232.491 296.705 232.055 296.569 231.626L292.061 232.111Z" fill="white"/>
<path opacity="0.5" d="M296.976 232.902L301.312 230.202L296.584 231.602C296.712 232.006 296.84 232.466 296.976 232.902Z" fill="white"/>
<path opacity="0.9" d="M298.914 233.828L294.812 234.525L296.976 232.902L301.312 230.202L298.914 233.828Z" fill="white"/>
<path opacity="0.7" d="M294.812 234.525C295.129 236.18 295.438 237.841 295.755 239.501L301.139 238.724L303.506 239.396L303.008 237.53L298.914 233.854L294.812 234.525Z" fill="white"/>
<path opacity="0.7" d="M309.711 229.99L310.91 232.13L311.769 235.203L306.898 237.218C306.898 236.092 306.898 234.96 306.898 233.834C307.341 233.324 307.786 232.771 308.233 232.173C308.799 231.415 309.289 230.681 309.711 229.99Z" fill="white"/>
<path opacity="0.5" d="M306.914 237.218L303.505 239.388L303.008 237.479C304.312 236.266 305.609 235.047 306.906 233.834C306.906 234.96 306.906 236.092 306.914 237.218Z" fill="white"/>
<path opacity="0.9" d="M293.259 233.331L289.813 236.192L292.89 235.943L296.976 232.901L293.259 233.331Z" fill="white"/>
<path opacity="0.7" d="M289.798 236.192L294.118 238.966L295.739 239.495C295.423 237.84 295.114 236.179 294.797 234.519L292.874 235.937L289.798 236.192Z" fill="white"/>
<path opacity="0.9" d="M303.913 225.325C303.8 224.915 303.694 224.504 303.589 224.081L301.447 225.275L293.101 226.42L296.486 228.74L303.913 225.325Z" fill="white"/>
<path opacity="0.9" d="M293.101 226.438L291.729 228.603L292.068 232.111C292.46 231.489 292.86 230.904 293.259 230.301L296.486 228.759L293.101 226.438Z" fill="white"/>
<path d="M303.589 224.1C302.399 223.109 300.906 222.402 299.269 222.054L296.17 226.034L301.448 225.294L303.589 224.1Z" fill="white"/>
<path d="M174.436 239.414H207.936C208 239.413 208.063 239.401 208.12 239.378C208.177 239.355 208.227 239.321 208.267 239.28C208.307 239.239 208.335 239.191 208.349 239.14C208.364 239.089 208.364 239.036 208.351 238.985C208.009 237.691 207.665 236.401 207.318 235.116C207.298 235.037 207.245 234.967 207.17 234.916C207.095 234.865 207.001 234.837 206.903 234.836H171.088C171.009 234.837 170.931 234.855 170.864 234.89C170.796 234.924 170.741 234.973 170.705 235.031C170.669 235.089 170.652 235.155 170.657 235.22C170.662 235.285 170.689 235.348 170.734 235.402L174.089 239.265C174.129 239.31 174.181 239.348 174.241 239.374C174.301 239.4 174.368 239.413 174.436 239.414Z" fill="#4BC7C1"/>
<path opacity="0.2" d="M174.435 239.414H207.943C208.006 239.414 208.069 239.403 208.126 239.38C208.183 239.358 208.233 239.325 208.272 239.284C208.311 239.243 208.339 239.196 208.352 239.145C208.366 239.094 208.365 239.041 208.35 238.991C208.004 237.691 207.649 236.397 207.295 235.097C207.272 235.02 207.218 234.952 207.144 234.902C207.069 234.853 206.976 234.825 206.88 234.823H171.042C170.965 234.824 170.889 234.842 170.822 234.875C170.756 234.909 170.703 234.957 170.667 235.014C170.632 235.072 170.617 235.136 170.623 235.2C170.63 235.264 170.657 235.325 170.703 235.377L174.066 239.258C174.106 239.308 174.161 239.349 174.226 239.376C174.291 239.403 174.363 239.416 174.435 239.414Z" fill="black"/>
<path d="M159.537 192.142H96.4043C96.0704 192.142 95.7408 192.204 95.4392 192.322L92.7021 193.404C97.8897 208.747 103.08 224.075 108.272 239.389L171.488 239.526L175.031 239.414C170.13 223.864 165.456 208.314 160.562 192.764C160.497 192.582 160.361 192.423 160.176 192.311C159.991 192.199 159.766 192.139 159.537 192.142Z" fill="#4BC7C1"/>
<path opacity="0.2" d="M171.488 239.526L108.272 239.389C103.08 224.046 97.8897 208.718 92.7021 193.404H157.162L171.488 239.526Z" fill="black"/>
<path opacity="0.2" d="M95.2653 192.397L92.7168 193.404H157.176L159.74 192.391C159.773 192.378 159.8 192.356 159.816 192.328C159.832 192.301 159.835 192.27 159.827 192.241C159.818 192.211 159.797 192.185 159.767 192.167C159.737 192.149 159.701 192.14 159.664 192.142H96.6301C96.1577 192.141 95.6912 192.228 95.2653 192.397Z" fill="white"/>
<path d="M135.228 214.59C135.347 215.643 135.086 216.702 134.476 217.633C133.866 218.564 132.935 219.324 131.801 219.819C130.666 220.313 129.38 220.519 128.104 220.41C126.828 220.301 125.62 219.882 124.633 219.207C123.645 218.532 122.923 217.63 122.557 216.616C122.191 215.602 122.197 214.521 122.576 213.51C122.955 212.499 123.688 211.603 124.684 210.936C125.68 210.269 126.893 209.861 128.17 209.763C129.018 209.697 129.873 209.77 130.687 209.976C131.5 210.183 132.257 210.521 132.912 210.969C133.568 211.417 134.11 211.968 134.507 212.589C134.904 213.21 135.149 213.89 135.228 214.59Z" fill="#4BC7C1"/>
<path opacity="0.4" d="M160.554 192.77L175.031 239.42L171.487 239.532L157.161 193.411L159.649 192.428C159.735 192.394 159.829 192.377 159.924 192.376C160.018 192.375 160.112 192.392 160.199 192.425C160.285 192.457 160.362 192.505 160.423 192.565C160.484 192.625 160.529 192.695 160.554 192.77Z" fill="black"/>
</svg>
