<svg width="197" height="184" viewBox="0 0 197 184" fill="none" xmlns="http://www.w3.org/2000/svg">
<path d="M141.538 134.702L143.359 97.64L180.622 96.7949L178.577 137.563L169.711 137.834L141.538 134.702Z" fill="white" stroke="#263238" stroke-linecap="round" stroke-linejoin="round"/>
<path d="M136.086 95.3133L143.359 97.64L180.621 96.7949L171.987 93.7256L136.086 95.3133Z" fill="white" stroke="#263238" stroke-linecap="round" stroke-linejoin="round"/>
<path d="M169.711 137.834L171.987 93.7256L180.622 96.7949L178.577 137.563L169.711 137.834Z" fill="#263238" stroke="#263238" stroke-linecap="round" stroke-linejoin="round"/>
<path d="M136.086 95.3135L134.838 133.645L142.095 134.479L143.359 97.6402L136.086 95.3135Z" fill="#263238" stroke="#263238" stroke-linecap="round" stroke-linejoin="round"/>
<path d="M96.7314 136.502L132.805 143.936L133.28 156.809L97.5635 146.709L96.7314 136.502Z" fill="#4BC7C1" stroke="#263238" stroke-linecap="round" stroke-linejoin="round"/>
<path d="M132.805 143.936L169.71 137.834V148.706L133.28 156.81L132.805 143.936Z" fill="#263238" stroke="#263238" stroke-linecap="round" stroke-linejoin="round"/>
<path d="M169.711 137.833L131.494 132.394L96.7314 136.502L132.805 143.936L169.711 137.833Z" fill="white" stroke="#263238" stroke-linecap="round" stroke-linejoin="round"/>
<path d="M106.414 143.3C105.932 144.134 105.735 145.086 105.849 146.029C106.037 147.613 107.949 150.382 112.364 151.926C116.226 153.276 120.214 151.926 121.337 150.693C122.753 149.109 122.848 146.91 122.471 146.468C122.094 146.025 122 145.941 121.623 146.555C121.246 147.17 120.96 147.876 119.268 148.319C117.577 148.761 113.773 148.684 111.144 147.788C108.514 146.892 108.122 146.204 107.839 144.884C107.556 143.563 107.266 142.323 106.414 143.3Z" fill="#263238" stroke="#263238" stroke-linecap="round" stroke-linejoin="round"/>
<path d="M145.801 136.055C145.801 138.042 136.318 139.648 124.606 139.648C119.935 139.68 115.268 139.382 110.645 138.755C108.079 138.371 106.061 137.885 104.825 137.332C103.938 136.937 103.451 136.505 103.451 136.055C103.451 134.073 112.934 132.463 124.645 132.463C128.836 132.444 133.023 132.676 137.182 133.158C139.037 133.369 140.874 133.707 142.676 134.168C144.643 134.717 145.801 135.364 145.801 136.055Z" fill="#263238" stroke="#263238" stroke-linecap="round" stroke-linejoin="round"/>
<path d="M118.95 136.187L104.82 137.332C106.057 137.885 108.074 138.371 110.641 138.755L120.108 136.301L118.95 136.187ZM137.157 133.158L130.093 134.548L129.975 134.998L142.64 134.153C140.841 133.698 139.009 133.365 137.157 133.158Z" fill="white" stroke="#263238" stroke-linecap="round" stroke-linejoin="round"/>
<path d="M132.566 135.251C132.566 135.982 129.01 136.6 124.622 136.6C120.234 136.6 116.678 135.997 116.678 135.251C116.678 134.504 120.234 133.904 124.622 133.904C129.01 133.904 132.566 134.519 132.566 135.251Z" fill="white" stroke="#263238" stroke-linecap="round" stroke-linejoin="round"/>
<path d="M125.277 135.251C125.277 135.314 124.982 135.365 124.621 135.365C124.26 135.365 123.966 135.314 123.966 135.251C123.966 135.189 124.26 135.142 124.621 135.142C124.982 135.142 125.277 135.204 125.277 135.251Z" fill="white" stroke="#263238" stroke-linecap="round" stroke-linejoin="round"/>
<path d="M124.622 135.262V134.585" stroke="#263238" stroke-linecap="round" stroke-linejoin="round"/>
<path d="M132.04 136.681C131.935 136.686 131.834 136.652 131.756 136.587C131.679 136.522 131.633 136.431 131.627 136.334C131.622 136.237 131.659 136.142 131.729 136.069C131.798 135.997 131.896 135.954 132 135.949L153.312 133.908C153.364 133.903 153.416 133.908 153.466 133.922C153.515 133.936 153.561 133.959 153.601 133.989C153.642 134.02 153.675 134.058 153.699 134.1C153.724 134.143 153.739 134.189 153.744 134.237C153.749 134.285 153.744 134.334 153.729 134.38C153.714 134.426 153.69 134.469 153.657 134.507C153.624 134.544 153.584 134.575 153.538 134.598C153.492 134.621 153.442 134.635 153.391 134.64L132.083 136.681H132.04Z" fill="white" stroke="#263238" stroke-linecap="round" stroke-linejoin="round"/>
<path d="M132.04 136.682L132.15 137.867C132.156 137.933 132.176 137.997 132.209 138.056C132.242 138.114 132.287 138.166 132.342 138.208C132.397 138.25 132.46 138.281 132.528 138.3C132.597 138.319 132.668 138.325 132.739 138.317L137.884 137.779C138.015 137.766 138.135 137.708 138.223 137.617C138.31 137.526 138.359 137.408 138.359 137.285V136.206L132.04 136.682Z" fill="white" stroke="#263238" stroke-linecap="round" stroke-linejoin="round"/>
<path d="M154.271 136.63V137.555C154.271 137.921 155.103 138.199 156.127 138.199C157.151 138.199 157.983 137.91 157.983 137.555V136.63H154.271Z" fill="#263238" stroke="#263238" stroke-linecap="round" stroke-linejoin="round"/>
<path d="M157.983 136.63C157.983 136.948 157.151 137.204 156.127 137.204C155.103 137.204 154.271 136.948 154.271 136.63C154.271 136.312 155.103 136.056 156.127 136.056C157.151 136.056 157.983 136.312 157.983 136.63Z" fill="#263238" stroke="#263238" stroke-linecap="round" stroke-linejoin="round"/>
<path d="M158.788 132.42C158.137 132.337 157.478 132.331 156.825 132.401C156.504 132.431 152.253 132.961 152.253 133.133V136.883L154.015 137.132L159.117 136.506C159.434 136.467 159.725 136.322 159.935 136.098C160.145 135.873 160.26 135.586 160.26 135.288V133.777C160.248 132.91 159.581 132.555 158.788 132.42Z" fill="#263238" stroke="#263238" stroke-linecap="round" stroke-linejoin="round"/>
<path d="M146.978 138.404V139.334C146.978 139.699 147.806 139.977 148.83 139.977C149.854 139.977 150.687 139.688 150.687 139.334V138.404H146.978Z" fill="#263238" stroke="#263238" stroke-linecap="round" stroke-linejoin="round"/>
<path d="M150.679 138.405C150.679 138.723 149.851 138.979 148.822 138.979C147.794 138.979 146.97 138.723 146.97 138.405C146.97 138.086 147.798 137.834 148.822 137.834C149.847 137.834 150.679 138.09 150.679 138.405Z" fill="white" stroke="#263238" stroke-linecap="round" stroke-linejoin="round"/>
<path d="M140.718 139.363V140.289C140.718 140.655 141.55 140.933 142.574 140.933C143.599 140.933 144.427 140.644 144.427 140.289V139.363H140.718Z" fill="#263238" stroke="#263238" stroke-linecap="round" stroke-linejoin="round"/>
<path d="M142.574 139.937C143.6 139.937 144.431 139.68 144.431 139.362C144.431 139.045 143.6 138.788 142.574 138.788C141.549 138.788 140.718 139.045 140.718 139.362C140.718 139.68 141.549 139.937 142.574 139.937Z" fill="white" stroke="#263238" stroke-linecap="round" stroke-linejoin="round"/>
<path d="M133.555 141.038V141.587C133.555 141.799 134.045 141.971 134.654 141.971C135.262 141.971 135.753 141.799 135.753 141.587V141.038H133.555Z" fill="#263238" stroke="#263238" stroke-linecap="round" stroke-linejoin="round"/>
<path d="M135.764 141.038C135.764 141.229 135.274 141.379 134.665 141.379C134.057 141.379 133.566 141.229 133.566 141.038C133.566 140.848 134.057 140.698 134.665 140.698C135.274 140.698 135.764 140.852 135.764 141.038Z" fill="white" stroke="#263238" stroke-linecap="round" stroke-linejoin="round"/>
<path d="M68.9517 96.0229C68.9517 96.0229 81.0363 97.5155 83.0812 99.8348C85.1261 102.154 85.389 104.305 85.7462 106.054C86.1033 107.803 89.3021 127.835 89.7456 131.977C90.1891 136.118 90.7229 137.775 89.9222 139.432C89.1216 141.09 84.7689 143.822 82.5474 144.067C80.3259 144.312 78.1947 144.152 76.6837 143.574C75.1726 142.996 70.2861 140.094 70.2861 140.094L18.2148 143.811C18.2148 143.811 30.1229 103.811 32.3444 100.662C34.5659 97.5118 43.7265 95.0315 49.2213 94.201C54.7161 93.3706 68.9517 96.0229 68.9517 96.0229Z" fill="#4BC7C1" stroke="#263238" stroke-linecap="round" stroke-linejoin="round"/>
<path d="M74.9053 125.26C74.9053 125.26 78.7281 123.109 84.0581 125.26" stroke="#263238" stroke-linecap="round" stroke-linejoin="round"/>
<path d="M75.1719 123.179C75.1719 123.179 79.0967 119.37 83.4141 117.962" stroke="#263238" stroke-linecap="round" stroke-linejoin="round"/>
<path d="M80.1807 113.374C80.5496 112.924 80.8989 112.514 81.2129 112.174" stroke="#263238" stroke-linecap="round" stroke-linejoin="round"/>
<path d="M74.8154 120.789C74.8154 120.789 77.0251 117.478 79.1092 114.738" stroke="#263238" stroke-linecap="round" stroke-linejoin="round"/>
<path d="M41.7794 59.213C41.7794 59.213 34.8952 58.752 31.2608 61.5031C27.6263 64.2541 30.5779 65.2601 30.5779 65.2601C30.5779 65.2601 24.4825 67.1844 24.4825 70.3818C24.4825 73.5791 26.7354 72.328 26.7354 72.328C26.7354 72.328 20.8481 78.9129 21.0326 81.9493C21.217 84.9857 24.1725 83.2334 24.1725 83.2334C24.1725 83.2334 23.4817 89.7415 25.0556 91.7572C26.6294 93.7729 29.9734 93.0413 29.9734 93.0413C29.9734 93.0413 29.6791 96.3338 31.4492 96.246C33.2193 96.1582 35.7665 94.5961 35.7665 94.5961C35.7665 94.5961 36.2571 100.084 38.8162 101.013C41.3752 101.942 44.311 101.653 45.096 100.83C45.6785 100.155 46.1739 99.4179 46.5717 98.6348C46.5717 98.6348 47.4548 101.291 48.5341 99.3665C49.6135 97.4422 49.3191 94.2449 48.7304 93.4108C48.1417 92.5767 44.413 85.0699 44.413 83.7858C44.413 82.5017 50.0374 70.4988 50.2375 70.133C50.4377 69.7672 61.8395 72.328 62.2319 72.606C62.6244 72.884 68.7197 88.2782 68.7197 88.2782C68.7197 88.2782 66.9496 91.0256 67.244 93.5022C67.5384 95.9789 68.6216 97.3508 71.9538 94.2339C75.2861 91.117 78.5398 85.8198 78.5398 85.8198C78.5398 85.8198 79.3248 90.5756 81.5894 85.9113C83.8541 81.2469 81.295 76.2863 80.4119 73.9962C79.5289 71.7061 77.4644 69.2404 77.4644 69.2404C77.4644 69.2404 80.3138 71.1646 80.1176 67.8649C79.9213 64.5651 69.7952 55.7705 65.6662 54.2121C61.5372 52.6536 55.438 53.0195 55.438 53.0195C55.438 53.0195 57.6006 51.3696 55.2417 51.2781C52.8829 51.1867 39.1262 51.6037 41.7794 59.213Z" fill="#263238" stroke="#263238" stroke-linecap="round" stroke-linejoin="round"/>
<path d="M68.4108 87.0762C71.0776 86.5858 72.6814 83.5513 71.9929 80.2985C71.3044 77.0457 68.5844 74.8063 65.9176 75.2967C63.2508 75.787 61.647 78.8215 62.3355 82.0743C63.0239 85.3271 65.744 87.5665 68.4108 87.0762Z" fill="white" stroke="#263238" stroke-linecap="round" stroke-linejoin="round"/>
<path d="M45.1393 97.5158C44.8833 101.986 44.8833 106.465 45.1393 110.934C45.5828 117.476 44.6957 119.795 45.4925 119.879C46.2892 119.963 46.2029 120.128 47.1802 118.884C48.1575 117.64 51.7134 112.259 52.1569 112.508C52.6004 112.756 52.8673 114.081 53.0479 115.24C53.2284 116.4 56.8746 122.363 56.8746 122.363C56.8746 122.363 59.5396 117.56 60.1637 116.48C60.7877 115.401 60.7838 115.24 61.4079 113.748C62.0319 112.255 62.4715 114.081 64.1553 116.151C65.839 118.222 68.4177 121.452 68.6846 120.292C68.9515 119.133 66.9066 114.494 66.6436 109.775C66.3807 105.056 66.9969 98.756 66.4631 97.0183C65.9293 95.2806 60.407 92.5479 52.0706 92.5479C43.7342 92.5479 45.1393 97.5158 45.1393 97.5158Z" fill="white" stroke="#263238" stroke-linecap="round" stroke-linejoin="round"/>
<path d="M48.7617 93.3965C48.7617 93.3965 51.9016 103.23 53.4716 110.85C55.0415 118.47 56.8469 122.363 56.8469 122.363C56.8469 122.363 60.2223 114.659 62.0906 108.282C63.2224 104.395 64.0539 100.438 64.5789 96.4402L48.7617 93.3965Z" fill="#ADADAD" stroke="#263238" stroke-linecap="round" stroke-linejoin="round"/>
<path d="M64.065 98.0127C64.065 98.0127 61.1331 100.994 60.8662 104.232" stroke="#263238" stroke-linecap="round" stroke-linejoin="round"/>
<path d="M53.3066 110.009C53.3694 110.298 53.4322 110.587 53.4911 110.868C55.0885 118.489 56.8665 122.381 56.8665 122.381C56.8665 122.381 59.5629 116.228 61.4704 110.367C58.8564 111.081 55.4849 110.521 53.3066 110.009Z" fill="#263238" stroke="#263238" stroke-linecap="round" stroke-linejoin="round"/>
<path d="M47.9728 66.1748L41.5674 82.3994C41.5674 82.3994 44.2206 89.716 45.402 91.6549C46.5834 93.5938 48.8441 94.8632 51.3992 95.9607C53.9543 97.0582 62.4124 98.9861 64.1825 98.3459C65.9526 97.7057 70.1797 91.2891 70.5722 89.8221C70.9647 88.3551 66.4432 72.8658 66.0507 72.1342C65.6582 71.4025 47.9728 66.1748 47.9728 66.1748Z" fill="#ADADAD" stroke="#263238" stroke-linecap="round" stroke-linejoin="round"/>
<path d="M50.5322 82.3997C50.5322 82.3997 53.4798 83.4057 55.6346 81.4814" stroke="#263238" stroke-linecap="round" stroke-linejoin="round"/>
<path d="M48.3691 79.4654C48.3691 79.4654 49.1541 77.3583 51.0224 76.6229C52.8906 75.8876 55.5438 76.44 55.4457 77.0839C55.3476 77.7277 53.4833 77.1753 52.4 77.2668C51.3167 77.3582 48.3691 79.4654 48.3691 79.4654Z" fill="#263238"/>
<path d="M60.9521 77.0835C60.9521 77.0835 61.5409 75.3422 62.6241 75.2544C63.7074 75.1666 67.3144 76.1909 66.2625 76.0775C65.3912 75.986 62.1021 75.8653 60.9521 77.0835Z" fill="#263238"/>
<path d="M62.8203 80.2886C62.8203 80.2886 65.4775 80.7495 66.5568 79.374" stroke="#263238" stroke-linecap="round" stroke-linejoin="round"/>
<path d="M60.9525 77.084C60.9525 77.084 60.1676 78.4559 61.1488 80.2887" stroke="#263238" stroke-linecap="round" stroke-linejoin="round"/>
<path d="M64.1982 85.1318C63.4255 85.7793 62.5222 86.2767 61.541 86.5952" stroke="#263238" stroke-linecap="round" stroke-linejoin="round"/>
<path d="M54.6611 87.2539C54.6611 87.2539 56.1369 89.0831 58.0051 89.2697C59.8734 89.4562 63.2134 88.7209 64.1986 88.1721" stroke="#263238" stroke-linecap="round" stroke-linejoin="round"/>
<path d="M55.3479 86.6133L54.0723 87.9888" stroke="#263238" stroke-linecap="round" stroke-linejoin="round"/>
<path d="M38.1723 82.0298C38.1723 82.0298 34.0198 75.2253 36.7044 68.4941C39.2124 62.2164 42.7448 61.0494 42.7762 60.9872C42.8076 60.925 38.1095 60.925 35.1698 67.3015C32.2301 73.6779 35.8723 83.27 35.8723 83.27L38.1723 82.0298Z" fill="white" stroke="#263238" stroke-linecap="round" stroke-linejoin="round"/>
<path d="M83.9557 137.768C82.5349 136.608 82.0914 135.533 81.4674 135.449C80.8433 135.365 80.4901 134.867 78.4491 135.365C76.9145 135.73 73.1898 136.063 71.4197 136.202V136.111H59.178C50.9122 136.111 40.8724 135.284 40.8724 135.284L38.7412 146.299C38.7412 146.299 42.827 145.718 50.1233 145.055C54.6252 144.646 61.5055 143.256 66.0976 142.253L70.7368 141.661C70.7368 141.661 74.5557 142.487 77.044 142.158C78.5 141.982 79.8665 141.405 80.9689 140.501C80.9689 140.501 80.9689 141.412 81.4124 141.661C81.8559 141.909 85.4079 141.163 86.032 140.998C86.656 140.834 86.6521 140.75 86.7424 139.839C86.8327 138.928 85.3883 138.928 83.9557 137.768Z" fill="#ADADAD" stroke="#263238" stroke-linecap="round" stroke-linejoin="round"/>
<path d="M68.1508 128.491C68.1508 128.491 64.2259 131.392 64.6184 132.149C65.0109 132.906 66.6633 134.801 66.6633 135.215C66.6633 135.628 64.4418 140.929 65.9489 141.924C67.4561 142.919 72.527 145.07 78.2142 144.986C83.9013 144.902 86.6526 140.764 87.367 139.685C88.0813 138.606 86.8332 132.647 85.7656 129.83C84.6981 127.013 80.2708 125.937 76.3459 126.435C72.4211 126.932 68.1508 128.491 68.1508 128.491Z" fill="white" stroke="#263238" stroke-linecap="round" stroke-linejoin="round"/>
<path d="M41.8779 91.1211C41.8779 91.1211 42.9455 94.7392 46.5603 100.977C50.1751 107.214 52.0551 120.307 53.9194 125.173C55.7838 130.038 57.4008 131.659 57.4008 131.659C57.4008 131.659 60.4779 122.813 63.1547 114.198C65.8314 105.582 69.5326 97.9329 68.9517 96.0232" stroke="#263238" stroke-linecap="round" stroke-linejoin="round"/>
<path d="M67.9744 88.4241C67.9744 88.4241 64.9523 91.7348 65.4861 92.1482C66.0199 92.5616 66.4634 92.8799 66.9069 92.6458C67.3504 92.4116 68.0647 91.9836 68.0647 91.9836C68.0647 91.9836 65.1328 95.298 64.0653 98.0308C62.9977 100.764 64.1555 100.515 64.4224 102.421C64.6893 104.327 67.264 127.433 67.5309 130.59C67.7978 133.747 68.5985 135.806 72.4174 136.304C76.2363 136.801 80.9501 133.743 81.3936 132.825C81.8371 131.907 82.1786 130.754 81.4799 128.768C80.7813 126.781 68.9007 104.396 69.7524 102.761C71.1732 100.028 76.3266 91.3324 76.5935 90.5057C76.8604 89.6789 72.3271 87.6046 71.5304 87.0266C70.7336 86.4486 68.3316 87.5754 67.9744 88.4241Z" fill="#ADADAD" stroke="#263238" stroke-linecap="round" stroke-linejoin="round"/>
<path d="M67.9736 88.425C68.2076 88.1658 68.5208 87.9793 68.8714 87.8904C69.2221 87.8015 69.5935 87.8144 69.9361 87.9274C71.09 88.3408 72.9582 89.8297 72.6835 90.4882" stroke="#263238" stroke-linecap="round" stroke-linejoin="round"/>
<path d="M69.8262 87.0783C69.8262 87.0783 70.8898 86.9137 72.4009 87.81C73.912 88.7062 75.0659 89.5476 74.9795 90.0452" stroke="#263238" stroke-linecap="round" stroke-linejoin="round"/>
<path d="M68.0645 91.9662L69.395 91.0553L68.5982 90.4736" stroke="#263238" stroke-linecap="round" stroke-linejoin="round"/>
<path d="M36.6065 97.8446C36.6065 97.8446 32.1478 97.68 27.8305 101.986C23.5131 106.292 22.5005 112.595 22.5005 112.595C22.5005 112.595 17.877 130.071 16.1893 137.105C14.5016 144.14 14.6782 145.717 18.2342 147.041C21.7901 148.366 25.3421 147.872 28.0974 147.872C29.8038 147.865 31.5032 147.669 33.1605 147.29L38.4041 134.453L39.558 129.65C39.558 129.65 43.7341 125.179 43.8243 117.973" fill="#4BC7C1"/>
<path d="M36.6065 97.8446C36.6065 97.8446 32.1478 97.68 27.8305 101.986C23.5131 106.292 22.5005 112.595 22.5005 112.595C22.5005 112.595 17.877 130.071 16.1893 137.105C14.5016 144.14 14.6782 145.717 18.2342 147.041C21.7901 148.366 25.3421 147.872 28.0974 147.872C29.8038 147.865 31.5032 147.669 33.1605 147.29L38.4041 134.453L39.558 129.65C39.558 129.65 43.7341 125.179 43.8243 117.973" stroke="#263238" stroke-linecap="round" stroke-linejoin="round"/>
<path d="M36.2574 117.066C36.0769 116.598 35.8963 116.173 35.7197 115.818" stroke="#263238" stroke-linecap="round" stroke-linejoin="round"/>
<path d="M39.5384 129.65C39.5384 129.65 38.2157 122.999 36.791 118.547" stroke="#263238" stroke-linecap="round" stroke-linejoin="round"/>
<path d="M34.4749 133.542C34.4749 133.542 30.4755 129.397 25.7656 128.241" stroke="#263238" stroke-linecap="round" stroke-linejoin="round"/>
<path d="M22.1234 131.892C21.6144 131.886 21.1066 131.94 20.6123 132.054" stroke="#263238" stroke-linecap="round" stroke-linejoin="round"/>
<path d="M31.1863 133.876C31.1863 133.876 26.7512 132.24 23.2109 131.94" stroke="#263238" stroke-linecap="round" stroke-linejoin="round"/>
<path d="M41.6735 135.035C41.6735 135.035 41.4066 144.726 41.1397 145.717C40.8729 146.708 40.6962 146.796 39.6287 147.29C38.5611 147.784 29.6752 148.45 27.9875 148.45C26.2998 148.45 24.4355 145.637 25.766 140.167C27.0966 134.698 29.9421 131.556 32.0772 131.556C34.2123 131.556 41.3164 134.288 41.3164 134.288L41.6735 135.035Z" fill="white" stroke="#263238" stroke-linecap="round" stroke-linejoin="round"/>
<path d="M41.6576 92.4169C44.1541 91.4148 45.0374 88.1338 43.6304 85.0887C42.2234 82.0435 39.0589 80.3874 36.5624 81.3895C34.0658 82.3917 33.1826 85.6727 34.5896 88.7178C35.9966 91.7629 39.161 93.4191 41.6576 92.4169Z" fill="white" stroke="#263238" stroke-linecap="round" stroke-linejoin="round"/>
<path d="M39.7242 91.4819C41.3786 90.8178 41.9642 88.6443 41.0322 86.6272C40.1002 84.6101 38.0035 83.5133 36.3491 84.1774C34.6947 84.8415 34.109 87.0151 35.041 89.0321C35.973 91.0492 38.0697 92.146 39.7242 91.4819Z" fill="white" stroke="#263238" stroke-linecap="round" stroke-linejoin="round"/>
<path d="M134.653 139.41V140.932" stroke="#263238" stroke-width="2" stroke-linecap="round" stroke-linejoin="round"/>
<path d="M57.4004 131.658C57.4004 131.658 59.5394 135.525 59.9437 139.765C60.348 144.005 65.1599 149.62 77.2131 149.869C89.2664 150.118 94.4826 151.365 104.648 153.487C114.813 155.609 121.376 155.232 123.515 149.247C125.654 143.262 131.679 140.142 134.661 139.41" stroke="#263238" stroke-linecap="round" stroke-linejoin="round"/>
<path d="M48.2126 147.514L19.667 162.381L70.0388 172.083L94.5536 153.93L48.2126 147.514Z" fill="#4BC7C1" stroke="#263238" stroke-linecap="round" stroke-linejoin="round"/>
<path d="M34.1104 154.86C34.1104 154.86 37.3837 155.456 39.3304 153.952C40.4176 153.118 39.9192 151.794 39.9192 151.794L34.1104 154.86Z" fill="#4BC7C1" stroke="#263238" stroke-linecap="round" stroke-linejoin="round"/>
<path d="M92.5914 158.244C92.5914 162.063 80.9503 165.147 66.5931 165.147C60.015 165.147 53.9943 164.518 49.4179 163.42C46.278 162.689 43.7935 161.748 42.2746 160.688C41.1874 159.927 40.5869 159.096 40.5869 158.233C40.5869 154.421 52.2281 151.326 66.5853 151.326C71.75 151.292 76.9054 151.74 81.9747 152.661C84.2872 153.08 86.5442 153.731 88.7058 154.604C91.1549 155.668 92.5914 156.912 92.5914 158.244Z" fill="#263238" stroke="#263238" stroke-linecap="round" stroke-linejoin="round"/>
<path d="M59.6223 158.496L42.2744 160.691C43.7855 161.759 46.2778 162.688 49.4177 163.42L61.0392 158.704L59.6223 158.496ZM81.9941 152.672L73.3398 155.346L73.1945 156.209L88.7253 154.614C86.5548 153.74 84.2886 153.089 81.9666 152.672H81.9941Z" fill="white" stroke="#263238" stroke-linecap="round" stroke-linejoin="round"/>
<path d="M76.3308 156.722C76.3308 158.152 71.9624 159.312 66.5775 159.312C61.1926 159.312 56.8281 158.152 56.8281 156.722C56.8281 155.292 61.1926 154.132 66.5775 154.132C71.9624 154.132 76.3308 155.292 76.3308 156.722Z" fill="white" stroke="#263238" stroke-linecap="round" stroke-linejoin="round"/>
<path d="M99.9854 54.9622C99.9858 54.8468 99.9568 54.7329 99.9008 54.6299C99.8449 54.5269 99.7636 54.4377 99.6636 54.3696C99.5652 54.3003 99.4507 54.2536 99.3293 54.2332C99.2079 54.2129 99.0831 54.2195 98.965 54.2525L90.6286 56.5572C90.4635 56.6012 90.3184 56.6945 90.2156 56.8227C90.1128 56.9508 90.058 57.1069 90.0594 57.2669V66.1713C89.5791 65.9956 89.0516 65.9653 88.5517 66.0848C88.0519 66.2043 87.6051 66.4674 87.2747 66.8369C86.9443 67.2064 86.7471 67.6634 86.7111 68.1432C86.675 68.623 86.802 69.1012 87.074 69.51C87.3459 69.9188 87.749 70.2374 88.2261 70.4206C88.7033 70.6038 89.2302 70.6423 89.7321 70.5307C90.234 70.4191 90.6855 70.1631 91.0226 69.7989C91.3596 69.4346 91.5651 68.9808 91.6098 68.5016H91.6451V61.7191L98.4037 59.8534V63.786C98.1283 63.6863 97.8357 63.6342 97.5402 63.6324C97.0541 63.6317 96.5787 63.7654 96.1742 64.0166C95.7696 64.2678 95.4541 64.6252 95.2675 65.0436C95.0809 65.462 95.0317 65.9225 95.1261 66.367C95.2204 66.8115 95.4541 67.2199 95.7976 67.5405C96.141 67.8612 96.5788 68.0796 97.0555 68.1683C97.5323 68.257 98.0265 68.2118 98.4757 68.0386C98.9248 67.8654 99.3088 67.5719 99.5789 67.1952C99.8491 66.8185 99.9933 66.3756 99.9933 65.9225V54.9622H99.9854ZM98.3959 58.2986L91.6372 60.1643V57.8193L98.3959 55.9536V58.2986Z" fill="#263238"/>
</svg>
