<svg width="160" height="156" viewBox="0 0 160 156" fill="none" xmlns="http://www.w3.org/2000/svg">
<path d="M114.321 114.66L115.8 83.0518L146.058 82.3311L144.397 117.1L137.198 117.331L114.321 114.66Z" fill="white" stroke="#263238" stroke-linecap="round" stroke-linejoin="round"/>
<path d="M109.895 81.067L115.8 83.0513L146.058 82.3306L139.046 79.7129L109.895 81.067Z" fill="white" stroke="#263238" stroke-linecap="round" stroke-linejoin="round"/>
<path d="M137.198 117.331L139.047 79.7129L146.058 82.3306L144.398 117.1L137.198 117.331Z" fill="#263238" stroke="#263238" stroke-linecap="round" stroke-linejoin="round"/>
<path d="M109.894 81.0674L108.881 113.759L114.774 114.47L115.8 83.0517L109.894 81.0674Z" fill="#263238" stroke="#263238" stroke-linecap="round" stroke-linejoin="round"/>
<path d="M77.9385 116.195L107.23 122.535L107.616 133.514L78.6141 124.9L77.9385 116.195Z" fill="#4BC7C1" stroke="#263238" stroke-linecap="round" stroke-linejoin="round"/>
<path d="M107.23 122.535L137.198 117.331V126.604L107.616 133.514L107.23 122.535Z" fill="#263238" stroke="#263238" stroke-linecap="round" stroke-linejoin="round"/>
<path d="M137.198 117.331L106.166 112.691L77.9385 116.195L107.23 122.535L137.198 117.331Z" fill="white" stroke="#263238" stroke-linecap="round" stroke-linejoin="round"/>
<path d="M85.801 121.992C85.4094 122.704 85.2493 123.516 85.3421 124.32C85.4951 125.671 87.0471 128.032 90.6325 129.349C93.7686 130.5 97.0066 129.349 97.9181 128.298C99.0686 126.947 99.1451 125.072 98.8391 124.694C98.5332 124.316 98.4567 124.245 98.1507 124.769C97.8448 125.293 97.6121 125.895 96.2385 126.273C94.8649 126.65 91.7767 126.585 89.6414 125.82C87.5061 125.056 87.1874 124.469 86.9579 123.343C86.7284 122.217 86.4926 121.159 85.801 121.992Z" fill="#263238" stroke="#263238" stroke-linecap="round" stroke-linejoin="round"/>
<path d="M117.783 115.815C117.783 117.509 110.083 118.879 100.573 118.879C96.7796 118.906 92.9899 118.652 89.2363 118.117C87.152 117.79 85.5139 117.375 84.51 116.904C83.7897 116.567 83.3945 116.199 83.3945 115.815C83.3945 114.124 91.0944 112.751 100.604 112.751C104.007 112.735 107.407 112.933 110.784 113.344C112.291 113.524 113.782 113.812 115.246 114.205C116.842 114.673 117.783 115.225 117.783 115.815Z" fill="#263238" stroke="#263238" stroke-linecap="round" stroke-linejoin="round"/>
<path d="M95.9801 115.927L84.5068 116.904C85.5107 117.375 87.1489 117.79 89.2332 118.117L96.9203 116.024L95.9801 115.927ZM110.765 113.344L105.028 114.529L104.932 114.913L115.217 114.192C113.756 113.804 112.268 113.52 110.765 113.344Z" fill="white" stroke="#263238" stroke-linecap="round" stroke-linejoin="round"/>
<path d="M107.036 115.128C107.036 115.752 104.148 116.279 100.585 116.279C97.0222 116.279 94.1348 115.764 94.1348 115.128C94.1348 114.491 97.0222 113.979 100.585 113.979C104.148 113.979 107.036 114.504 107.036 115.128Z" fill="white" stroke="#263238" stroke-linecap="round" stroke-linejoin="round"/>
<path d="M101.118 115.128C101.118 115.181 100.879 115.225 100.586 115.225C100.293 115.225 100.054 115.181 100.054 115.128C100.054 115.075 100.293 115.034 100.586 115.034C100.879 115.034 101.118 115.087 101.118 115.128Z" fill="white" stroke="#263238" stroke-linecap="round" stroke-linejoin="round"/>
<path d="M100.586 115.138V114.561" stroke="#263238" stroke-linecap="round" stroke-linejoin="round"/>
<path d="M106.608 116.348C106.524 116.352 106.441 116.323 106.378 116.268C106.316 116.212 106.278 116.134 106.274 116.052C106.27 115.969 106.299 115.888 106.356 115.826C106.413 115.765 106.492 115.728 106.577 115.724L123.882 113.983C123.924 113.979 123.966 113.983 124.007 113.995C124.047 114.007 124.084 114.026 124.117 114.052C124.149 114.078 124.176 114.11 124.196 114.147C124.216 114.183 124.229 114.223 124.233 114.264C124.237 114.305 124.233 114.346 124.221 114.386C124.208 114.425 124.189 114.462 124.162 114.494C124.135 114.525 124.102 114.552 124.065 114.571C124.028 114.591 123.988 114.603 123.946 114.607L106.644 116.348H106.608Z" fill="white" stroke="#263238" stroke-linecap="round" stroke-linejoin="round"/>
<path d="M106.609 116.348L106.699 117.359C106.703 117.415 106.72 117.47 106.746 117.52C106.773 117.57 106.81 117.614 106.855 117.65C106.899 117.686 106.951 117.712 107.006 117.728C107.061 117.744 107.119 117.749 107.177 117.743L111.355 117.284C111.461 117.272 111.559 117.223 111.63 117.145C111.701 117.068 111.74 116.967 111.74 116.863V115.942L106.609 116.348Z" fill="white" stroke="#263238" stroke-linecap="round" stroke-linejoin="round"/>
<path d="M124.66 116.305V117.094C124.66 117.406 125.336 117.643 126.168 117.643C126.999 117.643 127.675 117.397 127.675 117.094V116.305H124.66Z" fill="#263238" stroke="#263238" stroke-linecap="round" stroke-linejoin="round"/>
<path d="M127.675 116.304C127.675 116.576 126.999 116.794 126.168 116.794C125.336 116.794 124.66 116.576 124.66 116.304C124.66 116.033 125.336 115.814 126.168 115.814C126.999 115.814 127.675 116.033 127.675 116.304Z" fill="#263238" stroke="#263238" stroke-linecap="round" stroke-linejoin="round"/>
<path d="M128.329 112.714C127.8 112.643 127.265 112.638 126.735 112.698C126.474 112.723 123.022 113.175 123.022 113.322V116.52L124.453 116.732L128.597 116.199C128.854 116.165 129.09 116.041 129.26 115.85C129.431 115.659 129.525 115.414 129.524 115.16V113.871C129.514 113.132 128.973 112.829 128.329 112.714Z" fill="#263238" stroke="#263238" stroke-linecap="round" stroke-linejoin="round"/>
<path d="M118.738 117.817V118.61C118.738 118.922 119.411 119.159 120.243 119.159C121.074 119.159 121.75 118.913 121.75 118.61V117.817H118.738Z" fill="#263238" stroke="#263238" stroke-linecap="round" stroke-linejoin="round"/>
<path d="M121.744 117.818C121.744 118.089 121.072 118.308 120.237 118.308C119.402 118.308 118.732 118.089 118.732 117.818C118.732 117.546 119.405 117.331 120.237 117.331C121.069 117.331 121.744 117.549 121.744 117.818Z" fill="white" stroke="#263238" stroke-linecap="round" stroke-linejoin="round"/>
<path d="M113.655 118.635V119.424C113.655 119.736 114.331 119.973 115.163 119.973C115.995 119.973 116.667 119.727 116.667 119.424V118.635H113.655Z" fill="#263238" stroke="#263238" stroke-linecap="round" stroke-linejoin="round"/>
<path d="M115.163 119.125C115.995 119.125 116.67 118.906 116.67 118.635C116.67 118.365 115.995 118.146 115.163 118.146C114.33 118.146 113.655 118.365 113.655 118.635C113.655 118.906 114.33 119.125 115.163 119.125Z" fill="white" stroke="#263238" stroke-linecap="round" stroke-linejoin="round"/>
<path d="M107.839 120.063V120.531C107.839 120.712 108.237 120.859 108.731 120.859C109.225 120.859 109.624 120.712 109.624 120.531V120.063H107.839Z" fill="#263238" stroke="#263238" stroke-linecap="round" stroke-linejoin="round"/>
<path d="M109.633 120.064C109.633 120.226 109.235 120.354 108.741 120.354C108.247 120.354 107.849 120.226 107.849 120.064C107.849 119.901 108.247 119.773 108.741 119.773C109.235 119.773 109.633 119.904 109.633 120.064Z" fill="white" stroke="#263238" stroke-linecap="round" stroke-linejoin="round"/>
<path d="M55.3813 81.6715C55.3813 81.6715 65.1941 82.9445 66.8545 84.9226C68.515 86.9007 68.7285 88.7352 69.0185 90.2266C69.3086 91.7179 71.906 108.803 72.2661 112.335C72.6262 115.867 73.0597 117.28 72.4095 118.693C71.7594 120.107 68.225 122.437 66.4211 122.646C64.6173 122.856 62.8867 122.718 61.6597 122.225C60.4327 121.732 56.4649 119.258 56.4649 119.258L14.1826 122.428C14.1826 122.428 23.852 88.314 25.6559 85.6277C27.4598 82.9414 34.8983 80.826 39.3601 80.1178C43.8219 79.4095 55.3813 81.6715 55.3813 81.6715Z" fill="#4BC7C1" stroke="#263238" stroke-linecap="round" stroke-linejoin="round"/>
<path d="M60.2158 106.606C60.2158 106.606 63.32 104.772 67.648 106.606" stroke="#263238" stroke-linecap="round" stroke-linejoin="round"/>
<path d="M60.4326 104.832C60.4326 104.832 63.6196 101.584 67.1254 100.383" stroke="#263238" stroke-linecap="round" stroke-linejoin="round"/>
<path d="M64.499 96.4697C64.7986 96.0859 65.0822 95.7364 65.3372 95.4463" stroke="#263238" stroke-linecap="round" stroke-linejoin="round"/>
<path d="M60.1426 102.794C60.1426 102.794 61.9369 99.9707 63.6292 97.6338" stroke="#263238" stroke-linecap="round" stroke-linejoin="round"/>
<path d="M33.3169 50.2784C33.3169 50.2784 27.7268 49.8852 24.7756 52.2315C21.8244 54.5777 24.2211 55.4357 24.2211 55.4357C24.2211 55.4357 19.2716 57.0768 19.2716 59.8037C19.2716 62.5306 21.101 61.4636 21.101 61.4636C21.101 61.4636 16.3205 67.0796 16.4702 69.6692C16.62 72.2588 19.0199 70.7643 19.0199 70.7643C19.0199 70.7643 18.4589 76.3148 19.7369 78.0339C21.0149 79.753 23.7303 79.129 23.7303 79.129C23.7303 79.129 23.4913 81.937 24.9286 81.8621C26.366 81.7872 28.4343 80.455 28.4343 80.455C28.4343 80.455 28.8327 85.135 30.9106 85.9275C32.9886 86.72 35.3725 86.4735 36.0099 85.7715C36.483 85.1957 36.8852 84.5673 37.2082 83.8995C37.2082 83.8995 37.9253 86.1646 38.8017 84.5235C39.6781 82.8824 39.4391 80.1555 38.9611 79.4441C38.483 78.7328 35.4553 72.3305 35.4553 71.2354C35.4553 70.1403 40.0223 59.9036 40.1849 59.5916C40.3474 59.2796 49.6057 61.4636 49.9244 61.7007C50.2431 61.9378 55.1926 75.0668 55.1926 75.0668C55.1926 75.0668 53.7552 77.4099 53.9943 79.5221C54.2333 81.6344 55.1129 82.8044 57.8187 80.1461C60.5245 77.4879 63.1665 72.9701 63.1665 72.9701C63.1665 72.9701 63.8039 77.0261 65.6428 73.0481C67.4817 69.0701 65.4038 64.8394 64.6867 62.8863C63.9696 60.9332 62.2933 58.8303 62.2933 58.8303C62.2933 58.8303 64.607 60.4714 64.4477 57.6572C64.2883 54.8429 56.0658 47.3424 52.7131 46.0133C49.3603 44.6842 44.4077 44.9962 44.4077 44.9962C44.4077 44.9962 46.1637 43.5891 44.2483 43.5111C42.3329 43.4331 31.1624 43.7888 33.3169 50.2784Z" fill="#263238" stroke="#263238" stroke-linecap="round" stroke-linejoin="round"/>
<path d="M54.9425 74.0419C57.108 73.6236 58.4103 71.0357 57.8512 68.2615C57.2922 65.4873 55.0835 63.5775 52.918 63.9957C50.7525 64.4139 49.4503 67.0018 50.0093 69.776C50.5684 72.5502 52.777 74.4601 54.9425 74.0419Z" fill="white" stroke="#263238" stroke-linecap="round" stroke-linejoin="round"/>
<path d="M36.0455 82.945C35.8377 86.757 35.8377 90.5771 36.0455 94.3891C36.4057 99.9677 35.6854 101.946 36.3324 102.018C36.9793 102.089 36.9092 102.23 37.7028 101.169C38.4964 100.108 41.3838 95.5186 41.7439 95.7307C42.1041 95.9429 42.3208 97.0723 42.4674 98.0614C42.614 99.0504 45.5747 104.136 45.5747 104.136C45.5747 104.136 47.7387 100.039 48.2455 99.119C48.7522 98.1986 48.749 98.0614 49.2558 96.7884C49.7625 95.5154 50.1194 97.0723 51.4867 98.8382C52.8539 100.604 54.9478 103.359 55.1645 102.37C55.3812 101.381 53.7208 97.4249 53.5072 93.4001C53.2937 89.3753 53.7941 84.0026 53.3606 82.5206C52.9272 81.0386 48.4431 78.708 41.6738 78.708C34.9046 78.708 36.0455 82.945 36.0455 82.945Z" fill="white" stroke="#263238" stroke-linecap="round" stroke-linejoin="round"/>
<path d="M38.9873 79.4316C38.9873 79.4316 41.5369 87.8182 42.8117 94.3172C44.0865 100.816 45.5526 104.136 45.5526 104.136C45.5526 104.136 48.2934 97.5651 49.8104 92.1269C50.7294 88.812 51.4047 85.4369 51.831 82.0275L38.9873 79.4316Z" fill="#ADADAD" stroke="#263238" stroke-linecap="round" stroke-linejoin="round"/>
<path d="M51.4128 83.3691C51.4128 83.3691 49.0321 85.9119 48.8154 88.6731" stroke="#263238" stroke-linecap="round" stroke-linejoin="round"/>
<path d="M42.6777 93.5996C42.7287 93.8461 42.7797 94.0926 42.8275 94.3328C44.1246 100.832 45.5684 104.151 45.5684 104.151C45.5684 104.151 47.7579 98.9036 49.3068 93.9054C47.1842 94.5138 44.4465 94.0364 42.6777 93.5996Z" fill="#263238" stroke="#263238" stroke-linecap="round" stroke-linejoin="round"/>
<path d="M38.3467 56.2158L33.1455 70.053C33.1455 70.053 35.2999 76.293 36.2592 77.9466C37.2185 79.6002 39.0542 80.6829 41.129 81.6189C43.2038 82.5549 50.0718 84.1991 51.5091 83.6531C52.9465 83.1071 56.3789 77.6346 56.6976 76.3835C57.0163 75.1324 53.3449 61.9223 53.0262 61.2983C52.7075 60.6743 38.3467 56.2158 38.3467 56.2158Z" fill="#ADADAD" stroke="#263238" stroke-linecap="round" stroke-linejoin="round"/>
<path d="M40.4248 70.0527C40.4248 70.0527 42.8183 70.9107 44.5679 69.2695" stroke="#263238" stroke-linecap="round" stroke-linejoin="round"/>
<path d="M38.668 67.5503C38.668 67.5503 39.3054 65.7532 40.8224 65.126C42.3394 64.4989 44.4938 64.97 44.4142 65.5192C44.3345 66.0683 42.8207 65.5972 41.941 65.6752C41.0614 65.7532 38.668 67.5503 38.668 67.5503Z" fill="#263238"/>
<path d="M48.8857 65.5197C48.8857 65.5197 49.3638 64.0345 50.2434 63.9596C51.123 63.8848 54.0519 64.7584 53.1978 64.6616C52.4903 64.5836 49.8195 64.4807 48.8857 65.5197Z" fill="#263238"/>
<path d="M50.4033 68.2527C50.4033 68.2527 52.5609 68.6458 53.4374 67.4727" stroke="#263238" stroke-linecap="round" stroke-linejoin="round"/>
<path d="M48.8859 65.5195C48.8859 65.5195 48.2485 66.6895 49.0453 68.2526" stroke="#263238" stroke-linecap="round" stroke-linejoin="round"/>
<path d="M51.5219 72.3838C50.8945 72.9359 50.161 73.3602 49.3643 73.6318" stroke="#263238" stroke-linecap="round" stroke-linejoin="round"/>
<path d="M43.7773 74.1934C43.7773 74.1934 44.9757 75.7534 46.4927 75.9125C48.0097 76.0716 50.7219 75.4445 51.5218 74.9765" stroke="#263238" stroke-linecap="round" stroke-linejoin="round"/>
<path d="M44.3346 73.6475L43.2988 74.8206" stroke="#263238" stroke-linecap="round" stroke-linejoin="round"/>
<path d="M30.3885 69.7376C30.3885 69.7376 27.0166 63.9344 29.1965 58.1936C31.233 52.8397 34.1013 51.8444 34.1268 51.7913C34.1523 51.7383 30.3375 51.7383 27.9504 57.1765C25.5633 62.6146 28.5209 70.7953 28.5209 70.7953L30.3885 69.7376Z" fill="white" stroke="#263238" stroke-linecap="round" stroke-linejoin="round"/>
<path d="M67.5651 117.274C66.4114 116.285 66.0512 115.368 65.5445 115.296C65.0378 115.224 64.7509 114.8 63.0937 115.224C61.8476 115.536 58.8231 115.82 57.3857 115.939V115.861H47.4454C40.7335 115.861 32.5811 115.155 32.5811 115.155L30.8506 124.55C30.8506 124.55 34.1683 124.054 40.093 123.489C43.7485 123.14 49.3353 121.954 53.0641 121.099L56.8312 120.594C56.8312 120.594 59.9322 121.299 61.9527 121.018C63.135 120.868 64.2446 120.375 65.1398 119.605C65.1398 119.605 65.1398 120.381 65.4999 120.594C65.86 120.806 68.7443 120.169 69.251 120.029C69.7578 119.889 69.7546 119.817 69.8279 119.04C69.9012 118.263 68.7283 118.263 67.5651 117.274Z" fill="#ADADAD" stroke="#263238" stroke-linecap="round" stroke-linejoin="round"/>
<path d="M54.7306 109.361C54.7306 109.361 51.5435 111.836 51.8622 112.481C52.1809 113.127 53.5227 114.743 53.5227 115.096C53.5227 115.448 51.7188 119.969 52.9426 120.818C54.1665 121.667 58.2841 123.501 62.9021 123.429C67.5201 123.358 69.7542 119.829 70.3342 118.909C70.9143 117.988 69.9008 112.906 69.0339 110.503C68.1671 108.101 64.5721 107.184 61.3851 107.608C58.1981 108.032 54.7306 109.361 54.7306 109.361Z" fill="white" stroke="#263238" stroke-linecap="round" stroke-linejoin="round"/>
<path d="M33.3965 77.4912C33.3965 77.4912 34.2634 80.5769 37.1986 85.8965C40.1339 91.2161 41.6604 102.383 43.1743 106.532C44.6881 110.682 46.0012 112.064 46.0012 112.064C46.0012 112.064 48.4998 104.52 50.6733 97.1722C52.8469 89.8246 55.8522 83.3007 55.3806 81.672" stroke="#263238" stroke-linecap="round" stroke-linejoin="round"/>
<path d="M54.5877 75.1912C54.5877 75.1912 52.1337 78.0148 52.5671 78.3674C53.0006 78.7199 53.3607 78.9914 53.7208 78.7917C54.081 78.592 54.661 78.227 54.661 78.227C54.661 78.227 52.2803 81.0537 51.4134 83.3843C50.5465 85.715 51.4867 85.5028 51.7034 87.1283C51.9202 88.7539 54.0108 108.46 54.2276 111.152C54.4443 113.845 55.0944 115.601 58.1954 116.026C61.2964 116.45 65.124 113.842 65.4841 113.059C65.8443 112.276 66.1215 111.293 65.5542 109.599C64.9869 107.904 55.3398 88.8131 56.0314 87.4185C57.1851 85.0879 61.3697 77.6716 61.5864 76.9665C61.8031 76.2614 58.1221 74.4923 57.4751 73.9994C56.8282 73.5064 54.8777 74.4674 54.5877 75.1912Z" fill="#ADADAD" stroke="#263238" stroke-linecap="round" stroke-linejoin="round"/>
<path d="M54.5879 75.1912C54.7779 74.9702 55.0322 74.8111 55.3169 74.7353C55.6017 74.6595 55.9032 74.6705 56.1814 74.7669C57.1184 75.1195 58.6354 76.3893 58.4123 76.9509" stroke="#263238" stroke-linecap="round" stroke-linejoin="round"/>
<path d="M56.0918 74.0433C56.0918 74.0433 56.9555 73.9029 58.1825 74.6673C59.4095 75.4317 60.3465 76.1493 60.2764 76.5737" stroke="#263238" stroke-linecap="round" stroke-linejoin="round"/>
<path d="M54.6611 78.2114L55.7415 77.4346L55.0946 76.9385" stroke="#263238" stroke-linecap="round" stroke-linejoin="round"/>
<path d="M29.1168 83.2253C29.1168 83.2253 25.4963 83.0849 21.9906 86.7572C18.4849 90.4294 17.6626 95.8052 17.6626 95.8052C17.6626 95.8052 13.9083 110.709 12.5379 116.709C11.1675 122.709 11.3109 124.054 14.1983 125.183C17.0858 126.313 19.97 125.891 22.2073 125.891C23.5929 125.885 24.9729 125.719 26.3186 125.395L30.5764 114.447L31.5134 110.351C31.5134 110.351 34.9044 106.538 34.9777 100.392" fill="#4BC7C1"/>
<path d="M29.1168 83.2253C29.1168 83.2253 25.4963 83.0849 21.9906 86.7572C18.4849 90.4294 17.6626 95.8052 17.6626 95.8052C17.6626 95.8052 13.9083 110.709 12.5379 116.709C11.1675 122.709 11.3109 124.054 14.1983 125.183C17.0858 126.313 19.97 125.891 22.2073 125.891C23.5929 125.885 24.9729 125.719 26.3186 125.395L30.5764 114.447L31.5134 110.351C31.5134 110.351 34.9044 106.538 34.9777 100.392" stroke="#263238" stroke-linecap="round" stroke-linejoin="round"/>
<path d="M28.8331 99.6176C28.6865 99.2183 28.5399 98.8564 28.3965 98.5537" stroke="#263238" stroke-linecap="round" stroke-linejoin="round"/>
<path d="M31.4975 110.351C31.4975 110.351 30.4235 104.679 29.2666 100.882" stroke="#263238" stroke-linecap="round" stroke-linejoin="round"/>
<path d="M27.3865 113.67C27.3865 113.67 24.1389 110.135 20.3145 109.149" stroke="#263238" stroke-linecap="round" stroke-linejoin="round"/>
<path d="M17.3569 112.263C16.9436 112.258 16.5313 112.304 16.1299 112.401" stroke="#263238" stroke-linecap="round" stroke-linejoin="round"/>
<path d="M24.7153 113.954C24.7153 113.954 21.114 112.56 18.2393 112.304" stroke="#263238" stroke-linecap="round" stroke-linejoin="round"/>
<path d="M33.2308 114.944C33.2308 114.944 33.014 123.209 32.7973 124.054C32.5806 124.9 32.4372 124.975 31.5703 125.396C30.7035 125.817 23.488 126.385 22.1176 126.385C20.7472 126.385 19.2334 123.985 20.3138 119.321C21.3942 114.657 23.7048 111.977 25.4385 111.977C27.1722 111.977 32.9407 114.307 32.9407 114.307L33.2308 114.944Z" fill="white" stroke="#263238" stroke-linecap="round" stroke-linejoin="round"/>
<path d="M33.2191 78.5965C35.2463 77.7418 35.9635 74.9436 34.821 72.3465C33.6785 69.7495 31.1089 68.337 29.0817 69.1917C27.0545 70.0464 26.3373 72.8446 27.4798 75.4416C28.6223 78.0387 31.1918 79.4511 33.2191 78.5965Z" fill="white" stroke="#263238" stroke-linecap="round" stroke-linejoin="round"/>
<path d="M31.6476 77.7989C32.991 77.2325 33.4665 75.3788 32.7098 73.6585C31.953 71.9382 30.2504 71.0028 28.907 71.5692C27.5636 72.1356 27.0881 73.9893 27.8449 75.7096C28.6017 77.4299 30.3042 78.3653 31.6476 77.7989Z" fill="white" stroke="#263238" stroke-linecap="round" stroke-linejoin="round"/>
<path d="M108.731 118.675V119.973" stroke="#263238" stroke-width="2" stroke-linecap="round" stroke-linejoin="round"/>
<path d="M46.002 112.063C46.002 112.063 47.7389 115.361 48.0671 118.977C48.3954 122.593 52.3027 127.383 62.09 127.595C71.8774 127.807 76.1129 128.871 84.3673 130.681C92.6217 132.49 97.9504 132.169 99.6874 127.064C101.424 121.96 106.316 119.299 108.738 118.675" stroke="#263238" stroke-linecap="round" stroke-linejoin="round"/>
<path d="M38.5406 125.586L15.3613 138.266L56.2636 146.54L76.1697 131.058L38.5406 125.586Z" fill="#4BC7C1" stroke="#263238" stroke-linecap="round" stroke-linejoin="round"/>
<path d="M27.0898 131.851C27.0898 131.851 29.7478 132.359 31.3286 131.077C32.2114 130.366 31.8066 129.236 31.8066 129.236L27.0898 131.851Z" fill="#4BC7C1" stroke="#263238" stroke-linecap="round" stroke-linejoin="round"/>
<path d="M74.5767 134.737C74.5767 137.995 65.124 140.625 53.4658 140.625C48.1244 140.625 43.2355 140.088 39.5194 139.152C36.9698 138.528 34.9524 137.726 33.7191 136.822C32.8362 136.173 32.3486 135.464 32.3486 134.728C32.3486 131.477 41.8013 128.837 53.4595 128.837C57.6533 128.809 61.8395 129.19 65.9558 129.976C67.8336 130.333 69.6663 130.889 71.4215 131.633C73.4102 132.541 74.5767 133.602 74.5767 134.737Z" fill="#263238" stroke="#263238" stroke-linecap="round" stroke-linejoin="round"/>
<path d="M47.8054 134.952L33.7188 136.824C34.9458 137.735 36.9695 138.528 39.5191 139.152L48.9559 135.13L47.8054 134.952ZM65.9714 129.985L58.944 132.266L58.8261 133.002L71.4372 131.642C69.6748 130.896 67.8345 130.341 65.9491 129.985H65.9714Z" fill="white" stroke="#263238" stroke-linecap="round" stroke-linejoin="round"/>
<path d="M61.3724 133.439C61.3724 134.659 57.8253 135.648 53.4527 135.648C49.0801 135.648 45.5361 134.659 45.5361 133.439C45.5361 132.22 49.0801 131.23 53.4527 131.23C57.8253 131.23 61.3724 132.22 61.3724 133.439Z" fill="white" stroke="#263238" stroke-linecap="round" stroke-linejoin="round"/>
<path d="M80.5806 46.653C80.5809 46.5546 80.5573 46.4575 80.5119 46.3696C80.4665 46.2818 80.4005 46.2057 80.3193 46.1476C80.2394 46.0885 80.1464 46.0487 80.0478 46.0313C79.9493 46.014 79.8479 46.0196 79.752 46.0478L72.9828 48.0134C72.8487 48.0509 72.7309 48.1304 72.6475 48.2397C72.564 48.3491 72.5195 48.4822 72.5206 48.6187V56.2127C72.1306 56.0629 71.7022 56.0371 71.2964 56.139C70.8905 56.2409 70.5277 56.4653 70.2594 56.7804C69.9911 57.0955 69.831 57.4853 69.8017 57.8945C69.7725 58.3037 69.8756 58.7116 70.0964 59.0602C70.3172 59.4088 70.6446 59.6805 71.032 59.8368C71.4194 59.993 71.8473 60.0259 72.2548 59.9307C72.6624 59.8356 73.029 59.6172 73.3027 59.3066C73.5764 58.9959 73.7432 58.6088 73.7795 58.2002H73.8082V52.4157L79.2963 50.8245V54.1785C79.0726 54.0934 78.835 54.049 78.5951 54.0475C78.2004 54.0468 77.8143 54.1609 77.4858 54.3751C77.1573 54.5893 76.9011 54.8942 76.7496 55.251C76.5981 55.6078 76.5582 56.0006 76.6348 56.3797C76.7114 56.7588 76.9012 57.1071 77.1801 57.3805C77.459 57.654 77.8144 57.8403 78.2015 57.9159C78.5886 57.9915 78.9899 57.953 79.3547 57.8053C79.7194 57.6576 80.0312 57.4072 80.2505 57.086C80.4699 56.7647 80.587 56.387 80.587 56.0006V46.653H80.5806ZM79.2899 49.4985L73.8018 51.0897V49.0898L79.2899 47.4986V49.4985Z" fill="#263238"/>
</svg>
