<svg width="160" height="156" viewBox="0 0 218 216" fill="none" xmlns="http://www.w3.org/2000/svg">
<path d="M44.9948 142.793L38.0025 138.784C37.6336 138.545 37.3266 138.223 37.1066 137.844C36.8866 137.465 36.7597 137.039 36.7363 136.603V95.8174C36.7598 95.38 36.8866 94.9542 37.1066 94.5744C37.3265 94.1946 37.6335 93.8716 38.0025 93.6315L95.0025 60.9507C95.3955 60.7526 95.8301 60.6494 96.2709 60.6494C96.7116 60.6494 97.1462 60.7526 97.5392 60.9507L104.532 64.9597C104.898 65.1965 105.204 65.5152 105.425 65.8902C105.645 66.2652 105.774 66.6863 105.802 67.1197V107.905C105.774 108.338 105.645 108.759 105.425 109.134C105.204 109.509 104.898 109.828 104.532 110.065L47.5315 142.75C47.1419 142.955 46.7091 143.065 46.2684 143.073C45.8276 143.08 45.3912 142.985 44.9948 142.793Z" fill="#455A64"/>
<path d="M105.819 67.1409V107.926C105.793 108.359 105.664 108.78 105.444 109.155C105.225 109.53 104.919 109.849 104.553 110.086L47.5533 142.771C46.8528 143.173 46.2871 142.845 46.2871 142.041V101.278C46.3105 100.841 46.4374 100.415 46.6574 100.036C46.8774 99.6573 47.1843 99.3351 47.5533 99.0959L104.553 66.4108C105.249 66.009 105.819 66.3374 105.819 67.1409Z" fill="#263238"/>
<path d="M47.24 142.927C46.876 143.056 46.4895 143.111 46.1036 143.088C45.7178 143.065 45.3406 142.964 44.9948 142.793L38.0025 138.784C37.6343 138.544 37.3279 138.222 37.108 137.843C36.8881 137.464 36.7608 137.039 36.7363 136.603V95.8131C36.7508 95.3752 36.8781 94.9483 37.1062 94.5732L46.6352 100.038C46.4066 100.413 46.2792 100.84 46.2653 101.278V142.063C46.2653 142.75 46.683 143.087 47.24 142.927Z" fill="#37474F"/>
<path d="M148.065 182.757L142.186 179.388C141.99 179.288 141.772 179.235 141.551 179.235C141.33 179.235 141.112 179.288 140.916 179.388L135.037 182.757C134.856 182.875 134.707 183.035 134.602 183.224C134.58 183.263 134.567 183.306 134.55 183.345C134.47 183.501 134.424 183.671 134.415 183.846V193.315C134.426 193.524 134.485 193.727 134.587 193.909C134.689 194.092 134.831 194.249 135.002 194.369L135.046 194.408L140.924 197.778C140.95 197.789 140.976 197.798 141.003 197.804C141.072 197.84 141.145 197.868 141.22 197.89C141.331 197.917 141.445 197.928 141.56 197.925C141.78 197.93 141.999 197.879 142.195 197.778L148.073 194.408C148.257 194.288 148.41 194.126 148.52 193.936C148.629 193.746 148.692 193.534 148.704 193.315V183.846C148.691 183.627 148.627 183.415 148.516 183.225C148.405 183.036 148.25 182.876 148.065 182.757Z" fill="#455A64"/>
<path d="M142.186 197.779L148.065 194.409C148.249 194.288 148.402 194.127 148.511 193.937C148.621 193.747 148.684 193.534 148.696 193.316V183.847C148.696 183.445 148.409 183.285 148.061 183.484L142.182 186.853C141.998 186.972 141.844 187.133 141.733 187.322C141.623 187.511 141.559 187.724 141.547 187.942V197.424C141.551 197.813 141.847 197.977 142.186 197.779Z" fill="#37474F"/>
<path d="M198.09 154.081L192.211 150.711C192.014 150.612 191.797 150.561 191.576 150.561C191.355 150.561 191.137 150.612 190.941 150.711L185.062 154.081C184.88 154.199 184.73 154.361 184.627 154.552C184.607 154.589 184.59 154.628 184.575 154.668C184.496 154.824 184.452 154.995 184.444 155.169V164.639C184.456 164.847 184.515 165.05 184.616 165.233C184.718 165.415 184.86 165.573 185.032 165.693C185.047 165.707 185.063 165.72 185.08 165.732L190.954 169.101C190.979 169.113 191.005 169.121 191.032 169.127C191.101 169.165 191.174 169.194 191.25 169.214C191.361 169.24 191.475 169.253 191.589 169.253C191.81 169.257 192.029 169.205 192.224 169.101L198.103 165.732C198.287 165.611 198.44 165.45 198.55 165.26C198.661 165.07 198.725 164.858 198.738 164.639V155.169C198.724 154.95 198.658 154.737 198.546 154.548C198.433 154.359 198.277 154.199 198.09 154.081Z" fill="#455A64"/>
<path d="M192.211 169.102L198.09 165.732C198.274 165.612 198.427 165.45 198.538 165.26C198.648 165.071 198.712 164.858 198.725 164.639V155.17C198.725 154.768 198.438 154.608 198.09 154.807L192.211 158.177C192.026 158.296 191.872 158.457 191.762 158.647C191.651 158.837 191.588 159.051 191.576 159.27V168.735C191.576 169.136 191.859 169.301 192.211 169.102Z" fill="#37474F"/>
<path d="M103.278 97.1609L48.8018 128.386C48.0627 128.865 47.4475 129.51 47.006 130.268C46.5646 131.027 46.3093 131.878 46.2607 132.753V135.147C46.3059 136.025 46.5596 136.881 47.0012 137.644C47.4428 138.406 48.0598 139.055 48.8018 139.536L139.01 191.246C139.797 191.642 140.668 191.849 141.551 191.849C142.434 191.849 143.304 191.642 144.092 191.246L198.564 160.017C199.304 159.539 199.92 158.895 200.362 158.136C200.804 157.377 201.058 156.525 201.105 155.649V153.256C201.057 152.381 200.802 151.53 200.36 150.771C199.919 150.012 199.303 149.367 198.564 148.889L108.343 97.1609C107.558 96.7668 106.69 96.5615 105.81 96.5615C104.931 96.5615 104.063 96.7668 103.278 97.1609Z" fill="#455A64"/>
<path d="M201.105 153.239V155.633C201.057 156.507 200.803 157.358 200.362 158.117C199.921 158.876 199.307 159.521 198.568 160L144.092 191.225C143.31 191.636 142.435 191.842 141.551 191.826V183.6C142.435 183.617 143.31 183.411 144.092 183L198.568 151.775C199.874 151.019 199.961 149.835 198.825 149.027C199.494 149.52 200.045 150.152 200.439 150.88C200.833 151.608 201.06 152.414 201.105 153.239Z" fill="#263238"/>
<path d="M48.8062 131.297C47.4704 130.537 47.4051 129.323 48.6104 128.52C47.9259 129.007 47.3598 129.64 46.9533 130.373C46.5468 131.105 46.3102 131.918 46.2607 132.753V135.146C46.3059 136.025 46.5596 136.881 47.0012 137.643C47.4428 138.406 48.0598 139.055 48.8018 139.536L139.01 191.246C139.792 191.657 140.666 191.863 141.551 191.846V183.6C140.668 183.617 139.794 183.411 139.014 182.999L48.8062 131.297Z" fill="#37474F"/>
<path d="M103.278 83.5271L48.8018 114.752C48.0627 115.231 47.4475 115.876 47.006 116.635C46.5646 117.393 46.3093 118.245 46.2607 119.12V124.222C46.3093 125.096 46.5646 125.948 47.006 126.707C47.4475 127.465 48.0627 128.11 48.8018 128.589L139.01 180.299C139.797 180.696 140.668 180.902 141.551 180.902C142.434 180.902 143.304 180.696 144.092 180.299L198.564 149.07C199.304 148.593 199.919 147.949 200.361 147.191C200.803 146.433 201.057 145.582 201.105 144.707V139.605C201.058 138.73 200.804 137.878 200.362 137.119C199.92 136.36 199.304 135.715 198.564 135.238L108.343 83.5271C107.558 83.1331 106.69 82.9277 105.81 82.9277C104.931 82.9277 104.063 83.1331 103.278 83.5271Z" fill="#4BC7C1"/>
<path opacity="0.8" d="M48.8024 117.664L139.01 169.375C139.798 169.771 140.669 169.977 141.551 169.977C142.434 169.977 143.305 169.771 144.093 169.375L198.565 138.15C199.97 137.346 199.97 136.041 198.565 135.238L108.344 83.5275C107.557 83.1313 106.687 82.9248 105.805 82.9248C104.922 82.9248 104.053 83.1313 103.266 83.5275L48.7894 114.752C47.4014 115.556 47.4014 116.861 48.8024 117.664Z" fill="white"/>
<path opacity="0.05" d="M58.1743 112.112L70.0225 118.942C71.4279 119.746 72.842 119.547 74.8479 118.942C76.8538 118.337 83.5067 115.711 83.5067 115.711C83.5067 115.711 84.5857 119.966 89.1632 125.768C90.9036 127.975 94.18 132.118 99.6929 135.073L132.022 116.208L105.819 101.187L108.199 99.8479C109.97 98.7808 109.6 97.8693 108.199 97.0658L93.7754 88.8232L58.1656 109.378C56.7645 110.186 56.7732 111.309 58.1743 112.112Z" fill="black"/>
<path opacity="0.5" d="M201.105 139.605V144.72C201.057 145.594 200.803 146.445 200.362 147.204C199.921 147.963 199.307 148.608 198.568 149.087L144.092 180.312C143.31 180.723 142.435 180.929 141.551 180.913V169.974C142.435 169.992 143.309 169.787 144.092 169.378L198.568 138.149C199.874 137.393 199.961 136.214 198.825 135.401C199.493 135.893 200.043 136.524 200.437 137.251C200.831 137.977 201.059 138.781 201.105 139.605Z" fill="white"/>
<path opacity="0.6" d="M48.8062 117.668C47.4704 116.903 47.4051 115.689 48.6104 114.886C47.9259 115.373 47.3598 116.006 46.9533 116.739C46.5468 117.471 46.3102 118.284 46.2607 119.119V124.221C46.3093 125.096 46.5646 125.947 47.006 126.706C47.4475 127.465 48.0627 128.11 48.8018 128.589L139.01 180.299C139.792 180.71 140.666 180.916 141.551 180.9V169.974C140.668 169.993 139.795 169.788 139.014 169.378L48.8062 117.668Z" fill="white"/>
<path d="M110.084 94.504C110.084 92.992 107.804 90.4605 104.993 88.8491L93.6799 82.3691C92.1091 81.4662 90.7037 81.0472 89.7638 81.112C87.3315 81.112 77.6067 85.7733 72.8292 88.5078C68.0516 91.2424 57.635 97.839 56.012 100.634C55.4812 101.55 74.2868 115.097 76.5712 114.618C81.6925 113.555 90.9299 109.188 95.677 106.315C103.426 101.623 107.812 97.7181 109.357 96.0505C110.084 95.247 110.084 94.8237 110.084 94.504Z" fill="#F0F0F0"/>
<path d="M82.8061 91.834C79.36 93.7996 79.1294 96.2404 80.822 99.1305C81.949 101.057 83.6894 103.718 86.5873 104.98C88.3277 105.74 89.1414 106.487 90.3989 108.025C90.425 108.056 90.4424 108.086 90.4642 108.116C92.1655 107.252 93.8363 106.366 95.3766 105.524L82.8061 91.834Z" fill="#E0E0E0"/>
<path d="M60.8809 106.963L72.1938 113.443C75.009 115.054 77.2847 115.137 77.2847 113.625C77.2847 112.113 75.009 109.581 72.1938 107.97L60.8809 101.49C58.07 99.8783 55.79 99.7962 55.79 101.308C55.79 102.82 58.07 105.352 60.8809 106.963Z" fill="#E0E0E0"/>
<path d="M118.907 108.025L126.796 112.445L122.158 116.665L115.688 112.246L118.907 108.025Z" fill="#B16668"/>
<path d="M102.025 102.963C106.263 101.196 108.117 101.74 110.558 102.855C113.443 104.177 120.914 108.903 120.914 108.903C120.914 108.903 118.516 112.851 116.245 113.115C110.767 110.017 102.025 102.963 102.025 102.963Z" fill="#37474F"/>
<path d="M91.591 106.704C88.8585 108.536 86.5872 110.07 86.8613 112.679C87.1355 115.288 107.364 130.464 107.364 130.464L122.702 117.573C122.702 117.573 114.783 109.283 110.545 106.026C106.307 102.769 104.557 101.892 98.2309 103.797C93.9058 105.106 91.591 106.704 91.591 106.704Z" fill="#455A64"/>
<path d="M96.3814 89.1431C95.621 87.8484 94.3736 86.9067 92.9138 86.5251C91.454 86.1435 89.9013 86.3533 88.5972 87.1084C87.2932 87.8634 86.3447 89.1018 85.9604 90.5512C85.576 92.0006 85.7874 93.5422 86.5479 94.8369C86.6001 94.9233 86.6566 95.001 86.7132 95.0831L85.6559 98.3577L83.0452 94.7332C83.0076 94.4278 82.8573 94.1471 82.6235 93.9453C82.3897 93.7434 82.0888 93.6347 81.779 93.6402C81.6223 93.6461 81.4684 93.6835 81.3267 93.7502C81.1849 93.8169 81.0584 93.9115 80.9546 94.0282C80.8508 94.145 80.772 94.2815 80.723 94.4294C80.674 94.5773 80.6558 94.7336 80.6694 94.8887L82.3055 94.8325C81.9802 95.1109 81.7493 95.4819 81.6441 95.8953C81.383 96.9407 82.9495 98.8113 84.9858 100.379C84.9858 100.379 87.9663 103.637 88.6451 104.06C89.0789 104.315 89.5952 104.392 90.0853 104.276L89.3761 97.2474C90.4761 97.676 91.6833 97.7538 92.8298 97.4699C93.9764 97.1861 95.0054 96.5546 95.7739 95.6634C96.5424 94.7721 97.0121 93.6653 97.1179 92.4968C97.2237 91.3283 96.9602 90.1561 96.364 89.1431H96.3814Z" fill="#263238"/>
<path d="M87.0576 99.4247C86.8618 99.7747 86.096 99.4507 85.4956 99.2779C84.8951 99.1051 83.3766 99.2779 83.5158 100.898C83.655 102.518 85.8045 103.581 86.9358 103.326C88.8808 102.894 88.5109 101.697 88.5109 101.697L92.1963 107.693C95.7686 109.11 101.647 105.494 97.6875 104.142L96.6302 102.354C97.3162 102.076 97.9686 101.722 98.5751 101.3C99.676 100.414 99.8805 99.0273 99.4845 97.5153C98.8492 95.0875 98.0834 93.2731 95.1725 89.4585C91.9831 85.2768 86.6878 88.2835 84.8864 91.7049C83.085 95.1263 87.0576 99.4247 87.0576 99.4247Z" fill="#B16668"/>
<path d="M87.3529 99.9261C87.2006 100.017 86.0693 99.3991 85.495 99.2781C84.7031 99.1096 82.8843 94.4786 82.8843 94.4786C82.5316 94.1897 82.2715 93.8048 82.1362 93.3711C82.001 92.9375 81.9963 92.474 82.1229 92.0378C82.4144 90.664 83.9895 89.584 85.0816 88.8583C87.0527 87.5623 89.2544 86.0675 90.0115 83.7347C90.0724 83.5533 90.1681 83.3373 90.3596 83.3027C90.4824 83.3026 90.6006 83.349 90.6903 83.4323C91.2415 83.9121 91.5999 84.5732 91.6997 85.2943C91.6997 85.3634 91.7389 85.4455 91.8085 85.4541C91.8781 85.4627 91.9216 85.4066 91.9564 85.3547C92.1382 85.0725 92.2651 84.7589 92.3306 84.4303C92.422 83.9767 93.2879 84.9919 93.3662 85.1387C93.597 85.5994 93.7322 86.1014 93.7636 86.615C93.795 87.1286 93.722 87.6432 93.549 88.1282C93.2009 89.0959 92.3263 89.7784 91.5257 90.3832C89.825 91.5432 88.0186 92.5426 86.1303 93.3683C85.5298 93.6146 85.7256 94.2323 86.2869 95.8653C86.7916 97.3125 87.8533 99.6194 87.3529 99.9261Z" fill="#263238"/>
<path d="M96.6296 102.354C96.6296 102.354 93.2792 103.49 92.0434 103.542C91.3198 103.574 90.603 103.39 89.9854 103.014C90.4496 103.479 91.003 103.846 91.6127 104.094C92.8179 104.574 97.0473 103.066 97.0473 103.066L96.6296 102.354Z" fill="#9A4A4D"/>
<path d="M92.1007 95.5801C92.1695 95.7971 92.1627 96.0308 92.0817 96.2437C92.0006 96.4565 91.8499 96.6361 91.6537 96.7537C91.4574 96.8713 91.2271 96.92 90.9997 96.8921C90.7722 96.8641 90.5608 96.7611 90.3994 96.5996C90.7587 96.668 91.1307 96.6018 91.4437 96.4138C91.7565 96.2233 91.9897 95.9273 92.1007 95.5801Z" fill="#263238"/>
<path d="M96.4946 93.1084C96.5479 93.3289 96.5253 93.5608 96.4304 93.7671C96.3355 93.9733 96.1738 94.1421 95.971 94.2465C95.7683 94.3509 95.5361 94.3849 95.3116 94.343C95.0871 94.3012 94.8832 94.1859 94.7324 94.0156C95.0871 94.1042 95.4621 94.0609 95.7868 93.8937C96.1115 93.7266 96.3632 93.4472 96.4946 93.1084Z" fill="#263238"/>
<path d="M90.1683 94.1198L89.272 95.351C89.1068 95.2271 88.9965 95.0445 88.964 94.8415C88.9316 94.6385 88.9795 94.431 89.0979 94.2624C89.1571 94.181 89.2323 94.1125 89.319 94.0609C89.4057 94.0094 89.5021 93.976 89.6022 93.9626C89.7024 93.9493 89.8042 93.9563 89.9016 93.9834C89.9989 94.0104 90.0896 94.0568 90.1683 94.1198Z" fill="#263238"/>
<path d="M94.1543 99.3857L95.6598 99.1309C95.6813 99.2286 95.6826 99.3296 95.6638 99.4279C95.645 99.5261 95.6064 99.6196 95.5504 99.7027C95.4943 99.7858 95.4219 99.8568 95.3375 99.9115C95.2532 99.9661 95.1585 100.003 95.0593 100.021C94.855 100.052 94.6462 100.004 94.4773 99.8852C94.3084 99.7667 94.1925 99.5876 94.1543 99.3857Z" fill="#9A4A4D"/>
<path d="M95.6859 91.6664L94.1543 91.472C94.1623 91.3726 94.1906 91.2758 94.2375 91.1876C94.2843 91.0993 94.3488 91.0215 94.427 90.9589C94.5052 90.8962 94.5954 90.85 94.6921 90.8231C94.7889 90.7962 94.8901 90.7892 94.9897 90.8024C95.1951 90.8304 95.3819 90.9357 95.5114 91.0965C95.641 91.2572 95.7034 91.4612 95.6859 91.6664Z" fill="#263238"/>
<path d="M92.8535 94.3613L94.929 97.489L96.2909 95.9295L92.8535 94.3613Z" fill="#9A4A4D"/>
<path opacity="0.1" d="M112.259 131.259C110.838 130.426 109.495 129.47 108.243 128.403C107.246 127.501 106.302 126.291 106.715 125.017L101.085 128.244C102.073 130.317 104.427 131.553 106.433 132.689C107.517 133.302 108.61 133.897 109.709 134.473L110.953 135.13C117.167 138.283 123.65 140.923 130.098 143.554C130.886 143.873 131.739 144.202 132.565 144.007L112.259 131.259Z" fill="black"/>
<path d="M84.377 138.059V157.175L141.551 189.946V169.975C140.666 169.994 139.791 169.787 139.01 169.374L84.377 138.059Z" fill="#4BC7C1"/>
<path opacity="0.3" d="M84.377 138.059V157.175L141.551 189.946V169.975C140.666 169.994 139.791 169.787 139.01 169.374L84.377 138.059Z" fill="black"/>
<path d="M198.568 138.149C199.874 137.393 199.961 136.214 198.825 135.401C199.493 135.893 200.043 136.524 200.437 137.251C200.831 137.977 201.059 138.781 201.105 139.605V155.809L141.551 189.937V169.974C142.435 169.99 143.309 169.785 144.092 169.378L198.568 138.149Z" fill="#4BC7C1"/>
<path opacity="0.45" d="M198.568 138.149C199.874 137.393 199.961 136.214 198.825 135.401C199.493 135.893 200.043 136.524 200.437 137.251C200.831 137.977 201.059 138.781 201.105 139.605V155.809L141.551 189.937V169.974C142.435 169.99 143.309 169.785 144.092 169.378L198.568 138.149Z" fill="black"/>
<path d="M198.564 135.238L143.931 103.922L125.804 114.311C118.455 113.249 104.779 122.157 101.607 128.183L84.377 138.059L139.01 169.374C139.798 169.77 140.668 169.977 141.551 169.977C142.434 169.977 143.304 169.77 144.092 169.374L198.564 138.149C199.969 137.346 199.969 136.041 198.564 135.238Z" fill="#4BC7C1"/>
<path opacity="0.2" d="M198.564 135.238L143.931 103.922L125.804 114.311C118.455 113.249 104.779 122.157 101.607 128.183L84.377 138.059L139.01 169.374C139.798 169.77 140.668 169.977 141.551 169.977C142.434 169.977 143.304 169.77 144.092 169.374L198.564 138.149C199.969 137.346 199.969 136.041 198.564 135.238Z" fill="black"/>
<path opacity="0.1" d="M198.565 135.238L143.932 103.922L125.805 114.311C131.344 117.806 136.783 119.815 142.417 123.038C145.137 124.593 148.296 127.133 155.197 131.803C157.459 133.337 160.166 135.117 163.029 134.827C165.204 134.615 167.088 133.324 169.173 132.667C169.62 132.507 170.095 132.439 170.569 132.468C172.636 132.68 172.484 135.147 172.514 136.637C172.562 138.933 171.915 141.191 170.656 143.117C170.361 143.528 170.156 143.996 170.056 144.491C169.795 146.029 170.556 147.2 172.036 147.848C173.515 148.496 179.324 149.144 182.148 147.511L198.565 138.102C199.961 137.346 199.961 136.037 198.565 135.238Z" fill="black"/>
<path opacity="0.1" d="M149.631 153.736C148.471 153.033 147.322 152.306 146.185 151.554C145.75 151.256 143.744 149.96 143.239 149.515C144.714 150.163 146.168 150.811 147.621 151.511C149.214 152.263 150.823 152.975 152.464 153.615C154.67 154.479 158.329 156.094 160.231 153.787C161.362 152.414 161.057 150.414 161.432 148.677C161.806 146.94 164.852 141.234 161.031 140.84C160.557 140.814 160.082 140.881 159.635 141.039C157.55 141.679 155.658 142.97 153.491 143.199C150.628 143.484 147.738 141.938 145.659 140.175C143.185 138.141 140.528 136.336 137.722 134.784C137.496 134.654 137.513 134.749 137.326 134.563C138.54 135.023 139.713 135.582 140.833 136.235C141.703 136.732 142.508 137.281 143.366 137.773C144.966 138.728 146.619 139.593 148.317 140.365C149.997 141.163 151.853 141.527 153.713 141.424C155.888 141.229 157.877 140.184 159.904 139.385C160.679 139.016 161.535 138.848 162.393 138.896C163.751 139.069 164.886 140.758 164.812 142.063C164.815 142.103 164.815 142.144 164.812 142.184C164.556 144.387 164.181 146.573 163.973 148.781C163.849 149.436 163.922 150.114 164.181 150.729C164.393 151.048 164.67 151.319 164.993 151.525C165.317 151.731 165.681 151.868 166.061 151.926C166.814 152.094 167.593 152.12 168.324 152.358C168.421 152.379 168.509 152.431 168.576 152.504C168.689 152.664 168.576 152.885 168.459 153.04C167.751 153.891 166.844 154.555 165.817 154.975C164.808 155.433 163.746 155.757 162.728 156.189C161.944 156.577 161.121 156.884 160.274 157.105C159.731 157.198 159.18 157.238 158.629 157.226C157.676 157.226 155.819 157.226 152.947 155.671C151.82 155.036 150.719 154.392 149.631 153.736Z" fill="black"/>
<path opacity="0.2" d="M93.9062 143.523V162.674L95.1028 163.322L95.0985 144.202L93.9062 143.523Z" fill="black"/>
<path opacity="0.1" d="M93.9062 143.523L109.697 134.451C113.521 129.846 127.81 118.674 135.699 119.547L153.469 109.36L154.709 110.082L137.03 120.195C129.124 120.584 117.729 127.846 110.963 135.112L95.0985 144.184L93.9062 143.523Z" fill="black"/>
<path d="M123.854 139.281C123.284 139.069 122.549 138.728 121.923 138.469C120.914 138.124 119.952 137.657 119.06 137.078C119.908 137.078 120.304 137.41 121.496 137.147C121.917 137.063 122.292 136.828 122.549 136.486C122.593 136.433 122.622 136.368 122.632 136.3C122.658 136.024 122.284 135.911 122.005 135.868C120.865 135.734 119.912 135.125 118.825 134.823C117.21 134.391 115.056 134.602 113.838 134.11C112.62 133.617 102.525 125.971 102.525 125.971C99.6729 123.084 97.065 119.969 94.7279 116.657C91.7778 112.419 90.4551 110.76 88.3317 110.143C86.1562 111.633 86.2475 112.657 86.3781 114.501C86.5086 116.346 88.0228 118.666 89.0236 120.299C90.4464 122.619 91.7561 124.113 94.2232 127.293C95.5257 128.948 97.018 130.447 98.6701 131.76C101.054 133.669 110.488 138.434 110.488 138.434C110.488 138.434 116.479 143.528 120.713 143.26C121.901 143.182 122.732 142.957 123.615 142.102C124.442 141.298 124.951 139.696 123.854 139.281Z" fill="#B16668"/>
<path d="M87.8192 109.654C85.6437 111.089 85.152 113.845 86.2485 116.826C87.345 119.806 93.293 127.133 93.293 127.133C93.293 127.133 98.2228 125.967 99.6718 122.243C99.6718 122.243 94.8072 115.279 93.2886 113.262C91.5264 110.92 89.1985 109.015 87.8192 109.654Z" fill="#37474F"/>
<path d="M124.629 111.231L120.583 113.707L121.844 114.64C120.2 116.32 117.424 119.336 116.754 119.707C115.605 120.342 114.047 119.664 112.498 120.308C111.458 120.74 110.61 121.345 109.5 121.604C109.226 121.673 108.865 121.828 108.93 122.101C108.953 122.179 108.999 122.25 109.061 122.304C109.346 122.586 109.721 122.762 110.122 122.8C111.367 122.926 111.715 122.537 112.572 122.442C111.756 123.124 110.859 123.704 109.901 124.17C109.296 124.507 108.621 124.93 108.082 125.211C107.046 125.755 107.816 126.853 108.795 127.41C109.732 127.963 110.813 128.228 111.902 128.17C115.078 127.984 118.459 124.878 119.952 123.34C120.523 122.748 121.154 122.215 121.836 121.751C123.894 120.36 128.188 117.362 129.076 116.009C130.246 114.225 126.905 112.346 124.629 111.231Z" fill="#B16668"/>
<path d="M116.754 119.707C116.968 119.589 117.209 119.528 117.454 119.528C117.699 119.528 117.94 119.589 118.155 119.707C119.074 120.259 119.825 121.047 120.331 121.988C120.648 122.688 120.331 122.986 120.331 122.986C120.951 122.735 121.481 122.307 121.853 121.754C121.853 121.287 121.701 120.832 121.418 120.458C120.886 119.659 120.162 119.003 119.312 118.549C118.971 118.404 118.595 118.359 118.229 118.419C117.689 118.791 117.194 119.223 116.754 119.707Z" fill="#37474F"/>
<path d="M119.621 119.094L118.838 119.776C118.781 119.825 118.735 119.884 118.702 119.951C118.669 120.018 118.65 120.091 118.646 120.165C118.643 120.24 118.654 120.314 118.68 120.384C118.707 120.454 118.747 120.517 118.799 120.571L119.704 121.543C119.81 121.655 119.956 121.723 120.111 121.733C120.266 121.742 120.419 121.693 120.539 121.595L121.292 120.969C121.35 120.921 121.397 120.862 121.432 120.796C121.467 120.729 121.487 120.656 121.493 120.582C121.499 120.507 121.489 120.432 121.465 120.362C121.441 120.291 121.403 120.225 121.353 120.169L120.435 119.141C120.333 119.028 120.19 118.96 120.038 118.951C119.885 118.942 119.735 118.994 119.621 119.094Z" fill="#263238"/>
<path d="M119.621 118.895L118.838 119.577C118.781 119.626 118.735 119.685 118.702 119.752C118.669 119.819 118.65 119.892 118.646 119.966C118.643 120.041 118.654 120.115 118.68 120.185C118.707 120.255 118.747 120.318 118.799 120.372L119.704 121.344C119.81 121.452 119.954 121.517 120.106 121.525C120.258 121.534 120.407 121.487 120.526 121.392L121.279 120.761C121.337 120.714 121.384 120.655 121.419 120.589C121.453 120.523 121.474 120.451 121.48 120.376C121.485 120.302 121.476 120.228 121.452 120.157C121.428 120.087 121.39 120.022 121.34 119.966L120.422 118.938C120.32 118.829 120.18 118.763 120.03 118.755C119.881 118.747 119.734 118.797 119.621 118.895Z" fill="#455A64"/>
<path d="M120.153 121.319C120.099 121.32 120.045 121.31 119.996 121.289C119.946 121.268 119.902 121.237 119.865 121.198L118.96 120.226C118.928 120.193 118.903 120.154 118.886 120.11C118.87 120.067 118.862 120.021 118.865 119.975C118.871 119.884 118.913 119.799 118.982 119.738L119.765 119.055C119.831 118.999 119.914 118.968 120 118.969C120.052 118.969 120.102 118.979 120.149 118.999C120.197 119.019 120.239 119.049 120.274 119.085L121.192 120.114C121.252 120.183 121.283 120.273 121.28 120.364C121.276 120.41 121.263 120.455 121.241 120.496C121.219 120.537 121.189 120.573 121.153 120.602L120.401 121.232C120.33 121.289 120.243 121.319 120.153 121.319Z" fill="#4BC7C1"/>
</svg>
