<svg width="228" height="201" viewBox="0 0 228 201" fill="none" xmlns="http://www.w3.org/2000/svg">
<path d="M47.1549 132.778L39.827 129.059C39.4403 128.837 39.1186 128.538 38.8881 128.187C38.6575 127.835 38.5245 127.44 38.5 127.035V89.1998C38.5246 88.794 38.6575 88.3989 38.888 88.0466C39.1185 87.6943 39.4402 87.3947 39.827 87.1719L99.563 56.8547C99.9749 56.671 100.43 56.5752 100.892 56.5752C101.354 56.5752 101.81 56.671 102.221 56.8547L109.549 60.5737C109.934 60.7934 110.254 61.089 110.485 61.4369C110.717 61.7848 110.852 62.1754 110.881 62.5775V100.413C110.852 100.815 110.717 101.206 110.485 101.554C110.254 101.901 109.934 102.197 109.549 102.417L49.8134 132.738C49.4051 132.928 48.9515 133.031 48.4896 133.038C48.0276 133.045 47.5704 132.956 47.1549 132.778Z" fill="#455A64"/>
<path d="M110.899 62.5972V100.433C110.871 100.834 110.736 101.225 110.506 101.573C110.275 101.921 109.955 102.216 109.572 102.436L49.8358 132.758C49.1016 133.13 48.5088 132.826 48.5088 132.08V94.265C48.5333 93.8597 48.6663 93.4652 48.8969 93.1136C49.1274 92.7619 49.4491 92.463 49.8358 92.2411L109.572 61.9199C110.301 61.5472 110.899 61.8518 110.899 62.5972Z" fill="#263238"/>
<path d="M49.5078 132.903C49.1264 133.022 48.7213 133.073 48.3169 133.052C47.9126 133.03 47.5173 132.937 47.1549 132.778L39.827 129.059C39.441 128.837 39.12 128.538 38.8895 128.186C38.659 127.835 38.5256 127.441 38.5 127.035V89.1961C38.5152 88.7899 38.6486 88.3939 38.8876 88.0459L48.874 93.1155C48.6345 93.4632 48.501 93.8593 48.4864 94.2656V132.101C48.4864 132.738 48.9242 133.051 49.5078 132.903Z" fill="#37474F"/>
<path d="M155.172 169.852L149.011 166.726C148.805 166.633 148.577 166.585 148.346 166.585C148.114 166.585 147.886 166.633 147.68 166.726L141.519 169.852C141.329 169.962 141.173 170.11 141.063 170.285C141.04 170.321 141.027 170.361 141.009 170.397C140.925 170.542 140.877 170.7 140.867 170.862V179.647C140.879 179.84 140.941 180.028 141.047 180.198C141.154 180.367 141.303 180.513 141.483 180.624L141.528 180.66L147.689 183.786C147.715 183.797 147.743 183.805 147.771 183.81C147.844 183.844 147.92 183.87 147.999 183.891C148.115 183.915 148.235 183.926 148.355 183.923C148.586 183.927 148.815 183.881 149.02 183.786L155.181 180.66C155.374 180.549 155.534 180.399 155.649 180.223C155.764 180.047 155.83 179.849 155.842 179.647V170.862C155.829 170.659 155.761 170.462 155.645 170.287C155.528 170.111 155.366 169.962 155.172 169.852Z" fill="#455A64"/>
<path d="M149.011 183.786L155.172 180.661C155.364 180.549 155.525 180.399 155.639 180.223C155.754 180.047 155.82 179.849 155.833 179.647V170.862C155.833 170.489 155.532 170.341 155.167 170.525L149.007 173.651C148.813 173.762 148.652 173.911 148.536 174.086C148.421 174.262 148.354 174.459 148.341 174.661V183.458C148.345 183.818 148.655 183.971 149.011 183.786Z" fill="#37474F"/>
<path d="M207.598 143.25L201.437 140.124C201.231 140.032 201.003 139.984 200.772 139.984C200.54 139.984 200.312 140.032 200.106 140.124L193.945 143.25C193.754 143.36 193.598 143.51 193.489 143.687C193.468 143.722 193.45 143.758 193.435 143.795C193.352 143.94 193.305 144.098 193.298 144.26V153.045C193.31 153.238 193.371 153.426 193.478 153.596C193.585 153.765 193.734 153.911 193.913 154.022C193.929 154.036 193.946 154.048 193.964 154.058L200.12 157.184C200.146 157.195 200.174 157.203 200.202 157.208C200.274 157.243 200.35 157.27 200.43 157.289C200.546 157.313 200.666 157.325 200.785 157.325C201.017 157.328 201.246 157.28 201.451 157.184L207.612 154.058C207.805 153.947 207.965 153.797 208.081 153.621C208.197 153.445 208.264 153.247 208.277 153.045V144.26C208.263 144.056 208.194 143.859 208.076 143.683C207.958 143.508 207.794 143.359 207.598 143.25Z" fill="#455A64"/>
<path d="M201.438 157.184L207.599 154.058C207.792 153.946 207.952 153.796 208.068 153.62C208.184 153.444 208.251 153.247 208.264 153.044V144.259C208.264 143.887 207.964 143.739 207.599 143.923L201.438 147.049C201.244 147.16 201.083 147.309 200.967 147.486C200.851 147.662 200.785 147.86 200.772 148.063V156.843C200.772 157.216 201.069 157.368 201.438 157.184Z" fill="#37474F"/>
<path d="M108.236 90.4457L51.1445 119.412C50.3699 119.857 49.7252 120.455 49.2625 121.159C48.7999 121.863 48.5323 122.652 48.4814 123.464V125.684C48.5288 126.499 48.7947 127.293 49.2575 128.001C49.7203 128.708 50.3669 129.31 51.1445 129.756L145.682 177.726C146.508 178.094 147.42 178.286 148.345 178.286C149.271 178.286 150.183 178.094 151.008 177.726L208.095 148.756C208.871 148.313 209.517 147.715 209.979 147.011C210.442 146.306 210.709 145.516 210.758 144.704V142.484C210.708 141.672 210.44 140.882 209.978 140.178C209.515 139.474 208.87 138.876 208.095 138.432L113.544 90.4457C112.721 90.0801 111.812 89.8896 110.89 89.8896C109.968 89.8896 109.059 90.0801 108.236 90.4457Z" fill="#455A64"/>
<path d="M210.758 142.468V144.688C210.708 145.5 210.442 146.289 209.98 146.993C209.518 147.697 208.874 148.295 208.1 148.74L151.009 177.707C150.189 178.087 149.273 178.279 148.346 178.264V170.633C149.273 170.649 150.189 170.457 151.009 170.076L208.1 141.109C209.468 140.408 209.559 139.31 208.369 138.561C209.07 139.017 209.648 139.604 210.061 140.28C210.474 140.955 210.712 141.702 210.758 142.468Z" fill="#263238"/>
<path d="M51.149 122.114C49.7491 121.409 49.6807 120.283 50.9438 119.537C50.2266 119.989 49.6333 120.577 49.2073 121.256C48.7812 121.936 48.5333 122.69 48.4814 123.465V125.685C48.5288 126.5 48.7947 127.294 49.2575 128.001C49.7203 128.709 50.3669 129.31 51.1445 129.756L145.682 177.727C146.502 178.108 147.418 178.3 148.345 178.284V170.634C147.42 170.65 146.505 170.458 145.687 170.077L51.149 122.114Z" fill="#37474F"/>
<path d="M108.236 77.7982L51.1445 106.765C50.3699 107.209 49.7252 107.807 49.2625 108.511C48.7999 109.215 48.5323 110.005 48.4814 110.817V115.549C48.5323 116.361 48.7999 117.151 49.2625 117.855C49.7252 118.559 50.3699 119.157 51.1445 119.601L145.682 167.572C146.508 167.939 147.42 168.131 148.345 168.131C149.271 168.131 150.183 167.939 151.008 167.572L208.095 138.601C208.87 138.158 209.516 137.561 209.978 136.858C210.441 136.154 210.708 135.365 210.758 134.553V129.82C210.709 129.008 210.442 128.218 209.979 127.514C209.517 126.81 208.871 126.212 208.095 125.769L113.544 77.7982C112.721 77.4327 111.812 77.2422 110.89 77.2422C109.968 77.2422 109.059 77.4327 108.236 77.7982Z" fill="#4BC7C1"/>
<path opacity="0.8" d="M51.1449 109.466L145.683 157.437C146.508 157.804 147.421 157.996 148.346 157.996C149.271 157.996 150.184 157.804 151.009 157.437L208.096 128.47C209.568 127.725 209.568 126.514 208.096 125.769L113.544 77.7984C112.719 77.4308 111.808 77.2393 110.883 77.2393C109.959 77.2393 109.047 77.4308 108.222 77.7984L51.1313 106.765C49.6766 107.51 49.6766 108.721 51.1449 109.466Z" fill="white"/>
<path opacity="0.05" d="M60.9671 104.317L73.384 110.653C74.8569 111.398 76.3389 111.214 78.4411 110.653C80.5432 110.092 87.5155 107.655 87.5155 107.655C87.5155 107.655 88.6463 111.602 93.4435 116.985C95.2675 119.032 98.7011 122.876 104.479 125.617L138.359 108.116L110.899 94.1816L113.393 92.9392C115.249 91.9494 114.862 91.1038 113.393 90.3584L98.2771 82.7119L60.958 101.78C59.4897 102.529 59.4988 103.571 60.9671 104.317Z" fill="black"/>
<path opacity="0.5" d="M210.758 129.82V134.565C210.708 135.377 210.442 136.166 209.98 136.87C209.518 137.574 208.874 138.172 208.1 138.617L151.009 167.584C150.189 167.965 149.273 168.156 148.346 168.141V157.993C149.272 158.01 150.189 157.82 151.009 157.44L208.1 128.47C209.468 127.768 209.559 126.674 208.369 125.921C209.069 126.377 209.646 126.962 210.059 127.636C210.472 128.31 210.711 129.056 210.758 129.82Z" fill="white"/>
<path opacity="0.6" d="M51.149 109.471C49.7491 108.761 49.6807 107.635 50.9438 106.89C50.2266 107.342 49.6333 107.929 49.2073 108.609C48.7812 109.288 48.5333 110.043 48.4814 110.817V115.55C48.5323 116.362 48.7999 117.151 49.2625 117.855C49.7252 118.559 50.3699 119.157 51.1445 119.602L145.682 167.572C146.502 167.953 147.418 168.145 148.345 168.129V157.994C147.42 158.012 146.505 157.821 145.687 157.441L51.149 109.471Z" fill="white"/>
<path d="M115.368 87.9813C115.368 86.5786 112.979 84.2302 110.033 82.7353L98.1769 76.724C96.5308 75.8864 95.0579 75.4977 94.0729 75.5578C91.5239 75.5578 81.3323 79.882 76.3254 82.4188C71.3185 84.9555 60.4019 91.0751 58.701 93.668C58.1447 94.5176 77.853 107.085 80.247 106.64C85.6141 105.655 95.295 101.603 100.27 98.9379C108.391 94.5857 112.988 90.9629 114.607 89.416C115.368 88.6706 115.368 88.2778 115.368 87.9813Z" fill="#F0F0F0"/>
<path d="M86.7817 85.5049C83.1702 87.3283 82.9285 89.5926 84.7023 92.2737C85.8834 94.061 87.7074 96.5297 90.7443 97.6999C92.5683 98.4052 93.421 99.0985 94.7389 100.525C94.7662 100.553 94.7845 100.581 94.8073 100.609C96.5903 99.8079 98.3413 98.9863 99.9555 98.2049L86.7817 85.5049Z" fill="#E0E0E0"/>
<path d="M63.803 99.5393L75.659 105.551C78.6093 107.045 80.9942 107.122 80.9942 105.719C80.9942 104.316 78.6093 101.968 75.659 100.473L63.803 94.4617C60.8572 92.9669 58.4678 92.8907 58.4678 94.2934C58.4678 95.696 60.8572 98.0445 63.803 99.5393Z" fill="#E0E0E0"/>
<path d="M124.616 100.525L132.883 104.625L128.022 108.541L121.241 104.441L124.616 100.525Z" fill="#B16668"/>
<path d="M106.923 95.8287C111.364 94.1896 113.307 94.6945 115.865 95.7285C118.888 96.9548 126.718 101.339 126.718 101.339C126.718 101.339 124.205 105.002 121.825 105.246C116.084 102.373 106.923 95.8287 106.923 95.8287Z" fill="#37474F"/>
<path d="M95.9881 99.299C93.1244 100.998 90.7441 102.421 91.0314 104.841C91.3186 107.262 112.518 121.341 112.518 121.341L128.592 109.382C128.592 109.382 120.293 101.692 115.851 98.6698C111.41 95.6481 109.577 94.8346 102.947 96.6019C98.414 97.8162 95.9881 99.299 95.9881 99.299Z" fill="#455A64"/>
<path d="M101.009 83.0077C100.212 81.8066 98.9047 80.933 97.3748 80.579C95.8449 80.225 94.2176 80.4197 92.851 81.1201C91.4844 81.8205 90.4904 82.9694 90.0876 84.3139C89.6848 85.6585 89.9063 87.0886 90.7033 88.2896C90.758 88.3698 90.8173 88.4419 90.8765 88.5181L89.7685 91.5558L87.0325 88.1935C86.9931 87.9102 86.8356 87.6498 86.5906 87.4625C86.3455 87.2753 86.0302 87.1745 85.7055 87.1795C85.5413 87.185 85.38 87.2197 85.2315 87.2816C85.0829 87.3434 84.9503 87.4312 84.8415 87.5395C84.7328 87.6478 84.6502 87.7744 84.5988 87.9116C84.5475 88.0489 84.5284 88.1938 84.5427 88.3377L86.2573 88.2856C85.9164 88.5438 85.6744 88.8881 85.5641 89.2715C85.2905 90.2413 86.9322 91.9766 89.0662 93.4314C89.0662 93.4314 92.1898 96.4531 92.9012 96.8458C93.3558 97.0819 93.8969 97.1537 94.4106 97.0462L93.6673 90.5259C94.8201 90.9235 96.0852 90.9956 97.2868 90.7323C98.4884 90.4689 99.5668 89.8832 100.372 89.0564C101.178 88.2296 101.67 87.2028 101.781 86.1188C101.892 85.0348 101.615 83.9474 100.991 83.0077H101.009Z" fill="#263238"/>
<path d="M91.2369 92.5457C91.0317 92.8703 90.2291 92.5698 89.5998 92.4095C88.9705 92.2492 87.3791 92.4095 87.525 93.9123C87.6709 95.4151 89.9236 96.401 91.1092 96.1645C93.1475 95.7638 92.7599 94.6537 92.7599 94.6537L96.6222 100.216C100.366 101.531 106.527 98.1763 102.377 96.922L101.269 95.2628C101.988 95.0051 102.672 94.6771 103.307 94.285C104.461 93.4634 104.675 92.177 104.26 90.7744C103.594 88.5221 102.792 86.8389 99.7413 83.3003C96.3988 79.4209 90.8493 82.2102 88.9614 85.3842C87.0736 88.5582 91.2369 92.5457 91.2369 92.5457Z" fill="#B16668"/>
<path d="M91.5468 93.011C91.3872 93.0951 90.2017 92.522 89.5997 92.4098C88.7698 92.2535 86.8637 87.9574 86.8637 87.9574C86.494 87.6895 86.2215 87.3324 86.0798 86.9301C85.938 86.5278 85.9331 86.0978 86.0657 85.6931C86.3713 84.4187 88.022 83.4168 89.1665 82.7436C91.2322 81.5413 93.5396 80.1547 94.333 77.9906C94.3968 77.8223 94.4972 77.6219 94.6978 77.5898C94.8265 77.5897 94.9504 77.6327 95.0444 77.7101C95.622 78.1552 95.9976 78.7685 96.1023 79.4373C96.1023 79.5015 96.1433 79.5776 96.2163 79.5856C96.2892 79.5936 96.3348 79.5415 96.3713 79.4934C96.5618 79.2316 96.6948 78.9407 96.7635 78.6358C96.8592 78.215 97.7667 79.1568 97.8488 79.2931C98.0907 79.7204 98.2323 80.1861 98.2652 80.6626C98.2981 81.139 98.2216 81.6164 98.0403 82.0663C97.6755 82.964 96.7589 83.5972 95.9199 84.1582C94.1375 85.2343 92.2445 86.1615 90.2655 86.9275C89.6362 87.1559 89.8414 87.729 90.4297 89.2438C90.9586 90.5864 92.0712 92.7264 91.5468 93.011Z" fill="#263238"/>
<path d="M101.269 95.2637C101.269 95.2637 97.7576 96.3177 96.4625 96.3658C95.7042 96.3956 94.953 96.2253 94.3057 95.8768C94.7922 96.3076 95.3721 96.6483 96.0111 96.8787C97.2742 97.3236 101.707 95.9249 101.707 95.9249L101.269 95.2637Z" fill="#9A4A4D"/>
<path d="M96.5212 88.9795C96.5933 89.1809 96.5863 89.3977 96.5013 89.5951C96.4163 89.7925 96.2584 89.9592 96.0527 90.0682C95.8471 90.1773 95.6057 90.2225 95.3674 90.1966C95.129 90.1707 94.9075 90.0751 94.7383 89.9253C95.1148 89.9887 95.5047 89.9273 95.8327 89.753C96.1605 89.5762 96.4049 89.3016 96.5212 88.9795Z" fill="#263238"/>
<path d="M101.127 86.6875C101.183 86.8921 101.159 87.1072 101.06 87.2985C100.96 87.4899 100.791 87.6464 100.578 87.7433C100.366 87.8401 100.123 87.8716 99.8873 87.8328C99.652 87.794 99.4383 87.6871 99.2803 87.5291C99.6519 87.6113 100.045 87.5711 100.385 87.416C100.725 87.261 100.989 87.0018 101.127 86.6875Z" fill="#263238"/>
<path d="M94.4971 87.6245L93.5577 88.7667C93.3847 88.6517 93.269 88.4823 93.235 88.2941C93.201 88.1058 93.2513 87.9132 93.3753 87.7568C93.4373 87.6813 93.5162 87.6178 93.607 87.57C93.6979 87.5222 93.7989 87.4911 93.9039 87.4787C94.0088 87.4664 94.1156 87.4729 94.2176 87.498C94.3195 87.523 94.4147 87.5661 94.4971 87.6245Z" fill="#263238"/>
<path d="M98.6738 92.5099L100.252 92.2734C100.274 92.3641 100.276 92.4578 100.256 92.549C100.236 92.6401 100.196 92.7268 100.137 92.8039C100.078 92.881 100.002 92.9469 99.9139 92.9976C99.8254 93.0483 99.7263 93.0828 99.6223 93.099C99.4081 93.1283 99.1893 93.0832 99.0123 92.9733C98.8353 92.8633 98.7139 92.6971 98.6738 92.5099Z" fill="#9A4A4D"/>
<path d="M100.279 85.3485L98.6738 85.1682C98.6822 85.076 98.7118 84.9862 98.761 84.9043C98.8101 84.8225 98.8777 84.7503 98.9596 84.6922C99.0416 84.6341 99.1361 84.5912 99.2375 84.5663C99.3389 84.5413 99.445 84.5348 99.5493 84.547C99.7646 84.573 99.9604 84.6707 100.096 84.8198C100.232 84.969 100.297 85.1582 100.279 85.3485Z" fill="#263238"/>
<path d="M97.3105 87.8496L99.4857 90.7511L100.913 89.3044L97.3105 87.8496Z" fill="#9A4A4D"/>
<path opacity="0.1" d="M117.648 122.078C116.159 121.305 114.751 120.418 113.439 119.429C112.394 118.591 111.405 117.469 111.838 116.287L105.938 119.281C106.973 121.204 109.44 122.351 111.542 123.405C112.679 123.974 113.823 124.525 114.975 125.06L116.28 125.669C122.791 128.594 129.586 131.043 136.344 133.484C137.169 133.78 138.063 134.085 138.929 133.904L117.648 122.078Z" fill="black"/>
<path d="M88.4277 128.386V146.119L148.346 176.521V157.994C147.419 158.011 146.502 157.82 145.683 157.437L88.4277 128.386Z" fill="#4BC7C1"/>
<path opacity="0.3" d="M88.4277 128.386V146.119L148.346 176.521V157.994C147.419 158.011 146.502 157.82 145.683 157.437L88.4277 128.386Z" fill="black"/>
<path d="M208.1 128.47C209.468 127.768 209.559 126.674 208.369 125.921C209.069 126.377 209.646 126.962 210.059 127.636C210.472 128.31 210.711 129.056 210.758 129.82V144.853L148.346 176.512V157.993C149.272 158.008 150.188 157.818 151.009 157.44L208.1 128.47Z" fill="#4BC7C1"/>
<path opacity="0.45" d="M208.1 128.47C209.468 127.768 209.559 126.674 208.369 125.921C209.069 126.377 209.646 126.962 210.059 127.636C210.472 128.31 210.711 129.056 210.758 129.82V144.853L148.346 176.512V157.993C149.272 158.008 150.188 157.818 151.009 157.44L208.1 128.47Z" fill="black"/>
<path d="M208.096 125.769L150.84 96.7178L131.843 106.356C124.142 105.37 109.81 113.634 106.485 119.224L88.4277 128.386L145.683 157.436C146.508 157.804 147.421 157.996 148.346 157.996C149.271 157.996 150.184 157.804 151.009 157.436L208.096 128.47C209.569 127.724 209.569 126.514 208.096 125.769Z" fill="#4BC7C1"/>
<path opacity="0.2" d="M208.096 125.769L150.84 96.7178L131.843 106.356C124.142 105.37 109.81 113.634 106.485 119.224L88.4277 128.386L145.683 157.436C146.508 157.804 147.421 157.996 148.346 157.996C149.271 157.996 150.184 157.804 151.009 157.436L208.096 128.47C209.569 127.724 209.569 126.514 208.096 125.769Z" fill="black"/>
<path opacity="0.1" d="M208.095 125.769L150.84 96.7178L131.843 106.356C137.648 109.598 143.348 111.462 149.253 114.451C152.103 115.894 155.413 118.25 162.646 122.583C165.017 124.005 167.853 125.656 170.854 125.388C173.134 125.192 175.108 123.993 177.292 123.384C177.761 123.236 178.259 123.173 178.756 123.2C180.922 123.396 180.762 125.684 180.794 127.067C180.845 129.197 180.166 131.291 178.847 133.078C178.537 133.459 178.323 133.894 178.218 134.353C177.944 135.78 178.742 136.866 180.293 137.467C181.843 138.068 187.931 138.669 190.89 137.154L208.095 128.426C209.559 127.724 209.559 126.51 208.095 125.769Z" fill="black"/>
<path opacity="0.1" d="M156.814 142.929C155.598 142.277 154.394 141.603 153.202 140.905C152.746 140.629 150.644 139.427 150.115 139.014C151.661 139.615 153.184 140.216 154.707 140.865C156.376 141.563 158.063 142.224 159.782 142.817C162.094 143.618 165.929 145.117 167.922 142.977C169.107 141.703 168.788 139.847 169.18 138.236C169.573 136.625 172.765 131.331 168.761 130.967C168.264 130.942 167.766 131.005 167.297 131.151C165.113 131.744 163.129 132.942 160.858 133.155C157.858 133.419 154.83 131.984 152.65 130.349C150.058 128.462 147.274 126.788 144.333 125.348C144.096 125.228 144.114 125.316 143.918 125.144C145.19 125.57 146.419 126.089 147.593 126.694C148.505 127.155 149.349 127.664 150.247 128.121C151.925 129.007 153.657 129.81 155.437 130.526C157.197 131.266 159.142 131.603 161.091 131.508C163.371 131.327 165.455 130.357 167.58 129.616C168.392 129.274 169.289 129.118 170.188 129.163C171.611 129.323 172.801 130.89 172.723 132.101C172.726 132.138 172.726 132.176 172.723 132.213C172.454 134.257 172.062 136.285 171.843 138.332C171.714 138.941 171.79 139.569 172.062 140.14C172.284 140.436 172.574 140.687 172.913 140.879C173.253 141.07 173.634 141.196 174.032 141.25C174.821 141.406 175.637 141.43 176.403 141.651C176.506 141.671 176.598 141.718 176.668 141.787C176.786 141.935 176.668 142.14 176.545 142.284C175.804 143.073 174.853 143.689 173.777 144.079C172.719 144.504 171.606 144.805 170.539 145.205C169.717 145.565 168.855 145.85 167.967 146.055C167.398 146.141 166.821 146.178 166.244 146.167C165.245 146.167 163.298 146.167 160.288 144.725C159.107 144.135 157.954 143.538 156.814 142.929Z" fill="black"/>
<path opacity="0.2" d="M98.4141 133.455V151.221L99.6681 151.822L99.6635 134.084L98.4141 133.455Z" fill="black"/>
<path opacity="0.1" d="M98.4141 133.456L114.962 125.04C118.971 120.768 133.946 110.404 142.213 111.214L160.836 101.764L162.135 102.433L143.608 111.815C135.323 112.175 123.38 118.912 116.289 125.653L99.6635 134.069L98.4141 133.456Z" fill="black"/>
<path d="M129.801 129.52C129.203 129.324 128.433 129.007 127.776 128.767C126.719 128.447 125.711 128.014 124.775 127.476C125.665 127.476 126.08 127.785 127.329 127.541C127.77 127.463 128.163 127.244 128.433 126.927C128.479 126.878 128.509 126.818 128.519 126.755C128.547 126.499 128.154 126.394 127.863 126.354C126.668 126.23 125.669 125.665 124.529 125.384C122.837 124.984 120.58 125.18 119.303 124.723C118.027 124.266 107.447 117.173 107.447 117.173C104.458 114.495 101.725 111.605 99.276 108.533C96.1843 104.601 94.798 103.062 92.5728 102.489C90.2928 103.872 90.3885 104.822 90.5253 106.533C90.6621 108.244 92.249 110.396 93.2978 111.911C94.7889 114.063 96.1615 115.45 98.747 118.399C100.112 119.935 101.676 121.326 103.407 122.543C105.906 124.314 115.792 128.735 115.792 128.735C115.792 128.735 122.071 133.46 126.508 133.211C127.753 133.139 128.624 132.931 129.55 132.137C130.416 131.392 130.95 129.905 129.801 129.52Z" fill="#B16668"/>
<path d="M92.034 102.036C89.754 103.366 89.2387 105.923 90.3878 108.688C91.537 111.454 97.7705 118.251 97.7705 118.251C97.7705 118.251 102.937 117.168 104.455 113.714C104.455 113.714 99.3574 107.254 97.7659 105.382C95.9191 103.21 93.4795 101.443 92.034 102.036Z" fill="#37474F"/>
<path d="M130.612 103.499L126.371 105.795L127.694 106.661C125.97 108.22 123.061 111.017 122.359 111.362C121.155 111.951 119.522 111.322 117.899 111.919C116.809 112.32 115.92 112.881 114.757 113.121C114.47 113.185 114.091 113.33 114.16 113.582C114.184 113.655 114.231 113.72 114.296 113.77C114.595 114.033 114.989 114.196 115.409 114.231C116.713 114.347 117.078 113.987 117.976 113.899C117.121 114.531 116.181 115.07 115.177 115.502C114.543 115.814 113.836 116.207 113.27 116.467C112.185 116.972 112.992 117.99 114.018 118.507C115 119.021 116.133 119.266 117.274 119.213C120.603 119.04 124.146 116.159 125.71 114.732C126.309 114.182 126.971 113.688 127.685 113.257C129.841 111.967 134.342 109.186 135.272 107.931C136.499 106.276 132.997 104.533 130.612 103.499Z" fill="#B16668"/>
<path d="M122.358 111.362C122.583 111.253 122.836 111.196 123.093 111.196C123.349 111.196 123.602 111.253 123.827 111.362C124.789 111.874 125.577 112.605 126.107 113.478C126.44 114.127 126.107 114.404 126.107 114.404C126.756 114.171 127.312 113.774 127.703 113.261C127.703 112.828 127.543 112.406 127.247 112.059C126.689 111.318 125.931 110.709 125.04 110.288C124.682 110.154 124.288 110.112 123.904 110.168C123.338 110.512 122.819 110.913 122.358 111.362Z" fill="#37474F"/>
<path d="M125.363 110.792L124.542 111.426C124.483 111.471 124.434 111.526 124.4 111.588C124.365 111.65 124.345 111.718 124.342 111.787C124.338 111.856 124.35 111.924 124.377 111.989C124.405 112.054 124.447 112.113 124.501 112.163L125.45 113.065C125.562 113.169 125.714 113.231 125.877 113.24C126.039 113.249 126.199 113.204 126.325 113.113L127.114 112.532C127.175 112.487 127.225 112.433 127.261 112.371C127.297 112.309 127.319 112.242 127.325 112.173C127.331 112.104 127.321 112.034 127.296 111.968C127.27 111.903 127.23 111.842 127.178 111.79L126.216 110.836C126.109 110.732 125.959 110.668 125.8 110.66C125.64 110.652 125.483 110.699 125.363 110.792Z" fill="#263238"/>
<path d="M125.363 110.608L124.542 111.241C124.483 111.286 124.434 111.342 124.4 111.404C124.365 111.466 124.345 111.533 124.342 111.602C124.338 111.671 124.35 111.74 124.377 111.805C124.405 111.87 124.447 111.929 124.501 111.979L125.45 112.881C125.561 112.981 125.712 113.04 125.871 113.049C126.03 113.057 126.187 113.013 126.312 112.925L127.1 112.34C127.161 112.296 127.211 112.241 127.247 112.18C127.283 112.119 127.305 112.052 127.311 111.983C127.317 111.914 127.307 111.845 127.282 111.779C127.257 111.714 127.217 111.654 127.164 111.602L126.202 110.648C126.096 110.547 125.949 110.486 125.792 110.478C125.635 110.471 125.481 110.517 125.363 110.608Z" fill="#455A64"/>
<path d="M125.919 112.857C125.863 112.858 125.807 112.849 125.755 112.829C125.703 112.81 125.657 112.781 125.619 112.745L124.67 111.843C124.636 111.812 124.61 111.776 124.592 111.736C124.575 111.696 124.567 111.653 124.57 111.611C124.576 111.526 124.621 111.447 124.693 111.39L125.514 110.757C125.582 110.705 125.669 110.676 125.76 110.677C125.814 110.677 125.867 110.686 125.916 110.705C125.966 110.724 126.01 110.751 126.047 110.785L127.009 111.739C127.072 111.803 127.105 111.886 127.101 111.971C127.097 112.014 127.083 112.055 127.06 112.093C127.037 112.131 127.006 112.165 126.968 112.192L126.179 112.777C126.106 112.829 126.014 112.857 125.919 112.857Z" fill="#4BC7C1"/>
</svg>
