<svg width="17" height="26" viewBox="0 0 17 26" fill="none" xmlns="http://www.w3.org/2000/svg">
<path d="M9.5625 4.55279C9.5625 3.64766 8.84744 3.1951 8.42881 3.83454L5.93512 7.64923C5.83638 7.80008 5.71917 7.9197 5.59018 8.00126C5.4612 8.08282 5.32298 8.12471 5.18341 8.12454H3.1875C2.62391 8.12454 2.08341 8.46695 1.6849 9.07644C1.28638 9.68593 1.0625 10.5126 1.0625 11.3745V14.6245C1.0625 15.4865 1.28638 16.3131 1.6849 16.9226C2.08341 17.5321 2.62391 17.8745 3.1875 17.8745H5.18341C5.32298 17.8744 5.4612 17.9163 5.59018 17.9978C5.71917 18.0794 5.83638 18.199 5.93512 18.3499L8.42881 22.1645C8.84744 22.804 9.5625 22.3514 9.5625 21.4463V4.55279ZM6.68631 8.7981L8.5 6.02423V19.9757L6.68631 17.2018C6.48897 16.8999 6.25467 16.6604 5.9968 16.497C5.73893 16.3336 5.46253 16.2495 5.18341 16.2495H3.1875C2.90571 16.2495 2.63546 16.0783 2.4362 15.7736C2.23694 15.4688 2.125 15.0555 2.125 14.6245V11.3745C2.125 10.9436 2.23694 10.5302 2.4362 10.2255C2.63546 9.92074 2.90571 9.74954 3.1875 9.74954H5.18341C5.4625 9.74966 5.73887 9.6657 5.99674 9.50245C6.25461 9.3392 6.48893 9.09986 6.68631 8.7981V8.7981ZM12.1252 7.66466C12.0861 7.57556 12.0357 7.49923 11.9771 7.44007C11.9185 7.38092 11.8528 7.34012 11.7838 7.32003C11.7149 7.29994 11.644 7.30097 11.5752 7.32305C11.5065 7.34513 11.4414 7.38782 11.3835 7.44866C11.3256 7.5095 11.2762 7.58727 11.2381 7.67749C11.2001 7.76771 11.1741 7.86858 11.1616 7.97427C11.1492 8.07997 11.1506 8.18838 11.1657 8.29324C11.1808 8.39811 11.2094 8.49735 11.2498 8.58523C11.9324 10.1046 12.2522 11.572 12.2522 12.9995C12.2522 14.4279 11.9324 15.8961 11.2498 17.4147C11.2094 17.5025 11.1808 17.6018 11.1657 17.7066C11.1506 17.8115 11.1492 17.9199 11.1616 18.0256C11.1741 18.1313 11.2001 18.2322 11.2381 18.3224C11.2762 18.4126 11.3256 18.4904 11.3835 18.5512C11.4414 18.6121 11.5065 18.6548 11.5752 18.6768C11.644 18.6989 11.7149 18.6999 11.7838 18.6799C11.8528 18.6598 11.9185 18.619 11.9771 18.5598C12.0357 18.5007 12.0861 18.4243 12.1252 18.3352C12.9035 16.6046 13.3142 14.822 13.3142 12.9995C13.3142 11.1779 12.9035 9.3961 12.1252 7.66466ZM13.6478 4.28629C13.5457 4.1376 13.4092 4.05702 13.2683 4.06228C13.1274 4.06754 12.9936 4.1582 12.8964 4.31432C12.7991 4.47044 12.7465 4.67923 12.7499 4.89477C12.7533 5.1103 12.8126 5.31491 12.9147 5.4636C14.1828 7.31041 14.8421 10.1257 14.8421 12.9995C14.8421 15.8742 14.1828 18.6895 12.9147 20.5363C12.8641 20.6099 12.8236 20.698 12.7953 20.7956C12.767 20.8932 12.7516 20.9984 12.7499 21.1051C12.7482 21.2118 12.7602 21.318 12.7854 21.4176C12.8105 21.5172 12.8482 21.6083 12.8964 21.6856C12.9445 21.7629 13.0021 21.8249 13.0659 21.8682C13.1298 21.9114 13.1985 21.935 13.2683 21.9376C13.3381 21.9402 13.4075 21.9218 13.4726 21.8833C13.5377 21.8449 13.5973 21.7872 13.6478 21.7136C15.1688 19.4979 15.904 16.2195 15.904 12.9995C15.904 9.78041 15.1688 6.50198 13.6478 4.28629V4.28629Z" fill="#4BC7C1"/>
</svg>
