
<svg width="100%" height="138" viewBox="0 0 140 138" fill="none" xmlns="http://www.w3.org/2000/svg">
    <path d="M41.4824 131.049H133.942L139.717 137.033V100.748C139.717 98.6251 138.872 96.5893 137.367 95.0884C135.862 93.5874 133.821 92.7442 131.692 92.7442H41.4824C40.4273 92.7422 39.3821 92.9478 38.4067 93.3491C37.4314 93.7504 36.5449 94.3397 35.7981 95.0831C35.0514 95.8265 34.4589 96.7094 34.0547 97.6815C33.6505 98.6535 33.4424 99.6954 33.4424 100.748V123.061C33.4444 124.112 33.6539 125.152 34.059 126.122C34.4641 127.093 35.0569 127.974 35.8035 128.716C36.55 129.457 37.4358 130.045 38.4102 130.446C39.3846 130.846 40.4285 131.051 41.4824 131.049V131.049Z" fill="#4BC7C1"/>
    <path opacity="0.4" d="M41.4824 131.049H133.942L139.717 137.033V100.748C139.717 98.6251 138.872 96.5893 137.367 95.0884C135.862 93.5874 133.821 92.7442 131.692 92.7442H41.4824C40.4273 92.7422 39.3821 92.9478 38.4067 93.3491C37.4314 93.7504 36.5449 94.3397 35.7981 95.0831C35.0514 95.8265 34.4589 96.7094 34.0547 97.6815C33.6505 98.6535 33.4424 99.6954 33.4424 100.748V123.061C33.4444 124.112 33.6539 125.152 34.059 126.122C34.4641 127.093 35.0569 127.974 35.8035 128.716C36.55 129.457 37.4358 130.045 38.4102 130.446C39.3846 130.846 40.4285 131.051 41.4824 131.049V131.049Z" fill="white"/>
    <path d="M128.692 102.117H45.4424" stroke="#4BC7C1" stroke-width="2" stroke-linecap="round" stroke-linejoin="round"/>
    <path d="M128.692 111.093H45.4424" stroke="#4BC7C1" stroke-width="2" stroke-linecap="round" stroke-linejoin="round"/>
    <path d="M112.192 120.069H45.4424" stroke="#4BC7C1" stroke-width="2" stroke-linecap="round" stroke-linejoin="round"/>
    <path opacity="0.3" d="M41.4824 131.049H133.942L139.717 137.033V100.748C139.717 98.6251 138.872 96.5893 137.367 95.0884C135.862 93.5874 133.821 92.7442 131.692 92.7442H41.4824C40.4273 92.7422 39.3821 92.9478 38.4067 93.3491C37.4314 93.7504 36.5449 94.3397 35.7981 95.0831C35.0514 95.8265 34.4589 96.7094 34.0547 97.6815C33.6505 98.6535 33.4424 99.6954 33.4424 100.748V123.061C33.4444 124.112 33.6539 125.152 34.059 126.122C34.4641 127.093 35.0569 127.974 35.8035 128.716C36.55 129.457 37.4358 130.045 38.4102 130.446C39.3846 130.846 40.4285 131.051 41.4824 131.049V131.049Z" fill="white"/>
    <path d="M107.692 80.934H15.2398L9.46484 86.918V50.6325C9.46484 48.5111 10.3093 46.4765 11.8127 44.9758C13.316 43.475 15.3553 42.6309 17.4823 42.6289H107.692C109.819 42.6309 111.859 43.475 113.362 44.9758C114.865 46.4765 115.71 48.5111 115.71 50.6325V72.9453C115.706 75.0641 114.86 77.0949 113.357 78.5924C111.854 80.0899 109.817 80.932 107.692 80.934V80.934Z" fill="#4BC7C1"/>
    <path d="M44.6924 52.001H103.942" stroke="white" stroke-width="2" stroke-linecap="round" stroke-linejoin="round"/>
    <path d="M44.6924 60.9766H103.942" stroke="white" stroke-width="2" stroke-linecap="round" stroke-linejoin="round"/>
    <path d="M44.6924 69.9531H87.4424" stroke="white" stroke-width="2" stroke-linecap="round" stroke-linejoin="round"/>
    <path d="M74.4824 30.8176H133.942L139.717 36.8016V7.99613C139.715 5.87474 138.869 3.84091 137.364 2.34157C135.859 0.842217 133.819 1.30627e-05 131.692 1.39892e-05H74.4824C73.4279 -0.00195222 72.3834 0.203367 71.4085 0.604237C70.4336 1.00511 69.5475 1.59367 68.8008 2.33628C68.0541 3.07888 67.4615 3.96097 67.0568 4.93213C66.6522 5.90328 66.4434 6.94445 66.4424 7.99613V22.829C66.4444 23.88 66.6539 24.9204 67.059 25.8907C67.4641 26.861 68.0569 27.7422 68.8034 28.484C69.55 29.2258 70.4358 29.8137 71.4102 30.2141C72.3846 30.6145 73.4285 30.8196 74.4824 30.8176V30.8176Z" fill="#4BC7C1"/>
    <path opacity="0.4" d="M74.4824 30.8176H133.942L139.717 36.8016V7.99613C139.715 5.87474 138.869 3.84091 137.364 2.34157C135.859 0.842217 133.819 1.30627e-05 131.692 1.39892e-05H74.4824C73.4279 -0.00195222 72.3834 0.203367 71.4085 0.604237C70.4336 1.00511 69.5475 1.59367 68.8008 2.33628C68.0541 3.07888 67.4615 3.96097 67.0568 4.93213C66.6522 5.90328 66.4434 6.94445 66.4424 7.99613V22.829C66.4444 23.88 66.6539 24.9204 67.059 25.8907C67.4641 26.861 68.0569 27.7422 68.8034 28.484C69.55 29.2258 70.4358 29.8137 71.4102 30.2141C72.3846 30.6145 73.4285 30.8196 74.4824 30.8176V30.8176Z" fill="white"/>
    <path d="M128.692 10.8613H78.4424" stroke="#4BC7C1" stroke-width="2" stroke-linecap="round" stroke-linejoin="round"/>
    <path d="M112.192 19.8369H78.4424" stroke="#4BC7C1" stroke-width="2" stroke-linecap="round" stroke-linejoin="round"/>
    <path opacity="0.3" d="M74.4824 30.8176H133.942L139.717 36.8016V7.99613C139.715 5.87474 138.869 3.84091 137.364 2.34157C135.859 0.842217 133.819 1.30627e-05 131.692 1.39892e-05H74.4824C73.4279 -0.00195222 72.3834 0.203367 71.4085 0.604237C70.4336 1.00511 69.5475 1.59367 68.8008 2.33628C68.0541 3.07888 67.4615 3.96097 67.0568 4.93213C66.6522 5.90328 66.4434 6.94445 66.4424 7.99613V22.829C66.4444 23.88 66.6539 24.9204 67.059 25.8907C67.4641 26.861 68.0569 27.7422 68.8034 28.484C69.55 29.2258 70.4358 29.8137 71.4102 30.2141C72.3846 30.6145 73.4285 30.8196 74.4824 30.8176V30.8176Z" fill="white"/>
    <path d="M37.5 54.9924C37.5 58.6909 36.4003 62.3063 34.3401 65.3815C32.2798 68.4567 29.3514 70.8536 25.9253 72.2689C22.4992 73.6843 18.7292 74.0546 15.0921 73.3331C11.4549 72.6115 8.11399 70.8305 5.49176 68.2153C2.86952 65.6 1.08376 62.268 0.360284 58.6406C-0.363189 55.0131 0.00812513 51.2532 1.42727 47.8362C2.84641 44.4192 5.24965 41.4987 8.33307 39.4439C11.4165 37.3891 15.0416 36.2924 18.75 36.2924C21.2168 36.2765 23.6621 36.7493 25.9441 37.6834C28.2262 38.6176 30.2995 39.9944 32.0438 41.734C33.7881 43.4737 35.1686 45.5415 36.1052 47.8174C37.0419 50.0934 37.516 52.5322 37.5 54.9924V54.9924Z" fill="#4BC7C1"/>
    <path opacity="0.5" d="M37.5 54.9924C37.5 58.6909 36.4003 62.3063 34.3401 65.3815C32.2798 68.4567 29.3514 70.8536 25.9253 72.2689C22.4992 73.6843 18.7292 74.0546 15.0921 73.3331C11.4549 72.6115 8.11399 70.8305 5.49176 68.2153C2.86952 65.6 1.08376 62.268 0.360284 58.6406C-0.363189 55.0131 0.00812513 51.2532 1.42727 47.8362C2.84641 44.4192 5.24965 41.4987 8.33307 39.4439C11.4165 37.3891 15.0416 36.2924 18.75 36.2924C21.2168 36.2765 23.6621 36.7493 25.9441 37.6834C28.2262 38.6176 30.2995 39.9944 32.0438 41.734C33.7881 43.4737 35.1686 45.5415 36.1052 47.8174C37.0419 50.0934 37.516 52.5322 37.5 54.9924V54.9924Z" fill="white"/>
    <path d="M32.3926 67.7987C30.662 69.6283 28.5783 71.0902 26.2669 72.0964C23.9555 73.1027 21.464 73.6325 18.9421 73.6542C16.4202 73.6759 13.9199 73.1889 11.5915 72.2225C9.26307 71.2561 7.15454 69.8302 5.39258 68.0306C6.27008 67.866 7.22258 67.694 8.19758 67.5444C9.02258 67.4097 9.87758 67.2826 10.7176 67.1853C15.1558 66.6183 19.6233 66.3086 24.0976 66.2578C24.6451 66.2578 25.1851 66.3177 25.7251 66.3177C27.1201 66.3999 28.4476 66.5421 29.5951 66.6842C30.6085 66.8084 31.5723 67.1924 32.3926 67.7987V67.7987Z" fill="#2E353A"/>
    <path d="M28.23 41.0953C28.23 41.0953 29.2275 47.76 24.915 50.8791C20.6025 53.9983 20.6025 38.9111 20.6025 38.9111L28.23 41.0953Z" fill="#2E353A"/>
    <path d="M10.6953 67.148C13.5678 69.751 20.6028 68.7861 20.6028 68.7861C20.6028 68.7861 24.9978 67.5893 24.0753 66.2204C21.4878 65.7941 20.2353 64.5898 19.7178 63.0489C19.4344 62.0938 19.3452 61.0918 19.4553 60.1018C19.4983 59.5498 19.5709 59.0005 19.6728 58.4562L10.9428 52.001C12.1128 56.2721 13.5078 64.0737 10.6953 67.148Z" fill="#E4897B"/>
    <path opacity="0.2" d="M12.9824 56.1152C13.3274 61.3512 17.6174 62.7575 19.7324 63.0492C19.449 62.0941 19.3598 61.0921 19.4699 60.1021L12.9824 56.1152Z" fill="black"/>
    <path d="M12.3976 57.3189C13.3015 58.653 14.6194 59.6544 16.1491 60.1692C17.6787 60.6841 19.3356 60.6839 20.8651 60.1688C22.8544 59.5369 24.5294 58.1764 25.5526 56.3615C25.6951 56.1188 25.8253 55.8692 25.9426 55.6135C28.0651 50.6617 28.7401 41.9998 23.4901 38.7535C22.3357 38.0304 21.0151 37.6137 19.6537 37.543C18.2923 37.4723 16.9354 37.75 15.7119 38.3496C14.4884 38.9492 13.439 39.8509 12.6633 40.9689C11.8876 42.087 11.4115 43.3843 11.2801 44.7375C10.6351 50.5046 9.98263 53.8931 12.3976 57.3189Z" fill="#E4897B"/>
    <path d="M19.74 47.8268C19.6275 48.2831 19.845 48.7094 20.1525 48.7618C20.46 48.8142 20.775 48.4776 20.8575 48.0138C20.94 47.5501 20.745 47.1312 20.445 47.0788C20.145 47.0265 19.83 47.3481 19.74 47.8268Z" fill="#2E353A"/>
    <path d="M25.0428 48.725C24.9303 49.1813 25.1478 49.6152 25.4553 49.6675C25.7628 49.7199 26.0703 49.3758 26.1528 48.9195C26.2353 48.4633 26.0478 48.0294 25.7403 47.977C25.4328 47.9247 25.1178 48.2613 25.0428 48.725Z" fill="#2E353A"/>
    <path d="M23.3174 48.6719C23.6334 50.194 24.1557 51.6661 24.8699 53.0477C24.5061 53.2179 24.1092 53.3061 23.7074 53.3061C23.3056 53.3061 22.9087 53.2179 22.5449 53.0477L23.3174 48.6719Z" fill="#DE5753"/>
    <path d="M18.3898 45.8303C18.4383 45.8468 18.4904 45.8499 18.5405 45.8394C18.5907 45.8289 18.6371 45.805 18.6748 45.7704C18.9242 45.525 19.2277 45.341 19.5611 45.2332C19.8944 45.1254 20.2484 45.0968 20.5948 45.1496C20.6303 45.1584 20.6671 45.1602 20.7033 45.1548C20.7394 45.1495 20.7741 45.1371 20.8055 45.1183C20.8368 45.0996 20.8642 45.0748 20.8859 45.0455C20.9077 45.0162 20.9234 44.983 20.9323 44.9476C20.9412 44.9123 20.943 44.8755 20.9376 44.8394C20.9322 44.8034 20.9198 44.7687 20.9009 44.7375C20.8821 44.7062 20.8574 44.679 20.828 44.6573C20.7986 44.6356 20.7653 44.6198 20.7298 44.611C20.2943 44.5329 19.8464 44.56 19.4235 44.6901C19.0007 44.8203 18.6154 45.0497 18.2998 45.359C18.2485 45.4108 18.2197 45.4807 18.2197 45.5535C18.2197 45.6263 18.2485 45.6962 18.2998 45.748V45.748C18.3244 45.7807 18.3549 45.8086 18.3898 45.8303V45.8303Z" fill="#2E353A"/>
    <path d="M21.375 55.3746C20.6864 55.3643 20.0106 55.1874 19.4057 54.8591C18.8008 54.5307 18.285 54.0608 17.9025 53.4896C17.8918 53.4732 17.8848 53.4547 17.8817 53.4353C17.8786 53.416 17.8795 53.3962 17.8844 53.3772C17.8894 53.3583 17.8982 53.3405 17.9103 53.3251C17.9224 53.3097 17.9376 53.297 17.9549 53.2877C17.9868 53.2681 18.0252 53.2618 18.0617 53.2702C18.0982 53.2786 18.1299 53.301 18.15 53.3326V53.3326C18.5158 53.8532 18.9986 54.2812 19.5599 54.5825C20.1211 54.8838 20.7453 55.0501 21.3824 55.0679C21.4197 55.0697 21.4549 55.0853 21.4812 55.1116C21.5075 55.1378 21.5231 55.1729 21.5249 55.21V55.21C21.5249 55.2477 21.5099 55.2839 21.4832 55.3105C21.4565 55.3372 21.4202 55.3521 21.3824 55.3521L21.375 55.3746Z" fill="#2E353A"/>
    <path d="M27.6296 47.2887C27.6768 47.3183 27.7314 47.3338 27.7871 47.3335C27.8228 47.324 27.8562 47.3075 27.8854 47.285C27.9146 47.2625 27.9389 47.2344 27.9571 47.2023C27.9752 47.1703 27.9868 47.135 27.9911 47.0984C27.9954 47.0619 27.9924 47.0248 27.9821 46.9895V46.9895C27.8676 46.5622 27.6518 46.1686 27.353 45.8418C27.0541 45.5151 26.6808 45.2648 26.2646 45.112C26.2297 45.1006 26.1928 45.0964 26.1562 45.0997C26.1196 45.1031 26.084 45.1138 26.0517 45.1313C26.0194 45.1488 25.991 45.1727 25.9683 45.2016C25.9456 45.2304 25.9291 45.2635 25.9196 45.299V45.299C25.9093 45.3339 25.9059 45.3704 25.9097 45.4066C25.9135 45.4428 25.9245 45.4778 25.9419 45.5098C25.9593 45.5418 25.9829 45.57 26.0112 45.5928C26.0396 45.6157 26.0722 45.6328 26.1071 45.6431V45.6431C26.4306 45.7723 26.7196 45.9747 26.9513 46.2343C27.1829 46.4939 27.351 46.8036 27.4421 47.1391C27.4592 47.1771 27.4851 47.2105 27.5177 47.2365C27.5503 47.2625 27.5887 47.2804 27.6296 47.2887V47.2887Z" fill="#2E353A"/>
    <path d="M11.9771 63.8418L20.2946 67.5818L20.7821 64.5898L23.8346 65.6594C24.3693 65.8442 24.8253 66.2046 25.1278 66.6816C25.4303 67.1586 25.5614 67.7239 25.4996 68.2849L25.1546 71.5761L20.9396 69.2723L18.8396 72.2643L8.84961 67.4696L11.9771 63.8418Z" fill="#4BC7C1"/>
    <path d="M18.7729 40.4069C20.225 41.6909 21.8965 42.7044 23.7079 43.3989L22.1029 40.4069C22.1029 40.4069 25.8529 43.6981 29.6929 45.0893C29.6929 45.0893 31.3804 36.7641 21.5329 33.4879C13.1929 30.7203 11.6929 36.2929 11.6929 36.2929C6.44293 34.7071 0.517926 49.6671 11.9329 56.6235C11.9329 56.6235 11.0179 50.7966 12.4204 49.6671C13.8229 48.5376 19.2829 44.9921 18.7729 40.4069Z" fill="#2E353A"/>
    <path d="M7.94278 49.0086C8.36229 50.4161 9.3218 51.6015 10.6128 52.3073C12.3303 53.2274 13.6128 51.7912 13.4928 49.9586C13.3728 48.3205 12.3603 45.8222 10.4928 45.68C8.62528 45.5379 7.47028 47.2733 7.94278 49.0086Z" fill="#E4897B"/>
</svg> 
