<svg width="170" height="156" viewBox="0 0 250 214" fill="none" xmlns="http://www.w3.org/2000/svg">
<g clip-path="url(#clip0_44_840)">
<path d="M250.386 164.229H0V164.331H250.386V164.229Z" fill="#EBEBEB"/>
<path d="M225.297 170.642H208.712V170.743H225.297V170.642Z" fill="#EBEBEB"/>
<path d="M165.866 171.726H161.515V171.827H165.866V171.726Z" fill="#EBEBEB"/>
<path d="M208.211 166.943H198.602V167.045H208.211V166.943Z" fill="#EBEBEB"/>
<path d="M47.8989 167.613H26.2705V167.715H47.8989V167.613Z" fill="#EBEBEB"/>
<path d="M55.5302 167.613H52.3604V167.715H55.5302V167.613Z" fill="#EBEBEB"/>
<path d="M112.749 169.294H65.8369V169.396H112.749V169.294Z" fill="#EBEBEB"/>
<path d="M118.683 146.457H21.9892C21.2317 146.456 20.5057 146.216 19.9705 145.789C19.4353 145.362 19.1348 144.784 19.1348 144.182V36.0191C19.1414 35.4198 19.4448 34.8468 19.9793 34.4245C20.5137 34.0022 21.236 33.7647 21.9892 33.7637H118.683C119.442 33.7637 120.169 34.0034 120.705 34.4301C121.241 34.8568 121.543 35.4356 121.543 36.0391V144.182C121.543 144.785 121.241 145.364 120.705 145.79C120.169 146.217 119.442 146.457 118.683 146.457ZM21.9892 33.8434C21.2649 33.8444 20.5707 34.0741 20.059 34.482C19.5473 34.89 19.26 35.4428 19.26 36.0191V144.182C19.26 144.758 19.5473 145.311 20.059 145.719C20.5707 146.127 21.2649 146.356 21.9892 146.357H118.683C119.408 146.356 120.103 146.127 120.615 145.719C121.128 145.311 121.416 144.758 121.417 144.182V36.0191C121.416 35.4424 121.128 34.8896 120.615 34.4818C120.103 34.074 119.408 33.8444 118.683 33.8434H21.9892Z" fill="#EBEBEB"/>
<path d="M227.005 146.457H130.306C129.548 146.456 128.821 146.216 128.285 145.789C127.749 145.363 127.448 144.785 127.446 144.182V36.0191C127.454 35.4194 127.759 34.8464 128.294 34.4242C128.829 34.002 129.552 33.7647 130.306 33.7637H227.005C227.757 33.7657 228.478 34.0037 229.011 34.4259C229.545 34.848 229.848 35.4205 229.854 36.0191V144.182C229.854 144.784 229.554 145.361 229.02 145.788C228.486 146.214 227.761 146.455 227.005 146.457ZM130.306 33.8434C129.581 33.8444 128.886 34.074 128.374 34.4818C127.861 34.8896 127.573 35.4424 127.571 36.0191V144.182C127.573 144.758 127.861 145.311 128.374 145.719C128.886 146.127 129.581 146.356 130.306 146.357H227.005C227.73 146.356 228.424 146.127 228.937 145.719C229.449 145.311 229.738 144.758 229.739 144.182V36.0191C229.738 35.4424 229.449 34.8896 228.937 34.4818C228.424 34.074 227.73 33.8444 227.005 33.8434H130.306Z" fill="#EBEBEB"/>
<path d="M78.1554 133.131L71.2197 137.745L81.125 149.174L89.0172 145.667C93.2476 148.901 98.207 151.469 103.635 153.239L102.833 160.38L119.975 162.902L122.434 156C128.289 155.892 134.065 154.905 139.46 153.091L145.259 158.61L159.621 150.748L155.214 144.464C159.278 141.1 162.507 137.154 164.729 132.836L173.703 133.47L176.863 119.837L168.189 117.877C168.053 113.218 166.813 108.621 164.534 104.328L171.469 99.7135L161.589 88.2887L153.692 91.7915C149.463 88.5586 144.505 85.9899 139.079 84.2201L139.881 77.0752L122.739 74.5527L120.275 81.4546C114.421 81.5653 108.645 82.5521 103.249 84.3636L97.4302 78.8325L83.073 86.6948L87.4748 92.975C83.4121 96.3416 80.1841 100.288 77.9601 104.607L68.9813 103.969L65.8164 117.606L74.4848 119.566C74.6233 124.231 75.8687 128.834 78.1554 133.131ZM98.1513 115.306C98.9987 111.654 101.188 108.284 104.443 105.622C107.697 102.96 111.871 101.126 116.435 100.351C121 99.577 125.75 99.8972 130.086 101.271C134.422 102.646 138.149 105.012 140.794 108.072C143.44 111.131 144.886 114.746 144.95 118.46C145.013 122.174 143.691 125.819 141.151 128.934C138.611 132.05 134.967 134.497 130.68 135.964C126.393 137.432 121.655 137.855 117.065 137.18C110.913 136.274 105.463 133.461 101.917 129.36C98.3696 125.258 97.0152 120.203 98.1513 115.306Z" fill="#F0F0F0"/>
<path d="M192.742 138.898L198.155 139.695L198.937 137.511C200.789 137.478 202.617 137.167 204.325 136.595L206.158 138.336L210.695 135.853L209.303 133.861C210.584 132.797 211.603 131.55 212.307 130.187L215.142 130.386L216.143 126.074L213.404 125.457C213.361 123.982 212.969 122.528 212.247 121.169L214.44 119.711L211.326 116.1L208.822 117.208C207.481 116.189 205.914 115.378 204.2 114.817L204.455 112.562L199.037 111.765L198.255 113.944C196.403 113.979 194.575 114.291 192.867 114.865L191.034 113.12L186.497 115.606L187.89 117.599C186.605 118.662 185.585 119.911 184.885 121.277L182.045 121.073L181.044 125.385L183.783 126.007C183.829 127.481 184.221 128.935 184.94 130.294L182.782 131.745L185.901 135.355L188.405 134.247C189.743 135.269 191.311 136.08 193.027 136.638L192.742 138.898ZM191.265 124.652C191.533 123.498 192.225 122.433 193.253 121.592C194.282 120.751 195.601 120.172 197.043 119.927C198.485 119.683 199.986 119.784 201.356 120.218C202.726 120.652 203.903 121.4 204.739 122.367C205.575 123.333 206.032 124.476 206.053 125.649C206.073 126.822 205.656 127.974 204.853 128.959C204.051 129.943 202.9 130.717 201.545 131.181C200.191 131.645 198.694 131.779 197.244 131.566C196.28 131.425 195.361 131.134 194.539 130.71C193.717 130.286 193.008 129.738 192.453 129.095C191.897 128.453 191.507 127.73 191.303 126.968C191.099 126.205 191.086 125.418 191.265 124.652Z" fill="#F0F0F0"/>
<path d="M41.6888 138.359L45.8151 138.965L46.411 137.303C47.8211 137.275 49.2121 137.037 50.5124 136.602L51.9095 137.929L55.3699 136.036L54.3082 134.522C55.2853 133.715 56.0618 132.769 56.5967 131.732L58.7601 131.884L59.5212 128.6L57.433 128.13C57.402 127.006 57.1029 125.897 56.5517 124.862L58.2242 123.751L55.8406 121.001L53.9426 121.83C52.926 121.055 51.7374 120.438 50.4372 120.009L50.6325 118.291L46.5012 117.682L45.9103 119.343C44.4986 119.372 43.106 119.61 41.8039 120.045L40.4118 118.718L36.9364 120.634L37.9981 122.149C37.0199 122.955 36.2433 123.901 35.7095 124.938L33.5512 124.779L32.79 128.062L34.8783 128.533C34.909 129.653 35.2064 130.759 35.7546 131.792L34.082 132.904L36.4607 135.654L38.3636 134.809C39.3779 135.587 40.567 136.206 41.869 136.634L41.6888 138.359ZM40.562 127.508C40.7669 126.63 41.2945 125.819 42.0781 125.179C42.8618 124.539 43.8663 124.098 44.9647 123.913C46.0632 123.727 47.2061 123.804 48.2492 124.135C49.2923 124.466 50.1886 125.036 50.8248 125.772C51.4611 126.509 51.8087 127.379 51.8237 128.272C51.8388 129.166 51.5206 130.043 50.9094 130.792C50.2982 131.542 49.4214 132.131 48.3898 132.484C47.3583 132.837 46.2183 132.939 45.114 132.776C43.6329 132.558 42.3214 131.88 41.4679 130.892C40.6143 129.904 40.2885 128.687 40.562 127.508Z" fill="#F0F0F0"/>
<path d="M115.378 65.1889L118.503 65.6471L118.949 64.3879C120.018 64.3708 121.074 64.1909 122.059 63.8579L123.115 64.8661L125.729 63.4315L124.928 62.2878C125.668 61.674 126.255 60.9548 126.661 60.1679L128.293 60.2834L128.869 57.8008L127.292 57.4422C127.265 56.5928 127.04 55.7548 126.626 54.9715L127.888 54.1307L126.09 52.0506L124.653 52.6882C123.882 52.0953 122.979 51.6235 121.989 51.2975L122.134 49.9944L119.009 49.5361L118.563 50.7954C117.495 50.812 116.441 50.992 115.458 51.3254L114.402 50.3172L111.783 51.7517L112.589 52.8954C111.848 53.5084 111.26 54.2278 110.856 55.0154L109.219 54.8998L108.668 57.3944L110.245 57.753C110.272 58.6024 110.498 59.4404 110.911 60.2237L109.649 61.0645L111.452 63.1446L112.889 62.507C113.658 63.0962 114.561 63.564 115.549 63.8858L115.378 65.1889ZM114.532 56.976C114.687 56.3111 115.086 55.6977 115.678 55.2133C116.271 54.7289 117.031 54.3952 117.862 54.2544C118.693 54.1137 119.558 54.1721 120.347 54.4224C121.137 54.6727 121.815 55.1036 122.297 55.6606C122.778 56.2176 123.041 56.8758 123.053 57.5518C123.065 58.2279 122.824 58.8915 122.362 59.4588C121.899 60.0261 121.236 60.4716 120.456 60.7389C119.675 61.0063 118.813 61.0835 117.977 60.9609C117.422 60.8794 116.893 60.7116 116.419 60.4672C115.945 60.2228 115.537 59.9066 115.217 59.5365C114.897 59.1664 114.672 58.7498 114.554 58.3105C114.437 57.8711 114.429 57.4176 114.532 56.976Z" fill="#F0F0F0"/>
<path d="M192.337 90.5447L194.42 90.8516L194.72 90.0147C195.432 90.0012 196.133 89.8809 196.789 89.6601L197.495 90.3295L199.242 89.3772L198.706 88.612C199.2 88.2049 199.591 87.726 199.858 87.2014L200.95 87.2771L201.336 85.6194L200.284 85.3803C200.266 84.8143 200.115 84.256 199.838 83.7345L200.68 83.1726L199.478 81.7859L198.521 82.2083C198.006 81.8165 197.403 81.5056 196.743 81.2918L196.844 80.423L194.76 80.1162L194.46 80.957C193.749 80.9692 193.047 81.0882 192.392 81.3077L191.686 80.6382L189.938 81.5946L190.474 82.3557C189.98 82.7644 189.589 83.2446 189.322 83.7704L188.23 83.6947L187.845 85.3484L188.896 85.5875C188.913 86.1548 189.065 86.7145 189.342 87.2373L188.501 87.7951L189.703 89.1859L190.659 88.7595C191.174 89.1524 191.777 89.4647 192.437 89.68L192.337 90.5447ZM191.796 85.0695C191.898 84.6251 192.164 84.215 192.56 83.8911C192.956 83.5671 193.463 83.3438 194.019 83.2494C194.574 83.155 195.152 83.1938 195.679 83.3609C196.207 83.528 196.66 83.8158 196.982 84.188C197.304 84.5601 197.479 84.9999 197.487 85.4516C197.495 85.9033 197.334 86.3467 197.025 86.7256C196.716 87.1046 196.272 87.402 195.751 87.5803C195.229 87.7586 194.653 87.8098 194.094 87.7274C193.347 87.617 192.685 87.2751 192.254 86.7768C191.823 86.2785 191.658 85.6644 191.796 85.0695Z" fill="#F0F0F0"/>
<path d="M166.933 145.48C166.962 146.47 167.225 147.446 167.709 148.358L166.257 149.326L168.355 151.749L170.028 151.004C170.926 151.685 171.978 152.226 173.127 152.598L172.957 154.112L176.593 154.646L177.094 153.183C178.337 153.159 179.563 152.95 180.709 152.566L181.936 153.733L184.981 152.068L184.049 150.737C184.906 150.022 185.586 149.185 186.052 148.27L187.955 148.405L188.626 145.512L186.789 145.114C186.762 144.124 186.498 143.148 186.012 142.237L187.485 141.26L185.391 138.838L183.714 139.579C182.819 138.896 181.768 138.355 180.619 137.985L180.784 136.467L177.154 135.933L176.653 137.399C175.41 137.421 174.183 137.629 173.037 138.013L171.805 136.845L168.761 138.511L169.697 139.842C168.842 140.557 168.163 141.394 167.694 142.308L165.791 142.173L165.12 145.066L166.933 145.48ZM171.941 144.58C172.119 143.804 172.583 143.088 173.273 142.522C173.964 141.956 174.85 141.565 175.819 141.4C176.788 141.235 177.797 141.303 178.718 141.595C179.639 141.886 180.431 142.389 180.992 143.039C181.554 143.689 181.861 144.457 181.874 145.245C181.887 146.034 181.605 146.808 181.065 147.469C180.525 148.131 179.75 148.649 178.839 148.96C177.928 149.271 176.921 149.359 175.947 149.214C174.645 149.02 173.494 148.423 172.744 147.554C171.994 146.686 171.707 145.616 171.946 144.58H171.941Z" fill="#F0F0F0"/>
<path d="M76.1722 92.625C76.6279 94.4182 73.8987 96.3748 70.0778 96.9885C66.2569 97.6021 62.7915 96.6418 62.3358 94.8486C61.8801 93.0554 64.6093 91.0948 68.4302 90.4652C72.2511 89.8356 75.7165 90.8278 76.1722 92.625Z" fill="#E0E0E0"/>
<path d="M77.6497 86.1814C77.9541 85.8407 78.0782 85.4186 77.9952 85.0058C77.5495 83.2405 72.4867 82.5711 66.6577 83.5035C60.8287 84.436 56.4921 86.6277 56.9377 88.389C57.0682 88.7939 57.3891 89.1434 57.8341 89.3653C57.7654 89.5571 57.7534 89.759 57.7991 89.9551C57.9283 90.3564 58.2525 90.7004 58.7005 90.9115C58.6236 91.1088 58.6081 91.318 58.6554 91.5212C58.7212 91.7198 58.8367 91.9059 58.995 92.0682C59.1534 92.2304 59.3513 92.3656 59.5768 92.4656C59.4905 92.6639 59.4698 92.8767 59.5167 93.0832C59.5836 93.2822 59.7012 93.468 59.8623 93.6291C60.0235 93.7902 60.2246 93.9232 60.4532 94.0197C60.3548 94.2199 60.3288 94.438 60.378 94.6493C60.7486 96.1157 64.9701 96.6736 69.8026 95.8966C74.635 95.1195 78.2556 93.3024 77.885 91.836C77.8237 91.6261 77.6922 91.4333 77.5045 91.2781C77.669 91.1199 77.7901 90.9361 77.86 90.7384C77.9298 90.5408 77.9469 90.3336 77.9101 90.1304C77.8551 89.9241 77.7324 89.733 77.5545 89.5765C77.7125 89.4141 77.828 89.2282 77.8942 89.0297C77.9604 88.8313 77.976 88.6242 77.9401 88.4209C77.8854 88.22 77.7703 88.0327 77.6046 87.875C77.9144 87.5421 78.0458 87.1252 77.9702 86.7154C77.9154 86.5204 77.8058 86.3378 77.6497 86.1814Z" fill="#EBEBEB"/>
<path d="M82.4017 69.1179C81.777 66.6095 80.3642 64.2679 78.295 62.3113C76.2259 60.3548 73.5677 58.8471 70.5685 57.9289C67.5693 57.0106 64.3267 56.7118 61.1431 57.0601C57.9595 57.4085 54.9387 58.3927 52.3622 59.921C49.7858 61.4494 47.7377 63.472 46.409 65.8004C45.0802 68.1287 44.5141 70.6869 44.7634 73.2364C45.0127 75.7859 46.0693 78.2436 47.8347 80.3803C49.6001 82.5171 52.0167 84.2633 54.8593 85.456C55.3147 85.6429 55.7052 85.9164 55.9961 86.2521C56.287 86.5879 56.4693 86.9755 56.5268 87.3807C56.5268 87.4206 56.5268 87.4604 56.5268 87.5003C56.9825 89.2935 62.1405 89.9749 68.0446 89.0265C73.9487 88.0781 78.3655 85.8386 77.9098 84.0653C77.9098 84.0255 77.9098 83.9896 77.8747 83.9497C77.7312 83.5545 77.7122 83.1372 77.8197 82.7347C77.9271 82.3323 78.1576 81.9571 78.4907 81.6425C80.2639 79.914 81.5343 77.8945 82.2105 75.729C82.8867 73.5636 82.952 71.3058 82.4017 69.1179Z" fill="#F5F5F5"/>
<path d="M70.7037 86.0978H70.6587C70.5984 86.0999 70.5394 86.0832 70.4945 86.0512C70.4495 86.0191 70.4222 85.9743 70.4183 85.9264C70.4183 85.6315 69.9526 78.9687 73.5581 75.7768L70.7939 76.2191C70.7504 76.2277 70.7045 76.225 70.6631 76.2114C70.6217 76.1978 70.5868 76.174 70.5635 76.1434L69.1914 74.5495L67.9795 78.3949C67.9682 78.4279 67.946 78.4579 67.9152 78.4817C67.8843 78.5055 67.846 78.5223 67.8043 78.5304C67.7618 78.5375 67.7176 78.535 67.6768 78.523C67.636 78.511 67.6004 78.4901 67.5739 78.4627L64.5693 75.2747L63.2472 78.6978C63.238 78.7304 63.2161 78.7599 63.1847 78.782C63.1532 78.8042 63.1138 78.8179 63.072 78.8213C63.0319 78.8266 62.9908 78.824 62.9523 78.8135C62.9139 78.8031 62.8793 78.7852 62.8516 78.7615L59.9672 76.004L59.4664 77.9167C59.4595 77.9517 59.4388 77.9841 59.4073 78.0092C59.3758 78.0343 59.3352 78.0507 59.2911 78.0562L56.2865 78.5344C57.7888 79.3911 62.6013 82.4237 63.763 87.0063C63.769 87.0296 63.7691 87.0536 63.7633 87.0769C63.7576 87.1002 63.7462 87.1224 63.7296 87.1422C63.7131 87.162 63.6919 87.179 63.6671 87.1923C63.6423 87.2056 63.6145 87.2148 63.5853 87.2195C63.556 87.2242 63.5259 87.2243 63.4966 87.2197C63.4673 87.2152 63.4394 87.2061 63.4145 87.1929C63.3896 87.1798 63.3682 87.1629 63.3516 87.1432C63.3349 87.1235 63.3233 87.1013 63.3174 87.078C61.9753 81.802 55.6555 78.626 55.5904 78.5981C55.5515 78.5787 55.5208 78.5505 55.5022 78.5171C55.4836 78.4837 55.4779 78.4466 55.486 78.4106C55.4941 78.3746 55.5155 78.3414 55.5475 78.3152C55.5795 78.2889 55.6206 78.2709 55.6656 78.2634L59.0257 77.7255L59.5866 75.5656C59.5942 75.5321 59.6138 75.5011 59.6432 75.4763C59.6725 75.4516 59.7103 75.4341 59.7519 75.4262C59.7934 75.4166 59.8375 75.4172 59.8786 75.4278C59.9197 75.4385 59.9558 75.4587 59.9822 75.4859L62.8867 78.2475L64.2488 74.8085C64.2602 74.7759 64.283 74.7465 64.3146 74.7238C64.3461 74.7011 64.3851 74.6859 64.427 74.6801C64.4689 74.6742 64.512 74.678 64.5514 74.6908C64.5907 74.7037 64.6247 74.7251 64.6494 74.7527L67.654 77.9406L68.8759 74.0872C68.8869 74.0538 68.9097 74.0236 68.9417 74.0003C68.9737 73.977 69.0134 73.9615 69.0562 73.9557C69.099 73.9487 69.1435 73.9521 69.1837 73.9656C69.2239 73.9792 69.2581 74.0021 69.2816 74.0314L70.854 75.8486L74.2091 75.3106C74.2583 75.3012 74.3101 75.3057 74.3557 75.3231C74.4013 75.3405 74.4379 75.3698 74.4595 75.4062C74.4814 75.4416 74.4883 75.4817 74.4793 75.5204C74.4703 75.5592 74.4458 75.5946 74.4095 75.6214C70.3782 78.4786 70.869 85.8387 70.874 85.9144C70.8758 85.9558 70.86 85.9964 70.829 86.0297C70.7981 86.063 70.754 86.087 70.7037 86.0978Z" fill="#E0E0E0"/>
<path d="M184.69 64.4359C184.69 61.9321 183.16 59.6679 180.69 58.0415C180.772 57.7108 180.814 57.3738 180.815 57.0357C180.815 53.6973 176.85 50.9838 171.915 50.9068C170.415 47.6754 165.955 45.3428 160.665 45.3428C156.455 45.3428 152.76 46.8322 150.665 49.0707C150.137 49.0087 149.604 48.9773 149.07 48.9765C144.04 48.9765 139.96 51.7243 139.96 55.114C139.96 55.688 140.078 56.2575 140.31 56.7961C137.105 58.2384 134.99 60.6951 134.99 63.4857C134.99 66.1735 136.95 68.5489 139.96 70.0084V70.094C139.96 73.3853 143.8 76.086 148.63 76.223C151.29 78.4486 155.37 79.8738 159.945 79.8738C162.949 79.896 165.908 79.2438 168.525 77.9821C168.937 78.0216 169.351 78.0416 169.765 78.042C174.795 78.042 178.875 75.2942 178.875 71.9045V71.8445C182.395 70.2181 184.69 67.5089 184.69 64.4359Z" fill="#4BC7C1"/>
<path d="M134.595 82.4587C134.595 83.0194 133.835 83.4731 132.9 83.4731C131.965 83.4731 131.205 83.0194 131.205 82.4587C131.205 81.898 131.965 81.4443 132.9 81.4443C133.835 81.4443 134.595 81.898 134.595 82.4587Z" fill="#4BC7C1"/>
<path d="M146.335 80.0367C146.335 81.6588 144.13 82.9727 141.41 82.9727C138.69 82.9727 136.5 81.6673 136.5 80.0367C136.5 78.406 138.705 77.1006 141.425 77.1006C144.145 77.1006 146.335 78.4274 146.335 80.0367Z" fill="#4BC7C1"/>
<path opacity="0.7" d="M184.69 64.4359C184.69 61.9321 183.16 59.6679 180.69 58.0415C180.772 57.7108 180.814 57.3738 180.815 57.0357C180.815 53.6973 176.85 50.9838 171.915 50.9068C170.415 47.6754 165.955 45.3428 160.665 45.3428C156.455 45.3428 152.76 46.8322 150.665 49.0707C150.137 49.0087 149.604 48.9773 149.07 48.9765C144.04 48.9765 139.96 51.7243 139.96 55.114C139.96 55.688 140.078 56.2575 140.31 56.7961C137.105 58.2384 134.99 60.6951 134.99 63.4857C134.99 66.1735 136.95 68.5489 139.96 70.0084V70.094C139.96 73.3853 143.8 76.086 148.63 76.223C151.29 78.4486 155.37 79.8738 159.945 79.8738C162.949 79.896 165.908 79.2438 168.525 77.9821C168.937 78.0216 169.351 78.0416 169.765 78.042C174.795 78.042 178.875 75.2942 178.875 71.9045V71.8445C182.395 70.2181 184.69 67.5089 184.69 64.4359Z" fill="white"/>
<path opacity="0.7" d="M134.595 82.4587C134.595 83.0194 133.835 83.4731 132.9 83.4731C131.965 83.4731 131.205 83.0194 131.205 82.4587C131.205 81.898 131.965 81.4443 132.9 81.4443C133.835 81.4443 134.595 81.898 134.595 82.4587Z" fill="white"/>
<path opacity="0.7" d="M146.335 80.0367C146.335 81.6588 144.13 82.9727 141.41 82.9727C138.69 82.9727 136.5 81.6673 136.5 80.0367C136.5 78.406 138.705 77.1006 141.425 77.1006C144.145 77.1006 146.335 78.4274 146.335 80.0367Z" fill="white"/>
<path d="M160.09 51.54C164.955 51.54 167.965 53.496 167.965 56.9756C167.965 61.6836 162.375 62.2871 162.375 65.9208H157.55C157.55 61.1401 162.015 60.8576 162.015 57.8787C162.015 56.5947 161.07 55.9827 159.475 55.9827C157.695 55.9827 156.75 56.8815 156.715 58.7476H151.745C151.78 54.1808 154.9 51.54 160.09 51.54ZM163 70.9584C163 71.6633 162.673 72.3394 162.091 72.8378C161.508 73.3363 160.719 73.6163 159.895 73.6163C159.072 73.6163 158.282 73.3363 157.7 72.8378C157.117 72.3394 156.79 71.6633 156.79 70.9584C156.79 70.2535 157.117 69.5774 157.7 69.079C158.282 68.5805 159.072 68.3005 159.895 68.3005C160.719 68.3005 161.508 68.5805 162.091 69.079C162.673 69.5774 163 70.2535 163 70.9584Z" fill="#4BC7C1"/>
<path d="M134.471 115.474C138.901 120.401 143.626 125.575 149.346 129.32C150.362 130.002 151.507 130.53 152.731 130.882C152.816 130.904 152.731 130.942 152.631 131.002C152.531 131.062 152.571 131.054 152.571 131.088C152.571 131.122 152.416 131.208 152.376 131.238C151.861 131.651 151.542 132.211 151.481 132.813C151.481 132.933 151.511 132.924 151.511 132.847C151.206 130.878 149.811 128.939 148.631 127.103C143.856 120.2 137.851 113.75 132.086 107.33L136.586 103.555C141.651 107.243 146.428 111.212 150.886 115.436C154.326 118.732 157.686 122.19 160.296 126.166C162.891 129.971 164.441 135.368 159.821 138.719C157.775 140.185 155.193 140.99 152.526 140.992C143.776 140.889 135.776 133.827 130.411 128.751C128.123 126.52 125.988 124.178 124.016 121.736L134.456 115.474H134.471Z" fill="#DC897C"/>
<path d="M121.751 99.0302L127.026 98.8119C127.612 98.7898 128.192 98.9244 128.686 99.1971L136.856 103.73L135.501 108.605C130.411 111.352 126.066 108.827 124.736 107.89C124.428 107.671 124.068 107.513 123.681 107.428L120.791 106.764C120.145 106.617 119.583 106.277 119.203 105.806C118.824 105.336 118.653 104.765 118.721 104.196L119.081 101.2C119.146 100.624 119.452 100.087 119.943 99.6887C120.433 99.2901 121.075 99.0563 121.751 99.0302Z" fill="#E4897B"/>
<path d="M149.96 129.312L144.67 143.739C144.67 143.739 144.075 143.47 143.105 143.003C140.55 141.775 135.38 139.198 131.56 136.643C129.34 135.162 127.56 133.69 127.06 132.492C125.285 128.468 135.85 114.203 135.85 114.203C139.17 114.914 143.2 120.067 143.2 120.067C143.2 120.067 148.685 126.688 149.96 129.312Z" fill="#4BC7C1"/>
<path opacity="0.2" d="M143.106 143.003C140.551 141.775 135.381 139.198 131.561 136.643C131.463 134.609 131.646 132.572 132.106 130.574C132.106 130.574 140.596 134.692 143.106 143.003Z" fill="black"/>
<path d="M135.845 114.207C135.845 114.207 146.085 136.788 136.18 178.788L89.5004 178.689C89.1954 172.556 92.4404 143.837 85.6104 114.917C85.6104 114.917 87.5253 112.914 102.585 112.062C108.545 111.724 117.19 111.686 122.43 112.105C126.959 112.505 131.445 113.207 135.845 114.207Z" fill="#263238"/>
<path opacity="0.6" d="M140.396 149.201C140.331 150.729 140.241 152.299 140.121 153.909C140.016 155.223 139.901 156.571 139.761 157.949C139.586 159.593 139.386 161.283 139.136 163.017C138.946 164.443 138.729 165.887 138.486 167.348C138.189 169.126 137.856 170.943 137.486 172.801C137.096 174.744 136.666 176.738 136.181 178.793L89.5006 178.694C89.4306 177.359 89.5306 174.953 89.6606 171.713C89.7156 170.429 89.7706 168.983 89.8256 167.433C89.8606 166.308 89.8956 165.109 89.9256 163.864C89.9556 162.477 89.9856 161.018 89.9956 159.49C89.9956 158.306 89.9956 157.082 89.9956 155.818C89.9956 154.358 89.9706 152.852 89.9306 151.306C89.9306 150.159 89.8706 148.995 89.8256 147.81C89.6606 143.594 89.3656 139.13 88.8756 134.512C88.1992 127.935 87.1059 121.394 85.6006 114.918C85.6006 114.918 87.5206 112.915 102.601 112.063C108.561 111.725 117.201 111.682 122.451 112.106C126.979 112.508 131.464 113.211 135.866 114.207C135.866 114.207 141.326 126.281 140.396 149.201Z" fill="#FAFAFA"/>
<path opacity="0.2" d="M94.69 132.679C94.69 132.679 94.275 142.215 89.825 147.818C89.66 143.602 89.365 139.138 88.875 134.52C90.7 133.326 92.685 132.619 94.69 132.679Z" fill="black"/>
<g opacity="0.6">
<path opacity="0.6" d="M140.396 149.2C140.331 150.728 140.241 152.299 140.121 153.908L135.221 158.847L128.181 151.76L121.151 158.86L114.116 151.772L107.081 158.86L100.046 151.772L93.0005 158.86L90.0005 155.817C90.0005 154.358 89.9755 152.851 89.9355 151.306L93.0205 154.413L100.051 147.321L107.086 154.413L114.121 147.321L121.156 154.413L128.186 147.321L135.226 154.413L140.396 149.2Z" fill="#FAFAFA"/>
</g>
<g opacity="0.6">
<path opacity="0.6" d="M139.76 157.962C139.585 159.605 139.385 161.296 139.135 163.029L135.22 166.984L128.18 159.892L121.15 166.984L114.115 159.892L107.08 166.984L100.045 159.892L93.0003 166.984L89.9053 163.864C89.9353 162.477 89.9653 161.018 89.9753 159.49L93.0003 162.533L100.03 155.445L107.065 162.533L114.1 155.445L121.135 162.533L128.165 155.445L135.205 162.533L139.76 157.962Z" fill="#FAFAFA"/>
</g>
<g opacity="0.6">
<path opacity="0.6" d="M138.501 167.348C138.204 169.126 137.871 170.943 137.501 172.801L135.236 175.086L128.196 168.003L121.151 175.099L114.116 168.016L107.081 175.099L100.046 168.016L93.0006 175.099L89.6406 171.714C89.6956 170.43 89.7506 168.983 89.8056 167.434L93.0006 170.656L100.031 163.564L107.066 170.656L114.101 163.564L121.136 170.656L128.166 163.564L135.206 170.656L138.501 167.348Z" fill="#FAFAFA"/>
</g>
<path d="M102 94.4336C103.84 99.7793 106.175 109.649 102.125 113.638C108.46 115.35 113.02 116.506 118.625 120.058C120.095 116.57 121.89 112.046 121.89 112.046C114.64 111.164 114.33 106.649 115.105 102.322L102 94.4336Z" fill="#E4897B"/>
<path opacity="0.2" d="M107.32 97.6562L115.075 102.326C114.874 103.332 114.78 104.352 114.795 105.373C112.05 105.258 108.05 103.011 107.495 100.605C107.228 99.6394 107.169 98.6402 107.32 97.6562Z" fill="black"/>
<path d="M96.6748 112.47L101.15 108.87L113.14 112.393L118.38 119.288L120.335 112.298L123.045 110.205L127.79 112.692L127.055 117.122L123.625 115.684L119.48 121.492L110.215 116.835L107.63 118.958L96.6748 112.47Z" fill="#4BC7C1"/>
<path opacity="0.2" d="M119.48 121.491L121.9 114.232L127.055 117.121L123.625 115.683L119.48 121.491Z" fill="black"/>
<path opacity="0.2" d="M119.48 121.492L111.315 114.644L107.63 118.958L110.215 116.835L119.48 121.492Z" fill="black"/>
<path d="M99.7303 126.474C102.73 129.568 106.83 133.865 109.87 136.818C113.495 140.268 117.1 143.932 121.485 146.577C121.655 146.667 121.46 146.577 121.375 146.577C121.329 146.562 121.28 146.553 121.23 146.551C121.19 146.551 121.23 146.551 121.23 146.573C123.2 146.945 125.415 146.551 127.52 146.307C133.935 145.383 140.245 143.829 146.67 142.412L149.195 147.364C146.76 148.648 144.335 149.74 141.815 150.788C135.5 153.322 124 157.897 117.03 155.655C114.455 154.631 112.055 153.312 109.895 151.734C106.575 149.369 103.435 146.825 100.495 144.116C97.6103 141.492 94.8803 138.809 92.2503 136.009C91.3653 135.076 90.5353 134.161 89.6553 133.159L99.7303 126.474Z" fill="#DC897C"/>
<path d="M81.4703 119.865C76.3553 133.741 99.3353 147.325 99.3353 147.325L111.615 135.376C111.615 135.376 106.205 126.816 100.075 119.206C93.6603 111.245 84.1653 112.563 81.4703 119.865Z" fill="#4BC7C1"/>
<path d="M145.665 143.054L154.305 135.376L160.835 142.832C160.835 142.832 155.68 148.944 148.665 147.351L145.665 143.054Z" fill="#E4897B"/>
<path d="M162.731 133.022L166.046 139.579L160.836 142.832L154.306 135.376L162.731 133.022Z" fill="#E4897B"/>
<path d="M118.675 74.5788C123.12 76.0725 126.175 86.4472 120.77 88.9468C115.365 91.4463 110.25 71.754 118.675 74.5788Z" fill="#263238"/>
<path d="M99.5002 86.7898C101.8 94.0658 102.72 98.3843 108 101.513C115.92 106.221 125.75 101.299 126.035 93.6763C126.295 86.8283 122.485 76.0898 113.335 74.4163C104.325 72.76 97.2102 79.5309 99.5002 86.7898Z" fill="#E4897B"/>
<path d="M107.09 77.4336L106.15 71.0479C104.311 71.905 102.203 72.2435 100.125 72.0151C91.1254 70.6926 84.7004 75.9099 89.1254 79.9503C85.0554 81.7179 87.7154 86.5029 90.7354 89.4818C94.9304 93.6291 99.2354 95.4738 101.935 93.3338C104.435 92.1311 104.295 84.5299 103.25 81.7778C101.67 77.6091 107.09 77.4336 107.09 77.4336Z" fill="#263238"/>
<path d="M98.0005 94.536C99.4724 95.91 101.455 96.8053 103.611 97.0697C106.336 97.3479 106.816 95.1737 105.321 93.1621C103.971 91.3517 100.926 89.0276 98.5455 89.6782C96.1655 90.3287 96.1355 92.8111 98.0005 94.536Z" fill="#E4897B"/>
<path d="M112.525 86.9262C112.67 87.5211 113.16 87.9534 113.62 87.8849C114.08 87.8164 114.335 87.2771 114.19 86.6822C114.045 86.0873 113.555 85.655 113.095 85.7192C112.635 85.7834 112.385 86.327 112.525 86.9262Z" fill="#263238"/>
<path d="M120.465 85.7626C120.61 86.3618 121.095 86.7898 121.555 86.7213C122.015 86.6528 122.27 86.1178 122.125 85.5186C121.98 84.9194 121.49 84.4914 121.035 84.5599C120.58 84.6284 120.32 85.172 120.465 85.7626Z" fill="#263238"/>
<path d="M118.575 86.4297C118.575 86.4297 121.005 89.6397 123.165 91.0478C122.165 92.2162 119.94 92.075 119.94 92.075L118.575 86.4297Z" fill="#DE5753"/>
<path d="M115.07 83.7938C115.137 83.816 115.195 83.8529 115.24 83.9008C115.274 83.9382 115.299 83.9809 115.313 84.0265C115.328 84.0721 115.332 84.1197 115.325 84.1667C115.318 84.2136 115.3 84.2589 115.273 84.2999C115.245 84.3409 115.209 84.3769 115.165 84.4059C114.655 84.7624 114.05 85.0056 113.403 85.1139C112.757 85.2221 112.089 85.1921 111.46 85.0265C111.408 85.0112 111.36 84.9871 111.319 84.9555C111.278 84.924 111.245 84.8857 111.221 84.843C111.198 84.8002 111.185 84.7539 111.183 84.7067C111.181 84.6596 111.19 84.6125 111.21 84.5685C111.248 84.4797 111.326 84.4075 111.426 84.3674C111.526 84.3274 111.641 84.3227 111.745 84.3545C112.241 84.4782 112.766 84.496 113.272 84.4065C113.778 84.317 114.251 84.1228 114.65 83.8409C114.708 83.8006 114.778 83.7749 114.852 83.7666C114.926 83.7583 115.002 83.7677 115.07 83.7938Z" fill="#263238"/>
<path d="M122.755 82.505C122.689 82.5202 122.62 82.5212 122.553 82.5077C122.487 82.4943 122.426 82.4669 122.375 82.428C121.983 82.1155 121.514 81.8833 121.002 81.7491C120.49 81.6149 119.949 81.5821 119.42 81.6533C119.365 81.6706 119.306 81.6778 119.247 81.6744C119.188 81.671 119.131 81.6571 119.079 81.6336C119.027 81.6101 118.982 81.5775 118.945 81.5379C118.909 81.4984 118.883 81.4527 118.868 81.4039C118.854 81.3551 118.852 81.3043 118.862 81.2547C118.872 81.2051 118.894 81.1578 118.926 81.116C118.959 81.0741 119.001 81.0386 119.051 81.0117C119.101 80.9848 119.157 80.9672 119.215 80.9599C119.875 80.8581 120.553 80.8894 121.196 81.0514C121.839 81.2133 122.43 81.5015 122.92 81.893C123.003 81.9556 123.054 82.0439 123.061 82.1385C123.069 82.233 123.032 82.3263 122.96 82.398C122.904 82.4493 122.833 82.4863 122.755 82.505Z" fill="#263238"/>
<path d="M99.6504 72.8495C99.6504 72.8495 105.86 62.5775 117.42 64.679C117.42 64.679 115.21 65.107 114.27 65.8217C114.27 65.8217 124.36 65.0685 127.505 71.1375L125.575 70.1659C125.575 70.1659 128.145 75.1949 125.135 78.5077L124.57 76.8427C124.57 76.8427 120.44 81.2298 114.275 79.9843L116.405 79.0598C116.405 79.0598 105.785 78.7816 103.155 76.4618C100.525 74.1421 99.6504 72.8495 99.6504 72.8495Z" fill="#263238"/>
<path d="M121.001 95.2125C120.954 95.2125 120.908 95.2046 120.865 95.1891C120.822 95.1737 120.783 95.1511 120.751 95.1226C119.186 93.6717 116.441 94.2281 116.416 94.2324C116.333 94.2417 116.249 94.2247 116.18 94.1846C116.111 94.1445 116.062 94.0842 116.042 94.0149C116.021 93.9457 116.031 93.8725 116.07 93.8092C116.108 93.746 116.173 93.697 116.251 93.6717C116.381 93.646 119.406 93.0297 121.251 94.7289C121.313 94.7832 121.347 94.8562 121.347 94.9322C121.347 95.0081 121.313 95.0811 121.251 95.1355C121.217 95.1618 121.178 95.1822 121.135 95.1954C121.092 95.2086 121.046 95.2144 121.001 95.2125Z" fill="#263238"/>
</g>
<defs>
<clipPath id="clip0_44_840">
<rect width="170" height="156" fill="white"/>
</clipPath>
</defs>
</svg>
